<?xml version="1.0" encoding="UTF-8" standalone="no"?>
<svg
   viewBox="0 0 22.000082 22"
   width="22.000082"
   height="22"
   version="1.1"
   id="svg5"
   sodipodi:docname="audio-volume-medium.svg"
   inkscape:version="1.4.2 (unknown)"
   xmlns:inkscape="http://www.inkscape.org/namespaces/inkscape"
   xmlns:sodipodi="http://sodipodi.sourceforge.net/DTD/sodipodi-0.dtd"
   xmlns="http://www.w3.org/2000/svg"
   xmlns:svg="http://www.w3.org/2000/svg">
  <defs
     id="defs5" />
  <sodipodi:namedview
     id="namedview5"
     pagecolor="#ffffff"
     bordercolor="#999999"
     borderopacity="1"
     inkscape:showpageshadow="2"
     inkscape:pageopacity="0"
     inkscape:pagecheckerboard="0"
     inkscape:deskcolor="#d1d1d1"
     inkscape:zoom="7.9375"
     inkscape:cx="10.708661"
     inkscape:cy="10.771654"
     inkscape:window-width="1920"
     inkscape:window-height="996"
     inkscape:window-x="0"
     inkscape:window-y="0"
     inkscape:window-maximized="1"
     inkscape:current-layer="svg5"
     showguides="true" />
  <style
     id="current-color-scheme"
     type="text/css">.ColorScheme-Text { color: #fcfcfc; } </style>
  <g
     id="22-22-audio-volume-medium-5">
    <path
       d="m 20.721648,10.975845 0.04555,0.01949 -0.04504,-0.03837 0.03165,0.02993 -0.01779,-0.01438 -0.04985,0.02691 0.07381,0.0035 -0.01712,-0.02729 -0.0123,0.01417 -0.0058,0.0066 0.0058,0.0079 -0.04417,-0.0026 0.03729,-0.05024 0.04798,0.04849 z m 0.03262,0.02902 0.05546,-0.04184 -0.0058,-0.04247 -0.05615,-0.0056 z m -4.800758,4.661096 c -0.126915,0.145834 -0.313431,0.240251 -0.52555,0.240251 -0.380101,0 -0.689181,-0.298834 -0.689181,-0.666667 0,-0.181625 0.07542,-0.345708 0.197294,-0.4655 l -0.0028,-0.0026 c 0.997916,-0.9655 1.615083,-2.298875 1.615083,-3.771999 0,-1.462917 -0.610058,-2.786792 -1.596555,-3.751 -0.136699,-0.122084 -0.223882,-0.294583 -0.223882,-0.488625 0,-0.3675 0.309079,-0.666333 0.68918,-0.666333 0.190916,0 0.362263,0.07487 0.487502,0.195625 l 0.0034,-0.0033 c 1.247352,1.206367 2.019366,2.872742 2.019366,4.713575 0,1.817541 -0.754859,3.463416 -1.974284,4.66654 z m -5.610497,3.334042 c -0.146441,0 -0.289559,-0.01563 -0.427933,-0.04363 -0.5622666,-0.08462 -1.1019513,-0.328124 -1.5356215,-0.747416 l -1.3675844,-1.32229 0.00552,-0.0052 c -0.121522,-0.1198 -0.1969423,-0.283842 -0.1969423,-0.464841 0,-0.368501 0.3080455,-0.666667 0.689181,-0.666667 0.1872062,0 0.3568777,0.07292 0.4811233,0.190749 l 0.00345,-0.0033 1.3736658,1.328833 c 0.2168144,0.209625 0.4885293,0.327458 0.7689931,0.366541 0.06564,0.02019 0.13332,0.03385 0.206023,0.03385 0.381135,0 0.689181,-0.298833 0.689181,-0.666666 V 4.999674 c 0,-0.3685 -0.308046,-0.666375 -0.689181,-0.666375 -0.07102,0 -0.137691,0.01367 -0.202334,0.03254 C 9.8580622,4.403589 9.5853552,4.523048 9.3678581,4.73334 L 5.6451504,8.332714 H 2.758102 c -0.7619257,0 -1.379051,0.597666 -1.379051,1.333334 v 2.666541 c 0,0.736999 0.6171253,1.334041 1.379051,1.334041 h 0.6891807 c 0.3811352,0 0.690215,0.298166 0.690215,0.666667 0,0.367833 -0.3090798,0.666667 -0.690215,0.666667 H 2.758102 C 1.234292,14.999964 0,13.805964 0,12.332589 V 9.666048 C 0,8.193714 1.234292,6.999381 2.758102,6.999381 H 5.0600001 L 8.3793278,3.790673 C 8.8129566,3.372714 9.3526827,3.127923 9.914949,3.04359 10.053323,3.0153 10.196441,3 10.342883,3 c 1.142026,0 2.068231,0.8955 2.068231,1.999708 v 12.00029 c 0,1.104167 -0.926205,2 -2.068231,2 z M 5.8610974,13.999295 c 0.3811352,0 0.6891807,0.298833 0.6891807,0.667334 0,0.3685 -0.3080455,0.665999 -0.6891807,0.665999 -0.3807905,0 -0.6898703,-0.297541 -0.6898703,-0.665999 0,-0.368459 0.3090798,-0.667334 0.6898703,-0.667334 z"
       id="path2-3-3-62"
       style="fill:#eff0f1;fill-opacity:1;stroke-width:0.0423749"
       sodipodi:nodetypes="cccccccccccccccccccccssccscssccscccccccssccccsssscccssssssssssscccsssccsssss" />
    <path
       d="m 18.768427,18.542667 -0.0044,-0.0045 c -0.12524,0.125 -0.298662,0.201832 -0.492253,0.201832 -0.380805,0 -0.688861,-0.298834 -0.688861,-0.666667 0,-0.197917 0.09059,-0.373041 0.230654,-0.494791 1.734625,-1.686925 2.80735,-4.011174 2.80735,-6.578757 0,-1.456083 -0.354558,-2.828125 -0.96968,-4.05604 l 0.0078,-0.0033 c -0.03906,-0.08429 -0.06197,-0.176125 -0.06197,-0.274084 0,-0.368167 0.30909,-0.666 0.689894,-0.666 0.279786,0 0.518499,0.161125 0.626931,0.39225 l 0.0054,-0.0026 c 0.692572,1.395199 1.08079,2.958699 1.08079,4.609741 0,2.945874 -1.23533,5.61254 -3.231579,7.542915 z M 18.552598,5.000044 c -0.381149,0 -0.689896,-0.298833 -0.689896,-0.666375 0,-0.368166 0.308747,-0.666999 0.689896,-0.666999 0.380115,0 0.689206,0.298833 0.689206,0.666999 0,0.367542 -0.309091,0.666375 -0.689206,0.666375 z m -0.676639,5.189549 c 0.0125,-0.0061 0.0021,0.0021 0.0021,0.0021 l 0.01298,-0.0021 -0.0046,-0.01111 -0.01298,0.01524 8.28e-4,-0.0053 0.03117,0.02689 -0.02513,-0.02022 c 0,0 0.0021,0.0037 -0.0065,0.0063 l 0.02788,-0.0085 0.0037,0.0087 -0.03243,-0.01313 0.01538,-0.0048 z m 0.06141,0.01244 -0.07659,0.02431 0.01032,-0.03404 0.0071,-0.07912 0.0054,0.04284 0.0018,0.06361 -0.01438,0.01539 0.03281,-0.03497 0.0037,-0.03724 -0.03174,0.07193 0.06629,-0.0411 -0.03993,-1.17e-4 0.02162,-0.02123 v 0.05915 c 0,3e-6 -0.142969,-0.03677 -0.142969,-0.03677 l 0.0958,0.03254 -0.02737,-0.06487 0.0039,0.04429 -0.104492,-0.04804 0.210988,-0.05986 v 0.120356 l 0.03746,-0.05915 h -0.105862 l -0.0054,0.04213 -0.04427,-0.0059 h 0.0065 l 0.07414,0.02293 v -0.07232 l -0.123834,0.07168 0.06592,-0.04804 -0.05949,0.01005 0.09465,-0.02647 -0.118641,0.0045 0.116615,0.03902 v 0.04275 z m 0.08201,-0.04571 -0.05615,-0.05329 0.0065,0.0895 -0.09361,-0.04146 z"
       id="path2-3-5-9"
       style="fill:#eff0f1;fill-opacity:0.5;stroke-width:0.0423758"
       sodipodi:nodetypes="ccsscsccssccscssssscccccccccccccccccccccccccccccccsccccccccccccccccccccccc" />
  </g>
</svg>
