<?xml version="1.0" encoding="UTF-8" standalone="no"?>
<svg
   viewBox="0 0 22 22"
   width="22"
   height="22"
   version="1.1"
   id="svg5"
   sodipodi:docname="audio-on.svg"
   inkscape:version="1.4.2 (unknown)"
   xmlns:inkscape="http://www.inkscape.org/namespaces/inkscape"
   xmlns:sodipodi="http://sodipodi.sourceforge.net/DTD/sodipodi-0.dtd"
   xmlns:xlink="http://www.w3.org/1999/xlink"
   xmlns="http://www.w3.org/2000/svg"
   xmlns:svg="http://www.w3.org/2000/svg">
  <defs
     id="defs5">
    <linearGradient
       id="linearGradient1"
       inkscape:collect="always">
      <stop
         style="stop-color:#eff0f1;stop-opacity:1;"
         offset="0"
         id="stop1" />
      <stop
         style="stop-color:#eff0f1;stop-opacity:1"
         offset="0.66714436"
         id="stop3" />
      <stop
         style="stop-color:#00d455;stop-opacity:1"
         offset="0.67000771"
         id="stop4" />
      <stop
         style="stop-color:#00d455;stop-opacity:1"
         offset="1"
         id="stop2" />
    </linearGradient>
    <linearGradient
       inkscape:collect="always"
       xlink:href="#linearGradient1"
       id="linearGradient2"
       x1="0"
       y1="11"
       x2="21.999983"
       y2="11"
       gradientUnits="userSpaceOnUse" />
  </defs>
  <sodipodi:namedview
     id="namedview5"
     pagecolor="#ffffff"
     bordercolor="#999999"
     borderopacity="1"
     inkscape:showpageshadow="2"
     inkscape:pageopacity="0"
     inkscape:pagecheckerboard="0"
     inkscape:deskcolor="#d1d1d1"
     inkscape:zoom="15.875"
     inkscape:cx="10.677165"
     inkscape:cy="10.614173"
     inkscape:window-width="1920"
     inkscape:window-height="996"
     inkscape:window-x="0"
     inkscape:window-y="0"
     inkscape:window-maximized="1"
     inkscape:current-layer="svg5" />
  <style
     id="current-color-scheme"
     type="text/css">.ColorScheme-Text { color: #fcfcfc; } </style>
  <g
     id="22-22-audio-volume-high-3">
    <path
       d="m 18.778262,18.542333 -0.0043,-0.0045 c -0.124867,0.125 -0.297778,0.201833 -0.490795,0.201833 -0.379677,0 -0.686822,-0.298834 -0.686822,-0.666667 0,-0.197917 0.09032,-0.373042 0.229971,-0.494792 1.729492,-1.686925 2.799041,-4.011175 2.799041,-6.578759 0,-1.456084 -0.353508,-2.828126 -0.966811,-4.056042 l 0.0075,-0.0033 c -0.03895,-0.08429 -0.06178,-0.176125 -0.06178,-0.274084 0,-0.368167 0.308174,-0.666 0.68785,-0.666 0.278958,0 0.516964,0.161125 0.625077,0.39225 l 0.0052,-0.0026 c 0.690522,1.3952 1.07759,2.958701 1.07759,4.609743 0,2.945875 -1.231676,5.612543 -3.222012,7.542918 z M 18.563073,4.999705 c -0.380021,0 -0.687854,-0.298833 -0.687854,-0.666375 0,-0.368166 0.307833,-0.667 0.687854,-0.667 0.378988,0 0.687164,0.298834 0.687164,0.667 0,0.367542 -0.308176,0.666375 -0.687164,0.666375 z m -2.656366,10.666252 c -0.126545,0.145834 -0.312516,0.240251 -0.524011,0.240251 -0.37899,0 -0.687166,-0.298834 -0.687166,-0.666667 0,-0.181625 0.0752,-0.345709 0.196714,-0.465501 l -0.0027,-0.0026 c 0.994998,-0.9655 1.610362,-2.298875 1.610362,-3.772 0,-1.462917 -0.608274,-2.786792 -1.591885,-3.751001 -0.136299,-0.122083 -0.223226,-0.294583 -0.223226,-0.488625 0,-0.3675 0.308177,-0.666333 0.687166,-0.666333 0.190354,0 0.3612,0.07487 0.486069,0.195624 l 0.0037,-0.0033 c 1.243704,1.206367 2.013456,2.872742 2.013456,4.713576 0,1.817542 -0.75265,3.463417 -1.96851,4.666542 z M 10.312616,19 C 10.166606,19 10.023905,18.98437 9.88593,18.95637 9.325309,18.87175 8.787204,18.628246 8.354803,18.208954 l -1.363589,-1.322291 0.0054,-0.0052 c -0.121165,-0.1198 -0.196361,-0.283842 -0.196361,-0.464841 0,-0.368501 0.307145,-0.666667 0.687166,-0.666667 0.186658,0 0.355828,0.07292 0.479709,0.190749 l 0.0037,-0.0033 1.369647,1.328833 c 0.21618,0.209625 0.487101,0.327458 0.766745,0.366542 0.06542,0.02019 0.13293,0.03385 0.20542,0.03385 0.380021,0 0.687165,-0.298833 0.687165,-0.666667 V 4.999705 c 0,-0.3685 -0.307144,-0.666375 -0.687165,-0.666375 -0.07081,0 -0.137287,0.01367 -0.201741,0.03254 C 9.829235,4.40362 9.557325,4.523079 9.340459,4.733371 L 5.628639,8.332706 H 2.750037 c -0.759698,0 -1.375019,0.597667 -1.375019,1.333334 v 2.666542 c 0,0.737 0.615321,1.334042 1.375019,1.334042 h 0.687166 c 0.380021,0 0.688196,0.298166 0.688196,0.666667 0,0.367833 -0.308175,0.666667 -0.688196,0.666667 H 2.750037 C 1.230685,14.999958 0,13.805958 0,12.332582 V 9.66604 C 0,8.193706 1.230685,6.999373 2.750037,6.999373 H 5.045201 L 8.354829,3.790663 C 8.787186,3.372705 9.325334,3.127913 9.885955,3.04358 10.02393,3.01529 10.16663,3 10.31264,3 c 1.138687,0 2.062185,0.8955 2.062185,1.999708 V 17 c 0,1.104166 -0.923498,2 -2.062184,2 z M 5.843805,13.99929 c 0.38002,0 0.687165,0.298834 0.687165,0.667334 0,0.368501 -0.307145,0.666 -0.687165,0.666 -0.379677,0 -0.687853,-0.297541 -0.687853,-0.666 0,-0.368458 0.308176,-0.667334 0.687853,-0.667334 z"
       id="path2-3-9"
       style="fill:url(#linearGradient2);fill-opacity:1;stroke-width:0.042313" />
  </g>
</svg>
