<?xml version="1.0" encoding="UTF-8" standalone="no"?>
<svg
   viewBox="0 0 22.000059 22"
   width="22.000059"
   height="22"
   version="1.1"
   id="svg4"
   sodipodi:docname="audio-volume-low.svg"
   inkscape:version="1.4.2 (unknown)"
   xmlns:inkscape="http://www.inkscape.org/namespaces/inkscape"
   xmlns:sodipodi="http://sodipodi.sourceforge.net/DTD/sodipodi-0.dtd"
   xmlns:xlink="http://www.w3.org/1999/xlink"
   xmlns="http://www.w3.org/2000/svg"
   xmlns:svg="http://www.w3.org/2000/svg">
  <defs
     id="defs4">
    <linearGradient
       inkscape:collect="always"
       xlink:href="#linearGradient1752"
       id="linearGradient1754-6"
       x1="-93.458588"
       y1="49.081898"
       x2="-62.190884"
       y2="48.703945"
       gradientUnits="userSpaceOnUse"
       gradientTransform="matrix(0.68749136,0,0,0.66666653,128.00001,-43.799956)" />
    <linearGradient
       inkscape:collect="always"
       id="linearGradient1752">
      <stop
         style="stop-color:#eff0f1;stop-opacity:1;"
         offset="0"
         id="stop1748" />
      <stop
         style="stop-color:#eff0f1;stop-opacity:1"
         offset="0.55303192"
         id="stop1790" />
      <stop
         style="stop-color:#eff0f1;stop-opacity:0.506"
         offset="0.69267672"
         id="stop1856" />
      <stop
         style="stop-color:#eff0f1;stop-opacity:0.506"
         offset="1"
         id="stop1750" />
    </linearGradient>
  </defs>
  <sodipodi:namedview
     id="namedview4"
     pagecolor="#ffffff"
     bordercolor="#999999"
     borderopacity="1"
     inkscape:showpageshadow="2"
     inkscape:pageopacity="0"
     inkscape:pagecheckerboard="0"
     inkscape:deskcolor="#d1d1d1"
     inkscape:zoom="3.9687499"
     inkscape:cx="47.244096"
     inkscape:cy="28.850394"
     inkscape:window-width="1920"
     inkscape:window-height="996"
     inkscape:window-x="0"
     inkscape:window-y="0"
     inkscape:window-maximized="1"
     inkscape:current-layer="svg4" />
  <style
     id="current-color-scheme"
     type="text/css">.ColorScheme-Text { color: #fcfcfc; } </style>
  <g
     id="22-22-audio-volume-low-6"
     transform="translate(-63.999942,22)">
    <path
       d="m 82.777994,-3.457624 -0.004,-0.0045 c -0.124869,0.125 -0.297772,0.201833 -0.490786,0.201833 -0.379666,0 -0.686805,-0.298834 -0.686805,-0.666667 0,-0.197916 0.09032,-0.373041 0.229974,-0.494791 1.729438,-1.686924 2.798963,-4.011174 2.798963,-6.578757 0,-1.456083 -0.353502,-2.828124 -0.966784,-4.05604 l 0.0075,-0.0033 c -0.03893,-0.08429 -0.0618,-0.176125 -0.0618,-0.274084 0,-0.368166 0.308168,-0.666 0.687834,-0.666 0.278952,0 0.516953,0.161126 0.625061,0.39225 l 0.0053,-0.0026 c 0.690493,1.3952 1.077551,2.9587 1.077551,4.609741 0,2.945874 -1.231644,5.61254 -3.221929,7.542915 z m -0.215185,-13.542622 c -0.38001,0 -0.687835,-0.298833 -0.687835,-0.666375 0,-0.368166 0.307825,-0.666999 0.687835,-0.666999 0.37898,0 0.687147,0.298833 0.687147,0.666999 0,0.367542 -0.308167,0.666375 -0.687147,0.666375 z m -2.656294,10.666248 c -0.12654,0.145833 -0.312506,0.24025 -0.524,0.24025 -0.378979,0 -0.687147,-0.298834 -0.687147,-0.666666 0,-0.181626 0.07518,-0.345709 0.196712,-0.465501 l -0.0027,-0.0026 c 0.994971,-0.9655 1.610315,-2.298874 1.610315,-3.771998 0,-1.462917 -0.608256,-2.786792 -1.591843,-3.751 -0.136296,-0.122084 -0.22322,-0.294583 -0.22322,-0.488625 0,-0.3675 0.308165,-0.666333 0.687145,-0.666333 0.190353,0 0.361196,0.07488 0.486064,0.195625 l 0.0033,-0.0033 c 1.243671,1.206367 2.013407,2.872741 2.013407,4.713574 0,1.817541 -0.752631,3.463416 -1.96846,4.666541 z m -5.593944,3.334041 c -0.14601,0 -0.288706,-0.01563 -0.426672,-0.04363 -0.560607,-0.08462 -1.0987,-0.328124 -1.531091,-0.747416 l -1.36355,-1.32229 0.0054,-0.0052 c -0.121163,-0.1198 -0.196361,-0.283842 -0.196361,-0.464841 0,-0.368501 0.307137,-0.666667 0.687148,-0.666667 0.186654,0 0.355825,0.07292 0.479703,0.19075 l 0.0034,-0.0033 1.369613,1.328833 c 0.216175,0.209625 0.487088,0.327458 0.766727,0.366541 0.06546,0.02019 0.132926,0.03385 0.205417,0.03385 0.38001,0 0.687147,-0.298834 0.687147,-0.666667 v -12.000292 c 0,-0.3685 -0.307137,-0.666375 -0.687147,-0.666375 -0.0708,0 -0.137286,0.01367 -0.201738,0.03254 -0.281653,0.03775 -0.553556,0.157209 -0.77041,0.367501 l -3.711724,3.599334 h -2.878526 c -0.759678,0 -1.374983,0.597666 -1.374983,1.333333 v 2.666541 c 0,0.737 0.615305,1.334041 1.374983,1.334041 h 0.687147 c 0.380011,0 0.688179,0.298166 0.688179,0.666667 0,0.367833 -0.308168,0.666667 -0.688179,0.666667 h -0.687147 c -1.519314,0 -2.749965,-1.194 -2.749965,-2.667375 v -2.666541 c 0,-1.472334 1.230651,-2.666666 2.749965,-2.666666 h 2.295107 l 3.309535,-3.208708 c 0.432349,-0.417959 0.970482,-0.66275 1.531091,-0.747083 C 74.023665,-18.9847 74.166361,-19 74.312371,-19 c 1.138657,0 2.06213,0.8955 2.06213,1.999708 v 12.000289 c 0,1.104167 -0.923473,2 -2.06213,2 z m -4.468695,-5.000708 c 0.380011,0 0.687149,0.298834 0.687149,0.667334 0,0.3685 -0.307138,0.665999 -0.687149,0.665999 -0.379665,0 -0.687834,-0.297541 -0.687834,-0.665999 0,-0.368458 0.308169,-0.667334 0.687834,-0.667334 z"
       id="path2-3-3-6-6"
       style="fill:url(#linearGradient1754-6);fill-opacity:1;stroke-width:0.0423126" />
  </g>
</svg>
