<?xml version="1.0" encoding="UTF-8" standalone="no"?>
<svg
   height="32"
   width="32"
   inkscape:version="1.2.2 (b0a8486541, 2022-12-01)"
   sodipodi:docname="login.svg"
   id="svg6"
   version="1.1"
   viewBox="0 0 32 32"
   xmlns:inkscape="http://www.inkscape.org/namespaces/inkscape"
   xmlns:sodipodi="http://sodipodi.sourceforge.net/DTD/sodipodi-0.dtd"
   xmlns:xlink="http://www.w3.org/1999/xlink"
   xmlns="http://www.w3.org/2000/svg"
   xmlns:svg="http://www.w3.org/2000/svg"
   xmlns:rdf="http://www.w3.org/1999/02/22-rdf-syntax-ns#"
   xmlns:cc="http://creativecommons.org/ns#"
   xmlns:dc="http://purl.org/dc/elements/1.1/">
  <metadata
     id="metadata10">
    <rdf:RDF>
      <cc:Work
         rdf:about="">
        <dc:format>image/svg+xml</dc:format>
        <dc:type
           rdf:resource="http://purl.org/dc/dcmitype/StillImage" />
      </cc:Work>
    </rdf:RDF>
  </metadata>
  <sodipodi:namedview
     inkscape:document-rotation="0"
     inkscape:lockguides="false"
     inkscape:current-layer="svg6"
     inkscape:window-maximized="1"
     inkscape:window-y="0"
     inkscape:window-x="0"
     inkscape:cy="24.527765"
     inkscape:cx="-10.827572"
     inkscape:zoom="11.313709"
     showgrid="true"
     id="namedview8"
     inkscape:window-height="998"
     inkscape:window-width="1920"
     inkscape:pageshadow="2"
     inkscape:pageopacity="0"
     guidetolerance="10"
     gridtolerance="10"
     objecttolerance="10"
     borderopacity="1"
     bordercolor="#ff0202"
     pagecolor="#000000"
     inkscape:pagecheckerboard="true"
     inkscape:showpageshadow="false"
     inkscape:deskcolor="#000000">
    <inkscape:grid
       type="xygrid"
       id="grid191" />
  </sodipodi:namedview>
  <defs
     id="defs3051">
    <style
       id="current-color-scheme"
       type="text/css">
      .ColorScheme-Text {
        color:#eff0f1;
      }
      </style>
    <linearGradient
       inkscape:collect="always"
       xlink:href="#linearGradient1149"
       id="linearGradient2927"
       x1="3.4442399"
       y1="29.553753"
       x2="28.868366"
       y2="2.8702216"
       gradientUnits="userSpaceOnUse"
       gradientTransform="matrix(0.46153851,0,0,0.46154815,8.6651991,8.9150536)" />
    <linearGradient
       inkscape:collect="always"
       id="linearGradient1149">
      <stop
         style="stop-color:#a36ff6;stop-opacity:1;"
         offset="0"
         id="stop1145" />
      <stop
         style="stop-color:#20c997;stop-opacity:1"
         offset="1"
         id="stop1147" />
    </linearGradient>
    <linearGradient
       inkscape:collect="always"
       xlink:href="#linearGradient1149"
       id="linearGradient1573"
       x1="3.5999999"
       y1="28.1"
       x2="28.6"
       y2="3.0999999"
       gradientUnits="userSpaceOnUse"
       gradientTransform="translate(-1.4009769e-4,0.09999999)" />
    <linearGradient
       inkscape:collect="always"
       xlink:href="#linearGradient1149"
       id="linearGradient852"
       gradientUnits="userSpaceOnUse"
       gradientTransform="matrix(0.43077016,0,0,0.43077915,9.1075111,9.3073396)"
       x1="2.8641403"
       y1="29.10121"
       x2="28.922863"
       y2="3.4533947" />
    <linearGradient
       inkscape:collect="always"
       xlink:href="#linearGradient1149"
       id="linearGradient1353"
       gradientUnits="userSpaceOnUse"
       gradientTransform="matrix(0.41270648,0,0,0.40591584,9.2925791,9.81058)"
       x1="2.8641403"
       y1="29.10121"
       x2="28.922863"
       y2="3.4533947" />
  </defs>
  <g
     id="g280">
    <path
       style="color:#000000;overflow:visible;opacity:0;fill:none;fill-opacity:1;stroke-width:1.06667"
       id="path951"
       overflow="visible"
       d="M 16,0 C 7.17237,0 0,7.1723733 0,16 0,24.827627 7.17237,32 16,32 24.82763,32 32,24.827627 32,16 32,7.1723733 24.82763,0 16,0 Z"
       inkscape:connector-curvature="0" />
    <path
       d="m 21.618603,17.360203 -4.507679,4.506075 c -0.313858,0.313738 -0.731697,0.45374 -1.14239,0.431423 h 0.08166 c -0.828372,0 -1.588803,-0.573855 -1.690959,-1.343225 l -0.07467,-0.562363 c -0.02725,-0.205226 0.433536,-0.343621 0.640626,-0.343621 0.207097,0 0.375001,0.167845 0.375001,0.374871 v 0.374863 c 0,0.414035 0.335814,0.749721 0.750003,0.749721 0,0 0.001,0.0026 0.0025,0.0077 0.190967,-9.6e-4 0.381586,-0.07359 0.527345,-0.219268 l 4.507942,-4.506274 c 0.292963,-0.292664 0.292963,-0.767476 0,-1.06015 l -4.507826,-4.506286 c -0.145755,-0.14569 -0.336538,-0.218744 -0.527718,-0.219286 -9.99e-4,0.0044 -0.0025,0.0077 -0.0025,0.0077 -0.414184,0 -0.750003,0.335705 -0.750003,0.749734 v 0.749736 c 0,0.828065 -0.671621,1.499448 -1.5,1.499448 h -2.2501 c -0.41419,0 -0.749999,0.335701 -0.749999,0.749729 v 2.998916 c 0,0.414035 0.335809,0.749711 0.749999,0.749711 h 0.375 c 0.207092,0 0.375,0.167864 0.375,0.374871 0,0.207026 -0.167908,0.374863 -0.375,0.374863 H 11.549858 C 10.721485,19.298983 10.04986,18.62758 10.04986,17.799517 v -2.998919 c 0,-0.82806 0.671625,-1.499467 1.499998,-1.499467 h 2.250004 c 0.414183,0 0.75,-0.335673 0.75,-0.749706 v -0.749653 c 0,-0.828088 0.671628,-1.499475 1.499999,-1.499475 h -0.08152 c 0.410693,-0.02233 0.828376,0.117874 1.142204,0.431429 l 4.507711,4.506071 c 0.292871,0.292856 0.43158,0.676579 0.43158,1.06033 0,0.383751 -0.138709,0.767477 -0.43158,1.060337 z m -7.443422,1.18885 c 0.207097,0 0.375,0.167866 0.375,0.374869 0,0.207028 -0.167903,0.374859 -0.375,0.374859 -0.207088,0 -0.374999,-0.167831 -0.374999,-0.374859 0,-0.207003 0.167911,-0.374869 0.374999,-0.374869 z"
       id="path2"
       style="fill:url(#linearGradient2927);fill-opacity:1;stroke-width:0.0234371"
       sodipodi:nodetypes="ccccsssssccccccccsssssssssscssssssccccsccsssss" />
    <path
       d="m 26.041229,12.776967 c 0.0119,0 0.0222,-0.0068 0.0345,-0.0079 1.64045,0.162247 2.924661,1.546448 2.924661,3.230919 0,1.687874 -1.285791,3.074868 -2.932632,3.234321 -0.002,0.0079 -0.007,0.01427 -0.0103,0.02224 -0.0119,-8.13e-4 -0.0214,-0.0072 -0.0345,-0.0072 -0.414069,0 -0.87547,0.07379 -1.046859,0.487908 -0.17139,0.414986 0.0714,0.776804 0.388779,1.093375 0.0111,0.01112 0.0258,0.01584 0.0377,0.02539 1.03777,1.275884 0.979019,3.146875 -0.21028,4.336278 -1.18819,1.18854 -3.06075,1.248869 -4.33704,0.211861 -0.019,0.01031 -0.0397,0.01427 -0.0587,0.023 -0.008,-0.01031 -0.0119,-0.02224 -0.0214,-0.03255 -0.293979,-0.292806 -0.67047,-0.567331 -1.085059,-0.394369 -0.41528,0.171387 -0.497811,0.598256 -0.497811,1.047317 0,0.04047 0.0111,0.07698 0.0242,0.113445 -0.2043,1.599661 -1.56073,2.839033 -3.2163,2.839033 -1.68528,0 -3.07024,-1.283044 -3.23412,-2.925468 -0.0179,-0.0063 -0.0333,-0.01666 -0.0516,-0.023 8.2e-4,-0.0079 0.004,-0.01508 0.004,-0.023 0,-0.414123 -0.0734,-0.874355 -0.4876,-1.045743 -0.41458,-0.1722 -0.7768,0.0714 -1.09373,0.388783 -0.019,0.01904 -0.0285,0.04286 -0.042,0.06505 -1.2747179,0.998109 -3.1147279,0.929097 -4.2874279,-0.24436 -1.19097,-1.190978 -1.2493201,-3.06593 -0.20668,-4.342627 -0.0111,-0.02224 -0.0171,-0.04601 -0.0266,-0.06982 0.29281,-0.292806 0.56611,-0.669706 0.39437,-1.083879 -0.1722,-0.414123 -0.59983,-0.498268 -1.04853,-0.498268 -0.0294,0 -0.0551,0.01112 -0.0829,0.01823 C 4.23897,19.012949 3,17.653733 3,15.999984 c 0,-1.691631 1.29178,-3.078981 2.9428901,-3.234118 0.005,-0.01468 0.0135,-0.02778 0.0199,-0.04205 0.40823,-0.0036 0.85455,-0.08013 1.02279,-0.487197 0.17138,-0.413412 -0.0698,-0.773605 -0.3864,-1.090176 -1.0398501,-1.275071 -0.9815,-3.148449 0.20866,-4.338614 1.19448,-1.195344 3.08096,-1.250493 4.3572499,-0.194798 0.0135,-0.0067 0.0273,-0.0095 0.0412,-0.01549 0.29042,0.286051 0.66016,0.545493 1.06601,0.377712 0.41458,-0.171794 0.49791,-0.599831 0.49791,-1.04818 0,-0.0016 -8.1e-4,-0.0024 -8.1e-4,-0.0044 C 12.93398,4.281419 14.31539,3 15.99986,3 c 1.694419,0 3.0834,1.295739 3.234929,2.950047 0.004,0.0012 0.006,0.004 0.009,0.0048 0,0.0972 0.005,0.197184 0.0175,0.295141 h -0.0115 c 0,0.448299 -0.36339,0.81291 -0.81251,0.81291 -0.44789,0 -0.81169,-0.364611 -0.81169,-0.81291 0,-0.897815 -0.728,-1.625006 -1.625409,-1.625006 -0.89781,0 -1.62501,0.727191 -1.62501,1.625006 v 0.81291 l -0.005,0.0067 c 0.0147,0.537166 -0.326879,1.038633 -0.86602,1.198899 -0.0131,0.004 -0.027,0.004 -0.0397,0.0079 l -0.01,0.0127 c -0.380039,0.127776 -0.74902,0.28012 -1.102919,0.45943 l -0.0234,-0.0036 c -0.0138,0.0075 -0.025,0.01864 -0.0389,0.02656 -0.525679,0.284472 -1.16675,0.14203 -1.527749,-0.308655 l -0.50665,-0.50624 c -0.6351799,-0.634768 -1.6642599,-0.634768 -2.2982699,0 -0.63431,0.634768 -0.63431,1.663904 0,2.29786 l 0.57444,0.574845 0.004,0.02422 c 0.38005,0.371314 0.48959,0.9585 0.22415,1.448846 -0.004,0.0075 -0.0103,0.0127 -0.0147,0.02062 l 0.004,0.02737 c -0.17692,0.354302 -0.33165,0.723229 -0.4586,1.10409 l -0.0246,0.01904 c -0.004,0.01427 -0.005,0.02818 -0.009,0.04286 -0.17256,0.580025 -0.73867,0.930722 -1.3187,0.858511 h -0.687382 c -0.8978201,0 -1.6253601,0.728003 -1.6253601,1.625006 0,0.896801 0.72754,1.62521 1.6253601,1.62521 h 0.81169 l 0.0242,0.01823 c 0.52569,-8.12e-4 1.01243,0.336427 1.17031,0.865672 0.002,0.0048 0.002,0.0095 0.002,0.01427 l 0.0302,0.02224 c 0.12777,0.380049 0.28087,0.749027 0.45942,1.102872 l -0.007,0.04921 c 0.005,0.0095 0.0123,0.01666 0.0175,0.0262 0.28448,0.525284 0.14204,1.166399 -0.30865,1.527405 l -0.49354,0.494306 c -0.63432,0.633956 -0.63432,1.663093 0,2.297861 0.63395,0.633956 1.66309,0.633956 2.2982599,0 l 0.57485,-0.57444 0.0238,-0.004 c 0.3705,-0.369739 0.95129,-0.473689 1.435689,-0.21186 0.004,0.0016 0.005,0.0048 0.009,0.0063 l 0.0524,-0.0079 c 0.3543,0.176922 0.72323,0.331653 1.10409,0.458607 l 0.0326,0.04286 c 0.005,0.0016 0.0115,0.0016 0.0167,0.004 0.53082,0.157117 0.8676,0.645889 0.86603,1.173508 l 0.005,0.0063 v 0.813214 c 0,0.89741 0.72719,1.625006 1.62501,1.625006 0.89741,0 1.62541,-0.727596 1.62541,-1.625006 V 24.93666 l 0.005,-0.0063 c -0.002,-0.52767 0.335261,-1.015629 0.866081,-1.173508 0.006,-0.0024 0.0111,-0.0024 0.0171,-0.004 l 0.0321,-0.04205 c 0.38004,-0.127766 0.748619,-0.280111 1.10282,-0.45942 l 0.0536,0.0079 c 0.003,-0.0016 0.005,-0.0048 0.008,-0.0063 0.484401,-0.261829 1.06524,-0.157879 1.43574,0.21186 l 0.0242,0.004 0.574851,0.57444 c 0.633949,0.633956 1.663089,0.633956 2.298259,0 0.63437,-0.634768 0.63437,-1.663905 0,-2.29786 l -0.49395,-0.494307 c -0.45068,-0.361005 -0.59272,-1.002121 -0.30824,-1.527404 0.005,-0.0095 0.0119,-0.01747 0.0171,-0.0262 l -0.008,-0.05393 c 0.17692,-0.353845 0.33287,-0.718049 0.45861,-1.097285 l 0.0317,-0.02382 c 10e-4,-0.0048 0.002,-0.0087 0.003,-0.01351 0.15752,-0.529245 0.64391,-0.865672 1.16955,-0.865672 l 0.0238,-0.01823 h 0.81281 c 0.89781,0 1.625,-0.728409 1.625,-1.62521 0,-0.897003 -0.72719,-1.625006 -1.625,-1.625006 H 25.0614 c -0.58084,0.07221 -1.14614,-0.278486 -1.31834,-0.858511 -0.004,-0.01468 -0.005,-0.02935 -0.009,-0.04403 l -0.0242,-0.01787 c -0.127389,-0.380042 -0.280909,-0.74902 -0.45905,-1.102104 l 0.004,-0.02854 c -0.004,-0.0079 -0.0103,-0.01386 -0.0147,-0.02143 -0.26543,-0.490345 -0.1559,-1.077531 0.22374,-1.448845 l 0.004,-0.02422 0.57485,-0.574845 c 0.63436,-0.633956 0.63436,-1.663093 0,-2.297861 -0.301539,-0.300677 -0.74268,-0.47247 -1.1374,-0.487959 -0.44911,0 -0.812909,-0.363392 -0.812909,-0.812503 0,-0.449111 0.363799,-0.812503 0.812909,-0.812503 0.0583,0 0.11466,0.0055 0.16981,0.01787 0.76411,0.04997 1.53456,0.363798 2.11617,0.946211 1.193661,1.193364 1.25039,3.075426 0.19997,4.351715 0.004,0.0075 0.005,0.01701 0.01,0.02499 -0.004,0.0035 -0.009,0.0044 -0.0127,0.0087 -0.29316,0.293567 -0.56733,0.670467 -0.39553,1.08586 0.17123,0.414529 0.599269,0.497861 1.04752,0.497861 z m -5.57199,-4.08948 c -0.449109,0 -0.812509,-0.364204 -0.812509,-0.812909 0,-0.447892 0.3634,-0.811691 0.812509,-0.811691 0.447891,0 0.81169,0.363799 0.81169,0.811691 0,0.448705 -0.363799,0.812909 -0.81169,0.812909 z m -4.46907,2.437509 z"
       id="path2-36753-6-7"
       sodipodi:nodetypes="scsccsccccccccscsccscccccccscsccccccccscsccccsssscccccccccccccccccccccsssccccccccccccccccccccccsssccccccccccccccccccccccsssccccccccccccssccccccssssssccccccccccc"
       style="fill:url(#linearGradient1573);fill-opacity:1" />
    <path
       d="M 21.197375,17.189497 16.9902,21.395172 c -0.292934,0.292826 -0.682918,0.423493 -1.066233,0.402664 h 0.07622 c -0.773147,0 -1.500327,-0.626649 -1.500327,-1.399513 v -0.349872 c 0,-0.193225 0.257036,-0.349881 0.450322,-0.349881 0.193292,0 0.449679,0.156656 0.449679,0.349881 v 0.349872 c 0,0.386433 0.213748,0.699743 0.600326,0.699743 0,0 9.34e-4,0.0024 0.0023,0.0073 0.178236,-8.96e-4 0.356147,-0.168396 0.492188,-0.304367 l 4.207422,-4.206 c 0.273432,-0.273154 0.273432,-0.616455 0,-0.889618 l -4.207279,-4.206002 c -0.136037,-0.135977 -0.314102,-0.204161 -0.492536,-0.204666 -9.35e-4,0.004 -0.0023,0.0073 -0.0023,0.0073 -0.386574,0 -0.500122,0.313325 -0.500122,0.699752 v 0.699761 c 0,0.772862 -0.726844,1.599473 -1.5,1.599473 h -2.19998 c -0.386575,0 -0.500019,0.113336 -0.500019,0.499763 v 2.798998 c 0,0.386433 0.113444,0.499239 0.500019,0.499239 h 0.349981 c 0.349999,0 0.449999,0.356794 0.449999,0.55 0,0.193225 -0.05312,0.6125 -0.403124,0.6125 h -0.02187 C 11.40171,19.261319 10.39986,18.372425 10.39986,17.599563 v -2.798996 c 0,-0.772856 0.626849,-1.399506 1.4,-1.399506 h 2.100007 c 0.386574,0 0.700002,-0.313296 0.700002,-0.699726 v -0.699677 c 0,-0.772885 0.626856,-1.399514 1.400002,-1.399514 h -0.07609 c 0.383313,-0.02085 0.773151,0.110015 1.066058,0.402666 l 4.207207,4.205677 c 0.27335,0.273335 0.402813,0.631475 0.402813,0.989643 0,0.358168 -0.129463,0.716314 -0.40281,0.989649 z m -6.916265,1.75022 c 0.193292,0 -0.02469,-0.04645 -0.02469,0.146753 0,0.193226 0.187041,-0.08763 -0.0063,-0.08763 -0.193282,0 -0.0062,0.187106 -0.0062,-0.0061 0,-0.193203 -0.156092,-0.053 0.03719,-0.053 z"
       id="path2-5"
       style="fill:url(#linearGradient852);fill-opacity:1;stroke-width:0.0218747"
       sodipodi:nodetypes="ccccsssssccccccccsssssssssscssssssccccsccssssss" />
    <path
       d="m 20.875472,17.237803 -4.030754,3.962933 c -0.280649,0.275929 -0.654279,0.399051 -1.021523,0.379424 h 0.07303 c -1.521978,0.01563 -1.661854,-0.844599 -1.637365,-1.318735 l 0.02187,-0.423429 c 0.0094,-0.181831 0.415158,-0.314063 0.60034,-0.314063 0.185184,0 0.540422,0.22574 0.540196,0.407813 l -4.06e-4,0.329679 c -4.53e-4,0.36413 0.104997,0.659354 0.475365,0.659354 0,0 8.94e-4,0.0024 0.0022,0.0066 0.170761,-8.44e-4 0.341213,-0.158678 0.471549,-0.286801 l 4.03099,-3.963203 c 0.261965,-0.257389 0.261965,-0.580875 0,-0.838272 L 16.370103,11.8761 c -0.130331,-0.128129 -0.30093,-0.192377 -0.471881,-0.192853 -8.97e-4,0.0037 0.09764,0.0068 0.09764,0.0068 -0.370364,0 -0.224435,0.298941 -0.279,0.658952 l -0.1,0.659779 c -0.109132,0.720033 -0.896354,1.507156 -1.637088,1.507156 H 11.87205 c -0.370369,0 -0.479054,0.106795 -0.479054,0.470919 v 2.637452 c 0,0.36413 0.108824,0.46027 0.479054,0.470425 l 0.569679,0.01563 c 0.335197,0.0092 0.462378,0.336201 0.462378,0.518256 0,0.182073 -0.128422,0.597692 -0.462378,0.62763 l -0.522823,0.04687 c -0.693855,-0.0939 -1.388168,-0.950727 -1.388168,-1.678982 v -2.63739 c 0,-0.728249 0.600563,-1.318731 1.341294,-1.318731 h 2.011946 c 0.370364,0 0.670649,-0.295212 0.670649,-0.659339 v -0.659289 c 0,-0.728277 0.600568,-1.31874 1.341295,-1.31874 h -0.0729 c 0.367241,-0.01965 0.740731,0.103666 1.021355,0.379426 l 4.030784,3.962938 c 0.261888,0.25756 0.385923,0.595029 0.385923,0.932524 0,0.337496 -0.124035,0.674971 -0.385919,0.93253 z m -6.609307,1.670551 c 0.185186,0 -0.07063,-0.211742 -0.07063,-0.02969 0,0.182073 0.209238,0.06405 0.02405,0.06405 -0.185178,0 0.03968,0.118022 0.03968,-0.06405 0,-0.182052 -0.178276,0.02969 0.0069,0.02969 z"
       id="path2-5-7"
       style="fill:url(#linearGradient1353);fill-opacity:1;stroke-width:0.0207841"
       sodipodi:nodetypes="ccccsssssccccccccsssssssssscssssssccccsccsssss" />
  </g>
</svg>
