<?xml version="1.0" encoding="UTF-8" standalone="no"?>
<svg
   sodipodi:docname="other.svg"
   inkscape:version="1.2.2 (b0a8486541, 2022-12-01)"
   id="svg1699"
   version="1.1"
   viewBox="0 0 10 10"
   height="10mm"
   width="10mm"
   xmlns:inkscape="http://www.inkscape.org/namespaces/inkscape"
   xmlns:sodipodi="http://sodipodi.sourceforge.net/DTD/sodipodi-0.dtd"
   xmlns:xlink="http://www.w3.org/1999/xlink"
   xmlns="http://www.w3.org/2000/svg"
   xmlns:svg="http://www.w3.org/2000/svg"
   xmlns:rdf="http://www.w3.org/1999/02/22-rdf-syntax-ns#"
   xmlns:cc="http://creativecommons.org/ns#"
   xmlns:dc="http://purl.org/dc/elements/1.1/">
  <defs
     id="defs1693">
    <linearGradient
       inkscape:collect="always"
       id="linearGradient958">
      <stop
         style="stop-color:#c6afe9;stop-opacity:1"
         offset="0"
         id="stop954" />
      <stop
         style="stop-color:#00aad4;stop-opacity:1"
         offset="1"
         id="stop956" />
    </linearGradient>
    <linearGradient
       id="linearGradient1028"
       x1="16"
       x2="16"
       y1="1091.5"
       y2="1121.5"
       gradientUnits="userSpaceOnUse">
      <stop
         stop-color="#9575cd"
         offset="0"
         id="stop1024"
         style="stop-color:#7d56c3;stop-opacity:1" />
      <stop
         stop-color="#cd75bc"
         offset="1"
         id="stop1026"
         style="stop-color:#963683;stop-opacity:1" />
    </linearGradient>
    <linearGradient
       id="a-9"
       x1="16"
       x2="16"
       y1="1091.5"
       y2="1121.5"
       gradientUnits="userSpaceOnUse">
      <stop
         stop-color="#9575cd"
         offset="0"
         id="stop1052" />
      <stop
         stop-color="#cd75bc"
         offset="1"
         id="stop1054" />
    </linearGradient>
    <linearGradient
       gradientUnits="userSpaceOnUse"
       y2="31"
       y1="1"
       x2="16"
       x1="16"
       id="linearGradient1035">
      <stop
         id="stop1031"
         offset="0"
         stop-color="#f4282c"
         style="stop-color:#6600ff;stop-opacity:1" />
      <stop
         id="stop1033"
         offset="1"
         stop-color="#fac136"
         style="stop-color:#d1b3ff;stop-opacity:1" />
    </linearGradient>
    <linearGradient
       inkscape:collect="always"
       xlink:href="#linearGradient958"
       id="linearGradient960"
       x1="-179.43832"
       y1="93.115265"
       x2="-154.0529"
       y2="71.940331"
       gradientUnits="userSpaceOnUse"
       gradientTransform="matrix(0.47996575,0,0,0.50002209,-88.082834,41.848267)" />
    <linearGradient
       inkscape:collect="always"
       xlink:href="#linearGradient958"
       id="linearGradient1573"
       x1="3.5999999"
       y1="28.1"
       x2="28.6"
       y2="3.0999999"
       gradientUnits="userSpaceOnUse"
       gradientTransform="matrix(1.108136,0,0,1.1250898,-187.73661,67.103928)" />
  </defs>
  <sodipodi:namedview
     inkscape:document-rotation="0"
     inkscape:window-maximized="1"
     inkscape:window-y="0"
     inkscape:window-x="0"
     inkscape:window-height="998"
     inkscape:window-width="1920"
     showgrid="true"
     inkscape:current-layer="g868"
     inkscape:document-units="mm"
     inkscape:cy="28.187498"
     inkscape:cx="-9.9374994"
     inkscape:zoom="8.0000005"
     inkscape:pageshadow="2"
     inkscape:pageopacity="0"
     borderopacity="1"
     bordercolor="#ff0e0e"
     pagecolor="#000000"
     id="base"
     inkscape:pagecheckerboard="true"
     inkscape:showpageshadow="false"
     inkscape:deskcolor="#000000">
    <inkscape:grid
       type="xygrid"
       id="grid844"
       originx="0"
       originy="0" />
  </sodipodi:namedview>
  <metadata
     id="metadata1696">
    <rdf:RDF>
      <cc:Work
         rdf:about="">
        <dc:format>image/svg+xml</dc:format>
        <dc:type
           rdf:resource="http://purl.org/dc/dcmitype/StillImage" />
      </cc:Work>
    </rdf:RDF>
  </metadata>
  <g
     transform="translate(-98.729144,-81.918987)"
     id="layer1"
     inkscape:groupmode="layer"
     inkscape:label="Layer 1">
    <g
       id="g868"
       transform="matrix(0.3124998,0,0,0.30769231,156.85411,60.765141)">
      <g
         id="g285">
        <circle
           style="opacity:0;fill:none;fill-opacity:1;stroke-width:0.333334"
           id="circle955"
           r="5"
           cy="-86.918983"
           cx="103.72914"
           transform="matrix(3.2000021,0,0,-3.25,-501.93347,-197.48671)" />
        <path
           fill-rule="evenodd"
           clip-rule="evenodd"
           d="m -163.91719,88.34992 h -0.48021 c -0.26529,0 -0.47971,-0.224124 -0.47971,-0.499497 0,-0.276377 0.21442,-0.500503 0.47971,-0.500503 h 0.48021 c 0.52962,0 0.95992,-0.447249 0.95992,-1.000002 v -1.499535 c 0,-0.04009 -0.009,-0.08007 -0.0182,-0.118659 -0.007,-0.01462 -0.0104,-0.0288 -0.0164,-0.04391 -0.008,-0.01708 -0.0131,-0.03467 -0.0214,-0.05129 -0.10943,-0.231319 -0.37754,-0.453966 -0.71221,-0.517937 -0.42814,-0.165999 -1.00068,-0.268566 -1.63177,-0.268566 -0.61312,0 -1.17018,0.103281 -1.59414,0.264909 -0.21445,0.03268 -0.4031,0.132557 -0.54463,0.258063 l -0.005,-0.0029 c -0.0784,0.07204 -0.17998,0.117314 -0.29247,0.117314 -0.24424,0 -0.44249,-0.206907 -0.44249,-0.461064 0,-0.180409 0.10007,-0.334973 0.24421,-0.410412 0.26015,-0.197529 0.57606,-0.367685 0.94328,-0.494408 -0.39324,-0.407718 -0.65337,-0.955063 -0.70119,-1.566911 -0.008,-0.06762 -0.01,-0.135748 -0.01,-0.204592 v -1.500013 c -2e-4,-1.104505 0.85918,-2.000008 1.91991,-2.000008 h 0.95992 c 1.06,0 1.91984,0.895532 1.91984,2.000008 v 1.499779 c 0,0.276125 -0.21514,0.50025 -0.48017,0.50025 -0.26532,0 -0.47974,-0.224125 -0.47974,-0.50025 v -1.499779 c 0,-0.552501 -0.43032,-1.000009 -0.95993,-1.000009 h -0.95992 c -0.53034,0 -0.96018,0.447508 -0.96018,1.000009 v 1.499779 c 0,0.82863 0.64495,1.500257 1.43966,1.500257 1.77363,0 3.22238,0.817876 3.34779,1.855384 0.009,0.04688 0.0125,0.09521 0.0125,0.145025 v 1.499544 c -4e-5,1.104965 -0.85988,2.000008 -1.91987,2.000008 z m -5.04595,-4.29826 c -0.008,0.01732 -0.012,0.0354 -0.02,0.05224 -4.8e-4,4.99e-4 -4.8e-4,0.002 -0.002,0.002 h -5e-4 c -0.0781,0.166751 -0.23968,0.282723 -0.42952,0.282723 -0.26531,0 -0.48024,-0.224125 -0.48024,-0.500251 0,-0.07152 0.0146,-0.139908 0.0405,-0.200938 l -0.003,-4.99e-4 c 0.11318,-0.254911 0.17814,-0.537629 0.17814,-0.837193 0,-0.111311 -0.011,-0.220221 -0.028,-0.327154 0.0177,-0.0901 0.028,-0.184098 0.028,-0.280035 v -2.035179 c 0,-0.749504 -0.57301,-1.357441 -1.28003,-1.357441 h -1.27986 c -0.70729,0 -1.28027,0.607909 -1.28027,1.357441 v 2.035446 c 0,0.09593 0.01,0.189937 0.028,0.280032 -0.017,0.106933 -0.028,0.215812 -0.028,0.327154 0,1.104506 0.85985,2.00038 1.92009,2.00038 3.06026,0 5.55706,1.140129 5.74173,2.578662 0.0104,0.05567 0.0177,0.112789 0.0177,0.17091 v 1.250507 c 0,1.104534 -0.85984,1.999534 -1.92007,1.999534 h -7.6796 c -1.06004,-1.1e-5 -1.91993,-0.89505 -1.91993,-1.999546 v -1.250504 c 0,-0.0581 0.008,-0.112786 0.0136,-0.167007 0.0624,-0.503908 0.41033,-0.968255 0.96108,-1.360348 0.0784,-0.06887 0.17742,-0.112804 0.28753,-0.112804 0.24541,0 0.44434,0.206549 0.44434,0.462436 0,0.16356 -0.0817,0.305657 -0.20461,0.388188 l 0.007,0.0048 c -0.34662,0.241225 -0.54512,0.508817 -0.54512,0.784694 v 1.250502 c 0,0.551788 0.43025,0.999536 0.95992,0.999536 h 7.67963 c 0.53033,0 0.95993,-0.447748 0.95993,-0.999536 v -1.250491 c 0,-0.966816 -2.14908,-1.749537 -4.79963,-1.749537 -0.7708,0 -1.46943,-0.317875 -1.98619,-0.831531 -0.13665,-0.135512 -0.26199,-0.286386 -0.37077,-0.448011 -0.10639,-0.157594 -0.19848,-0.327037 -0.2744,-0.504759 -0.006,-0.006 -0.008,-0.01219 -0.01,-0.01857 -0.0318,-0.07541 -0.0596,-0.15407 -0.0854,-0.232657 -0.008,-0.01781 -0.0134,-0.03468 -0.0182,-0.05274 -0.0215,-0.07007 -0.0385,-0.14281 -0.0553,-0.215561 -0.008,-0.02708 -0.0142,-0.05344 -0.0202,-0.08133 -0.017,-0.08299 -0.028,-0.167973 -0.0379,-0.252941 -0.004,-0.01612 -0.008,-0.03171 -0.008,-0.04781 -0.0103,-0.103033 -0.0165,-0.208 -0.0165,-0.314218 0,-0.0554 0.008,-0.108659 0.01,-0.16356 -0.008,-0.05662 -0.01,-0.112567 -0.01,-0.169937 v -2.332903 c 0,-1.289069 0.96746,-2.333507 2.15984,-2.333507 h 1.44014 c 1.1931,0 2.15984,1.044438 2.15984,2.333507 v 2.333041 c 0,0.05738 -0.008,0.113273 -0.01,0.169936 0.006,0.05495 0.01,0.108156 0.01,0.163559 0,0.428223 -0.0903,0.833254 -0.2461,1.201659 z m -5.27323,1.548225 c 0,0.275875 -0.21515,0.500031 -0.48023,0.500031 -0.26527,0 -0.47971,-0.224156 -0.47971,-0.500031 0,-0.275877 0.21444,-0.499999 0.47971,-0.499999 0.26508,0 0.48023,0.224122 0.48023,0.499999 z"
           id="path2-62"
           class="ColorScheme-Text"
           style="fill:url(#linearGradient960);fill-opacity:1;stroke-width:0.489894" />
        <path
           d="m -158.87936,81.36664 c 0.01,0 0.0224,-0.0059 0.0384,-0.0059 1.81796,0.182618 3.24104,1.739872 3.24104,3.635064 0,1.898848 -1.42484,3.459342 -3.24971,3.638836 -0.002,0.0058 -0.006,0.0117 -0.01,0.02535 -0.01,-8.12e-4 -0.016,-0.0059 -0.0374,-0.0059 -0.45893,0 -0.9702,0.08239 -1.1601,0.548941 -0.19202,0.466928 0.079,0.873964 0.43082,1.23019 0.01,0.0098 0.0256,0.0156 0.0432,0.02763 1.14994,1.43533 1.08497,3.540446 -0.2333,4.878627 -1.3166,1.337083 -3.39164,1.405141 -4.80599,0.238128 -0.016,0.0097 -0.0442,0.0117 -0.0646,0.02567 -0.006,-0.0098 -0.01,-0.02535 -0.016,-0.03591 -0.32528,-0.329621 -0.74279,-0.638368 -1.20236,-0.443833 -0.46017,0.194448 -0.5517,0.673241 -0.5517,1.178268 0,0.04589 0.01,0.08626 0.0256,0.128863 -0.22627,1.799453 -1.72945,3.194028 -3.56405,3.194028 -1.86753,0 -3.40223,-1.44365 -3.58388,-3.291437 -0.016,-0.0059 -0.0346,-0.01365 -0.0579,-0.02567 9.9e-4,-0.0059 0.003,-0.01365 0.003,-0.0247 0,-0.46594 -0.081,-0.983772 -0.54018,-1.176442 -0.4594,-0.195 -0.86083,0.07907 -1.21215,0.437265 -0.016,0.01755 -0.0288,0.04901 -0.0474,0.07205 -1.41261,1.123018 -3.45152,1.045336 -4.75097,-0.274788 -1.31986,-1.34002 -1.38442,-3.449511 -0.22914,-4.885842 -0.01,-0.02535 -0.0128,-0.05252 -0.0256,-0.07764 0.32422,-0.329521 0.6273,-0.753259 0.43704,-1.21954 -0.19298,-0.465699 -0.66497,-0.560508 -1.162,-0.560508 -0.0288,0 -0.0614,0.0097 -0.0909,0.01755 -1.77155,-0.227695 -3.14441,-1.757574 -3.14441,-3.618232 0,-1.903222 1.4313,-3.464129 3.26119,-3.638661 0.003,-0.0117 0.0128,-0.03022 0.016,-0.04784 0.4524,-0.0039 0.94707,-0.0896 1.13351,-0.548119 0.19235,-0.465088 -0.0769,-0.870428 -0.42826,-1.226507 -1.15228,-1.434573 -1.08774,-3.542325 0.23139,-4.881344 1.32367,-1.344763 3.41423,-1.406938 4.82842,-0.21918 0.0128,-0.0059 0.0288,-0.0078 0.0464,-0.01365 0.32163,0.321652 0.73155,0.613583 1.18133,0.424713 0.45947,-0.194805 0.55176,-0.674759 0.55176,-1.179097 0,-0.0018 -8.6e-4,-0.002 -8.6e-4,-0.0039 0.18241,-1.846634 1.71315,-3.288174 3.57982,-3.288174 1.87751,0 3.4168,1.457898 3.58469,3.319111 0.003,0.0013 0.006,0.0039 0.006,0.0039 0,0.110305 0.003,0.222007 0.016,0.331848 h -0.01 c 0,0.504396 -0.4027,0.914845 -0.90025,0.914845 -0.49649,0 -0.89957,-0.410449 -0.89957,-0.914845 0,-1.010094 -0.80664,-1.828093 -1.80116,-1.828093 -0.99494,0 -1.80069,0.817999 -1.80069,1.828093 v 0.914891 l -0.003,0.0059 c 0.0128,0.604246 -0.36221,1.168411 -0.95948,1.348821 -0.0128,0.0039 -0.0288,0.0039 -0.0448,0.0058 l -0.006,0.0117 c -0.42118,0.142675 -0.83009,0.315153 -1.22228,0.516838 l -0.0224,-0.0039 c -0.0128,0.0059 -0.0256,0.01755 -0.0432,0.02925 -0.58262,0.320223 -1.29276,0.159673 -1.69284,-0.347272 l -0.56152,-0.569579 c -0.7039,-0.714204 -1.84427,-0.714204 -2.54658,0 -0.70305,0.714181 -0.70305,1.872065 0,2.585287 l 0.63636,0.646864 0.003,0.02698 c 0.42116,0.417687 0.54249,1.078353 0.24931,1.629901 -0.003,0.0058 -0.01,0.0117 -0.0128,0.01982 l 0.003,0.03023 c -0.1965,0.398733 -0.36766,0.813781 -0.50834,1.242277 l -0.0256,0.01755 c -0.003,0.0117 -0.003,0.03022 -0.006,0.04862 -0.19298,0.652496 -0.8187,1.047023 -1.46128,0.96589 h -0.76193 c -0.99479,0 -1.8009,0.819159 -1.8009,1.828184 0,1.009069 0.80611,1.828622 1.8009,1.828622 h 0.89959 l 0.0256,0.01755 c 0.58255,-9.52e-4 1.12199,0.378573 1.29689,0.973989 0.002,0.0039 0.002,0.0078 0.002,0.0117 l 0.0336,0.0247 c 0.14018,0.42756 0.31171,0.842712 0.50923,1.240675 l -0.006,0.05622 c 0.003,0.0078 0.01,0.01365 0.016,0.02828 0.31555,0.590924 0.15585,1.312262 -0.34208,1.718587 l -0.54694,0.556068 c -0.70294,0.71318 -0.70294,1.870963 0,2.585232 0.7026,0.713274 1.84297,0.713274 2.54678,0 l 0.63704,-0.646298 0.0256,-0.0039 c 0.41056,-0.416036 1.0543,-0.533033 1.59096,-0.238713 0.003,0.0018 0.003,0.0039 0.006,0.0059 l 0.0595,-0.0059 c 0.39254,0.19929 0.80132,0.373191 1.22334,0.515964 l 0.0368,0.04784 c 0.003,0.0019 0.01,0.0019 0.0128,0.0039 0.58826,0.177645 0.96158,0.726797 0.95982,1.320254 l 0.003,0.0058 v 0.914823 c 0,1.009723 0.80583,1.828261 1.80067,1.828261 0.99434,0 1.80119,-0.818538 1.80119,-1.828261 V 95.03013 l 0.003,-0.0058 c -0.002,-0.59348 0.37153,-1.142518 0.95977,-1.320228 0.006,-0.002 0.01,-0.002 0.0128,-0.0039 l 0.0342,-0.04745 c 0.42113,-0.142285 0.82962,-0.315185 1.22203,-0.516825 l 0.0605,0.0059 c 0.002,-0.0017 0.003,-0.0039 0.006,-0.0059 0.53679,-0.294613 1.1804,-0.17823 1.59097,0.238907 l 0.0256,0.0039 0.63712,0.646299 c 0.70236,0.713284 1.84283,0.713284 2.54664,0 0.7031,-0.714224 0.7031,-1.872075 0,-2.585187 l -0.54725,-0.556169 c -0.49954,-0.406227 -0.65671,-1.127627 -0.34173,-1.718545 0.003,-0.0078 0.01,-0.01755 0.0128,-0.02828 l -0.006,-0.06188 c 0.19683,-0.39806 0.36887,-0.80782 0.50831,-1.234522 l 0.0352,-0.02632 c 9.9e-4,-0.0039 0.002,-0.0078 0.002,-0.0117 0.17506,-0.595465 0.71355,-0.973989 1.29616,-0.973989 l 0.0256,-0.01755 h 0.90056 c 0.99484,0 1.80062,-0.819449 1.80062,-1.828515 0,-1.009252 -0.80578,-1.828246 -1.80062,-1.828246 h -0.76209 c -0.6438,0.0806 -1.2702,-0.313332 -1.46106,-0.965828 -0.003,-0.0117 -0.003,-0.03218 -0.006,-0.04979 l -0.0256,-0.01755 c -0.14049,-0.427606 -0.3117,-0.842732 -0.50879,-1.239979 l 0.003,-0.03185 c -0.003,-0.0058 -0.006,-0.0117 -0.0128,-0.0195 -0.29379,-0.551678 -0.17345,-1.212387 0.24898,-1.630132 l 0.003,-0.02698 0.63698,-0.646737 c 0.70307,-0.71343 0.70307,-1.871233 0,-2.58531 -0.33421,-0.338338 -0.82302,-0.5317 -1.26034,-0.548935 -0.49768,0 -0.90076,-0.408817 -0.90076,-0.91428 0,-0.505089 0.40308,-0.913965 0.90076,-0.913965 0.0646,0 0.12737,0.0039 0.19009,0.01755 0.8467,0.05687 1.70054,0.409172 2.34506,1.064593 1.32281,1.342546 1.3856,3.460086 0.22178,4.895959 0.003,0.0058 0.003,0.01365 0.006,0.0273 -0.003,0.0039 -0.006,0.0039 -0.0128,0.0078 -0.32454,0.330213 -0.62872,0.754224 -0.43831,1.221487 0.19138,0.466573 0.6642,0.560296 1.16082,0.560296 z m -6.17433,-4.601119 c -0.49774,0 -0.9006,-0.409906 -0.9006,-0.91455 0,-0.504042 0.40286,-0.913211 0.9006,-0.913211 0.49621,0 0.89937,0.409169 0.89937,0.913211 0,0.504644 -0.40316,0.91455 -0.89937,0.91455 z m -4.9523,2.74236 z"
           id="path2-36753-6-7"
           sodipodi:nodetypes="scsccsccccccccscsccscccccccscsccccccccscsccccsssscccccccccccccccccccccsssccccccccccccccccccccccsssccccccccccccccccccccccsssccccccccccccssccccccssssssccccccccccc"
           style="fill:url(#linearGradient1573);fill-opacity:1.0;stroke-width:1.11658" />
      </g>
    </g>
  </g>
</svg>
