<?xml version="1.0" encoding="UTF-8" standalone="no"?>
<svg
   sodipodi:docname="restart_primary.svg"
   inkscape:version="1.2.2 (b0a8486541, 2022-12-01)"
   id="svg1699"
   version="1.1"
   viewBox="0 0 10 10"
   height="10mm"
   width="10mm"
   xmlns:inkscape="http://www.inkscape.org/namespaces/inkscape"
   xmlns:sodipodi="http://sodipodi.sourceforge.net/DTD/sodipodi-0.dtd"
   xmlns:xlink="http://www.w3.org/1999/xlink"
   xmlns="http://www.w3.org/2000/svg"
   xmlns:svg="http://www.w3.org/2000/svg"
   xmlns:rdf="http://www.w3.org/1999/02/22-rdf-syntax-ns#"
   xmlns:cc="http://creativecommons.org/ns#"
   xmlns:dc="http://purl.org/dc/elements/1.1/">
  <defs
     id="defs1693">
    <linearGradient
       inkscape:collect="always"
       xlink:href="#linearGradient1598"
       id="linearGradient1600"
       x1="2.8813136"
       y1="28.333443"
       x2="17.655964"
       y2="14.031005"
       gradientUnits="userSpaceOnUse"
       gradientTransform="matrix(0.17310004,0,0,0.17307794,100.92553,84.222821)" />
    <linearGradient
       inkscape:collect="always"
       id="linearGradient1598">
      <stop
         style="stop-color:#00ccff;stop-opacity:1"
         offset="0"
         id="stop1594" />
      <stop
         style="stop-color:#aa87de;stop-opacity:1"
         offset="1"
         id="stop1596" />
    </linearGradient>
    <linearGradient
       inkscape:collect="always"
       xlink:href="#linearGradient1598"
       id="linearGradient1559"
       x1="2.9998057"
       y1="28.72794"
       x2="28.646643"
       y2="2.2114344"
       gradientUnits="userSpaceOnUse"
       gradientTransform="matrix(0.3461971,0,0,0.34615299,98.156161,81.397393)" />
  </defs>
  <sodipodi:namedview
     inkscape:document-rotation="0"
     inkscape:window-maximized="1"
     inkscape:window-y="0"
     inkscape:window-x="0"
     inkscape:window-height="998"
     inkscape:window-width="1920"
     showgrid="true"
     inkscape:current-layer="layer1"
     inkscape:document-units="mm"
     inkscape:cy="20.487156"
     inkscape:cx="2.5569486"
     inkscape:zoom="15.839192"
     inkscape:pageshadow="2"
     inkscape:pageopacity="0"
     borderopacity="1"
     bordercolor="#ff1919"
     pagecolor="#000000"
     id="base"
     inkscape:pagecheckerboard="true"
     inkscape:showpageshadow="false"
     inkscape:deskcolor="#000000">
    <inkscape:grid
       type="xygrid"
       id="grid844"
       originx="0.033407999"
       originy="-0.016705" />
  </sodipodi:namedview>
  <metadata
     id="metadata1696">
    <rdf:RDF>
      <cc:Work
         rdf:about="">
        <dc:format>image/svg+xml</dc:format>
        <dc:type
           rdf:resource="http://purl.org/dc/dcmitype/StillImage" />
      </cc:Work>
    </rdf:RDF>
  </metadata>
  <g
     transform="translate(-98.695736,-81.935692)"
     id="layer1"
     inkscape:groupmode="layer"
     inkscape:label="Layer 1">
    <g
       id="g274">
      <circle
         style="opacity:0;fill:none;fill-opacity:1;stroke-width:0.333334"
         id="circle955"
         r="5"
         cy="-86.935692"
         cx="103.69574"
         transform="scale(1,-1)" />
      <path
         d="m 103.06212,88.398295 c 0.0778,0 0.14065,0.06297 0.14065,0.140629 0,0.07764 -0.0629,0.140623 -0.14065,0.140623 -0.0777,0 -0.14056,-0.06296 -0.14056,-0.140623 0,-0.07766 0.0629,-0.140629 0.14056,-0.140629 z m -1.61741,-1.125004 c 0,-1.087308 0.88162,-1.968764 1.96905,-1.968764 h 0.4219 c 0.0777,0 0.14069,-0.06295 0.14069,-0.140624 0,-0.232979 0.1889,-0.421879 0.42191,-0.421879 9.1e-4,0 9.5e-4,3.18e-4 0.002,3.18e-4 v -3.18e-4 c 0.16354,3.18e-4 0.32683,0.06278 0.45157,0.187529 l 0.90551,0.906177 c 0.25009,0.250248 0.25009,0.655951 0,0.906174 l -0.90551,0.906135 c -0.12475,0.124833 -0.28806,0.187257 -0.45157,0.187593 v -1.36e-4 c -9.3e-4,7e-5 -9.5e-4,3.03e-4 -0.002,3.03e-4 -0.23302,0 -0.42191,-0.188894 -0.42191,-0.421871 0,-0.07765 -0.0629,-0.140627 -0.14069,-0.140627 h -0.28124 v 0 c -0.38836,0 -0.70322,0.314824 -0.70322,0.703128 0,0.07764 -0.0629,0.140624 -0.14068,0.140624 -0.0777,0 -0.14065,-0.06296 -0.14065,-0.140624 0,-0.543684 0.44079,-0.984384 0.98455,-0.984384 h 0.28124 c 0.23303,0 0.42197,0.188901 0.42197,0.421883 0,0.07765 0.0629,0.140621 0.14063,0.140621 0.0112,0 0.0224,-0.0015 0.0326,-0.0041 0.0692,-0.0074 0.13666,-0.0361 0.18975,-0.08913 l 0.95009,-0.949022 c 0.12348,-0.123322 0.12348,-0.323274 0,-0.446594 l -0.95011,-0.949053 c -0.0531,-0.05302 -0.12053,-0.08176 -0.18975,-0.08916 -0.011,-0.0025 -0.0212,-0.0041 -0.0326,-0.0041 -0.0777,0 -0.14061,0.06296 -0.14061,0.140625 0,0.232982 -0.18894,0.421879 -0.42197,0.421879 h -0.4219 c -0.93213,0 -1.68769,0.755521 -1.68769,1.687509 0,0.931988 0.75556,1.68751 1.68769,1.68751 h 0.70322 c 0.0778,0 0.14065,0.06296 0.14065,0.140625 0,0.07765 -0.0629,0.14063 -0.14065,0.14063 h -0.70322 c -1.08743,0 -1.96905,-0.881452 -1.96905,-1.968765 z"
         id="path2-367"
         style="fill:url(#linearGradient1600);fill-opacity:1;stroke-width:0.00878967" />
      <path
         d="m 107.17145,85.820147 c 0.004,0 0.007,-0.0024 0.0119,-0.0028 0.5679,0.05614 1.01251,0.535304 1.01251,1.118391 0,0.58426 -0.44516,1.064372 -1.01531,1.119567 -6.9e-4,0.0028 -0.002,0.005 -0.003,0.0077 -0.004,-2.81e-4 -0.007,-0.0026 -0.0119,-0.0026 -0.14338,0 -0.30314,0.02554 -0.36247,0.168898 -0.0593,0.143645 0.0249,0.26889 0.13464,0.378467 0.004,0.0038 0.008,0.0055 0.0127,0.0088 0.35926,0.441649 0.33891,1.089295 -0.0728,1.501018 -0.41134,0.411412 -1.05962,0.432295 -1.50147,0.07336 -0.006,0.0036 -0.0138,0.005 -0.0202,0.008 -0.002,-0.0036 -0.004,-0.0077 -0.007,-0.0113 -0.10157,-0.101382 -0.23213,-0.196379 -0.37562,-0.136508 -0.14377,0.05933 -0.17236,0.207081 -0.17236,0.36253 0,0.01405 0.004,0.02668 0.008,0.03928 -0.0708,0.553726 -0.54034,0.982742 -1.11347,0.982742 -0.58341,0 -1.06291,-0.444135 -1.11964,-1.01266 -0.006,-0.0017 -0.0115,-0.0058 -0.0179,-0.008 2.9e-4,-0.0027 9.4e-4,-0.0053 9.4e-4,-0.008 0,-0.143352 -0.0255,-0.302661 -0.1688,-0.361982 -0.14355,-0.0596 -0.26892,0.02475 -0.37866,0.134575 -0.006,0.0066 -0.009,0.01488 -0.0146,0.02251 -0.44129,0.345496 -1.07834,0.321607 -1.48431,-0.08458 -0.41232,-0.412258 -0.43252,-1.061279 -0.0716,-1.503215 -0.004,-0.0077 -0.005,-0.01593 -0.008,-0.02419 0.10117,-0.101382 0.19589,-0.231819 0.13645,-0.375189 -0.0598,-0.143352 -0.20757,-0.172479 -0.36296,-0.172479 -0.009,0 -0.0189,0.0038 -0.0285,0.0063 -0.553318,-0.07026 -0.982244,-0.540758 -0.982244,-1.11321 0,-0.585563 0.447207,-1.065797 1.018834,-1.119498 9.5e-4,-0.0052 0.004,-0.0095 0.006,-0.01454 0.14133,-0.0012 0.29586,-0.02774 0.35408,-0.168646 0.0594,-0.143102 -0.0244,-0.267785 -0.13374,-0.377369 -0.35999,-0.441369 -0.33984,-1.089846 0.0722,-1.501823 0.4135,-0.413774 1.06659,-0.432861 1.50844,-0.06743 0.004,-0.0024 0.009,-0.0033 0.0144,-0.0054 0.10053,0.09902 0.22856,0.188823 0.36905,0.130746 0.1435,-0.05946 0.17237,-0.207632 0.17237,-0.36283 0,-5.65e-4 -2.9e-4,-8.45e-4 -2.9e-4,-0.0014 0.057,-0.568122 0.53524,-1.01169 1.11835,-1.01169 0.58662,0 0.9863,0.448525 1.03869,1.021168 9.6e-4,3.91e-4 -8.2e-4,0.0013 0,0.0016 0,0.03363 -0.004,0.06827 0,0.102212 v 0 c 0,0.15518 -0.0394,0.281391 -0.19481,0.281391 -0.15507,0 -0.28102,-0.126211 -0.28102,-0.281391 0,-0.31078 -0.252,-0.562499 -0.5627,-0.562499 -0.31083,0 -0.56258,0.251719 -0.56258,0.562499 v 0.281395 l -9.7e-4,0.0024 c 0.005,0.185939 -0.11313,0.359521 -0.29982,0.415 -0.004,0.0013 -0.009,0.0013 -0.0135,0.0028 l -0.003,0.0042 c -0.13156,0.04422 -0.25932,0.09699 -0.38182,0.159031 l -0.008,-0.0012 c -0.004,0.0027 -0.008,0.0065 -0.014,0.0091 -0.18197,0.09845 -0.40385,0.04917 -0.52885,-0.106853 l -0.17601,-0.17522 c -0.21989,-0.219728 -0.57616,-0.219728 -0.79564,0 -0.21958,0.219724 -0.21958,0.575962 0,0.795411 l 0.19883,0.198982 9.4e-4,0.0084 c 0.13165,0.128529 0.16955,0.331788 0.0776,0.501519 -9.5e-4,0.0027 -0.003,0.0049 -0.005,0.0072 l 9.5e-4,0.0094 c -0.0613,0.122648 -0.11477,0.250352 -0.15874,0.382188 l -0.008,0.0066 c -9.8e-4,0.005 -9.8e-4,0.0097 -0.003,0.01487 -0.0598,0.200777 -0.25572,0.322173 -0.45651,0.297176 h -0.23793 c -0.31084,0 -0.562688,0.251999 -0.562688,0.5625 0,0.310432 0.251848,0.562573 0.562688,0.562573 h 0.28097 l 0.008,0.0063 c 0.18198,-2.78e-4 0.35047,0.116457 0.40514,0.299659 5.7e-4,0.0016 5.7e-4,0.0033 5.7e-4,0.005 l 0.0111,0.0077 c 0.0443,0.131551 0.0974,0.259275 0.15906,0.381758 l -0.002,0.01704 c 9.4e-4,0.0033 0.004,0.0058 0.006,0.009 0.0985,0.181828 0.0491,0.40375 -0.10684,0.528715 l -0.17086,0.171106 c -0.21958,0.219444 -0.21958,0.575681 0,0.795413 0.21944,0.21944 0.57574,0.21944 0.79565,0 l 0.19903,-0.198845 0.008,-0.0011 c 0.12819,-0.127985 0.32932,-0.163968 0.49701,-0.07332 9.5e-4,4.49e-4 9.5e-4,0.0013 0.003,0.0017 l 0.0181,-0.0027 c 0.12268,0.06123 0.25041,0.114801 0.38226,0.158745 l 0.0111,0.01483 c 9.5e-4,4.5e-4 0.004,4.5e-4 0.005,0.0011 0.18375,0.05443 0.30034,0.223581 0.29983,0.406215 l 9.4e-4,0.0017 v 0.281706 c 0,0.310645 0.25174,0.5625 0.56259,0.5625 0.31067,0 0.5627,-0.251855 0.5627,-0.5625 v -0.281465 l 9.4e-4,-0.0017 c -5.7e-4,-0.182659 0.1161,-0.351569 0.29985,-0.406217 0.002,-6.74e-4 0.004,-6.74e-4 0.006,-0.0011 l 0.0112,-0.01452 c 0.13157,-0.04422 0.25919,-0.09697 0.38176,-0.159029 l 0.0186,0.0027 c 8.5e-4,-4.5e-4 9.4e-4,-0.0013 0.003,-0.0017 0.16773,-0.09065 0.36883,-0.05465 0.49708,0.07336 l 0.008,0.0011 0.19903,0.198845 c 0.21945,0.219447 0.57577,0.219447 0.79567,0 0.21959,-0.219726 0.21959,-0.575962 0,-0.79541 l -0.17064,-0.171191 c -0.15601,-0.124963 -0.20519,-0.346891 -0.10672,-0.528716 0.002,-0.0033 0.004,-0.0061 0.006,-0.009 l -0.002,-0.01869 c 0.0613,-0.122471 0.11527,-0.24854 0.15882,-0.379815 l 0.011,-0.0083 c 3e-4,-0.0016 6.4e-4,-0.003 9.4e-4,-0.0049 0.0545,-0.183197 0.22298,-0.299655 0.40492,-0.299655 l 0.008,-0.0063 h 0.28139 c 0.31082,0 0.56259,-0.25214 0.56259,-0.56257 0,-0.3105 -0.25177,-0.562504 -0.56259,-0.562504 h -0.23819 c -0.20108,0.025 -0.3968,-0.09639 -0.45642,-0.297184 -9.6e-4,-0.0052 -0.002,-0.01012 -0.003,-0.01525 l -0.008,-0.0062 c -0.0438,-0.131546 -0.0969,-0.259268 -0.15855,-0.381492 l 9.5e-4,-0.0098 c -9.5e-4,-0.0028 -0.003,-0.0049 -0.005,-0.0075 -0.0917,-0.169731 -0.054,-0.372988 0.0776,-0.501518 l 9.3e-4,-0.0084 0.19901,-0.198982 c 0.21962,-0.219451 0.21962,-0.575686 0,-0.795412 -0.10436,-0.104097 -0.25711,-0.163546 -0.39376,-0.168912 -0.15546,0 -0.28141,-0.125789 -0.28141,-0.281249 0,-0.155459 0.12595,-0.281252 0.28141,-0.281252 0.0203,0 0.0396,0.0018 0.0585,0.0062 0.26454,0.01728 0.53128,0.12593 0.7326,0.327531 0.41326,0.413089 0.43289,1.064568 0.0692,1.50636 9.9e-4,0.0026 0.002,0.0059 0.003,0.0086 -9.4e-4,0.0011 -0.003,0.0014 -0.004,0.003 -0.10146,0.101628 -0.1964,0.232086 -0.13693,0.375876 0.0593,0.143491 0.20746,0.172337 0.36264,0.172337 z m -1.92899,-1.415586 c -0.15549,0 -0.28128,-0.126069 -0.28128,-0.281394 0,-0.155035 0.12579,-0.280966 0.28128,-0.280966 0.15505,0 0.28101,0.125931 0.28101,0.280966 0,0.155325 -0.12596,0.281394 -0.28101,0.281394 z"
         id="path2-36753-6-7-5"
         sodipodi:nodetypes="scsccsccccccccscsccscccccccscsccccccccscsccccsssscccccccccccccccccccccsssccccccccccccccccccccccsssccccccccccccccccccccccsssccccccccccccssccccccsscsssc"
         style="fill:url(#linearGradient1559);fill-opacity:1;stroke-width:0.346186" />
    </g>
  </g>
</svg>
