<?xml version="1.0" encoding="UTF-8" standalone="no"?>
<svg
   sodipodi:docname="shutdown_primary.svg"
   inkscape:version="1.2.2 (b0a8486541, 2022-12-01)"
   id="svg1073"
   version="1.1"
   viewBox="0 0 10 10"
   height="10mm"
   width="10mm"
   xmlns:inkscape="http://www.inkscape.org/namespaces/inkscape"
   xmlns:sodipodi="http://sodipodi.sourceforge.net/DTD/sodipodi-0.dtd"
   xmlns:xlink="http://www.w3.org/1999/xlink"
   xmlns="http://www.w3.org/2000/svg"
   xmlns:svg="http://www.w3.org/2000/svg"
   xmlns:rdf="http://www.w3.org/1999/02/22-rdf-syntax-ns#"
   xmlns:cc="http://creativecommons.org/ns#"
   xmlns:dc="http://purl.org/dc/elements/1.1/">
  <defs
     id="defs1067">
    <linearGradient
       inkscape:collect="always"
       xlink:href="#linearGradient1645"
       id="linearGradient1559"
       x1="2.9998057"
       y1="28.72794"
       x2="28.646643"
       y2="2.2114344"
       gradientUnits="userSpaceOnUse"
       gradientTransform="matrix(0.34616783,0,0,0.34616783,-9.821048,134.88589)" />
    <linearGradient
       inkscape:collect="always"
       id="linearGradient1645">
      <stop
         style="stop-color:#fed1aa;stop-opacity:1"
         offset="0"
         id="stop1641" />
      <stop
         style="stop-color:#bc5c65;stop-opacity:1;"
         offset="1"
         id="stop1643" />
    </linearGradient>
    <linearGradient
       inkscape:collect="always"
       xlink:href="#linearGradient1645"
       id="linearGradient1639"
       x1="13"
       y1="10.5"
       x2="19"
       y2="10.5"
       gradientUnits="userSpaceOnUse"
       gradientTransform="matrix(0.34616783,0,0,0.34616783,-9.821048,134.88589)" />
  </defs>
  <sodipodi:namedview
     inkscape:document-rotation="0"
     inkscape:window-maximized="1"
     inkscape:window-y="0"
     inkscape:window-x="0"
     inkscape:window-height="998"
     inkscape:window-width="1920"
     showgrid="true"
     inkscape:current-layer="layer1"
     inkscape:document-units="mm"
     inkscape:cy="28.369468"
     inkscape:cx="-1.3780814"
     inkscape:zoom="10.521875"
     inkscape:pageshadow="2"
     inkscape:pageopacity="0"
     borderopacity="1"
     bordercolor="#ff0a0a"
     pagecolor="#000000"
     id="base"
     inkscape:pagecheckerboard="true"
     inkscape:showpageshadow="false"
     inkscape:deskcolor="#000000">
    <inkscape:grid
       type="xygrid"
       id="grid873"
       originx="9.8000002e-07"
       originy="2e-07" />
  </sodipodi:namedview>
  <metadata
     id="metadata1070">
    <rdf:RDF>
      <cc:Work
         rdf:about="">
        <dc:format>image/svg+xml</dc:format>
        <dc:type
           rdf:resource="http://purl.org/dc/dcmitype/StillImage" />
      </cc:Work>
    </rdf:RDF>
  </metadata>
  <g
     transform="translate(9.28265,-135.4233)"
     id="layer1"
     inkscape:groupmode="layer"
     inkscape:label="Layer 1">
    <g
       id="g274">
      <path
         style="color:#000000;overflow:visible;opacity:0;fill:none;fill-opacity:1;stroke-width:0.333334"
         id="path945"
         overflow="visible"
         d="m -4.28265,135.4233 c -2.7589344,0 -5,2.24107 -5,5 0,2.75893 2.2410656,5 5,5 2.7589344,0 5,-2.24107 5,-5 0,-2.75893 -2.2410656,-5 -5,-5 z"
         inkscape:connector-curvature="0" />
      <path
         d="m -0.806477,139.30889 c 0.0039,0 0.0077,-0.002 0.01192,-0.003 0.567872,0.056 1.012422,0.53532 1.012422,1.11843 0,0.5843 -0.445097,1.06444 -1.015181,1.11964 -7.32e-4,0.003 -0.0023,0.005 -0.0034,0.007 -0.0039,-2.6e-4 -0.0075,-0.002 -0.01192,-0.002 -0.143339,0 -0.30306,0.0256 -0.362391,0.1689 -0.05933,0.14364 0.02473,0.26889 0.134584,0.37848 0.0036,0.004 0.0089,0.005 0.01307,0.008 0.359241,0.44166 0.338903,1.08936 -0.0728,1.50109 -0.411313,0.41143 -1.059533,0.43231 -1.501345,0.0733 -0.0067,0.003 -0.01372,0.005 -0.02036,0.008 -0.0025,-0.003 -0.0039,-0.007 -0.0074,-0.0111 -0.10176,-0.1012 -0.232094,-0.19639 -0.375611,-0.13652 -0.143759,0.0596 -0.172327,0.2071 -0.172327,0.36256 0,0.0142 0.0036,0.0267 0.0084,0.039 -0.07074,0.55378 -0.540277,0.9828 -1.113381,0.9828 -0.58339,0 -1.062816,-0.44415 -1.119549,-1.01271 -0.0064,-0.002 -0.01156,-0.005 -0.0179,-0.008 2.81e-4,-0.003 0.0011,-0.005 0.0011,-0.008 0,-0.14336 -0.02536,-0.30267 -0.168792,-0.36199 -0.143514,-0.0599 -0.268905,0.0249 -0.378616,0.13458 -0.0068,0.006 -0.0098,0.015 -0.0145,0.0224 -0.441268,0.34552 -1.07822,0.32161 -1.48417,-0.0844 -0.412277,-0.41228 -0.432473,-1.06133 -0.07155,-1.50329 -0.0036,-0.007 -0.0062,-0.0161 -0.0091,-0.0244 0.101373,-0.10118 0.195965,-0.23181 0.136518,-0.37519 -0.0596,-0.14337 -0.207643,-0.17248 -0.362967,-0.17248 -0.01015,0 -0.01903,0.004 -0.02872,0.006 -0.553317,-0.0704 -0.982207,-0.54079 -0.982207,-1.11327 0,-0.5856 0.447173,-1.06584 1.018737,-1.11956 0.0013,-0.005 0.005,-0.009 0.007,-0.0148 0.141316,-9.9e-4 0.295816,-0.0277 0.354054,-0.16867 0.05933,-0.1431 -0.02419,-0.26779 -0.133756,-0.37738 -0.359963,-0.44139 -0.339764,-1.08991 0.07222,-1.50188 0.413489,-0.4138 1.066526,-0.4329 1.508335,-0.0673 0.005,-0.002 0.0094,-0.003 0.01429,-0.005 0.100541,0.0991 0.228529,0.18882 0.36902,0.13075 0.143511,-0.0597 0.172363,-0.20763 0.172363,-0.36284 0,-5.9e-4 -2.82e-4,-8.5e-4 -2.82e-4,-9.9e-4 0.05695,-0.56815 0.53517,-1.01175 1.118281,-1.01175 0.586554,0 0.986163,0.44855 1.038618,1.02121 0.0011,4e-4 -8.45e-4,9.9e-4 0,0.002 0,0.0339 -0.0041,0.0685 0,0.10204 v 0 c 0,0.1552 -0.03941,0.28141 -0.194863,0.28141 -0.155046,0 -0.280984,-0.12621 -0.280984,-0.28141 0,-0.31081 -0.252008,-0.56252 -0.562659,-0.56252 -0.310791,0 -0.562526,0.25171 -0.562526,0.56252 v 0.28141 l -0.0013,0.002 c 0.0054,0.18596 -0.113153,0.35954 -0.299789,0.41501 -0.0049,9.9e-4 -0.0093,9.9e-4 -0.01371,0.003 l -0.0033,0.004 c -0.13156,0.0443 -0.259291,0.0971 -0.381799,0.15905 l -0.0081,-9.9e-4 c -0.0051,0.002 -0.0087,0.006 -0.01347,0.009 -0.181973,0.0985 -0.40389,0.049 -0.528857,-0.10685 l -0.175387,-0.17524 c -0.219878,-0.21974 -0.576115,-0.21974 -0.795588,0 -0.219576,0.21975 -0.219576,0.576 0,0.79546 l 0.198854,0.19898 0.0011,0.008 c 0.131561,0.12852 0.16948,0.33179 0.07757,0.50152 -0.0011,0.002 -0.0034,0.004 -0.0054,0.007 l 0.0011,0.009 c -0.06122,0.12264 -0.114784,0.25035 -0.158732,0.38219 l -0.0085,0.006 c -0.0011,0.005 -0.0013,0.009 -0.0029,0.0151 -0.05972,0.20081 -0.255704,0.32219 -0.456491,0.29721 h -0.237927 c -0.310796,0 -0.562647,0.25201 -0.562647,0.56252 0,0.31045 0.251851,0.56258 0.562647,0.56258 h 0.280982 l 0.0084,0.006 c 0.181978,-2.6e-4 0.350471,0.11649 0.405126,0.29969 5.61e-4,0.002 5.61e-4,0.003 5.61e-4,0.005 l 0.01054,0.007 c 0.04422,0.13157 0.09722,0.25928 0.159037,0.38176 l -0.0023,0.0171 c 0.0013,0.003 0.004,0.005 0.0063,0.009 0.09849,0.18186 0.04918,0.40379 -0.106846,0.52875 l -0.170847,0.17111 c -0.219582,0.21945 -0.219582,0.5757 0,0.79544 0.219453,0.21943 0.575706,0.21943 0.795583,0 l 0.198996,-0.19886 0.0082,-9.9e-4 c 0.128257,-0.128 0.329309,-0.16398 0.496992,-0.0733 0.0011,4.6e-4 0.0013,9.9e-4 0.0029,0.002 l 0.01811,-0.003 c 0.122646,0.0613 0.250356,0.1148 0.3822,0.15875 l 0.01133,0.015 c 0.0013,4.6e-4 0.0037,4.6e-4 0.006,9.9e-4 0.183752,0.0544 0.300335,0.22358 0.299792,0.40622 l 0.0013,0.002 v 0.28151 c 0,0.31064 0.251729,0.56252 0.562524,0.56252 0.310655,0 0.562662,-0.25188 0.562662,-0.56252 v -0.28146 l 0.0013,-0.002 c -5.61e-4,-0.18266 0.116057,-0.35157 0.299809,-0.40622 0.0016,-6.7e-4 0.0036,-6.7e-4 0.0062,-9.9e-4 l 0.01108,-0.0148 c 0.13156,-0.0443 0.259153,-0.0971 0.381763,-0.15902 l 0.01859,0.003 c 8.44e-4,-4.5e-4 0.0013,-0.001 0.0025,-0.002 0.167684,-0.0906 0.368754,-0.0546 0.497008,0.0733 l 0.0084,9.9e-4 0.198994,0.19886 c 0.219454,0.21944 0.575708,0.21944 0.795583,0 0.219598,-0.21972 0.219598,-0.57599 0,-0.79544 l -0.170601,-0.1712 c -0.156012,-0.12496 -0.205182,-0.3469 -0.106701,-0.52873 0.0015,-0.003 0.0039,-0.006 0.0062,-0.009 l -0.0025,-0.0187 c 0.06127,-0.12247 0.115259,-0.24853 0.158788,-0.37982 l 0.01095,-0.008 c 3.1e-4,-0.002 6.48e-4,-0.003 9.56e-4,-0.004 0.05459,-0.18323 0.222952,-0.29968 0.404913,-0.29968 l 0.0082,-0.006 h 0.28136901 c 0.310794,0 0.562523,-0.25215 0.562523,-0.5626 0,-0.31051 -0.251729,-0.56253 -0.562523,-0.56253 H -1.145082 c -0.201068,0.0251 -0.396755,-0.0966 -0.456364,-0.29718 -0.0012,-0.005 -0.0015,-0.0105 -0.0029,-0.0154 l -0.0084,-0.006 c -0.04372,-0.13155 -0.09686,-0.25928 -0.158515,-0.3815 l 0.0012,-0.009 c -0.0012,-0.003 -0.0034,-0.005 -0.0054,-0.007 -0.09187,-0.16975 -0.05396,-0.37302 0.07745,-0.50156 l 0.0012,-0.008 0.198995,-0.199 c 0.219596,-0.21945 0.219596,-0.5757 0,-0.79544 -0.104383,-0.10412 -0.257092,-0.16355 -0.393731,-0.16892 -0.155467,0 -0.281402,-0.12579 -0.281402,-0.28127 0,-0.15546 0.125935,-0.28125 0.281402,-0.28125 0.02015,0 0.03969,0.002 0.05876,0.006 0.264511,0.0174 0.531217,0.12594 0.73255,0.32755 0.413206,0.4131 0.432846,1.06461 0.06923,1.50643 0.0013,0.002 0.0016,0.006 0.0033,0.008 -0.0013,0.001 -0.0029,0.001 -0.0041,0.003 -0.101483,0.10153 -0.196386,0.23209 -0.136915,0.37589 0.05928,0.14348 0.20744599,0.17234 0.36261799,0.17234 z m -1.928846,-1.41565 c -0.155469,0 -0.281266,-0.1261 -0.281266,-0.2814 0,-0.15505 0.125797,-0.28099 0.281266,-0.28099 0.155043,0 0.280983,0.12594 0.280983,0.28099 0,0.1553 -0.12594,0.2814 -0.280983,0.2814 z"
         id="path2-36753-6-7-5"
         sodipodi:nodetypes="scsccsccccccccscsccscccccccscsccccccccscsccccsssscccccccccccccccccccccsssccccccccccccccccccccccsssccccccccccccccccccccccsssccccccccccccssccccccsscsssc"
         style="fill:url(#linearGradient1559);fill-opacity:1;stroke-width:0.346179" />
      <path
         d="m -4.282361,141.11692 c 0.572566,0 1.038504,-0.39402 1.038504,-0.87819 v -3.43613 c 0,-0.48418 -0.465938,-0.87819 -1.038504,-0.87819 -0.572569,0 -1.038507,0.39401 -1.038507,0.87819 v 3.43624 c 1.45e-4,0.48406 0.465938,0.87808 1.038507,0.87808 z m -0.489136,-4.17617 c 0,-0.33869 0.314893,-0.50921 0.489136,-0.50921 0.174241,0 0.489132,0.16321 0.489132,0.50955 v 3.22838 c 0,0.25444 -0.253555,0.44066 -0.489132,0.44066 -0.25088,0 -0.489136,-0.19376 -0.489136,-0.44066 z"
         id="path848"
         style="fill:url(#linearGradient1639);fill-opacity:1;stroke-width:0.132857"
         sodipodi:nodetypes="ssssscscsssssc" />
    </g>
  </g>
</svg>
