<?xml version="1.0" encoding="UTF-8" standalone="no"?>
<svg
   sodipodi:docname="suspend_primary.svg"
   inkscape:version="1.2.2 (b0a8486541, 2022-12-01)"
   id="svg2343"
   version="1.1"
   viewBox="0 0 10 10"
   height="10mm"
   width="10mm"
   xmlns:inkscape="http://www.inkscape.org/namespaces/inkscape"
   xmlns:sodipodi="http://sodipodi.sourceforge.net/DTD/sodipodi-0.dtd"
   xmlns:xlink="http://www.w3.org/1999/xlink"
   xmlns="http://www.w3.org/2000/svg"
   xmlns:svg="http://www.w3.org/2000/svg"
   xmlns:rdf="http://www.w3.org/1999/02/22-rdf-syntax-ns#"
   xmlns:cc="http://creativecommons.org/ns#"
   xmlns:dc="http://purl.org/dc/elements/1.1/">
  <defs
     id="defs2337">
    <linearGradient
       id="a-3"
       x1="16"
       x2="16"
       y1="1"
       y2="31"
       gradientUnits="userSpaceOnUse">
      <stop
         stop-color="#4d83f3"
         offset="0"
         id="stop969" />
      <stop
         stop-color="#46cafa"
         offset="1"
         id="stop971" />
    </linearGradient>
    <linearGradient
       inkscape:collect="always"
       xlink:href="#linearGradient2533"
       id="linearGradient941"
       x1="7.9980001"
       y1="12.95"
       x2="16.6304"
       y2="12.95"
       gradientUnits="userSpaceOnUse"
       gradientTransform="matrix(0.24659325,0,0,0.24478709,96.490524,129.05817)" />
    <linearGradient
       inkscape:collect="always"
       id="linearGradient2533">
      <stop
         style="stop-color:#2a7fff;stop-opacity:1"
         offset="0"
         id="stop2529" />
      <stop
         style="stop-color:#aaccff;stop-opacity:1"
         offset="1"
         id="stop2531" />
    </linearGradient>
    <linearGradient
       inkscape:collect="always"
       xlink:href="#linearGradient2533"
       id="linearGradient949"
       x1="19.014999"
       y1="20.35"
       x2="23.985168"
       y2="20.35"
       gradientUnits="userSpaceOnUse"
       gradientTransform="matrix(0.37934574,0,0,0.37656726,93.836223,126.26139)" />
    <linearGradient
       inkscape:collect="always"
       xlink:href="#linearGradient2533"
       id="linearGradient768"
       gradientUnits="userSpaceOnUse"
       gradientTransform="matrix(0.34875333,0,0,0.34619888,127.89826,127.62373)"
       x1="-89.977715"
       y1="28.674768"
       x2="-72.243958"
       y2="9.5330477" />
  </defs>
  <sodipodi:namedview
     inkscape:document-rotation="0"
     inkscape:window-maximized="1"
     inkscape:window-y="0"
     inkscape:window-x="0"
     inkscape:window-height="998"
     inkscape:window-width="1920"
     showgrid="true"
     inkscape:current-layer="layer1"
     inkscape:document-units="mm"
     inkscape:cy="12.544643"
     inkscape:cx="11.294643"
     inkscape:zoom="11.2"
     inkscape:pageshadow="2"
     inkscape:pageopacity="0"
     borderopacity="1"
     bordercolor="#f80000"
     pagecolor="#000000"
     id="base"
     inkscape:pagecheckerboard="true"
     inkscape:showpageshadow="false"
     inkscape:deskcolor="#000000">
    <inkscape:grid
       type="xygrid"
       id="grid842"
       originx="0"
       originy="0" />
  </sodipodi:namedview>
  <metadata
     id="metadata2340">
    <rdf:RDF>
      <cc:Work
         rdf:about="">
        <dc:format>image/svg+xml</dc:format>
        <dc:type
           rdf:resource="http://purl.org/dc/dcmitype/StillImage" />
      </cc:Work>
    </rdf:RDF>
  </metadata>
  <g
     transform="translate(-95.662116,-128.16315)"
     id="layer1"
     inkscape:groupmode="layer"
     inkscape:label="Layer 1">
    <g
       id="g273">
      <path
         d="m 100.24745,132.75686 h -0.714221 l 0.979661,-1.18224 c 0.0837,-0.10214 0.10125,-0.24266 0.0454,-0.36227 -0.0574,-0.1196 -0.17811,-0.19588 -0.31084,-0.19588 h -1.44066 c -0.190332,0 -0.344009,0.15251 -0.344009,0.34148 0,0.18896 0.153677,0.34149 0.344009,0.34149 h 0.71422 l -0.97965,1.18225 c -0.08383,0.10215 -0.101286,0.24269 -0.04539,0.36229 0.05766,0.11959 0.178122,0.19589 0.310841,0.19589 h 1.440659 c 0.19036,0 0.34403,-0.15255 0.34403,-0.34151 0,-0.18895 -0.15544,-0.3415 -0.34403,-0.3415 z"
         id="path4-3"
         style="fill:url(#linearGradient941);fill-opacity:1;stroke-width:0.017399" />
      <path
         d="m 102.63018,134.39281 h -0.63258 l 0.86769,-1.04712 c 0.0741,-0.0905 0.0897,-0.21494 0.0399,-0.32088 -0.0513,-0.10599 -0.15775,-0.1735 -0.2753,-0.1735 h -1.276 c -0.1686,0 -0.30472,0.13511 -0.30472,0.30249 0,0.16733 0.13612,0.30245 0.30472,0.30245 h 0.63256 l -0.86768,1.04712 c -0.0741,0.0905 -0.0897,0.21495 -0.04,0.32087 0.0513,0.10589 0.15776,0.17351 0.27533,0.17351 h 1.27599 c 0.1686,0 0.30471,-0.13512 0.30471,-0.30247 0,-0.16737 -0.13763,-0.30247 -0.30471,-0.30247 z"
         id="path4-3-6"
         style="fill:url(#linearGradient949);fill-opacity:1;stroke-width:0.0154102" />
      <path
         d="m 104.1974,132.04709 c 0.004,0 0.007,-0.002 0.0119,-0.002 0.5721,0.0561 1.01997,0.53537 1.01997,1.11853 0,0.58434 -0.44842,1.06453 -1.02275,1.11974 -6.3e-4,0.002 -0.002,0.004 -0.003,0.007 -0.004,-2.9e-4 -0.007,-0.002 -0.0119,-0.002 -0.14442,0 -0.30533,0.0256 -0.36511,0.16892 -0.0599,0.14367 0.0251,0.26891 0.13559,0.37851 0.004,0.004 0.008,0.005 0.013,0.008 0.36192,0.44171 0.34145,1.08946 -0.0733,1.50124 -0.41438,0.41146 -1.06742,0.43233 -1.51255,0.0733 -0.006,0.004 -0.0142,0.004 -0.0203,0.008 -0.003,-0.004 -0.004,-0.007 -0.007,-0.0111 -0.10239,-0.10121 -0.23383,-0.1964 -0.37842,-0.13652 -0.14484,0.0596 -0.17361,0.2071 -0.17361,0.36258 0,0.0142 0.004,0.0267 0.008,0.039 -0.0714,0.5538 -0.5443,0.98286 -1.12169,0.98286 -0.58776,0 -1.070755,-0.44419 -1.127918,-1.0128 -0.0067,-0.002 -0.01156,-0.005 -0.01803,-0.007 2.85e-4,-0.002 0.0012,-0.005 0.0012,-0.008 0,-0.14336 -0.0256,-0.3027 -0.170049,-0.36204 -0.144593,-0.0599 -0.270915,0.0249 -0.381436,0.13459 -0.0067,0.006 -0.0099,0.015 -0.01464,0.0226 -0.444561,0.34554 -1.086265,0.32165 -1.495258,-0.0844 -0.415356,-0.41231 -0.435704,-1.06143 -0.07207,-1.50342 -0.0036,-0.007 -0.006,-0.0161 -0.0093,-0.0243 0.102114,-0.1012 0.197432,-0.23184 0.137536,-0.37523 -0.05997,-0.14338 -0.209192,-0.1725 -0.365681,-0.1725 -0.01022,0 -0.01924,0.004 -0.02893,0.006 -0.557451,-0.0704 -0.989538,-0.54086 -0.989538,-1.11338 0,-0.58565 0.45051,-1.06593 1.026344,-1.11967 0.0012,-0.004 0.0042,-0.009 0.0073,-0.0148 0.142379,-9.9e-4 0.298032,-0.0277 0.356711,-0.16866 0.05978,-0.14313 -0.02433,-0.26783 -0.134766,-0.37742 -0.362645,-0.44143 -0.342305,-1.09 0.07277,-1.50203 0.416583,-0.41378 1.074491,-0.43292 1.519606,-0.0676 0.0042,-0.002 0.0095,-0.003 0.0144,-0.005 0.101287,0.0991 0.230233,0.18886 0.371762,0.13077 0.144593,-0.0597 0.173649,-0.20766 0.173649,-0.36288 0,-5.7e-4 -2.8e-4,-6.6e-4 -2.8e-4,-9.9e-4 0.05738,-0.56821 0.539158,-1.01184 1.126628,-1.01184 0.59093,0 1.07534,0.44861 1.12818,1.02129 10e-4,4.4e-4 0.002,9.9e-4 0.003,9.9e-4 0,0.0339 10e-4,0.0685 0.006,0.10206 h -0.004 c 0,0.15522 -0.12673,0.28144 -0.28338,0.28144 -0.1562,0 -0.28308,-0.12622 -0.28308,-0.28144 0,-0.31081 -0.25388,-0.56258 -0.56685,-0.56258 -0.31312,0 -0.56673,0.25177 -0.56673,0.56258 v 0.28144 l -10e-4,0.002 c 0.004,0.18598 -0.114,0.35958 -0.302027,0.41505 -0.0042,9.9e-4 -0.0094,9.9e-4 -0.01386,0.002 l -0.003,0.004 c -0.13253,0.0443 -0.261227,0.0971 -0.384645,0.15907 l -0.0082,-9.9e-4 c -0.0042,0.002 -0.0087,0.006 -0.01355,0.009 -0.183348,0.0985 -0.406913,0.0489 -0.532823,-0.10685 l -0.176683,-0.17527 c -0.22153,-0.21974 -0.580426,-0.21974 -0.801534,0 -0.221218,0.21977 -0.221218,0.57604 0,0.79552 l 0.200331,0.19902 0.0012,0.008 c 0.132543,0.12856 0.170742,0.33183 0.07819,0.5016 -0.0012,0.002 -0.0036,0.004 -0.0042,0.007 l 0.0012,0.009 c -0.06166,0.12265 -0.115663,0.25038 -0.159932,0.38222 l -0.0086,0.006 c -0.0012,0.004 -0.0012,0.009 -0.003,0.015 -0.06016,0.20079 -0.257616,0.3222 -0.4599,0.2972 h -0.239921 c -0.313118,0 -0.566844,0.25203 -0.566844,0.56256 0,0.31049 0.253726,0.56266 0.566844,0.56266 h 0.283085 l 0.0085,0.006 c 0.183343,-2.9e-4 0.353093,0.11647 0.408152,0.2997 6.48e-4,9.9e-4 6.48e-4,0.003 6.48e-4,0.004 l 0.01062,0.007 c 0.04454,0.13156 0.09794,0.25929 0.16022,0.38181 l -0.0024,0.0172 c 0.0012,0.003 0.0036,0.005 0.0067,0.008 0.09923,0.18185 0.04956,0.4038 -0.107648,0.52877 l -0.172117,0.17114 c -0.221227,0.21949 -0.221227,0.57577 0,0.79551 0.221087,0.21948 0.580004,0.21948 0.80152,0 l 0.200486,-0.19887 0.0084,-9.9e-4 c 0.129205,-0.128 0.33176,-0.16399 0.500695,-0.0733 0.0012,5.5e-4 0.0012,9.9e-4 0.003,0.002 l 0.01828,-0.002 c 0.123563,0.0614 0.252235,0.11483 0.385057,0.15877 l 0.01143,0.015 c 0.0012,5.5e-4 0.0036,5.5e-4 0.006,9.9e-4 0.185126,0.0544 0.302586,0.2236 0.302016,0.40627 l 10e-4,0.002 v 0.28153 c 0,0.3107 0.25361,0.56259 0.56675,0.56259 0.31297,0 0.56685,-0.25189 0.56685,-0.56259 v -0.28158 l 0.001,-0.002 c -6.4e-4,-0.18269 0.11695,-0.3516 0.30207,-0.40627 0.002,-6.5e-4 0.004,-6.5e-4 0.005,-9.9e-4 l 0.011,-0.0148 c 0.13253,-0.0443 0.26108,-0.0971 0.38459,-0.15907 l 0.0186,0.002 c 6.7e-4,-5.4e-4 0.001,-9.9e-4 0.002,-0.002 0.16894,-0.0906 0.37153,-0.0546 0.50071,0.0733 l 0.008,0.001 0.2005,0.19886 c 0.22108,0.21946 0.57998,0.21946 0.80151,0 0.22123,-0.21976 0.22123,-0.57603 0,-0.79553 l -0.17225,-0.17112 c -0.15719,-0.12499 -0.20672,-0.34692 -0.10751,-0.52878 9.9e-4,-0.003 0.004,-0.006 0.005,-0.008 l -0.002,-0.0187 c 0.0619,-0.12251 0.11608,-0.2486 0.15992,-0.37989 l 0.0108,-0.008 c 3.3e-4,-0.001 6.6e-4,-0.003 6.6e-4,-0.004 0.0549,-0.18323 0.22454,-0.2997 0.40786,-0.2997 l 0.008,-0.006 h 0.28346 c 0.31312,0 0.56672,-0.25216 0.56672,-0.56264 0,-0.31055 -0.2536,-0.56256 -0.56672,-0.56256 h -0.23989 c -0.20256,0.0252 -0.39972,-0.0966 -0.45979,-0.29723 -0.001,-0.004 -0.001,-0.009 -0.003,-0.0154 l -0.008,-0.006 c -0.0445,-0.13155 -0.0981,-0.25931 -0.16006,-0.38156 l 9.9e-4,-0.009 c -9.9e-4,-0.002 -0.004,-0.004 -0.004,-0.007 -0.0924,-0.16975 -0.0543,-0.373 0.0783,-0.50157 l 10e-4,-0.008 0.20049,-0.19899 c 0.22122,-0.21947 0.22122,-0.57577 0,-0.79552 -0.10522,-0.10414 -0.25902,-0.16355 -0.39667,-0.16892 -0.15663,0 -0.2835,-0.12582 -0.2835,-0.28129 0,-0.1555 0.12687,-0.28131 0.2835,-0.28131 0.0201,0 0.0398,9.9e-4 0.0594,0.006 0.26647,0.0173 0.53516,0.12594 0.73801,0.32758 0.4163,0.41314 0.43609,1.06472 0.0699,1.50658 0.001,0.002 0.001,0.005 0.003,0.008 -9.9e-4,9.9e-4 -0.003,9.9e-4 -0.004,0.003 -0.10215,0.10154 -0.19785,0.23209 -0.13794,0.37591 0.06,0.14353 0.209,0.17238 0.36532,0.17238 z m -1.94326,-1.41577 c -0.15661,0 -0.28334,-0.1261 -0.28334,-0.28145 0,-0.15504 0.12673,-0.28101 0.28334,-0.28101 0.15624,0 0.28311,0.12597 0.28311,0.28101 0,0.15535 -0.12687,0.28145 -0.28311,0.28145 z m -1.55858,0.84387 z"
         id="path2-36753-6-75"
         sodipodi:nodetypes="scsccsccccccccscsccscccccccscsccccccccscsccccsssscccccccccccccccccccccsssccccccccccccccccccccccsssccccccccccccccccccccccsssccccccccccccssccccccssssssccccccccccc"
         style="fill:url(#linearGradient768);fill-opacity:1;stroke-width:0.0176452" />
    </g>
  </g>
</svg>
