<?xml version="1.0" encoding="UTF-8" standalone="no"?>
<svg
   sodipodi:docname="switch_primary.svg"
   inkscape:version="1.2.2 (b0a8486541, 2022-12-01)"
   id="svg1699"
   version="1.1"
   viewBox="0 0 10 10"
   height="10mm"
   width="10mm"
   xmlns:inkscape="http://www.inkscape.org/namespaces/inkscape"
   xmlns:sodipodi="http://sodipodi.sourceforge.net/DTD/sodipodi-0.dtd"
   xmlns:xlink="http://www.w3.org/1999/xlink"
   xmlns="http://www.w3.org/2000/svg"
   xmlns:svg="http://www.w3.org/2000/svg"
   xmlns:rdf="http://www.w3.org/1999/02/22-rdf-syntax-ns#"
   xmlns:cc="http://creativecommons.org/ns#"
   xmlns:dc="http://purl.org/dc/elements/1.1/">
  <defs
     id="defs1693">
    <linearGradient
       id="linearGradient1028"
       x1="16"
       x2="16"
       y1="1091.5"
       y2="1121.5"
       gradientUnits="userSpaceOnUse">
      <stop
         stop-color="#9575cd"
         offset="0"
         id="stop1024"
         style="stop-color:#7d56c3;stop-opacity:1" />
      <stop
         stop-color="#cd75bc"
         offset="1"
         id="stop1026"
         style="stop-color:#963683;stop-opacity:1" />
    </linearGradient>
    <linearGradient
       id="a-9"
       x1="16"
       x2="16"
       y1="1091.5"
       y2="1121.5"
       gradientUnits="userSpaceOnUse">
      <stop
         stop-color="#9575cd"
         offset="0"
         id="stop1052" />
      <stop
         stop-color="#cd75bc"
         offset="1"
         id="stop1054" />
    </linearGradient>
    <linearGradient
       inkscape:collect="always"
       xlink:href="#linearGradient1149"
       id="linearGradient3459"
       x1="2.1175535"
       y1="22.949059"
       x2="28.882109"
       y2="10.413925"
       gradientUnits="userSpaceOnUse"
       gradientTransform="matrix(0.18837501,0,0,0.18838106,100.66019,83.833792)" />
    <linearGradient
       inkscape:collect="always"
       id="linearGradient1149">
      <stop
         style="stop-color:#a36ff6;stop-opacity:1;"
         offset="0"
         id="stop1145" />
      <stop
         style="stop-color:#20c997;stop-opacity:1"
         offset="1"
         id="stop1147" />
    </linearGradient>
    <linearGradient
       inkscape:collect="always"
       xlink:href="#linearGradient1149"
       id="linearGradient1573"
       x1="3.5999999"
       y1="28.1"
       x2="28.6"
       y2="3.0999999"
       gradientUnits="userSpaceOnUse"
       gradientTransform="matrix(0.3462602,0,0,0.34618148,98.186384,81.412475)" />
  </defs>
  <sodipodi:namedview
     inkscape:document-rotation="0"
     inkscape:window-maximized="1"
     inkscape:window-y="0"
     inkscape:window-x="0"
     inkscape:window-height="998"
     inkscape:window-width="1920"
     showgrid="true"
     inkscape:current-layer="layer1"
     inkscape:document-units="mm"
     inkscape:cy="20.406249"
     inkscape:cx="15.843749"
     inkscape:zoom="16.000001"
     inkscape:pageshadow="2"
     inkscape:pageopacity="0"
     borderopacity="1"
     bordercolor="#ff0e0e"
     pagecolor="#000000"
     id="base"
     inkscape:pagecheckerboard="true"
     inkscape:showpageshadow="false"
     inkscape:deskcolor="#000000">
    <inkscape:grid
       type="xygrid"
       id="grid844"
       originx="0"
       originy="0" />
  </sodipodi:namedview>
  <metadata
     id="metadata1696">
    <rdf:RDF>
      <cc:Work
         rdf:about="">
        <dc:format>image/svg+xml</dc:format>
        <dc:type
           rdf:resource="http://purl.org/dc/dcmitype/StillImage" />
      </cc:Work>
    </rdf:RDF>
  </metadata>
  <g
     transform="translate(-98.729144,-81.918987)"
     id="layer1"
     inkscape:groupmode="layer"
     inkscape:label="Layer 1">
    <g
       id="g280">
      <circle
         style="opacity:0;fill:none;fill-opacity:1;stroke-width:0.282223"
         id="circle955"
         r="4.2333331"
         cy="-86.152321"
         cx="102.96248"
         transform="scale(1,-1)" />
      <path
         fill-rule="evenodd"
         clip-rule="evenodd"
         d="m 106.16722,87.425662 -0.83552,0.835549 c -0.13027,0.130281 -0.3008,0.19561 -0.47132,0.197109 -0.003,1.03e-4 -0.005,0.0024 -0.005,0.0024 -0.27826,0 -0.50377,-0.225546 -0.50377,-0.503853 v -0.04211 c 0,-0.06947 -0.0559,-0.125757 -0.12596,-0.125757 h -0.0132 c -0.15042,0 -0.28218,-0.07938 -0.35619,-0.198004 l -0.61862,-1.072009 c -0.0296,-0.04372 -0.0803,-0.07391 -0.1376,-0.07391 h -0.005 c -0.23175,0 -0.41983,-0.187846 -0.41983,-0.419656 v -0.08401 c 0,-0.09287 -0.075,-0.167964 -0.16775,-0.167964 -0.0151,0 -0.0294,0.0036 -0.0437,0.0054 -0.0713,0.0092 -0.1401,0.04024 -0.19484,0.09467 l -0.83552,0.835549 c -0.13169,0.131769 -0.13169,0.345627 0,0.477459 l 0.83552,0.835455 c 0.0547,0.05484 0.12349,0.08528 0.19483,0.09467 0.0146,0.0054 0.0283,0.0054 0.0438,0.0054 0.0925,0 0.16774,-0.07531 0.16774,-0.168002 v -0.08399 c 0,-0.231772 0.18807,-0.419688 0.41983,-0.419688 h 0.0837 c 0.0927,0 0.16798,0.07532 0.16798,0.168013 0,0.09254 -0.075,0.167905 -0.16798,0.167905 h -0.0424 c -0.0696,0 -0.12596,0.05605 -0.12596,0.12579 v 0.04211 c 0,0.278263 -0.22556,0.503812 -0.50356,0.503812 -0.003,0 -0.005,-0.0018 -0.005,-0.0024 -0.17076,-0.0024 -0.34111,-0.06718 -0.47135,-0.197084 l -0.83558,-0.835343 c -0.13182,-0.131898 -0.19831,-0.304671 -0.19831,-0.477391 0,-0.172837 0.0666,-0.345595 0.19831,-0.477514 l 0.83556,-0.835438 c 0.13024,-0.130269 0.30057,-0.195617 0.47137,-0.197111 0.003,-2.43e-4 0.005,-0.0018 0.005,-0.0018 0.27802,0 0.50357,0.225565 0.50357,0.503818 v 0.04211 c 0,0.06944 0.0559,0.125925 0.12597,0.125925 h 0.0134 c 0.14967,0 0.28108,0.07845 0.35525,0.196563 l 0.6201,1.074047 c 0.0299,0.04325 0.08,0.07274 0.13708,0.07274 h 0.005 c 0.23196,0 0.41983,0.187917 0.41983,0.419703 v 0.08393 c 0,0.09282 0.075,0.167995 0.1679,0.167995 0.0151,0 0.0295,-0.0036 0.0438,-0.0054 0.0713,-0.0092 0.14008,-0.04024 0.19486,-0.0947 l 0.83553,-0.835383 c 0.13172,-0.131872 0.13172,-0.345736 0,-0.47748 l -0.83559,-0.835349 c -0.0547,-0.05484 -0.1235,-0.08531 -0.19484,-0.09472 -0.0145,-0.0054 -0.0283,-0.0054 -0.0437,-0.0054 -0.0926,0 -0.16792,0.07525 -0.16792,0.167952 v 0.08394 0.251674 c 0,0.09283 -0.0751,0.167945 -0.1679,0.167945 -0.0924,0 -0.16796,-0.07525 -0.16796,-0.167945 V 86.02424 85.9403 c 0,-0.278253 0.22555,-0.503788 0.50378,-0.503788 0.003,0 0.005,0.0012 0.005,0.0018 0.17053,0.0018 0.34108,0.06719 0.47135,0.19709 l 0.83551,0.83548 c 0.13179,0.131834 0.19822,0.304618 0.19822,0.477391 0,0.172771 -0.0666,0.345594 -0.19822,0.47741 z m -2.23631,-0.98123 c -0.0926,0 -0.16788,-0.07524 -0.16788,-0.167919 0,-0.09262 0.075,-0.167712 0.16788,-0.167712 0.0925,0 0.1679,0.07526 0.1679,0.167712 0,0.0928 -0.0751,0.167919 -0.1679,0.167919 z"
         id="path2-36"
         style="fill:url(#linearGradient3459);fill-opacity:1;stroke-width:0.0104946" />
      <path
         d="m 107.20343,85.801002 c 0.003,0 0.007,-0.0018 0.012,-0.0018 0.56806,0.05619 1.01273,0.535345 1.01273,1.118481 0,0.584261 -0.44522,1.064413 -1.01544,1.119642 -6.4e-4,0.0018 -0.002,0.0036 -0.003,0.0078 -0.003,-2.5e-4 -0.005,-0.0018 -0.0117,-0.0018 -0.1434,0 -0.30316,0.02535 -0.3625,0.168905 -0.06,0.14367 0.0247,0.268912 0.13462,0.37852 0.003,0.003 0.008,0.0048 0.0135,0.0085 0.35932,0.44164 0.33902,1.089368 -0.0729,1.501116 -0.4114,0.41141 -1.05979,0.432351 -1.50173,0.07327 -0.005,0.003 -0.0138,0.0036 -0.0202,0.0079 -0.002,-0.003 -0.003,-0.0078 -0.005,-0.01105 -0.10164,-0.101422 -0.2321,-0.196421 -0.3757,-0.136564 -0.14379,0.05983 -0.17239,0.207151 -0.17239,0.362544 0,0.01412 0.003,0.02654 0.008,0.03965 -0.0707,0.553678 -0.5404,0.982778 -1.11366,0.982778 -0.58355,0 -1.0631,-0.4442 -1.11986,-1.01275 -0.005,-0.0018 -0.0108,-0.0042 -0.0181,-0.0079 3.2e-4,-0.0018 0.001,-0.0042 0.001,-0.0076 0,-0.143366 -0.0253,-0.302699 -0.16879,-0.361982 -0.14355,-0.06 -0.26898,0.02433 -0.37876,0.134543 -0.005,0.0054 -0.009,0.01508 -0.0148,0.02217 -0.4414,0.345544 -1.0785,0.321642 -1.48454,-0.08455 -0.41242,-0.412314 -0.43259,-1.061388 -0.0716,-1.503336 -0.003,-0.0078 -0.004,-0.01616 -0.008,-0.02389 0.10131,-0.101391 0.19601,-0.231772 0.13656,-0.375243 -0.0603,-0.143292 -0.20778,-0.172464 -0.36309,-0.172464 -0.009,0 -0.0192,0.003 -0.0284,0.0054 -0.553556,-0.07006 -0.982536,-0.540792 -0.982536,-1.113302 0,-0.585607 0.44724,-1.065886 1.019026,-1.119588 0.001,-0.0036 0.004,-0.0093 0.005,-0.01472 0.14136,-0.0012 0.29593,-0.02757 0.35419,-0.168652 0.0601,-0.143104 -0.024,-0.267824 -0.13382,-0.377387 -0.36006,-0.441407 -0.33989,-1.089946 0.0723,-1.501952 0.41361,-0.413773 1.06685,-0.432904 1.50874,-0.06744 0.004,-0.0018 0.009,-0.0024 0.0145,-0.0042 0.1005,0.09897 0.22859,0.188795 0.36913,0.130681 0.14357,-0.05994 0.17241,-0.207618 0.17241,-0.362799 0,-5.53e-4 -2.7e-4,-6.24e-4 -2.7e-4,-0.0012 0.057,-0.568195 0.53531,-1.011746 1.11859,-1.011746 0.58667,0 1.06765,0.448584 1.12011,1.021265 9.9e-4,3.95e-4 0.002,0.0012 0.002,0.0012 0,0.03394 9.9e-4,0.06831 0.005,0.102107 h -0.003 c 0,0.155199 -0.12583,0.281491 -0.2813,0.281491 -0.15514,0 -0.28109,-0.126292 -0.28109,-0.281491 0,-0.310798 -0.25205,-0.56249 -0.56281,-0.56249 -0.31089,0 -0.56266,0.251692 -0.56266,0.56249 v 0.281505 l -9.9e-4,0.0018 c 0.004,0.185922 -0.11318,0.359511 -0.29981,0.415022 -0.004,0.0012 -0.009,0.0012 -0.014,0.0018 l -0.002,0.0036 c -0.13161,0.0439 -0.25938,0.09697 -0.38193,0.159027 l -0.007,-0.0012 c -0.004,0.0018 -0.008,0.0054 -0.0135,0.009 -0.18205,0.09853 -0.40395,0.04913 -0.52896,-0.106853 l -0.17546,-0.175255 c -0.21995,-0.219755 -0.57628,-0.219755 -0.79573,0 -0.21969,0.219748 -0.21969,0.57602 0,0.795473 l 0.19884,0.199035 9.9e-4,0.0083 c 0.1316,0.128519 0.16951,0.331801 0.0779,0.501508 -9.9e-4,0.0018 -0.003,0.0036 -0.004,0.0061 l 9.9e-4,0.0093 c -0.0614,0.122687 -0.11488,0.250394 -0.15884,0.382239 l -0.008,0.0054 c -9.9e-4,0.0036 -9.9e-4,0.0093 -0.002,0.01496 -0.0603,0.200768 -0.25582,0.322161 -0.45661,0.297197 H 100.357 c -0.31084,0 -0.562726,0.252049 -0.562726,0.562518 0,0.310483 0.251886,0.562653 0.562726,0.562653 h 0.2811 l 0.008,0.0054 c 0.18203,-2.93e-4 0.35059,0.116484 0.40524,0.299689 6.3e-4,0.0012 6.3e-4,0.0024 6.3e-4,0.0036 l 0.0105,0.0076 c 0.0438,0.131557 0.0974,0.259296 0.15912,0.381746 l -0.002,0.0173 c 9.9e-4,0.0024 0.003,0.0042 0.005,0.0087 0.0986,0.181823 0.0487,0.403773 -0.10689,0.528796 l -0.1709,0.171098 c -0.21965,0.21944 -0.21965,0.575681 0,0.795456 0.21954,0.219469 0.57587,0.219469 0.79579,0 l 0.19906,-0.198861 0.008,-0.0012 c 0.12829,-0.128011 0.32944,-0.16401 0.49713,-0.07345 10e-4,5.53e-4 10e-4,0.0012 0.002,0.0018 l 0.0186,-0.0018 c 0.12266,0.06132 0.25039,0.114828 0.38226,0.158758 l 0.0115,0.01472 c 10e-4,5.82e-4 0.003,5.82e-4 0.004,0.0012 0.18381,0.05466 0.30046,0.22363 0.29991,0.406232 l 0.001,0.0018 v 0.281484 c 0,0.310684 0.2518,0.562542 0.56266,0.562542 0.3107,0 0.56282,-0.251858 0.56282,-0.562542 v -0.281561 l 9.9e-4,-0.0018 c -6.1e-4,-0.182609 0.11609,-0.351544 0.2999,-0.406224 0.002,-6.26e-4 0.003,-6.26e-4 0.004,-0.0012 l 0.0107,-0.0146 c 0.13159,-0.04378 0.25923,-0.09698 0.38185,-0.159023 l 0.0189,0.0018 c 6.4e-4,-5.34e-4 9.9e-4,-0.0012 0.002,-0.0018 0.16773,-0.09065 0.36884,-0.05484 0.49713,0.07351 l 0.008,0.0012 0.19908,0.198861 c 0.21947,0.219472 0.57583,0.219472 0.79575,0 0.2197,-0.219761 0.2197,-0.576023 0,-0.795442 l -0.171,-0.171129 c -0.15609,-0.124993 -0.2052,-0.346962 -0.10678,-0.528783 9.9e-4,-0.0024 0.003,-0.0054 0.004,-0.0087 l -0.002,-0.01904 c 0.0615,-0.12248 0.11526,-0.24856 0.15883,-0.379853 l 0.011,-0.0081 c 3.5e-4,-0.0012 6.4e-4,-0.0024 6.4e-4,-0.0036 0.0547,-0.18322 0.22296,-0.299689 0.40501,-0.299689 l 0.008,-0.0054 h 0.2814 c 0.31086,0 0.56264,-0.252138 0.56264,-0.56262 0,-0.310539 -0.25178,-0.562537 -0.56264,-0.562537 h -0.23813 c -0.20117,0.0248 -0.3969,-0.09641 -0.45654,-0.297178 -9.9e-4,-0.0036 -9.9e-4,-0.0099 -0.002,-0.01532 l -0.008,-0.0054 c -0.0439,-0.131571 -0.0974,-0.259302 -0.15898,-0.381532 l 9.9e-4,-0.0098 c -9.9e-4,-0.0018 -0.002,-0.0036 -0.004,-0.006 -0.0918,-0.169747 -0.0542,-0.373042 0.0778,-0.501579 l 9.9e-4,-0.0083 0.19904,-0.198996 c 0.21969,-0.219517 0.21969,-0.575764 0,-0.79548 -0.10443,-0.104104 -0.25717,-0.1636 -0.39382,-0.168903 -0.15551,0 -0.28146,-0.12579 -0.28146,-0.281317 0,-0.155412 0.12595,-0.28122 0.28146,-0.28122 0.0202,0 0.0398,0.0012 0.0594,0.0054 0.26457,0.0175 0.53137,0.125899 0.73276,0.327567 0.41334,0.413091 0.43296,1.064642 0.0693,1.506449 0.001,0.0018 0.001,0.0042 0.002,0.0084 -9.9e-4,0.0012 -0.002,0.0012 -0.004,0.0024 -0.10141,0.101604 -0.19646,0.232069 -0.13696,0.375842 0.0598,0.143561 0.20754,0.172399 0.36272,0.172399 z m -1.9293,-1.415729 c -0.15553,0 -0.28141,-0.126125 -0.28141,-0.2814 0,-0.15509 0.12588,-0.280988 0.28141,-0.280988 0.15505,0 0.28103,0.125898 0.28103,0.280988 0,0.155275 -0.12598,0.2814 -0.28103,0.2814 z m -1.54745,0.843803 z"
         id="path2-36753-6-7"
         sodipodi:nodetypes="scsccsccccccccscsccscccccccscsccccccccscsccccsssscccccccccccccccccccccsssccccccccccccccccccccccsssccccccccccccccccccccccsssccccccccccccssccccccssssssccccccccccc"
         style="fill:url(#linearGradient1573);fill-opacity:1;stroke-width:0.346222" />
    </g>
  </g>
</svg>
