<?xml version="1.0" encoding="UTF-8" standalone="no"?>
<svg
   viewBox="0 0 32 32"
   version="1.1"
   id="svg1"
   sodipodi:docname="system-user-prompt.svg"
   inkscape:version="1.3.2 (091e20ef0f, 2023-11-25)"
   width="32"
   height="32"
   xmlns:inkscape="http://www.inkscape.org/namespaces/inkscape"
   xmlns:sodipodi="http://sodipodi.sourceforge.net/DTD/sodipodi-0.dtd"
   xmlns="http://www.w3.org/2000/svg"
   xmlns:svg="http://www.w3.org/2000/svg">
  <sodipodi:namedview
     id="namedview1"
     pagecolor="#ffffff"
     bordercolor="#999999"
     borderopacity="1"
     inkscape:showpageshadow="2"
     inkscape:pageopacity="0"
     inkscape:pagecheckerboard="0"
     inkscape:deskcolor="#d1d1d1"
     inkscape:zoom="5.0509368"
     inkscape:cx="16.432595"
     inkscape:cy="15.640663"
     inkscape:window-width="1920"
     inkscape:window-height="996"
     inkscape:window-x="0"
     inkscape:window-y="0"
     inkscape:window-maximized="1"
     inkscape:current-layer="svg1" />
  <defs
     id="defs3051">
    <style
       type="text/css"
       id="current-color-scheme">.ColorScheme-Text {color:#fcfcfc;}</style>
    <linearGradient
       id="a-26"
       x1="16"
       x2="16"
       y1="-1121.5"
       y2="-1091.5"
       gradientUnits="userSpaceOnUse">
      <stop
         stop-color="#70d8c3"
         offset="0"
         id="stop1173"
         style="stop-color:#eff0f1;stop-opacity:1;" />
      <stop
         stop-color="#66e26b"
         offset="1"
         id="stop1175" />
    </linearGradient>
  </defs>
  <g
     id="system-user-prompt">
    <path
       style="fill:none"
       d="M 0,0 V 32 H 32 V 0 Z"
       id="path44-5" />
    <path
       fill-rule="evenodd"
       clip-rule="evenodd"
       d="m 5.4995689,9.475859 c 0,-0.4943766 0.3917753,-0.8952143 0.8749964,-0.8952143 0.4832215,0 0.8749969,0.4008377 0.8749969,0.8952143 0,0.494386 -0.3917754,0.895224 -0.8749969,0.895224 -0.4832211,0 -0.8749964,-0.400838 -0.8749964,-0.895224 z m 3.4999974,0 c 0,-0.4943766 0.3917855,-0.8952143 0.8749965,-0.8952143 0.4832212,0 0.8750052,0.4008377 0.8750052,0.8952143 0,0.494386 -0.391784,0.895224 -0.8750052,0.895224 -0.483211,0 -0.8749965,-0.400838 -0.8749965,-0.895224 z m 3.4999947,0 c 0,-0.4943766 0.39179,-0.8952143 0.874997,-0.8952143 0.483223,0 0.875007,0.4008377 0.875007,0.8952143 0,0.494386 -0.391784,0.895224 -0.875007,0.895224 -0.483207,0 -0.874997,-0.400838 -0.874997,-0.895224 z m 15.241191,4.522961 -23.534701,-0.04521 -9.99e-4,-0.0064 0.00306,3.55e-4 -0.00717,-0.0074 -0.010411,0.0118 0.034809,-9.82e-4 -0.030929,-0.01461 0.00817,3.1e-5 -0.012147,0.01441 0.0196,0.0064 -0.013374,-0.0094 9.99e-4,0.0084 L 27.748643,14 4.1875022,13.952167 C 2.9792343,13.950076 2,12.950308 2,11.714121 V 8.5808642 C 2,6.6033297 3.5671218,5 5.4999975,5 H 26.500003 C 28.432878,5 30,6.6033297 30,8.5808642 V 9.476077 c 0,0.494385 -0.391784,0.895224 -0.874997,0.895224 -0.483222,0 -0.875006,-0.400839 -0.875006,-0.895224 V 8.5808642 c 0,-0.9887622 -0.783559,-1.7904374 -1.749994,-1.7904374 H 5.5000998 c -0.9664431,0 -1.7500043,0.8016752 -1.7500043,1.7904374 v 2.6856508 c 0,0.494385 0.3917858,0.895214 0.8750073,0.895214 H 27.812591 c 1.323681,0 1.22117,1.86481 -0.09033,1.836139 z"
       id="path2-2"
       style="color:#eceff4;fill:#eff0f1;fill-opacity:1;stroke-width:0.0553156"
       sodipodi:nodetypes="sssssssssssssssscccccccccccccsssssssssssssssscs"
       class="ColorScheme-Text" />
    <path
       fill-rule="evenodd"
       clip-rule="evenodd"
       d="m 26.500434,21.524141 c 0,0.494376 -0.39178,0.895214 -0.874997,0.895214 -0.483223,0 -0.874997,-0.400838 -0.874997,-0.895214 0,-0.494386 0.391774,-0.895224 0.874997,-0.895224 0.483217,0 0.874997,0.400838 0.874997,0.895224 z m -3.499997,0 c 0,0.494376 -0.391791,0.895214 -0.874998,0.895214 -0.483223,0 -0.875007,-0.400838 -0.875007,-0.895214 0,-0.494386 0.391784,-0.895224 0.875007,-0.895224 0.483207,0 0.874998,0.400838 0.874998,0.895224 z m -3.499998,0 c 0,0.494376 -0.39179,0.895214 -0.874997,0.895214 -0.483223,0 -0.875007,-0.400838 -0.875007,-0.895214 0,-0.494386 0.391784,-0.895224 0.875007,-0.895224 0.483207,0 0.874997,0.400838 0.874997,0.895224 z M 4.2592462,17.00118 l 23.5347018,0.04521 9.99e-4,0.0064 -0.003,-3.55e-4 0.007,0.0074 0.01043,-0.0118 -0.0348,9.82e-4 0.03093,0.01461 -0.008,-3.1e-5 0.01213,-0.01441 -0.0196,-0.0064 0.01339,0.0094 -9.99e-4,-0.0084 L 4.2513555,17 27.812496,17.047833 C 29.020767,17.049924 30,18.049692 30,19.285879 v 3.133258 C 30,24.39667 28.432878,26 26.500003,26 H 5.4999975 C 3.5671218,26 2,24.39667 2,22.419137 v -0.895214 c 0,-0.494385 0.3917853,-0.895224 0.8749969,-0.895224 0.4832216,0 0.8750069,0.400839 0.8750069,0.895224 v 0.895214 c 0,0.988761 0.7835606,1.790435 1.7499937,1.790435 H 26.499902 c 0.96644,0 1.750004,-0.801674 1.750004,-1.790435 v -2.685652 c 0,-0.494385 -0.39179,-0.895214 -0.875007,-0.895214 H 4.1874105 c -1.3236839,0 -1.2211714,-1.86481 0.090345,-1.836139 z"
       id="path2-2-3"
       style="color:#eceff4;fill:#eff0f1;fill-opacity:1;stroke-width:0.0553157"
       sodipodi:nodetypes="sssssssssssssssscccccccccccccsssssssssssssssscs"
       class="ColorScheme-Text" />
  </g>
</svg>
