<?xml version="1.0" encoding="UTF-8" standalone="no"?>
<svg
   sodipodi:docname="shutdown_primary.svg"
   inkscape:version="1.3.2 (091e20ef0f, 2023-11-25)"
   id="svg1073"
   version="1.1"
   viewBox="0 0 31.999998 31.999998"
   height="31.999998"
   width="31.999998"
   xmlns:inkscape="http://www.inkscape.org/namespaces/inkscape"
   xmlns:sodipodi="http://sodipodi.sourceforge.net/DTD/sodipodi-0.dtd"
   xmlns="http://www.w3.org/2000/svg"
   xmlns:svg="http://www.w3.org/2000/svg"
   xmlns:rdf="http://www.w3.org/1999/02/22-rdf-syntax-ns#"
   xmlns:cc="http://creativecommons.org/ns#"
   xmlns:dc="http://purl.org/dc/elements/1.1/">
  <defs
     id="defs1067" />
  <sodipodi:namedview
     inkscape:document-rotation="0"
     inkscape:window-maximized="1"
     inkscape:window-y="0"
     inkscape:window-x="0"
     inkscape:window-height="996"
     inkscape:window-width="1920"
     showgrid="true"
     inkscape:current-layer="layer1"
     inkscape:document-units="px"
     inkscape:cy="15.586576"
     inkscape:cx="15.966736"
     inkscape:zoom="10.521875"
     inkscape:pageshadow="2"
     inkscape:pageopacity="0.0"
     borderopacity="1.0"
     bordercolor="#666666"
     pagecolor="#ffffff"
     id="base"
     inkscape:showpageshadow="2"
     inkscape:pagecheckerboard="0"
     inkscape:deskcolor="#d1d1d1">
    <inkscape:grid
       type="xygrid"
       id="grid873"
       originx="3.1749997"
       originy="-5.2916698"
       spacingy="1"
       spacingx="1"
       units="mm"
       visible="true" />
  </sodipodi:namedview>
  <metadata
     id="metadata1070">
    <rdf:RDF>
      <cc:Work
         rdf:about="">
        <dc:format>image/svg+xml</dc:format>
        <dc:type
           rdf:resource="http://purl.org/dc/dcmitype/StillImage" />
      </cc:Work>
    </rdf:RDF>
  </metadata>
  <g
     transform="translate(12.45765,-140.71497)"
     id="layer1"
     inkscape:groupmode="layer"
     inkscape:label="Layer 1">
    <g
       id="system-shutdown-3"
       transform="translate(-12.45765,140.71497)"
       style="stroke-width:0.264585">
      <path
         style="color:#000000;overflow:visible;opacity:0;fill:none;fill-opacity:1;stroke-width:0.282223"
         id="path945-4"
         overflow="visible"
         d="M 16,0 C 7.17141,0 0,7.17141 0,16 0,24.828587 7.17141,32 16,32 24.82859,32 32,24.828587 32,16 32,7.17141 24.82859,0 16,0 Z"
         inkscape:connector-curvature="0" />
      <path
         fill-rule="evenodd"
         clip-rule="evenodd"
         d="M 15.999492,29 C 8.820394,29 3,23.179148 3,15.999695 3,13.718855 3.593074,11.579695 4.625102,9.717852 5.152719,8.635602 6.260309,7.88734 7.54482,7.88734 c 1.794457,0 3.250356,1.455187 3.250356,3.249594 0,0.594699 -0.163008,1.15055 -0.441899,1.630586 l 0.0091,0.0055 C 9.816977,13.724035 9.5,14.823754 9.5,15.999695 c 0,3.589828 2.910375,6.500254 6.499543,6.500254 2.514129,0 4.690816,-1.430609 5.771391,-3.518226 h 8.12e-4 c 0.0016,-0.004 0.0031,-0.0095 0.0055,-0.0127 0.104711,-0.203125 0.196778,-0.411785 0.279297,-0.626031 0.01747,-0.04286 0.03174,-0.08805 0.0484,-0.132488 0.06505,-0.178547 0.121418,-0.35943 0.170523,-0.544324 0.01584,-0.06266 0.03331,-0.126141 0.04921,-0.189618 0.03966,-0.172199 0.07064,-0.346734 0.0976,-0.524468 0.01031,-0.07221 0.02458,-0.142797 0.03255,-0.215008 0.02697,-0.242785 0.04443,-0.487195 0.04443,-0.737344 0,-0.267769 -0.01985,-0.530816 -0.05159,-0.790664 -8.12e-4,-0.0044 0,-0.0099 -8.12e-4,-0.01427 l -0.0016,8.12e-4 c -0.11111,-0.896645 -0.4062,-1.735703 -0.843375,-2.480766 -0.17611,-0.454644 -0.615672,-0.777968 -1.132981,-0.777968 -0.672801,0 -1.219055,0.545898 -1.219055,1.219156 v 1.21875 c 0,0.428848 -0.08491,0.837078 -0.236437,1.212402 -0.05713,0.143203 -0.126141,0.280465 -0.203125,0.412598 -0.0079,0.01386 -0.01508,0.02656 -0.023,0.04007 -0.156305,0.261625 -0.347496,0.498875 -0.56809,0.7052 -0.0087,0.0079 -0.01823,0.01666 -0.02696,0.02458 -0.106336,0.09841 -0.220593,0.189617 -0.339625,0.273761 -0.0063,0.0031 -0.01264,0.0087 -0.01899,0.01351 -0.118219,0.08013 -0.241211,0.15077 -0.368976,0.216633 -0.02778,0.01351 -0.05556,0.02697 -0.08333,0.04047 -0.125379,0.0587 -0.254719,0.111871 -0.388731,0.155492 -0.0055,0.0016 -0.01188,0.0048 -0.01666,0.0063 -0.134875,0.04286 -0.276149,0.07302 -0.418133,0.0976 -0.03727,0.0063 -0.0746,0.0127 -0.112684,0.01823 -0.145945,0.01985 -0.294531,0.03331 -0.445656,0.03331 -1.794457,0 -3.249543,-1.455391 -3.249543,-3.250203 v -8.1251 C 12.749949,4.454781 14.205035,3 15.999492,3 c 1.79532,0 3.250406,1.454781 3.250406,3.249645 v 0.8125 c 0,0.449109 -0.36339,0.8125 -0.812449,0.8125 -0.449109,0 -0.812449,-0.363442 -0.812449,-0.8125 v -0.8125 c 0,-0.897407 -0.727543,-1.625407 -1.625508,-1.625407 -0.897355,0 -1.624289,0.728 -1.624289,1.625407 v 8.12505 c 0,0.897407 0.726934,1.625 1.624289,1.625 0.897965,0 1.625508,-0.727593 1.625508,-1.625 v -1.21875 c 0,-0.173367 0.01985,-0.33998 0.04997,-0.503851 0.0095,-0.05672 0.02458,-0.109485 0.03727,-0.165039 0.02697,-0.111871 0.06109,-0.220594 0.10075,-0.32693 0.02062,-0.05393 0.03722,-0.106742 0.06028,-0.158691 0.06033,-0.132895 0.129339,-0.260254 0.207898,-0.381672 0.04763,-0.07379 0.103137,-0.140461 0.157117,-0.20866 0.03966,-0.04921 0.07856,-0.09999 0.121418,-0.146403 0.06586,-0.07378 0.135688,-0.144015 0.208609,-0.210691 0.02935,-0.02737 0.0619,-0.05078 0.09283,-0.07658 0.49273,-0.409043 1.117543,-0.66493 1.807812,-0.66493 1.166293,0 2.165973,0.703422 2.604723,1.707926 l 0.004,-0.0024 c 0.663304,1.177871 1.0465,2.53434 1.0465,3.981606 0,4.488046 -3.636953,8.125253 -8.124645,8.125253 -4.486523,0 -8.125051,-3.637207 -8.125051,-8.125253 0,-0.255075 0.01549,-0.505426 0.03925,-0.753391 0.0055,-0.05434 0.0099,-0.108317 0.01645,-0.161891 0.02818,-0.249539 0.06546,-0.495523 0.116645,-0.737902 0.177734,-0.84825 0.487144,-1.650035 0.906496,-2.37961 l -0.01386,-0.0083 c 0.143163,-0.241205 0.230456,-0.520096 0.230456,-0.821635 0,-0.897406 -0.727543,-1.624188 -1.625102,-1.624188 -0.683109,0 -1.266281,0.4225 -1.505867,1.01918 -0.893801,1.624645 -1.413851,3.482883 -1.413851,5.46777 0,6.282046 5.092242,11.374492 11.37439,11.374492 5.976903,0 10.867848,-4.613223 11.330414,-10.470535 0.02691,-0.29834 0.0452,-0.598254 0.0452,-0.903957 0,-0.283258 -0.0127,-0.563774 -0.03412,-0.841446 -0.0047,-0.08135 -0.01584,-0.160265 -0.02295,-0.241617 -0.01823,-0.192004 -0.04047,-0.382434 -0.06744,-0.571289 -0.01584,-0.101969 -0.03331,-0.201957 -0.04997,-0.302352 -0.03016,-0.169406 -0.06348,-0.338 -0.10075,-0.504664 -0.02224,-0.101156 -0.04443,-0.202312 -0.06982,-0.301539 -0.04286,-0.167832 -0.08887,-0.333226 -0.138836,-0.497504 -0.02778,-0.09481 -0.05556,-0.188449 -0.08572,-0.282445 -0.07221,-0.220187 -0.151531,-0.437988 -0.237199,-0.652996 -0.01112,-0.02737 -0.02062,-0.05632 -0.03093,-0.08293 -0.10075,-0.245172 -0.211047,-0.484809 -0.326117,-0.721652 -0.03412,-0.06825 -0.0714,-0.134875 -0.106336,-0.201957 -0.06348,-0.12416 -0.126148,-0.250758 -0.194398,-0.371719 l 0.02143,-0.01188 c -0.111821,-0.139242 -0.181645,-0.314234 -0.181645,-0.507406 0,-0.449109 0.36334,-0.8125 0.812449,-0.8125 0.351457,0 0.648223,0.224148 0.761668,0.536352 l 0.0055,-0.0035 C 28.391488,11.509516 29,13.683156 29,15.999695 29,23.179148 23.180012,29 15.999492,29 Z M 23.311687,9.500051 c -0.448246,0 -0.812449,-0.36461 -0.812449,-0.812906 0,-0.44911 0.364203,-0.8125 0.812449,-0.8125 0.449059,0 0.81245,0.36339 0.81245,0.8125 0,0.448296 -0.363391,0.812906 -0.81245,0.812906 z"
         id="path1"
         style="fill:#eff0f1;fill-opacity:1;stroke-width:0.264585" />
    </g>
  </g>
</svg>
