<?xml version="1.0" encoding="UTF-8" standalone="no"?>
<svg
   sodipodi:docname="suspend_primary.svg"
   inkscape:version="1.3.2 (091e20ef0f, 2023-11-25)"
   id="svg2343"
   version="1.1"
   viewBox="0 0 31.999998 31.999998"
   height="31.999998"
   width="31.999998"
   xmlns:inkscape="http://www.inkscape.org/namespaces/inkscape"
   xmlns:sodipodi="http://sodipodi.sourceforge.net/DTD/sodipodi-0.dtd"
   xmlns="http://www.w3.org/2000/svg"
   xmlns:svg="http://www.w3.org/2000/svg"
   xmlns:rdf="http://www.w3.org/1999/02/22-rdf-syntax-ns#"
   xmlns:cc="http://creativecommons.org/ns#"
   xmlns:dc="http://purl.org/dc/elements/1.1/">
  <defs
     id="defs2337" />
  <sodipodi:namedview
     inkscape:document-rotation="0"
     inkscape:window-maximized="1"
     inkscape:window-y="0"
     inkscape:window-x="0"
     inkscape:window-height="996"
     inkscape:window-width="1920"
     showgrid="true"
     inkscape:current-layer="layer1"
     inkscape:document-units="px"
     inkscape:cy="8.9285714"
     inkscape:cx="16.071429"
     inkscape:zoom="11.2"
     inkscape:pageshadow="2"
     inkscape:pageopacity="0.0"
     borderopacity="1.0"
     bordercolor="#666666"
     pagecolor="#ffffff"
     id="base"
     inkscape:showpageshadow="2"
     inkscape:pagecheckerboard="0"
     inkscape:deskcolor="#d1d1d1">
    <inkscape:grid
       type="xygrid"
       id="grid842"
       originx="0"
       originy="-8.4666691"
       spacingy="1"
       spacingx="1"
       units="mm"
       visible="true" />
  </sodipodi:namedview>
  <metadata
     id="metadata2340">
    <rdf:RDF>
      <cc:Work
         rdf:about="">
        <dc:format>image/svg+xml</dc:format>
        <dc:type
           rdf:resource="http://purl.org/dc/dcmitype/StillImage" />
      </cc:Work>
    </rdf:RDF>
  </metadata>
  <g
     transform="translate(-95.662116,-136.62982)"
     id="layer1"
     inkscape:groupmode="layer"
     inkscape:label="Layer 1">
    <g
       id="g1"
       transform="translate(95.662116,136.62982)"
       style="stroke-width:0.264583">
      <g
         id="system-suspend-2"
         style="stroke-width:0.264583">
        <circle
           style="opacity:0;fill:#000000;fill-opacity:1;stroke-width:0.282223"
           id="circle949-7"
           r="16"
           cy="16"
           cx="16" />
        <path
           d="m 13.915315,13.02717 h -2.04792 L 14.676407,9.6122974 C 14.916735,9.3168755 14.966806,8.9112955 14.806577,8.5658065 14.641355,8.2203214 14.295841,8 13.915315,8 H 9.7844136 C 9.2386535,8 8.798,8.4406297 8.798,8.9864055 c 0,0.5457865 0.4406535,0.9864242 0.9864136,0.9864242 H 11.832325 L 9.0232864,13.387709 C 8.7829535,13.683125 8.7329284,14.088705 8.8931077,14.434188 9.0583716,14.779675 9.4038535,15 9.7844136,15 h 4.1309014 c 0.545786,0 0.986401,-0.440624 0.986401,-0.986405 0,-0.54579 -0.445646,-0.986425 -0.986401,-0.986425 z"
           id="path4-3-0"
           style="color:#eceff4;fill:currentColor;fill-opacity:1;stroke-width:0.0132485"
           class="ColorScheme-Text" />
        <path
           d="m 24.470225,17.490831 h -1.462801 l 2.006437,-2.439202 c 0.171664,-0.211013 0.207427,-0.500722 0.09298,-0.747484 C 24.988825,14.057375 24.742033,13.9 24.470225,13.9 h -2.950639 c -0.389831,0 -0.704586,0.314734 -0.704586,0.704589 0,0.389835 0.314755,0.70458 0.704586,0.70458 h 1.462789 l -2.006451,2.439202 c -0.171669,0.211013 -0.207404,0.500705 -0.09299,0.74748 C 21.00098,18.742616 21.247755,18.9 21.519586,18.9 h 2.950639 c 0.389838,0 0.704573,-0.314755 0.704573,-0.704576 0,-0.389848 -0.318308,-0.704593 -0.704573,-0.704593 z"
           id="path4-3-6-9"
           style="color:#eceff4;fill:currentColor;fill-opacity:1;stroke-width:0.00946314"
           class="ColorScheme-Text" />
        <path
           d="m 21.3668,20.33158 c 0,0.47818 -0.38848,0.86667 -0.8671,0.86667 -0.47775,0 -0.86623,-0.38849 -0.86623,-0.86667 0,-0.47905 0.38848,-0.86667 0.86623,-0.86667 0.47862,0 0.8671,0.38762 0.8671,0.86667 z m 2.59956,3.46661 h -0.92083 c -0.23866,0 -0.45532,0.0965 -0.61273,0.25307 0.0313,-0.0313 -0.1553,0.16759 -0.27463,0.28692 l -3.70575,3.70451 c -0.57466,0.57465 -1.31354,0.90138 -2.06597,0.95127 -0.0274,0.007 -0.41671,0.006 -0.4452,-0.002 -0.74565,-0.0533 -1.47772,-0.3783 -2.04815,-0.94878 l -1.85184,-1.85185 0.003,-0.003 c -0.17182,-0.17182 -0.27886,-0.40961 -0.27886,-0.67286 0,-0.52558 0.42613,-0.95128 0.9509,-0.95128 0.26319,0 0.50017,0.10747 0.67286,0.27929 l 10e-4,-8.7e-4 2.16412,2.16412 c 0.34152,0.34109 0.89543,0.34109 1.23695,0 0,0 3.96895,-3.95671 3.9241,-3.91186 0.62844,-0.63559 1.50144,-1.02917 2.46583,-1.02917 h 0.78454 c 2.39309,0 4.3342,-1.93981 4.3342,-4.33327 0,-0.20313 -0.0191,-0.40035 -0.0457,-0.59584 -0.007,-0.0474 -0.0135,-0.0931 -0.0216,-0.13964 -0.0334,-0.19294 -0.0757,-0.38252 -0.13374,-0.56707 0,-8.6e-4 0,-0.003 -10e-4,-0.004 -0.0601,-0.19126 -0.13709,-0.3764 -0.223,-0.55499 -0.0102,-0.0224 -0.0203,-0.0436 -0.0313,-0.0647 -0.4621,-0.9276 -1.24329,-1.6686 -2.2035,-2.07144 -0.47184,-0.19424 -0.80697,-0.65845 -0.80697,-1.20223 0,-1.37404 -1.06682,-2.48576 -2.41762,-2.5818 -0.0525,-0.011 -0.11131,-0.0178 -0.18281,-0.0178 -0.62758,0 -1.17645,-0.50229 -1.48027,-1.12948 0.007,0.0135 0.002,0.0233 0.002,0.0347 -1.0816,-2.41759 -3.50133,-4.10521 -6.32179,-4.10521 -3.82974,0 -6.93376,3.10397 -6.93376,6.93246 0,0.95978 -0.51924,1.85137 -1.29155,2.30246 -0.0199,0.011 -0.0322,0.0245 -0.0436,0.0381 -0.48198,0.28563 -0.90394,0.66057 -1.24204,1.10489 -0.0123,0.0157 -0.0245,0.0313 -0.0368,0.0478 -0.096,0.13076 -0.1866,0.26575 -0.26785,0.40625 -0.006,0.0102 -0.0148,0.0224 -0.0203,0.0326 -0.0872,0.15405 -0.1663,0.31358 -0.23444,0.47775 -0.003,0.008 -0.006,0.0157 -0.009,0.0233 -0.0593,0.1462 -0.1092,0.29684 -0.15275,0.45008 -0.0123,0.0457 -0.0245,0.0914 -0.036,0.13709 -0.0309,0.12274 -0.0546,0.2463 -0.0745,0.37408 -0.008,0.0499 -0.0169,0.10069 -0.0237,0.15063 -0.0199,0.17182 -0.0343,0.34445 -0.0343,0.52222 0,2.39352 1.94069,4.33328 4.33377,4.33328 h 0.43333 c 0.23866,0 0.46421,-0.22252 0.4875,-0.46036 0,-8.7e-4 0.001,-0.002 0.001,-0.003 0.004,-0.0322 0.002,-0.0635 0.008,-0.0957 0.25686,-1.16627 1.29366,-2.04057 2.53738,-2.04057 0.47862,0 0.8658,-0.38848 0.8658,-0.86753 v -1.29913 c 0,-1.19736 0.96991,-2.16732 2.16666,-2.16732 h 2.60044 c 1.19675,0 2.16666,0.96991 2.16666,2.16732 v 0.43333 c 0,0.47905 -0.38848,0.8658 -0.8671,0.8658 -0.47775,0 -0.86623,-0.38681 -0.86623,-0.8658 0,-0.479 -0.38843,-0.86753 -0.86618,-0.86753 H 15.2997 c -0.47905,0 -0.8671,0.38848 -0.8671,0.86753 v 1.29913 c 0,1.19757 -0.97034,2.16753 -2.16666,2.16753 h -0.4329 c -0.24798,0 -0.47142,0.10498 -0.62845,0.27252 -0.0715,0.077 -0.13205,0.16163 -0.1697,0.25561 -0.001,0.002 -0.003,0.006 -0.003,0.008 -0.0381,0.0948 -0.0525,0.19294 -0.0559,0.29369 -0.002,0.0135 -0.0102,0.0211 -0.0102,0.0372 0,0.95723 -0.77566,1.73333 -1.73333,1.73333 H 8.36623 C 5.01554,23.8 2.3,21.08408 2.3,17.73339 c 0,-2.24223 1.22129,-4.19222 3.02911,-5.24252 0.001,-10e-4 -0.002,-0.003 0,-0.005 0.26151,-0.14809 0.43669,-0.49768 0.43669,-0.82013 0,-0.0757 0.003,-0.14094 0.01,-0.1976 C 5.88077,6.77346 9.71387,3 14.43314,3 c 3.55599,0 6.60876,2.14294 7.94473,5.20677 2.23101,0.0736 4.03162,1.83148 4.17419,4.04386 2.05497,0.97115 3.4815,3.05825 3.4815,5.48242 0,3.35069 -2.71678,6.06661 -6.06753,6.06661 z"
           id="path2-75"
           style="color:#eceff4;fill:currentColor;fill-opacity:1;stroke-width:0.0143316"
           class="ColorScheme-Text" />
      </g>
    </g>
  </g>
</svg>
