<?xml version="1.0" encoding="UTF-8" standalone="no"?>
<svg
   viewBox="0 0 32 32"
   version="1.1"
   id="svg1"
   sodipodi:docname="system-switch-user.svg"
   width="32"
   height="32"
   inkscape:version="1.3.2 (091e20ef0f, 2023-11-25)"
   xmlns:inkscape="http://www.inkscape.org/namespaces/inkscape"
   xmlns:sodipodi="http://sodipodi.sourceforge.net/DTD/sodipodi-0.dtd"
   xmlns="http://www.w3.org/2000/svg"
   xmlns:svg="http://www.w3.org/2000/svg">
  <sodipodi:namedview
     id="namedview1"
     pagecolor="#ffffff"
     bordercolor="#999999"
     borderopacity="1"
     inkscape:showpageshadow="2"
     inkscape:pageopacity="0"
     inkscape:pagecheckerboard="0"
     inkscape:deskcolor="#d1d1d1"
     inkscape:zoom="16.83798"
     inkscape:cx="16.153957"
     inkscape:cy="21.142679"
     inkscape:window-width="1920"
     inkscape:window-height="996"
     inkscape:window-x="0"
     inkscape:window-y="0"
     inkscape:window-maximized="1"
     inkscape:current-layer="svg1" />
  <defs
     id="defs3051">
    <style
       type="text/css"
       id="current-color-scheme">
      .ColorScheme-Text {
        color:#fcfcfc;
      }
      </style>
  </defs>
  <g
     id="system-switch-user-0">
    <g
       id="g1929">
      <g
         id="g1924">
        <circle
           style="opacity:0;fill:none;fill-opacity:1;stroke-width:1.06667"
           id="circle955"
           r="16"
           cy="-16"
           cx="16"
           transform="scale(1,-1)" />
        <path
           fill-rule="evenodd"
           clip-rule="evenodd"
           d="m 29.457673,21.220511 -3.729542,3.740249 c -0.639188,0.640975 -1.463657,0.979655 -2.300552,1.023632 -0.05447,0.0076 -0.116065,0.01561 -0.192787,0.01561 -1.000263,0 -1.811243,-0.814097 -1.811243,-1.81819 v -0.909095 c 0,-0.50204 -0.405511,-0.909113 -0.905627,-0.909113 h -7.244981 c -0.500137,0 -0.905624,-0.407038 -0.905624,-0.909076 0,-0.502057 0.405487,-0.909097 0.905624,-0.909097 h 7.697797 c 1.250316,0 2.264054,1.017375 2.264054,2.272729 v 0.440353 c 0,0.376418 0.304007,0.681817 0.679212,0.681817 0.171333,0 0.326138,-0.06575 0.445501,-0.170446 0.03747,-0.03195 0.07801,-0.05778 0.113245,-0.09263 l 3.693003,-3.706937 c 0.679911,-0.682742 0.679911,-1.789332 0,-2.471617 L 24.47275,13.791266 c -0.05776,-0.05778 -0.121815,-0.103885 -0.185094,-0.151819 -0.108246,-0.07339 -0.232807,-0.125169 -0.37368,-0.125169 -0.375206,0 -0.679212,0.305399 -0.679212,0.681837 v 0.440325 c 0,1.255356 -1.013744,2.272762 -2.264058,2.272762 H 13.272871 12.82006 11.461626 c -0.500119,0 -0.905623,0.407039 -0.905623,0.909079 v 0.909104 c 0,1.004101 -0.810988,1.818183 -1.811245,1.818183 -0.07663,0 -0.138167,-0.005 -0.192786,-0.01597 -0.836849,-0.04363 -1.6613627,-0.382278 -2.3005626,-1.0237 L 2.5218824,15.766059 C 1.8357604,15.077827 1.5001719,14.175723 1.5000001,13.273553 1.4998283,12.370828 1.8353638,11.468103 2.5220539,10.779407 L 6.2515788,7.0395991 C 6.8907794,6.3981809 7.715008,6.059946 8.551921,6.015966 8.606536,6.0073 8.668005,6 8.744931,6 9.745187,6 10.556176,6.8141032 10.556176,7.8181856 V 8.727285 c 0,0.50204 0.405484,0.909113 0.905623,0.909113 h 2.716868 c 0.500137,0 0.905624,0.407038 0.905624,0.909076 0,0.502057 -0.405487,0.909097 -0.905624,0.909097 h -3.16968 c -1.250317,0 -2.264056,-1.017375 -2.264056,-2.272729 V 8.741489 c 0,-0.376418 -0.304007,-0.681814 -0.679217,-0.681814 -0.171111,0 -0.32614,0.06573 -0.4455122,0.170443 -0.03736,0.03195 -0.077832,0.05778 -0.1131985,0.09263 l -3.6930184,3.706956 c -0.6798962,0.682743 -0.6798962,1.789333 0,2.471617 l 3.6930184,3.707413 c 0.057745,0.05778 0.1218055,0.103884 0.1850877,0.151818 0.108344,0.07375 0.232802,0.125169 0.37368,0.125169 0.375209,0 0.679216,-0.305399 0.679216,-0.681836 v -0.440393 c 0,-1.255345 1.013739,-2.272737 2.264055,-2.272737 h 2.264058 2.716881 4.528118 c 0.500111,0 0.905619,-0.407039 0.905619,-0.909087 v -0.909105 c 0,-1.004093 0.810977,-1.818191 1.811248,-1.818191 0.07664,0 0.138151,0.005 0.192783,0.01597 0.83685,0.04394 1.661356,0.382227 2.300559,1.023656 l 3.729533,3.739782 c 0.686459,0.688473 1.022102,1.59092 1.022102,2.493385 0,0.902436 -0.335643,1.804894 -1.02227,2.49335 z M 17.801101,11.454368 c -0.500132,0 -0.905613,-0.407041 -0.905613,-0.909084 0,-0.502051 0.405481,-0.909091 0.905613,-0.909091 0.500147,0 0.905628,0.40704 0.905628,0.909091 0,0.502043 -0.405481,0.909084 -0.905628,0.909084 z"
           id="path2-36753"
           style="color:#eceff4;fill:currentColor;fill-opacity:1;stroke-width:0.0567089"
           class="ColorScheme-Text" />
      </g>
    </g>
  </g>
</svg>
