<?xml version="1.0" encoding="UTF-8" standalone="no"?>
<svg
   width="22"
   height="22"
   version="1.1"
   id="svg1"
   sodipodi:docname="applications-all-symbolic.svg"
   inkscape:version="1.3.2 (091e20ef0f, 2023-11-25)"
   xmlns:inkscape="http://www.inkscape.org/namespaces/inkscape"
   xmlns:sodipodi="http://sodipodi.sourceforge.net/DTD/sodipodi-0.dtd"
   xmlns="http://www.w3.org/2000/svg"
   xmlns:svg="http://www.w3.org/2000/svg">
  <defs
     id="defs1" />
  <sodipodi:namedview
     id="namedview1"
     pagecolor="#ffffff"
     bordercolor="#000000"
     borderopacity="0.25"
     inkscape:showpageshadow="2"
     inkscape:pageopacity="0.0"
     inkscape:pagecheckerboard="0"
     inkscape:deskcolor="#d1d1d1"
     inkscape:zoom="6.1630784"
     inkscape:cx="11.195704"
     inkscape:cy="11.033447"
     inkscape:window-width="1920"
     inkscape:window-height="996"
     inkscape:window-x="0"
     inkscape:window-y="0"
     inkscape:window-maximized="1"
     inkscape:current-layer="svg1" />
  <style
     type="text/css"
     id="current-color-scheme">
      .ColorScheme-Text {
        color:#31363b;
      }
      .ColorScheme-Background{
        color:#E9E8E8;
      }
      .ColorScheme-ViewText {
        color:#31363b;
      }
      .ColorScheme-ViewBackground{
        color:#ffffff;
      }
      .ColorScheme-ViewHover {
        color:#000000;
      }
      .ColorScheme-ViewFocus{
        color:#5a5a5a;
      }
      .ColorScheme-ButtonText {
        color:#31363b;
      }
      .ColorScheme-ButtonBackground{
        color:#E9E8E8;
      }
      .ColorScheme-ButtonHover {
        color:#1489ff;
      }
      .ColorScheme-ButtonFocus{
        color:#2B74C7;
      }
</style>
  <g
     id="22-22-applications-other">
    <path
       style="clip-rule:evenodd;fill:#ffffc1;fill-opacity:0;fill-rule:evenodd;stroke-width:0.688964;stroke-linejoin:round;stroke-miterlimit:1.41421"
       d="M 0,0 V 22 H 22 V 0 Z"
       id="rect817-5-5"
       inkscape:connector-curvature="0" />
    <path
       d="m 18.500059,21.000011 h -4.374961 c -0.344844,0 -0.625313,-0.280156 -0.625313,-0.624999 0,-0.345469 0.280469,-0.625 0.625313,-0.625 h 4.062461 c 0.863046,0 1.5625,-0.699453 1.5625,-1.5625 v -4.06246 c 0,-0.345469 0.27953,-0.625625 0.625,-0.625625 0.345469,0 0.624999,0.280156 0.624999,0.625625 v 4.37496 c 0,1.380624 -1.119376,2.499999 -2.499999,2.499999 z M 1.625062,7.250288 c 0.345469,0 0.625156,0.279531 0.625156,0.624961 0,0.344531 -0.279687,0.624375 -0.625156,0.624375 -0.345312,0 -0.625,-0.279844 -0.625,-0.624375 0,-0.34543 0.279688,-0.624961 0.625,-0.624961 z m 19.351789,2.825585 c -0.0085,0.06715 -0.01892,0.133985 -0.033,0.198985 -0.0069,0.03172 -0.01585,0.06164 -0.02377,0.09277 -0.014,0.05434 -0.02808,0.109258 -0.04577,0.162344 -0.0069,0.0232 -0.01646,0.04641 -0.02508,0.06957 -0.02254,0.06102 -0.04515,0.121445 -0.07261,0.179765 -0.0062,0.01527 -0.01431,0.02992 -0.02169,0.04515 -0.03054,0.06348 -0.06315,0.126641 -0.09855,0.186758 -0.0077,0.0125 -0.01461,0.02472 -0.02254,0.03723 -0.03846,0.06226 -0.07902,0.123125 -0.122692,0.182344 -0.0062,0.0079 -0.01285,0.01711 -0.01861,0.02504 -0.04731,0.06164 -0.09676,0.12207 -0.149216,0.178828 -0.0046,0.0048 -0.0092,0.01039 -0.01346,0.01465 -0.05677,0.06164 -0.117192,0.120235 -0.180046,0.175782 -0.440662,0.387577 -1.016831,0.625 -1.649761,0.625 v 0.03172 c -0.101016,-0.02015 -0.2057,-0.03172 -0.3125,-0.03172 h -4.374961 c -0.863008,0 -1.562461,0.699452 -1.562461,1.56246 v 4.37496 c 0,0.106797 0.0116,0.211797 0.03203,0.3125 h -0.03203 c 0,0.632929 -0.237109,1.209101 -0.624999,1.649765 -0.05555,0.06285 -0.11414,0.123281 -0.175781,0.180039 -0.0042,0.0042 -0.0098,0.0085 -0.01434,0.01344 -0.05707,0.0525 -0.1175,0.101914 -0.17914,0.148906 -0.0079,0.0061 -0.01711,0.01281 -0.02504,0.01891 -0.05921,0.04332 -0.119921,0.08422 -0.182343,0.122695 -0.0125,0.0079 -0.02457,0.01527 -0.03711,0.02258 -0.06027,0.03539 -0.12328,0.06773 -0.186913,0.09828 -0.01527,0.0073 -0.02992,0.01528 -0.04515,0.02195 -0.05828,0.02746 -0.118555,0.05004 -0.179609,0.07262 -0.0232,0.0085 -0.04641,0.01769 -0.06957,0.02504 -0.05308,0.01769 -0.108046,0.03172 -0.162343,0.04579 -0.03128,0.0079 -0.06102,0.01711 -0.09293,0.02379 -0.06485,0.01402 -0.131836,0.02442 -0.198828,0.03297 -0.01863,0.0031 -0.0357,0.0061 -0.05492,0.0079 -0.08895,0.01039 -0.179727,0.01527 -0.271133,0.01527 H 3.500312 C 2.11957,20.999995 1.000039,19.88062 1.000039,18.499996 v -6.24992 c 0,-1.380781 1.119531,-2.500156 2.500273,-2.500156 h 0.625156 4.061991 c 0.863203,0 1.562499,-0.699453 1.562499,-1.562499 V 3.81246 C 9.749958,2.949453 9.050662,2.25 8.187459,2.25 h -4.37496 c -0.863007,0 -1.562343,0.699453 -1.562343,1.56246 v 1.5625 c 0,0.345156 -0.279688,0.625 -0.625156,0.625 C 1.279688,5.99996 1,5.720116 1,5.37496 V 3.500273 C 1.000039,2.119375 2.11957,1 3.500312,1 h 5.000116 c 0.09141,0 0.180976,0.0045 0.269765,0.01434 0.02058,0.0022 0.04043,0.0073 0.06102,0.01008 0.06562,0.0086 0.130625,0.01863 0.194843,0.03235 0.02976,0.0061 0.05769,0.01528 0.08742,0.02258 0.05645,0.01402 0.111991,0.02808 0.166484,0.04641 0.02242,0.0073 0.045,0.0168 0.06758,0.02472 0.0609,0.02258 0.122696,0.04578 0.181563,0.07293 0.01586,0.0073 0.03188,0.01434 0.04778,0.02258 0.06227,0.02961 0.123907,0.06226 0.183555,0.09734 0.01265,0.0079 0.02519,0.01528 0.03785,0.0232 0.06226,0.03844 0.123281,0.07875 0.182304,0.122695 0.0079,0.0058 0.01722,0.0125 0.02519,0.01863 0.06164,0.04699 0.121913,0.09676 0.178983,0.148906 0.0045,0.0045 0.0099,0.0095 0.01449,0.01344 0.06164,0.05707 0.119922,0.117188 0.175625,0.180352 0.38789,0.440663 0.625156,1.016836 0.625156,1.649725 h 0.03191 c -0.02062,0.100703 -0.03191,0.205391 -0.03191,0.312188 v 4.687147 c 0,1.3809378 -1.119531,2.500312 -2.4996871,2.500312 h -4.68785 c -0.863007,0 -1.562343,0.69961 -1.562343,1.562656 v 5.624921 c 0,0.863046 0.699297,1.562499 1.562343,1.562499 h 5.625272 c 0.8630081,0 1.5623431,-0.699453 1.5623431,-1.562499 v -4.68807 c 0,-1.380585 1.119415,-2.499491 2.499687,-2.499491 h 4.687735 c 0.863046,0 1.5625,-0.69914 1.5625,-1.562187 V 3.812482 c 0,-0.863007 -0.699454,-1.56246 -1.5625,-1.56246 h -5.312109 c -0.345157,0 -0.625313,-0.279532 -0.625313,-0.625 0,-0.345469 0.280156,-0.625 0.625313,-0.625 h 5.624609 c 1.380623,0 2.499999,1.119375 2.499999,2.500272 v 6.249647 c 0,0.09125 -0.0054,0.182188 -0.01531,0.271016 -0.0015,0.01922 -0.0046,0.0366 -0.0079,0.05492 z"
       id="path2-7"
       style="fill:#eff0f1;fill-opacity:1;stroke-width:0.0390625" />
  </g>
</svg>
