<?xml version="1.0" encoding="UTF-8" standalone="no"?>
<svg
   id="svg50"
   width="32"
   height="32"
   version="1.1"
   sodipodi:docname="audio.svg"
   inkscape:version="1.2.2 (b0a8486541, 2022-12-01)"
   xmlns:inkscape="http://www.inkscape.org/namespaces/inkscape"
   xmlns:sodipodi="http://sodipodi.sourceforge.net/DTD/sodipodi-0.dtd"
   xmlns:xlink="http://www.w3.org/1999/xlink"
   xmlns="http://www.w3.org/2000/svg"
   xmlns:svg="http://www.w3.org/2000/svg"
   xmlns:rdf="http://www.w3.org/1999/02/22-rdf-syntax-ns#"
   xmlns:cc="http://creativecommons.org/ns#"
   xmlns:dc="http://purl.org/dc/elements/1.1/">
  <g
     id="22-22-audio-volume-high"
     transform="translate(0,-22)">
    <path
       style="opacity:0.00100002"
       d="M 0,0 H 22 V 22 H 0 Z"
       id="path7" />
    <path
       d="m 18.778262,18.542333 -0.0043,-0.0045 c -0.124867,0.125 -0.297778,0.201833 -0.490795,0.201833 -0.379677,0 -0.686822,-0.298834 -0.686822,-0.666667 0,-0.197917 0.09032,-0.373042 0.229971,-0.494792 1.729492,-1.686925 2.799041,-4.011175 2.799041,-6.578759 0,-1.456084 -0.353508,-2.828126 -0.966811,-4.056042 l 0.0075,-0.0033 c -0.03895,-0.08429 -0.06178,-0.176125 -0.06178,-0.274084 0,-0.368167 0.308174,-0.666 0.68785,-0.666 0.278958,0 0.516964,0.161125 0.625077,0.39225 l 0.0052,-0.0026 c 0.690522,1.3952 1.07759,2.958701 1.07759,4.609743 0,2.945875 -1.231676,5.612543 -3.222012,7.542918 z M 18.563073,4.999705 c -0.380021,0 -0.687854,-0.298833 -0.687854,-0.666375 0,-0.368166 0.307833,-0.667 0.687854,-0.667 0.378988,0 0.687164,0.298834 0.687164,0.667 0,0.367542 -0.308176,0.666375 -0.687164,0.666375 z m -2.656366,10.666252 c -0.126545,0.145834 -0.312516,0.240251 -0.524011,0.240251 -0.37899,0 -0.687166,-0.298834 -0.687166,-0.666667 0,-0.181625 0.0752,-0.345709 0.196714,-0.465501 l -0.0027,-0.0026 c 0.994998,-0.9655 1.610362,-2.298875 1.610362,-3.772 0,-1.462917 -0.608274,-2.786792 -1.591885,-3.751001 -0.136299,-0.122083 -0.223226,-0.294583 -0.223226,-0.488625 0,-0.3675 0.308177,-0.666333 0.687166,-0.666333 0.190354,0 0.3612,0.07487 0.486069,0.195624 l 0.0037,-0.0033 c 1.243704,1.206367 2.013456,2.872742 2.013456,4.713576 0,1.817542 -0.75265,3.463417 -1.96851,4.666542 z M 10.312616,19 C 10.166606,19 10.023905,18.98437 9.88593,18.95637 9.325309,18.87175 8.787204,18.628246 8.354803,18.208954 l -1.363589,-1.322291 0.0054,-0.0052 c -0.121165,-0.1198 -0.196361,-0.283842 -0.196361,-0.464841 0,-0.368501 0.307145,-0.666667 0.687166,-0.666667 0.186658,0 0.355828,0.07292 0.479709,0.190749 l 0.0037,-0.0033 1.369647,1.328833 c 0.21618,0.209625 0.487101,0.327458 0.766745,0.366542 0.06542,0.02019 0.13293,0.03385 0.20542,0.03385 0.380021,0 0.687165,-0.298833 0.687165,-0.666667 V 4.999705 c 0,-0.3685 -0.307144,-0.666375 -0.687165,-0.666375 -0.07081,0 -0.137287,0.01367 -0.201741,0.03254 C 9.829235,4.40362 9.557325,4.523079 9.340459,4.733371 L 5.628639,8.332706 H 2.750037 c -0.759698,0 -1.375019,0.597667 -1.375019,1.333334 v 2.666542 c 0,0.737 0.615321,1.334042 1.375019,1.334042 h 0.687166 c 0.380021,0 0.688196,0.298166 0.688196,0.666667 0,0.367833 -0.308175,0.666667 -0.688196,0.666667 H 2.750037 C 1.230685,14.999958 0,13.805958 0,12.332582 V 9.66604 C 0,8.193706 1.230685,6.999373 2.750037,6.999373 H 5.045201 L 8.354829,3.790663 C 8.787186,3.372705 9.325334,3.127913 9.885955,3.04358 10.02393,3.01529 10.16663,3 10.31264,3 c 1.138687,0 2.062185,0.8955 2.062185,1.999708 V 17 c 0,1.104166 -0.923498,2 -2.062184,2 z M 5.843805,13.99929 c 0.38002,0 0.687165,0.298834 0.687165,0.667334 0,0.368501 -0.307145,0.666 -0.687165,0.666 -0.379677,0 -0.687853,-0.297541 -0.687853,-0.666 0,-0.368458 0.308176,-0.667334 0.687853,-0.667334 z"
       id="path2-3-9"
       style="fill:#eff0f1;fill-opacity:1;stroke-width:0.042313" />
  </g>
  <g
     id="22-22-audio-volume-low">
    <path
       style="opacity:0.00100002"
       d="m 64.000002,-22 h 22 V 0 h -22 z"
       id="path19" />
    <path
       d="m 82.777994,-3.457624 -0.004,-0.0045 c -0.124869,0.125 -0.297772,0.201833 -0.490786,0.201833 -0.379666,0 -0.686805,-0.298834 -0.686805,-0.666667 0,-0.197916 0.09032,-0.373041 0.229974,-0.494791 1.729438,-1.686924 2.798963,-4.011174 2.798963,-6.578757 0,-1.456083 -0.353502,-2.828124 -0.966784,-4.05604 l 0.0075,-0.0033 c -0.03893,-0.08429 -0.0618,-0.176125 -0.0618,-0.274084 0,-0.368166 0.308168,-0.666 0.687834,-0.666 0.278952,0 0.516953,0.161126 0.625061,0.39225 l 0.0053,-0.0026 c 0.690493,1.3952 1.077551,2.9587 1.077551,4.609741 0,2.945874 -1.231644,5.61254 -3.221929,7.542915 z m -0.215185,-13.542622 c -0.38001,0 -0.687835,-0.298833 -0.687835,-0.666375 0,-0.368166 0.307825,-0.666999 0.687835,-0.666999 0.37898,0 0.687147,0.298833 0.687147,0.666999 0,0.367542 -0.308167,0.666375 -0.687147,0.666375 z m -2.656294,10.666248 c -0.12654,0.145833 -0.312506,0.24025 -0.524,0.24025 -0.378979,0 -0.687147,-0.298834 -0.687147,-0.666666 0,-0.181626 0.07518,-0.345709 0.196712,-0.465501 l -0.0027,-0.0026 c 0.994971,-0.9655 1.610315,-2.298874 1.610315,-3.771998 0,-1.462917 -0.608256,-2.786792 -1.591843,-3.751 -0.136296,-0.122084 -0.22322,-0.294583 -0.22322,-0.488625 0,-0.3675 0.308165,-0.666333 0.687145,-0.666333 0.190353,0 0.361196,0.07488 0.486064,0.195625 l 0.0033,-0.0033 c 1.243671,1.206367 2.013407,2.872741 2.013407,4.713574 0,1.817541 -0.752631,3.463416 -1.96846,4.666541 z m -5.593944,3.334041 c -0.14601,0 -0.288706,-0.01563 -0.426672,-0.04363 -0.560607,-0.08462 -1.0987,-0.328124 -1.531091,-0.747416 l -1.36355,-1.32229 0.0054,-0.0052 c -0.121163,-0.1198 -0.196361,-0.283842 -0.196361,-0.464841 0,-0.368501 0.307137,-0.666667 0.687148,-0.666667 0.186654,0 0.355825,0.07292 0.479703,0.19075 l 0.0034,-0.0033 1.369613,1.328833 c 0.216175,0.209625 0.487088,0.327458 0.766727,0.366541 0.06546,0.02019 0.132926,0.03385 0.205417,0.03385 0.38001,0 0.687147,-0.298834 0.687147,-0.666667 v -12.000292 c 0,-0.3685 -0.307137,-0.666375 -0.687147,-0.666375 -0.0708,0 -0.137286,0.01367 -0.201738,0.03254 -0.281653,0.03775 -0.553556,0.157209 -0.77041,0.367501 l -3.711724,3.599334 h -2.878526 c -0.759678,0 -1.374983,0.597666 -1.374983,1.333333 v 2.666541 c 0,0.737 0.615305,1.334041 1.374983,1.334041 h 0.687147 c 0.380011,0 0.688179,0.298166 0.688179,0.666667 0,0.367833 -0.308168,0.666667 -0.688179,0.666667 h -0.687147 c -1.519314,0 -2.749965,-1.194 -2.749965,-2.667375 v -2.666541 c 0,-1.472334 1.230651,-2.666666 2.749965,-2.666666 h 2.295107 l 3.309535,-3.208708 c 0.432349,-0.417959 0.970482,-0.66275 1.531091,-0.747083 C 74.023665,-18.9847 74.166361,-19 74.312371,-19 c 1.138657,0 2.06213,0.8955 2.06213,1.999708 v 12.000289 c 0,1.104167 -0.923473,2 -2.06213,2 z m -4.468695,-5.000708 c 0.380011,0 0.687149,0.298834 0.687149,0.667334 0,0.3685 -0.307138,0.665999 -0.687149,0.665999 -0.379665,0 -0.687834,-0.297541 -0.687834,-0.665999 0,-0.368458 0.308169,-0.667334 0.687834,-0.667334 z"
       id="path2-3-3-6-6"
       style="fill:url(#linearGradient1754-6);fill-opacity:1;stroke-width:0.0423126" />
  </g>
  <g
     id="audio-volume-low"
     transform="translate(64.000002)">
    <path
       style="opacity:0.00100002"
       d="M 0,0 H 32.000001 V 32.000001 H 0 Z"
       id="path38" />
    <path
       d="m 27.313689,27.513505 -0.006,-0.0068 c -0.18163,0.1875 -0.43313,0.302749 -0.71388,0.302749 -0.55225,0 -0.999,-0.44825 -0.999,-1 0,-0.296875 0.13138,-0.559562 0.33451,-0.742187 2.51558,-2.530387 4.07127,-6.016762 4.07127,-9.868137 0,-2.184125 -0.51419,-4.242188 -1.40625,-6.084062 l 0.0112,-0.0049 c -0.0566,-0.126438 -0.0899,-0.264188 -0.0899,-0.411126 0,-0.55225 0.44825,-0.999 1.0005,-0.999 0.40575,0 0.75194,0.241688 0.90919,0.588375 l 0.008,-0.0039 c 1.00438,2.0928 1.56738,4.43805 1.56738,6.914613 0,4.418812 -1.7915,8.418812 -4.6865,11.314375 z m -0.313,-20.313938 c -0.55275,0 -1.0005,-0.44825 -1.0005,-0.999562 0,-0.55225 0.44775,-1.0005 1.0005,-1.0005 0.55125,0 0.9995,0.44825 0.9995,1.0005 0,0.551312 -0.44825,0.999562 -0.9995,0.999562 z m -3.86375,15.999375 c -0.18406,0.21875 -0.45456,0.360376 -0.76219,0.360376 -0.55125,0 -0.9995,-0.448251 -0.9995,-1 0,-0.272438 0.10938,-0.518563 0.28613,-0.698251 l -0.004,-0.0039 c 1.44725,-1.44825 2.34231,-3.448312 2.34231,-5.657999 0,-2.194376 -0.88475,-4.180188 -2.31544,-5.626501 -0.19825,-0.183125 -0.32469,-0.441874 -0.32469,-0.732937 0,-0.55125 0.44825,-0.9995 0.9995,-0.9995 0.27688,0 0.52538,0.112312 0.70701,0.293437 l 0.005,-0.0049 c 1.809,1.809551 2.92863,4.309113 2.92863,7.070363 0,2.726312 -1.09475,5.195125 -2.86325,6.999812 z m -8.13675,5.001063 c -0.21238,0 -0.41994,-0.02344 -0.62062,-0.06544 -0.81544,-0.126937 -1.59813,-0.492187 -2.22707,-1.121125 l -1.98337,-1.983435 0.008,-0.0078 c -0.17624,-0.1797 -0.28562,-0.425763 -0.28562,-0.697262 0,-0.552751 0.44675,-1 0.9995,-1 0.2715,0 0.51757,0.109375 0.69776,0.286124 l 0.005,-0.0049 1.99219,1.99325 c 0.31444,0.314437 0.7085,0.491187 1.11525,0.549812 0.0952,0.03028 0.19335,0.05078 0.29879,0.05078 0.55275,0 0.9995,-0.44825 0.9995,-1 V 7.199567 c 0,-0.55275 -0.44675,-0.999562 -0.9995,-0.999562 -0.103,0 -0.19969,0.0205 -0.29344,0.04881 -0.40969,0.05662 -0.80519,0.235813 -1.12062,0.551251 L 8.187,12.199068 H 4 c -1.105,0 -2,0.896499 -2,2 v 3.999812 c 0,1.1055 0.895,2.001063 2,2.001063 h 0.9995 c 0.55275,0 1.001,0.447249 1.001,1 0,0.551749 -0.44825,1 -1.001,1 H 4 c -2.20994,0 -4,-1.791 -4,-4.001063 v -3.999812 c 0,-2.208501 1.79006,-4 4,-4 H 7.33838 L 12.152309,5.386005 C 12.781189,4.759067 13.563939,4.39188 14.379379,4.26538 14.580059,4.22294 14.787619,4.2 14.999999,4.2 c 1.65625,0 2.9995,1.34325 2.9995,2.999562 V 25.2 c 0,1.65625 -1.34325,3 -2.9995,3 z m -6.5,-7.501063 c 0.55275,0 0.9995,0.44825 0.9995,1.001001 0,0.55275 -0.44675,0.998999 -0.9995,0.998999 -0.552249,0 -1.000499,-0.446312 -1.000499,-0.998999 0,-0.552688 0.44825,-1.001001 1.000499,-1.001001 z"
       id="path2-3-3-6"
       style="fill:url(#linearGradient1754);fill-opacity:1;stroke-width:0.0625" />
  </g>
  <metadata
     id="metadata67">
    <rdf:RDF>
      <cc:Work
         rdf:about="">
        <dc:format>image/svg+xml</dc:format>
        <dc:type
           rdf:resource="http://purl.org/dc/dcmitype/StillImage" />
      </cc:Work>
    </rdf:RDF>
  </metadata>
  <defs
     id="defs65">
    <linearGradient
       inkscape:collect="always"
       id="linearGradient1752">
      <stop
         style="stop-color:#eff0f1;stop-opacity:1;"
         offset="0"
         id="stop1748" />
      <stop
         style="stop-color:#eff0f1;stop-opacity:1"
         offset="0.55303192"
         id="stop1790" />
      <stop
         style="stop-color:#eff0f1;stop-opacity:0.506"
         offset="0.69267672"
         id="stop1856" />
      <stop
         style="stop-color:#eff0f1;stop-opacity:0.506"
         offset="1"
         id="stop1750" />
    </linearGradient>
    <linearGradient
       inkscape:collect="always"
       xlink:href="#linearGradient1752"
       id="linearGradient1754"
       x1="0"
       y1="16.200003"
       x2="32.00071"
       y2="16.200003"
       gradientUnits="userSpaceOnUse" />
    <linearGradient
       inkscape:collect="always"
       xlink:href="#linearGradient1752"
       id="linearGradient1754-6"
       x1="0"
       y1="16.200003"
       x2="32.00071"
       y2="16.200003"
       gradientUnits="userSpaceOnUse"
       gradientTransform="matrix(0.68749136,0,0,0.66666653,64.000071,-21.799956)" />
  </defs>
  <sodipodi:namedview
     pagecolor="#282d38"
     bordercolor="#5e81ac"
     borderopacity="1"
     objecttolerance="10"
     gridtolerance="10"
     guidetolerance="10"
     inkscape:pageopacity="1"
     inkscape:pageshadow="2"
     inkscape:window-width="1376"
     inkscape:window-height="779"
     id="namedview63"
     showgrid="true"
     inkscape:zoom="4.9062498"
     inkscape:cx="50.343951"
     inkscape:cy="12.433122"
     inkscape:window-x="287"
     inkscape:window-y="50"
     inkscape:window-maximized="0"
     inkscape:current-layer="svg50"
     inkscape:document-rotation="0"
     inkscape:lockguides="false"
     inkscape:showpageshadow="false"
     inkscape:pagecheckerboard="true"
     inkscape:deskcolor="#282d38">
    <inkscape:grid
       type="xygrid"
       id="grid902"
       originx="96.000003"
       originy="0" />
  </sodipodi:namedview>
  <g
     id="audio-volume-muted"
     transform="translate(0,-22)">
    <path
       style="opacity:0.00100002"
       d="M 96.000003,22 H 128 V 54.000001 H 96.000003 Z"
       id="path45" />
    <path
       d="m 123.25004,27.503902 c -0.41386,0 -0.7493,-0.336421 -0.7493,-0.749765 0,-0.414422 0.33544,-0.750094 0.7493,-0.750094 0.41456,0 0.75,0.335719 0.75,0.750094 0,0.413344 -0.33544,0.749765 -0.75,0.749765 z m -1.7678,2.077922 -1.91386,1.913532 c -0.71629,0.680578 -1.8494,0.67214 -2.5522,-0.03038 -0.297,-0.296907 -0.46584,-0.669938 -0.51637,-1.055063 v -1.407234 c 0,-0.828094 -0.67088,-1.498782 -1.4993,-1.498782 v -0.0033 c -0.38527,-0.0018 -0.77124,0.143532 -1.06463,0.43786 l -4.67479,4.672358 c -0.005,0.0048 -0.01,0.0073 -0.015,0.01247 -0.54272,0.542156 -1.29277,0.878625 -2.12114,0.878625 h -2.62514 c -0.82838,0 -1.50043,0.670687 -1.50043,1.499484 v 5.997985 c 0,0.828093 0.672,1.498781 1.50043,1.498781 h 2.62509 c 0.82837,0 1.57842,0.336094 2.12114,0.878625 0.0278,0.02742 0.0553,0.04866 0.0831,0.06881 l 4.599,4.597313 c 0.27244,0.278953 0.65081,0.453984 1.07231,0.453984 0.82842,0 1.4993,-0.671765 1.4993,-1.499859 V 35.469582 c 0,-0.20686 -0.16734,-0.37486 -0.37425,-0.37486 -0.10655,0 -0.20363,0.04467 -0.27174,0.116063 -0.002,0.0015 0.003,-0.0044 0.002,-0.0044 l -5.95033,5.948582 c -0.13622,0.135093 -0.32301,0.219281 -0.53067,0.219281 -0.41381,0 -0.74925,-0.336422 -0.74925,-0.749719 0,-0.206859 0.0831,-0.39539 0.21938,-0.530437 l 6.09867,-6.096469 c 0.32447,-0.304969 0.75914,-0.495703 1.2404,-0.495703 1.00304,0 1.81608,0.812718 1.81608,1.815797 v 11.679342 c 0,1.656187 -1.34292,2.998641 -2.99934,2.998641 V 50 c -0.76683,0 -1.53483,-0.2925 -2.12006,-0.877922 l -4.69828,-4.69725 c -0.27061,-0.263953 -0.63835,-0.426844 -1.04555,-0.426844 H 104.5 c -1.6568,0 -2.99972,-1.342781 -2.99972,-2.99864 v -5.997985 c 0,-1.656937 1.34292,-2.999344 2.99972,-2.999344 h 2.63681 c 0.40725,0 0.77494,-0.162937 1.04555,-0.426843 L 112.88064,26.8775 C 113.46587,26.2925 114.23382,26 115.0007,26 v 0.004 c 1.65642,0 2.99934,1.342781 2.99934,2.99864 v 1.074469 c 0.001,7.5e-4 0.003,-0.0018 0.003,0.0015 0.0103,0.08091 0.0454,0.158906 0.10767,0.220406 0.14649,0.146063 0.38344,0.146063 0.53063,0 0.003,-0.0026 0.004,-7.5e-4 0.006,-0.0026 l 1.7744,-1.774406 c 0.006,-0.0059 0.0128,-0.0077 0.0187,-0.0128 0.13697,-0.155578 0.33619,-0.256266 0.56068,-0.256266 0.41381,0 0.75037,0.336047 0.75037,0.749766 0,0.223688 -0.10036,0.422109 -0.25561,0.559734 -0.006,0.0058 -0.007,0.0135 -0.0128,0.01936 z m -17.73243,15.915657 c 0.41456,0 0.75,0.335344 0.75,0.749765 0,0.206813 -0.0842,0.394266 -0.21975,0.530438 l -2.95139,2.949937 c -0.005,0.0048 -0.0128,0.0066 -0.018,0.01172 -0.13772,0.156327 -0.33619,0.256265 -0.56067,0.256265 -0.41456,0 -0.75,-0.335344 -0.75,-0.749719 0,-0.223688 0.1,-0.422859 0.25561,-0.559734 0.005,-0.0059 0.007,-0.0128 0.0125,-0.01866 l 2.94736,-2.945575 c 0.13622,-0.137672 0.32484,-0.224437 0.53433,-0.224437 z"
       id="path2-7-5"
       style="fill:#eff0f1;fill-opacity:1;stroke-width:0.046875" />
  </g>
  <g
     id="22-22-audio-volume-muted"
     transform="translate(0,-22)">
    <path
       style="opacity:0.00100002"
       d="M 96.000003,0 H 118 V 22 H 96.000003 Z"
       id="path26" />
    <path
       d="m 114.50003,4.002601 c -0.27591,0 -0.49953,-0.22428 -0.49953,-0.499843 0,-0.276281 0.22362,-0.500063 0.49953,-0.500063 0.27637,0 0.5,0.223813 0.5,0.500063 0,0.275563 -0.22363,0.499843 -0.5,0.499843 z m -1.17853,1.385282 -1.27591,1.275688 c -0.47753,0.453718 -1.23293,0.448093 -1.70147,-0.02025 -0.198,-0.197938 -0.31056,-0.446625 -0.34424,-0.703375 V 5.00179 c 0,-0.552063 -0.44726,-0.999188 -0.99954,-0.999188 v -0.0022 c -0.25684,-0.0012 -0.51416,0.09569 -0.70975,0.291907 l -3.11653,3.114905 c -0.003,0.0032 -0.007,0.0049 -0.01,0.0083 -0.36181,0.361438 -0.86184,0.58575 -1.41409,0.58575 h -1.75009 c -0.55226,0 -1.00029,0.447125 -1.00029,0.999657 v 3.998656 c 0,0.552062 0.448,0.999188 1.00029,0.999188 h 1.75006 c 0.55224,0 1.05228,0.224062 1.41409,0.58575 0.0185,0.01828 0.0369,0.03244 0.0554,0.04587 l 3.066,3.064875 c 0.18163,0.185969 0.43387,0.302656 0.71487,0.302656 0.55228,0 0.99954,-0.447843 0.99954,-0.999906 V 9.313046 c 0,-0.137907 -0.11156,-0.249907 -0.2495,-0.249907 -0.071,0 -0.13576,0.02978 -0.18116,0.07737 -0.001,10e-4 0.002,-0.0029 10e-4,-0.0029 l -3.96689,3.965721 c -0.0908,0.09006 -0.21534,0.146188 -0.35378,0.146188 -0.27587,0 -0.4995,-0.224282 -0.4995,-0.499813 0,-0.137906 0.0554,-0.263593 0.14625,-0.353625 l 4.06578,-4.064312 c 0.21632,-0.203313 0.5061,-0.330469 0.82694,-0.330469 0.66869,0 1.21072,0.541812 1.21072,1.210531 v 7.786228 c 0,1.104125 -0.89528,1.999094 -1.99956,1.999094 v 0.0029 c -0.51122,0 -1.02322,-0.195 -1.41338,-0.585281 l -3.13215,-3.131522 c -0.18041,-0.175969 -0.42557,-0.284563 -0.69703,-0.284563 H 102 c -1.10453,0 -1.99981,-0.895187 -1.99981,-1.999093 V 9.000906 c 0,-1.104625 0.89528,-1.999563 1.99981,-1.999563 h 1.75788 c 0.2715,0 0.51662,-0.108624 0.69703,-0.284562 L 107.5871,3.585 C 107.97725,3.195 108.48922,3 109.00047,3 v 0.0027 c 1.10428,0 1.99956,0.895187 1.99956,1.999093 v 0.716313 c 6.7e-4,5e-4 0.002,-0.0012 0.002,0.001 0.007,0.05394 0.0303,0.105937 0.0718,0.146937 0.0977,0.09738 0.25563,0.09738 0.35375,0 0.002,-0.0017 0.003,-5e-4 0.004,-0.0017 l 1.18294,-1.182938 c 0.004,-0.0039 0.008,-0.0051 0.0125,-0.0085 0.0913,-0.103719 0.22412,-0.170844 0.37378,-0.170844 0.27588,0 0.50025,0.224031 0.50025,0.499844 0,0.149125 -0.0669,0.281406 -0.17041,0.373156 -0.004,0.0039 -0.005,0.009 -0.008,0.01291 z m -11.82162,10.610438 c 0.27637,0 0.5,0.223563 0.5,0.499843 0,0.137876 -0.0561,0.262844 -0.1465,0.353626 l -1.967597,1.966624 c -0.0033,0.0032 -0.0085,0.0044 -0.012,0.0078 -0.09181,0.104218 -0.224127,0.170844 -0.37378,0.170844 -0.276373,0 -0.5,-0.223563 -0.5,-0.499813 0,-0.149125 0.06667,-0.281906 0.170407,-0.373156 0.0033,-0.0039 0.0047,-0.0085 0.0083,-0.01244 l 1.96491,-1.963717 c 0.0908,-0.09178 0.21656,-0.149624 0.35622,-0.149624 z"
       id="path2-7-5-3"
       style="fill:#eff0f1;fill-opacity:1;stroke-width:0.03125" />
  </g>
  <g
     id="audio-volume-high"
     transform="translate(32.000001,-22)">
    <path
       style="opacity:0.00100002"
       d="M -32.000001,22 H 0 v 32.000001 h -32.000001 z"
       id="path2" />
    <path
       d="m -4.686917,49.313505 -0.006,-0.0068 c -0.181626,0.1875 -0.43312,0.302749 -0.713864,0.302749 -0.552238,0 -0.998978,-0.44825 -0.998978,-1 0,-0.296875 0.131377,-0.559562 0.334503,-0.742187 2.515524,-2.530387 4.071179,-6.016762 4.071179,-9.868137 0,-2.184125 -0.514178,-4.242188 -1.406219,-6.084062 l 0.0112,-0.0049 c -0.0566,-0.126438 -0.0899,-0.264188 -0.0899,-0.411126 0,-0.55225 0.44824,-0.999 1.000478,-0.999 0.405741,0 0.751923,0.241688 0.90917,0.588375 l 0.008,-0.0039 c 1.004359,2.0928 1.567347,4.43805 1.567347,6.914613 0,4.418812 -1.79146,8.418812 -4.686396,11.314375 z M -4.99991,28.999567 c -0.552738,0 -1.000478,-0.44825 -1.000478,-0.999562 0,-0.55225 0.44774,-1.0005 1.000478,-1.0005 0.551238,0 0.999478,0.44825 0.999478,1.0005 0,0.551312 -0.44824,0.999562 -0.999478,0.999562 z m -3.863665,15.999375 c -0.184056,0.21875 -0.45455,0.360376 -0.762173,0.360376 -0.551238,0 -0.999478,-0.448251 -0.999478,-1 0,-0.272438 0.109378,-0.518563 0.286124,-0.698251 l -0.004,-0.0039 c 1.447218,-1.44825 2.342258,-3.448312 2.342258,-5.657999 0,-2.194376 -0.88473,-4.180188 -2.315388,-5.626501 -0.198246,-0.183125 -0.324683,-0.441874 -0.324683,-0.732937 0,-0.55125 0.44824,-0.9995 0.999478,-0.9995 0.276873,0 0.525368,0.112312 0.706994,0.293437 l 0.005,-0.0049 c 1.80896,1.809551 2.928565,4.309113 2.928565,7.070363 0,2.726312 -1.094726,5.195125 -2.863187,6.999812 z m -8.136569,5.001063 c -0.212376,0 -0.419931,-0.02344 -0.620607,-0.06544 -0.815422,-0.126937 -1.598094,-0.492187 -2.22702,-1.121125 l -1.983326,-1.983435 0.008,-0.0078 c -0.176237,-0.1797 -0.285614,-0.425763 -0.285614,-0.697262 0,-0.552751 0.44674,-1 0.999478,-1 0.271494,0 0.517558,0.109375 0.697744,0.286124 l 0.005,-0.0049 1.992146,1.99325 c 0.314433,0.314437 0.708484,0.491187 1.115225,0.549812 0.0952,0.03028 0.193346,0.05078 0.298784,0.05078 0.552737,0 0.999478,-0.44825 0.999478,-1 V 28.999567 c 0,-0.55275 -0.446741,-0.999562 -0.999478,-0.999562 -0.102998,0 -0.199686,0.0205 -0.293434,0.04881 -0.409681,0.05662 -0.805172,0.235813 -1.120595,0.551251 l -5.398819,5.399002 h -4.186908 c -1.104975,0 -1.999955,0.896499 -1.999955,2 v 3.999812 c 0,1.1055 0.89498,2.001063 1.999955,2.001063 h 0.999478 c 0.552738,0 1.000978,0.447249 1.000978,1 0,0.551749 -0.44824,1 -1.000978,1 h -0.999478 c -2.209891,0 -3.999911,-1.791 -3.999911,-4.001063 v -3.999812 c 0,-2.208501 1.79002,-4 3.999911,-4 h 3.338306 l 4.813823,-4.813063 c 0.628866,-0.626938 1.411598,-0.994125 2.22702,-1.120625 C -17.420265,26.02294 -17.21271,26 -17.000334,26 c 1.656213,0 2.999433,1.34325 2.999433,2.999562 V 47 c 0,1.65625 -1.34322,3 -2.999433,3 z M -23.5,42.498942 c 0.552737,0 0.999478,0.44825 0.999478,1.001001 0,0.55275 -0.446741,0.998999 -0.999478,0.998999 -0.552237,0 -1.000477,-0.446312 -1.000477,-0.998999 0,-0.552688 0.44824,-1.001001 1.000477,-1.001001 z"
       id="path2-3-3-6-3"
       style="fill:#eff0f1;fill-opacity:1;stroke-width:0.0624993" />
  </g>
  <g
     id="audio-volume-medium"
     transform="translate(32.000001)">
    <path
       style="opacity:0.00100002"
       d="M 0,0 H 32.000001 V 32.000001 H 0 Z"
       id="path31" />
    <path
       d="m 30.05204,16.163765 0.06606,0.02923 -0.06532,-0.05756 0.0459,0.0449 -0.0258,-0.02157 -0.07229,0.04037 0.107049,0.0052 -0.02483,-0.04093 -0.01784,0.02125 -0.0084,0.0099 0.0084,0.01188 -0.06406,-0.0039 0.05408,-0.07536 0.06958,0.07273 z m 0.04731,0.04353 0.08043,-0.06276 -0.0084,-0.0637 -0.08143,-0.0084 z m -6.962409,6.991645 c -0.18406,0.21875 -0.45456,0.360376 -0.76219,0.360376 -0.55125,0 -0.9995,-0.448251 -0.9995,-1 0,-0.272438 0.10938,-0.518563 0.28613,-0.698251 l -0.004,-0.0039 c 1.44725,-1.44825 2.34231,-3.448312 2.34231,-5.657999 0,-2.194376 -0.88475,-4.180188 -2.31544,-5.626501 -0.19825,-0.183125 -0.32469,-0.441874 -0.32469,-0.732937 0,-0.55125 0.44825,-0.9995 0.9995,-0.9995 0.27688,0 0.52538,0.112312 0.70701,0.293437 l 0.005,-0.0049 c 1.809,1.809551 2.92863,4.309113 2.92863,7.070363 0,2.726312 -1.09475,5.195125 -2.86325,6.999812 z m -8.13675,5.001063 c -0.21238,0 -0.41994,-0.02344 -0.62062,-0.06544 -0.81544,-0.126937 -1.59813,-0.492187 -2.22707,-1.121125 l -1.98337,-1.983435 0.008,-0.0078 c -0.17624,-0.1797 -0.28562,-0.425763 -0.28562,-0.697262 0,-0.552751 0.44675,-1 0.9995,-1 0.2715,0 0.51757,0.109375 0.69776,0.286124 l 0.005,-0.0049 1.99219,1.99325 c 0.31444,0.314437 0.7085,0.491187 1.11525,0.549812 0.0952,0.03028 0.19335,0.05078 0.29879,0.05078 0.55275,0 0.9995,-0.44825 0.9995,-1 V 7.199567 c 0,-0.55275 -0.44675,-0.999562 -0.9995,-0.999562 -0.103,0 -0.19969,0.0205 -0.29344,0.04881 -0.40969,0.05662 -0.80519,0.235813 -1.12062,0.551251 L 8.187,12.199068 H 4 c -1.105,0 -2,0.896499 -2,2 v 3.999812 c 0,1.1055 0.895,2.001063 2,2.001063 h 0.9995 c 0.55275,0 1.001,0.447249 1.001,1 0,0.551749 -0.44825,1 -1.001,1 H 4 c -2.20994,0 -4,-1.791 -4,-4.001063 v -3.999812 c 0,-2.208501 1.79006,-4 4,-4 H 7.33838 L 12.15231,5.386005 C 12.78119,4.759067 13.56394,4.39188 14.37938,4.26538 14.58006,4.22294 14.78762,4.2 15,4.2 c 1.65625,0 2.9995,1.34325 2.9995,2.999562 V 25.2 c 0,1.65625 -1.34325,3 -2.9995,3 z m -6.5,-7.501063 c 0.55275,0 0.9995,0.44825 0.9995,1.001001 0,0.55275 -0.44675,0.998999 -0.9995,0.998999 -0.55225,0 -1.0005,-0.446312 -1.0005,-0.998999 0,-0.552688 0.44825,-1.001001 1.0005,-1.001001 z"
       id="path2-3-3"
       style="fill:#eff0f1;fill-opacity:1;stroke-width:0.0625"
       sodipodi:nodetypes="cccccccccccccccccccccssccscssccscccccccssccccsssscccssssssssssscccsssccsssss" />
    <path
       d="m 27.219337,27.513999 -0.0064,-0.0068 c -0.181631,0.1875 -0.433141,0.302748 -0.713901,0.302748 -0.55227,0 -0.999036,-0.44825 -0.999036,-1 0,-0.296875 0.13138,-0.559562 0.334512,-0.742187 2.515679,-2.530387 4.071423,-6.016762 4.071423,-9.868137 0,-2.184125 -0.514206,-4.242188 -1.406301,-6.084061 l 0.01125,-0.0049 c -0.05664,-0.126438 -0.08988,-0.264188 -0.08988,-0.411126 0,-0.55225 0.448266,-0.999 1.000535,-0.999 0.405766,0 0.751965,0.241688 0.909221,0.588375 l 0.0078,-0.0039 c 1.004418,2.092799 1.567439,4.438049 1.567439,6.914612 0,4.418812 -1.791565,8.418812 -4.68667,11.314375 z M 26.906327,7.200062 c -0.552771,0 -1.000537,-0.44825 -1.000537,-0.999562 0,-0.55225 0.447766,-1.0005 1.000537,-1.0005 0.55127,0 0.999536,0.44825 0.999536,1.0005 0,0.551312 -0.448266,0.999562 -0.999536,0.999562 z m -0.981312,7.784324 c 0.01813,-0.0091 0.003,0.0031 0.003,0.0031 l 0.01883,-0.0032 -0.0067,-0.01666 -0.01883,0.02286 0.0012,-0.0079 0.04521,0.04033 -0.03644,-0.03033 c 0,0 0.003,0.0055 -0.0094,0.0094 l 0.04043,-0.01282 0.0054,0.01311 -0.04703,-0.01969 0.02231,-0.0072 z m 0.08906,0.01866 -0.111076,0.03647 0.01497,-0.05106 0.01036,-0.118678 0.0078,0.06426 0.0026,0.09542 -0.02086,0.02309 0.04759,-0.05246 0.0054,-0.05586 -0.04603,0.1079 0.09614,-0.06165 -0.05791,-1.76e-4 0.03135,-0.03185 v 0.08873 c 0,5e-6 -0.207343,-0.05515 -0.207343,-0.05515 l 0.138939,0.04881 -0.0397,-0.09731 0.0057,0.06643 -0.151543,-0.07206 0.30599,-0.08979 v 0.180534 l 0.05433,-0.08873 h -0.153529 l -0.0079,0.0632 -0.0642,-0.0089 h 0.0094 l 0.107529,0.0344 v -0.108473 l -0.179593,0.107525 0.0956,-0.07206 -0.08627,0.01508 0.137273,-0.0397 -0.172061,0.0067 0.169124,0.05853 v 0.06413 z m 0.118934,-0.06856 -0.08143,-0.07993 0.0094,0.134257 -0.135764,-0.06219 z"
       id="path2-3-5"
       style="fill:#eff0f1;fill-opacity:0.5;stroke-width:0.0625011"
       sodipodi:nodetypes="ccsscsccssccscssssscccccccccccccccccccccccccccccccsccccccccccccccccccccccc" />
  </g>
  <g
     id="22-22-audio-volume-medium"
     transform="translate(32.000001,-22)">
    <path
       style="opacity:0.00100002;fill:#c8b7b7"
       d="M 0,0 H 22 V 22 H 0 Z"
       id="path12" />
    <path
       d="m 20.721648,10.975845 0.04555,0.01949 -0.04504,-0.03837 0.03165,0.02993 -0.01779,-0.01438 -0.04985,0.02691 0.07381,0.0035 -0.01712,-0.02729 -0.0123,0.01417 -0.0058,0.0066 0.0058,0.0079 -0.04417,-0.0026 0.03729,-0.05024 0.04798,0.04849 z m 0.03262,0.02902 0.05546,-0.04184 -0.0058,-0.04247 -0.05615,-0.0056 z m -4.800758,4.661096 c -0.126915,0.145834 -0.313431,0.240251 -0.52555,0.240251 -0.380101,0 -0.689181,-0.298834 -0.689181,-0.666667 0,-0.181625 0.07542,-0.345708 0.197294,-0.4655 l -0.0028,-0.0026 c 0.997916,-0.9655 1.615083,-2.298875 1.615083,-3.771999 0,-1.462917 -0.610058,-2.786792 -1.596555,-3.751 -0.136699,-0.122084 -0.223882,-0.294583 -0.223882,-0.488625 0,-0.3675 0.309079,-0.666333 0.68918,-0.666333 0.190916,0 0.362263,0.07487 0.487502,0.195625 l 0.0034,-0.0033 c 1.247352,1.206367 2.019366,2.872742 2.019366,4.713575 0,1.817541 -0.754859,3.463416 -1.974284,4.66654 z m -5.610497,3.334042 c -0.146441,0 -0.289559,-0.01563 -0.427933,-0.04363 -0.5622666,-0.08462 -1.1019513,-0.328124 -1.5356215,-0.747416 l -1.3675844,-1.32229 0.00552,-0.0052 c -0.121522,-0.1198 -0.1969423,-0.283842 -0.1969423,-0.464841 0,-0.368501 0.3080455,-0.666667 0.689181,-0.666667 0.1872062,0 0.3568777,0.07292 0.4811233,0.190749 l 0.00345,-0.0033 1.3736658,1.328833 c 0.2168144,0.209625 0.4885293,0.327458 0.7689931,0.366541 0.06564,0.02019 0.13332,0.03385 0.206023,0.03385 0.381135,0 0.689181,-0.298833 0.689181,-0.666666 V 4.999674 c 0,-0.3685 -0.308046,-0.666375 -0.689181,-0.666375 -0.07102,0 -0.137691,0.01367 -0.202334,0.03254 C 9.8580622,4.403589 9.5853552,4.523048 9.3678581,4.73334 L 5.6451504,8.332714 H 2.758102 c -0.7619257,0 -1.379051,0.597666 -1.379051,1.333334 v 2.666541 c 0,0.736999 0.6171253,1.334041 1.379051,1.334041 h 0.6891807 c 0.3811352,0 0.690215,0.298166 0.690215,0.666667 0,0.367833 -0.3090798,0.666667 -0.690215,0.666667 H 2.758102 C 1.234292,14.999964 0,13.805964 0,12.332589 V 9.666048 C 0,8.193714 1.234292,6.999381 2.758102,6.999381 H 5.0600001 L 8.3793278,3.790673 C 8.8129566,3.372714 9.3526827,3.127923 9.914949,3.04359 10.053323,3.0153 10.196441,3 10.342883,3 c 1.142026,0 2.068231,0.8955 2.068231,1.999708 v 12.00029 c 0,1.104167 -0.926205,2 -2.068231,2 z M 5.8610974,13.999295 c 0.3811352,0 0.6891807,0.298833 0.6891807,0.667334 0,0.3685 -0.3080455,0.665999 -0.6891807,0.665999 -0.3807905,0 -0.6898703,-0.297541 -0.6898703,-0.665999 0,-0.368459 0.3090798,-0.667334 0.6898703,-0.667334 z"
       id="path2-3-3-62"
       style="fill:#eff0f1;fill-opacity:1;stroke-width:0.0423749"
       sodipodi:nodetypes="cccccccccccccccccccccssccscssccscccccccssccccsssscccssssssssssscccsssccsssss" />
    <path
       d="m 18.768427,18.542667 -0.0044,-0.0045 c -0.12524,0.125 -0.298662,0.201832 -0.492253,0.201832 -0.380805,0 -0.688861,-0.298834 -0.688861,-0.666667 0,-0.197917 0.09059,-0.373041 0.230654,-0.494791 1.734625,-1.686925 2.80735,-4.011174 2.80735,-6.578757 0,-1.456083 -0.354558,-2.828125 -0.96968,-4.05604 l 0.0078,-0.0033 c -0.03906,-0.08429 -0.06197,-0.176125 -0.06197,-0.274084 0,-0.368167 0.30909,-0.666 0.689894,-0.666 0.279786,0 0.518499,0.161125 0.626931,0.39225 l 0.0054,-0.0026 c 0.692572,1.395199 1.08079,2.958699 1.08079,4.609741 0,2.945874 -1.23533,5.61254 -3.231579,7.542915 z M 18.552598,5.000044 c -0.381149,0 -0.689896,-0.298833 -0.689896,-0.666375 0,-0.368166 0.308747,-0.666999 0.689896,-0.666999 0.380115,0 0.689206,0.298833 0.689206,0.666999 0,0.367542 -0.309091,0.666375 -0.689206,0.666375 z m -0.676639,5.189549 c 0.0125,-0.0061 0.0021,0.0021 0.0021,0.0021 l 0.01298,-0.0021 -0.0046,-0.01111 -0.01298,0.01524 8.28e-4,-0.0053 0.03117,0.02689 -0.02513,-0.02022 c 0,0 0.0021,0.0037 -0.0065,0.0063 l 0.02788,-0.0085 0.0037,0.0087 -0.03243,-0.01313 0.01538,-0.0048 z m 0.06141,0.01244 -0.07659,0.02431 0.01032,-0.03404 0.0071,-0.07912 0.0054,0.04284 0.0018,0.06361 -0.01438,0.01539 0.03281,-0.03497 0.0037,-0.03724 -0.03174,0.07193 0.06629,-0.0411 -0.03993,-1.17e-4 0.02162,-0.02123 v 0.05915 c 0,3e-6 -0.142969,-0.03677 -0.142969,-0.03677 l 0.0958,0.03254 -0.02737,-0.06487 0.0039,0.04429 -0.104492,-0.04804 0.210988,-0.05986 v 0.120356 l 0.03746,-0.05915 h -0.105862 l -0.0054,0.04213 -0.04427,-0.0059 h 0.0065 l 0.07414,0.02293 v -0.07232 l -0.123834,0.07168 0.06592,-0.04804 -0.05949,0.01005 0.09465,-0.02647 -0.118641,0.0045 0.116615,0.03902 v 0.04275 z m 0.08201,-0.04571 -0.05615,-0.05329 0.0065,0.0895 -0.09361,-0.04146 z"
       id="path2-3-5-9"
       style="fill:#eff0f1;fill-opacity:0.5;stroke-width:0.0423758"
       sodipodi:nodetypes="ccsscsccssccscssssscccccccccccccccccccccccccccccccsccccccccccccccccccccccc" />
  </g>
</svg>
