<?xml version="1.0" encoding="UTF-8" standalone="no"?>
<svg
   width="32"
   height="32"
   version="1"
   id="svg1154"
   sodipodi:docname="cadence.svg"
   inkscape:version="1.3 (0e150ed6c4, 2023-07-21)"
   xmlns:inkscape="http://www.inkscape.org/namespaces/inkscape"
   xmlns:sodipodi="http://sodipodi.sourceforge.net/DTD/sodipodi-0.dtd"
   xmlns="http://www.w3.org/2000/svg"
   xmlns:svg="http://www.w3.org/2000/svg">
  <sodipodi:namedview
     id="namedview1156"
     pagecolor="#ffffff"
     bordercolor="#666666"
     borderopacity="1.0"
     inkscape:showpageshadow="2"
     inkscape:pageopacity="0.0"
     inkscape:pagecheckerboard="0"
     inkscape:deskcolor="#d1d1d1"
     showgrid="false"
     inkscape:zoom="7.375"
     inkscape:cx="11.254237"
     inkscape:cy="27.864407"
     inkscape:window-width="1920"
     inkscape:window-height="994"
     inkscape:window-x="0"
     inkscape:window-y="0"
     inkscape:window-maximized="1"
     inkscape:current-layer="svg1154">
    <inkscape:grid
       id="grid1"
       units="px"
       originx="-22"
       originy="10"
       spacingx="1"
       spacingy="1"
       empcolor="#0099e5"
       empopacity="0.30196078"
       color="#0099e5"
       opacity="0.14901961"
       empspacing="5"
       dotted="false"
       gridanglex="30"
       gridanglez="30"
       visible="false" />
  </sodipodi:namedview>
  <defs
     id="l4k1">
    <style
       type="text/css"
       id="current-color-scheme" />
  </defs>
  <g
     id="cadence"
     transform="translate(-22,10)">
    <rect
       style="opacity:0.00100002;fill:#d1d5e9;fill-opacity:1"
       width="32"
       height="32"
       x="22"
       y="-10"
       id="rect1149" />
    <path
       style="fill:#eceff4;fill-opacity:1;stroke-width:0.587932"
       d="m 37.999624,-2.5 c -0.804378,0.013119 -2.031006,0.1973268 -2.348867,0.5383375 -0.338979,0.3636599 -0.412404,0.8749315 -0.317701,1.4406925 0.180564,1.0786 1.693597,2.400969 2.590187,3.590628 -0.0067,0.0071 -0.01283,0.01621 -0.01911,0.02399 -0.451609,0.55325 -1.393501,1.060767 -1.833278,1.49026 0.07085,-0.314345 0.121928,-1.005785 0.133673,-1.223658 0.01015,-0.186628 0.0055,-0.331444 -0.05379,-0.449462 -0.02937,-0.05907 -0.08213,-0.115589 -0.154517,-0.138437 -0.0723,-0.02288 -0.147015,-0.007 -0.211795,0.02216 -0.174918,0.441817 -0.464214,1.036171 -0.699623,1.591085 -0.216481,0.353928 -0.369518,0.987643 -0.468732,1.213397 -0.05105,0.116249 -0.08912,0.217624 -0.112845,0.30592 -0.02229,0.0832 -0.03333,0.15626 -0.02946,0.223879 0.123651,0.164142 0.323601,0.140138 0.486095,0.150387 0.07047,-0.0012 0.144234,-0.01303 0.22569,-0.06148 0.191149,-0.11384 0.425232,-0.293718 0.675309,-0.504162 -0.178365,0.581188 -0.208529,0.766496 -0.493037,1.416757 -0.004,0.0089 -0.0099,0.01835 -0.01386,0.02734 -1.501187,-0.201163 -3.066699,-0.07364 -4.126585,0.2854 -0.555947,0.188354 -0.984075,0.608096 -1.150998,1.071544 -0.166921,0.463469 -0.06526,1.052308 0.354153,1.782498 0.419412,0.730204 0.88206,1.064914 1.374948,1.168971 0.492888,0.104037 0.985141,-0.03198 1.44092,-0.394794 0.868915,-0.691572 1.6524,-2.296026 2.262065,-3.647011 0.01009,0.0022 0.02119,0.0026 0.03123,0.0037 0.717958,0.104266 1.406677,1.0555 2.008604,1.211687 -0.315191,0.09741 -0.683926,0.198289 -0.883649,0.297368 -0.171008,0.08478 -0.297691,0.161419 -0.373247,0.270022 -0.03775,0.05426 -0.0628,0.127508 -0.04682,0.199956 0.01593,0.07243 0.06773,0.127775 0.12673,0.167481 0.117904,0.07939 0.285247,0.123118 0.534714,0.158935 0.249457,0.03578 0.667254,0.05769 1.090234,0.06328 0.002,1.6e-5 0.0026,-1.6e-5 0.0038,0 0.002,-1.6e-5 0.0026,1.6e-5 0.0037,0 0.422983,-0.0061 0.840777,-0.02739 1.090238,-0.06328 0.249465,-0.03576 0.416801,-0.07948 0.534701,-0.158935 0.05896,-0.03974 0.110866,-0.09503 0.126733,-0.167481 0.01591,-0.07244 -0.0089,-0.145656 -0.04682,-0.199956 -0.07563,-0.108624 -0.202282,-0.185213 -0.37329,-0.270045 -0.199719,-0.09907 -0.568454,-0.199941 -0.883643,-0.297366 0.601928,-0.156182 1.290638,-1.107415 2.008606,-1.211682 0.01003,-0.0022 0.02117,-0.0026 0.03123,-0.0038 0.609659,1.350985 1.393152,2.955441 2.262068,3.647021 0.45578,0.362748 0.948026,0.498819 1.440916,0.394782 0.492884,-0.10405 0.955534,-0.438763 1.374948,-1.168973 0.419416,-0.730201 0.521075,-1.319031 0.354153,-1.782487 -0.166927,-0.463451 -0.595049,-0.883204 -1.151,-1.071554 -1.059884,-0.359079 -2.625393,-0.486559 -4.126576,-0.285397 -0.0039,-0.0087 -0.01003,-0.01834 -0.01387,-0.02738 -0.284498,-0.650267 -0.314665,-0.835581 -0.493032,-1.416764 0.250088,0.210432 0.484171,0.390323 0.675319,0.504152 0.08148,0.04847 0.155152,0.06081 0.225685,0.06148 0.16249,-0.01029 0.362437,0.01371 0.486091,-0.150396 0.0038,-0.06765 -0.0069,-0.1407 -0.02946,-0.223885 -0.02365,-0.0883 -0.06176,-0.189662 -0.112845,-0.305911 -0.0992,-0.22575 -0.252256,-0.859473 -0.468732,-1.213399 -0.235368,-0.554932 -0.524671,-1.149272 -0.699588,-1.591089 -0.06475,-0.02983 -0.139445,-0.04511 -0.211794,-0.02217 -0.07231,0.02286 -0.125111,0.07941 -0.154507,0.138429 -0.05885,0.11802 -0.06383,0.262842 -0.05377,0.449477 0.01178,0.217869 0.06283,0.909306 0.133679,1.223637 -0.439777,-0.429492 -1.381651,-0.937003 -1.833263,-1.490244 -0.0069,-0.0071 -0.01294,-0.01614 -0.01912,-0.024 0.896625,-1.189591 2.409663,-2.511958 2.590217,-3.590557 0.09424,-0.565642 0.02079,-1.0769136 -0.318174,-1.4405734 -0.317771,-0.3409822 -1.544403,-0.5251843 -2.34878,-0.5383089 z"
       id="path1151" />
    <path
       d="m 37.999688,17.99995 h -0.75 c -0.414563,0 -0.749954,-0.336187 -0.749954,-0.75 0,-0.414562 0.335391,-0.75 0.749954,-0.75 h 0.75 c 5.798859,0 10.499812,-4.701375 10.499812,-10.500094 0,-5.798531 -4.700953,-10.499906 -10.499812,-10.499906 -5.798484,0 -10.499859,4.701375 -10.499859,10.499906 0,3.435141 1.657125,6.476203 4.206983,8.391469 l -0.0076,0.01095 c 0.181274,0.13704 0.300665,0.352331 0.300665,0.597675 0,0.413766 -0.335439,0.75 -0.75,0.75 -0.168845,0 -0.322266,-0.05859 -0.447891,-0.152344 l -0.0018,0.0029 C 27.885922,13.411407 26,9.925829 26,5.999906 26,-0.62775 31.372203,-6 37.999813,-6 44.626672,-6 50,-0.62775 50,5.999906 50,12.627047 44.626672,18 37.999813,18 Z m -3.749579,-1.5 c 0.413438,0 0.74925,0.335438 0.74925,0.75 0,0.413813 -0.335812,0.75 -0.74925,0.75 -0.414562,0 -0.75,-0.336187 -0.75,-0.75 0,-0.414562 0.335438,-0.75 0.75,-0.75 z M 48.4995,5.999856 v 0 0 0 0 0 l 0.0662,-0.01523 -0.06322,0.01455 0.0114,-0.01275 0.0012,0.0075 0.05654,-0.02776 -0.0822,0.02895 0.02914,0.0048 0.0098,0.0013 -0.02889,-0.0013 v 0 l 0.0191,-4.6e-5 0.0098,0.0013 0.0373,-0.01652 z"
       id="path2"
       sodipodi:nodetypes="ssssssssccssccssssssssscccccccccccccccccccc"
       style="color:#eceff4;fill:currentColor;fill-opacity:1;stroke-width:0.046875;enable-background:new"
       class="ColorScheme-Text" />
  </g>
  <g
     id="22-22-cadence"
     transform="translate(-22,10)">
    <rect
       style="opacity:0.00100002;fill:#d1d5e9;fill-opacity:1"
       width="22"
       height="22"
       x="0"
       y="0"
       id="rect1144" />
    <path
       style="fill:#eceff4;fill-opacity:1;stroke-width:0.562508"
       d="M 10.962529,5.7000001 C 10.453486,5.7084425 9.6772228,5.8268527 9.4760662,6.0460727 9.2615478,6.2798531 9.215081,6.6085269 9.2750143,6.9722289 9.3892742,7.6656082 10.346792,8.5157023 10.914186,9.280478 c -0.0043,0.005 -0.008,0.01045 -0.01206,0.01537 -0.28578,0.35566 -0.881841,0.681917 -1.1601513,0.958019 0.044857,-0.202068 0.077157,-0.646567 0.084589,-0.786627 0.0064,-0.119979 0.00313,-0.213074 -0.034057,-0.2889434 -0.018615,-0.037934 -0.051995,-0.074306 -0.097783,-0.088988 -0.04579,-0.014689 -0.093036,-0.00489 -0.1340349,0.014284 -0.110693,0.2840244 -0.2937782,0.6661004 -0.4427531,1.0228344 -0.1369946,0.227522 -0.2338423,0.634912 -0.2966331,0.780037 -0.032338,0.07473 -0.056411,0.139899 -0.071415,0.196659 -0.01413,0.05352 -0.02106,0.100456 -0.018675,0.143923 0.078254,0.10552 0.2047894,0.09009 0.3076195,0.09667 0.04463,-4.63e-4 0.091279,-0.0083 0.1428249,-0.03952 0.1209641,-0.07321 0.2691024,-0.188821 0.4273695,-0.324102 -0.1128784,0.373618 -0.1319707,0.492746 -0.3120143,0.910769 -0.00242,0.0052 -0.0062,0.0118 -0.0088,0.01759 -0.9500082,-0.129328 -1.9407302,-0.04729 -2.6114711,0.183471 -0.3518267,0.121079 -0.622765,0.39091 -0.7284,0.688847 -0.1056355,0.297938 -0.041292,0.676472 0.224123,1.145884 0.2654211,0.469415 0.558204,0.684582 0.8701249,0.751479 0.3119212,0.06696 0.6234382,-0.02053 0.9118747,-0.253791 0.5498887,-0.444586 1.0457109,-1.47602 1.4315312,-2.344502 0.0064,0.0016 0.013457,0.0019 0.019772,0.0027 0.4543579,0.06702 0.8902041,0.678531 1.2711311,0.778937 -0.199465,0.06255 -0.432818,0.12747 -0.55921,0.191167 -0.108219,0.05443 -0.1883968,0.103731 -0.2362082,0.173551 -0.0239,0.03485 -0.03971,0.08199 -0.029651,0.12854 0.010041,0.04654 0.042891,0.08218 0.0802,0.10767 0.07461,0.05098 0.1805102,0.07913 0.3383812,0.10217 0.157872,0.02296 0.422267,0.03711 0.689949,0.04071 8.61e-4,1.1e-5 0.0017,-7e-6 0.0023,0 8.67e-4,-7e-6 0.0017,1.1e-5 0.0023,0 0.267681,-0.0046 0.532076,-0.01759 0.689948,-0.04071 0.157869,-0.02298 0.263766,-0.05107 0.33838,-0.10217 0.03731,-0.02562 0.07015,-0.06104 0.08022,-0.10767 0.01012,-0.04654 -0.0056,-0.09363 -0.02964,-0.12854 -0.04784,-0.06985 -0.127973,-0.119134 -0.236188,-0.173669 -0.126397,-0.06366 -0.359748,-0.128532 -0.559212,-0.191164 0.380929,-0.100406 0.81677,-0.711907 1.271129,-0.778934 0.0061,-0.0015 0.01341,-0.0019 0.01976,-0.0026 0.385821,0.868486 0.881649,1.899923 1.431531,2.3445 0.288441,0.233202 0.599958,0.320674 0.911876,0.25379 0.311927,-0.06696 0.604705,-0.28206 0.870128,-0.751474 0.26542,-0.469408 0.329758,-0.847946 0.224124,-1.145885 -0.105557,-0.297913 -0.376494,-0.567744 -0.728323,-0.688823 -0.670741,-0.230844 -1.661462,-0.312798 -2.611473,-0.183474 -0.0028,-0.0051 -0.006,-0.01179 -0.0087,-0.01758 -0.180091,-0.417978 -0.199182,-0.537111 -0.31206,-0.910725 0.158269,0.135279 0.306406,0.250923 0.427373,0.3241 0.05159,0.03114 0.09819,0.0391 0.142822,0.03952 0.10283,-0.0065 0.229366,0.0088 0.30762,-0.09667 0.0027,-0.04348 -0.0046,-0.09045 -0.01863,-0.143925 -0.01494,-0.05679 -0.03913,-0.121929 -0.07148,-0.196655 -0.06275,-0.14515 -0.15961,-0.552539 -0.2966,-0.780062 -0.148977,-0.356735 -0.332061,-0.738812 -0.442754,-1.0228363 -0.04099,-0.019171 -0.08825,-0.028965 -0.134033,-0.014281 -0.04575,0.014686 -0.07917,0.051055 -0.09779,0.088989 -0.03724,0.075869 -0.04039,0.1689653 -0.03402,0.2889423 0.0072,0.140062 0.03975,0.584554 0.08459,0.786627 -0.278276,-0.276103 -0.874335,-0.602359 -1.160129,-0.958016 -0.0046,-0.0049 -0.0081,-0.01043 -0.01208,-0.01538 0.567398,-0.7647158 1.524916,-1.6148103 1.639175,-2.3081891 0.05986,-0.3637138 0.01341,-0.6923886 -0.20111,-0.926168 C 12.247975,5.8268526 11.471713,5.708437 10.962671,5.7 Z"
       id="path1146" />
    <path
       d="m 10.999826,19 h -0.5 c -0.276375,0 -0.499969,-0.224125 -0.499969,-0.5 0,-0.276375 0.223594,-0.5 0.499969,-0.5 h 0.5 c 3.865906,0 6.999875,-3.13425 6.999875,-7.000063 C 17.999701,7.13425 14.865732,4 10.999826,4 7.13417,4 3.99992,7.13425 3.99992,10.999937 c 0,2.290094 1.10475,4.317469 2.804655,5.594313 l -0.0051,0.0073 C 6.920324,16.69291 6.999918,16.836437 6.999918,17 c 0,0.275844 -0.223626,0.5 -0.5,0.5 -0.112563,0 -0.214844,-0.03906 -0.298594,-0.101563 l -0.0012,0.0019 C 4.257281,15.940938 3,13.617219 3,10.999937 3,6.5815 6.581469,3 10.999875,3 15.417781,3 19,6.5815 19,10.999937 19,15.418031 15.417781,19 10.999875,19 Z M 8.500107,18 c 0.275625,0 0.4995,0.223625 0.4995,0.5 0,0.275875 -0.223875,0.5 -0.4995,0.5 -0.276375,0 -0.5,-0.224125 -0.5,-0.5 0,-0.276375 0.223625,-0.5 0.5,-0.5 z m 9.499594,-7.000063 v 0 0 0 0 0 l 0.04413,-0.01015 -0.04215,0.0097 0.0076,-0.0085 8e-4,0.005 0.03769,-0.01851 -0.0548,0.0193 0.01943,0.0032 0.0065,8.67e-4 -0.01926,-8.67e-4 v 0 l 0.01273,-3.1e-5 0.0065,8.67e-4 0.02487,-0.01101 z"
       id="path2-6"
       sodipodi:nodetypes="ssssssssccssccssssssssscccccccccccccccccccc"
       style="color:#eceff4;fill:currentColor;fill-opacity:1;stroke-width:0.03125;enable-background:new"
       class="ColorScheme-Text" />
  </g>
</svg>
