<?xml version="1.0" encoding="UTF-8" standalone="no"?>
<svg
   id="svg2"
   width="32"
   height="32"
   version="1.0"
   inkscape:version="1.2.2 (b0a8486541, 2022-12-01)"
   sodipodi:docname="computer.svg"
   xmlns:inkscape="http://www.inkscape.org/namespaces/inkscape"
   xmlns:sodipodi="http://sodipodi.sourceforge.net/DTD/sodipodi-0.dtd"
   xmlns:xlink="http://www.w3.org/1999/xlink"
   xmlns="http://www.w3.org/2000/svg"
   xmlns:svg="http://www.w3.org/2000/svg"
   xmlns:rdf="http://www.w3.org/1999/02/22-rdf-syntax-ns#"
   xmlns:cc="http://creativecommons.org/ns#"
   xmlns:dc="http://purl.org/dc/elements/1.1/">
  <g
     id="computer">
    <rect
       y="0"
       x="0"
       height="32"
       width="32"
       id="rect4171"
       style="opacity:0.00100002;fill:#000000;fill-opacity:1;stroke:none;stroke-width:4;stroke-linecap:round;stroke-linejoin:round;stroke-miterlimit:4;stroke-dasharray:none;stroke-opacity:1" />
    <path
       d="m 26.975002,16.8125 c 0,0.448703 -0.405767,0.8125 -0.90625,0.8125 -0.500483,0 -0.90625,-0.363797 -0.90625,-0.8125 0,-0.448703 0.405767,-0.8125 0.90625,-0.8125 0.500483,0 0.90625,0.363797 0.90625,0.8125 z m 0,7.3125 h -4.53125 c -0.500483,0 -0.90625,-0.363797 -0.90625,-0.8125 0,-0.448703 0.405767,-0.8125 0.90625,-0.8125 h 4.53125 c 1.000966,0 1.8125,-0.727594 1.8125,-1.625 V 6.25 c 0,-0.897406 -0.811534,-1.625 -1.8125,-1.625 h -21.75 c -1.000954,0 -1.8125,0.727594 -1.8125,1.625 v 6.90625 0.447891 1.583359 c 0,0.448703 0.405773,0.8125 0.90625,0.8125 h 1.766 0.499625 15.859375 c 0.500483,0 0.90625,0.363797 0.90625,0.8125 0,0.448703 -0.405767,0.8125 -0.90625,0.8125 H 3.865627 C 2.769972,17.625 1.856415,16.927164 1.646222,16 H 1.6 V 6.25 C 1.6,4.455188 3.223095,3 5.225,3 h 21.75 C 28.976902,3 30.6,4.455188 30.6,6.25 v 14.625 c 0,1.794812 -1.623098,3.25 -3.625,3.25 z m -12.6875,-4.0625 c 0,-0.448703 0.405767,-0.8125 0.90625,-0.8125 0.500483,0 0.90625,0.363797 0.90625,0.8125 0,0.448703 -0.405767,0.8125 -0.90625,0.8125 -0.500483,0 -0.90625,-0.363797 -0.90625,-0.8125 z M 2.506252,19.25 c 0.500477,0 0.90625,0.363797 0.90625,0.8125 v 0.8125 c 0,0.897406 0.811546,1.625 1.8125,1.625 h 12.6875 c 1.000966,0 1.8125,0.727594 1.8125,1.625 0,1.794812 1.793021,3.25 2.71875,3.25 0.500483,0 0.90625,0.363797 0.90625,0.8125 0,0.448703 -0.405767,0.8125 -0.90625,0.8125 h -12.6875 c -0.500482,0 -0.90625,-0.363797 -0.90625,-0.8125 0,-0.448703 0.405768,-0.8125 0.90625,-0.8125 0.521047,0 1.353195,-0.493949 1.959873,-1.255668 C 11.878748,25.896809 12.156854,25.75 12.475002,25.75 c 0.500483,0 0.90625,0.363797 0.90625,0.8125 0,0.02859 -0.0055,0.05555 -0.0084,0.08298 0.0074,0.07968 -0.02358,0.176515 -0.09785,0.292753 -0.01854,0.03133 -0.03721,0.06266 -0.05988,0.09171 -10e-4,7.62e-4 -10e-4,0.0027 -0.0018,0.0035 -0.09369,0.119032 -0.195808,0.230903 -0.297591,0.341606 h 6.33933 c -0.01334,-0.01468 -0.02839,-0.02778 -0.042,-0.04327 -0.002,-0.002 -0.0028,-0.004 -0.0044,-0.0055 -0.08142,-0.09049 -0.156667,-0.183727 -0.231886,-0.279754 -0.0028,-0.0048 -0.0075,-0.0095 -0.01151,-0.01386 -0.304443,-0.394368 -0.559326,-0.83393 -0.742501,-1.307618 -0.133615,-0.347953 -0.227469,-0.714492 -0.274821,-1.092964 9.06e-4,0.0044 0,0.0099 9.06e-4,0.01473 C 17.900087,24.351129 17.616905,24.125 17.275303,24.125 h -1.175301 -10.875 c -2.001905,0 -3.625,-1.455188 -3.625,-3.25 v -0.8125 c 0,-0.448703 0.405773,-0.8125 0.90625,-0.8125 z"
       id="path2"
       style="fill:url(#linearGradient917);fill-opacity:1;stroke-width:0.053631" />
  </g>
  <sodipodi:namedview
     pagecolor="#ffffff"
     bordercolor="#000000"
     borderopacity="1"
     objecttolerance="10"
     gridtolerance="10"
     guidetolerance="10"
     inkscape:pageopacity="0"
     inkscape:pageshadow="2"
     inkscape:window-width="1920"
     inkscape:window-height="998"
     id="namedview24"
     showgrid="false"
     inkscape:zoom="5.6568543"
     inkscape:cx="17.942834"
     inkscape:cy="9.2807764"
     inkscape:window-x="0"
     inkscape:window-y="0"
     inkscape:window-maximized="1"
     inkscape:current-layer="svg2"
     inkscape:document-rotation="0"
     inkscape:pagecheckerboard="0"
     inkscape:lockguides="true"
     inkscape:showpageshadow="false"
     inkscape:deskcolor="#d1d1d1">
    <inkscape:grid
       type="xygrid"
       id="grid862"
       originx="0"
       originy="0" />
  </sodipodi:namedview>
  <metadata
     id="metadata7">
    <rdf:RDF>
      <cc:Work
         rdf:about="">
        <dc:format>image/svg+xml</dc:format>
        <dc:type
           rdf:resource="http://purl.org/dc/dcmitype/StillImage" />
      </cc:Work>
    </rdf:RDF>
  </metadata>
  <defs
     id="defs5">
    <linearGradient
       inkscape:collect="always"
       id="linearGradient504">
      <stop
         style="stop-color:#37c8ab;stop-opacity:1"
         offset="0"
         id="stop500" />
      <stop
         style="stop-color:#eeaaff;stop-opacity:1"
         offset="1"
         id="stop502" />
    </linearGradient>
    <style
       id="current-color-scheme"
       type="text/css" />
    <linearGradient
       inkscape:collect="always"
       xlink:href="#linearGradient504"
       id="linearGradient917"
       x1="2.1306424"
       y1="28.908381"
       x2="30.059511"
       y2="3.7565916"
       gradientUnits="userSpaceOnUse" />
    <linearGradient
       inkscape:collect="always"
       xlink:href="#linearGradient504"
       id="linearGradient2269"
       x1="-32"
       y1="19.941122"
       x2="-11.045049"
       y2="1.9913746"
       gradientUnits="userSpaceOnUse" />
    <linearGradient
       inkscape:collect="always"
       xlink:href="#linearGradient504"
       id="linearGradient5484"
       x1="53.351917"
       y1="-15.556349"
       x2="81.351913"
       y2="-15.556349"
       gradientUnits="userSpaceOnUse"
       gradientTransform="translate(-51.351916,31.556349)" />
    <linearGradient
       inkscape:collect="always"
       xlink:href="#linearGradient504"
       id="linearGradient5486"
       x1="56.351925"
       y1="-16.056349"
       x2="59.351921"
       y2="-16.056349"
       gradientUnits="userSpaceOnUse"
       gradientTransform="translate(-51.351916,31.556349)" />
    <linearGradient
       inkscape:collect="always"
       xlink:href="#linearGradient504"
       id="linearGradient5488"
       x1="56.351929"
       y1="-22.056339"
       x2="59.351921"
       y2="-22.056339"
       gradientUnits="userSpaceOnUse"
       gradientTransform="translate(-51.351916,31.556349)" />
    <linearGradient
       inkscape:collect="always"
       xlink:href="#linearGradient504"
       id="linearGradient5716"
       gradientUnits="userSpaceOnUse"
       gradientTransform="matrix(0.71428429,0,0,0.75000016,-37.108435,22.667266)"
       x1="56.351929"
       y1="-22.056339"
       x2="59.351921"
       y2="-22.056339" />
    <linearGradient
       inkscape:collect="always"
       xlink:href="#linearGradient504"
       id="linearGradient5718"
       gradientUnits="userSpaceOnUse"
       gradientTransform="matrix(0.71428429,0,0,0.75000016,-37.108435,22.667266)"
       x1="56.351925"
       y1="-16.056349"
       x2="59.351921"
       y2="-16.056349" />
    <linearGradient
       inkscape:collect="always"
       xlink:href="#linearGradient504"
       id="linearGradient5720"
       gradientUnits="userSpaceOnUse"
       gradientTransform="matrix(0.71428429,0,0,0.75000016,-37.108435,22.667266)"
       x1="53.351917"
       y1="-15.556349"
       x2="81.351913"
       y2="-15.556349" />
  </defs>
  <g
     style="fill:none;stroke:#ffffff"
     id="g4171"
     transform="translate(-102.11178,-18.990757)">
    <g
       transform="translate(-38.38147,-1006.1003)"
       style="stroke-width:0.5"
       id="g4173" />
    <g
       transform="translate(-39.59798,-1004.3622)"
       style="stroke-width:0.4"
       id="g4175" />
  </g>
  <g
     id="22-22-computer"
     transform="translate(32,-22.941122)">
    <rect
       style="opacity:0.00100002;stroke-width:1.00134"
       width="22"
       height="22.058878"
       x="-32"
       y="-0.058877535"
       id="rect7" />
    <path
       d="m -12.750003,11.566122 c 0,0.345156 -0.307824,0.625 -0.687501,0.625 -0.379676,0 -0.687499,-0.279844 -0.687499,-0.625 0,-0.345156 0.307823,-0.625 0.687499,-0.625 0.379677,0 0.687501,0.279844 0.687501,0.625 z m 0,5.625 h -3.4375 c -0.379676,0 -0.6875,-0.279844 -0.6875,-0.625 0,-0.345156 0.307824,-0.625 0.6875,-0.625 h 3.4375 c 0.759352,0 1.375,-0.559688 1.375,-1.25 V 3.4411225 c 0,-0.690312 -0.615648,-1.25 -1.375,-1.25 H -29.25 c -0.759345,0 -1.375,0.559688 -1.375,1.25 v 5.3125 0.344532 1.2179675 c 0,0.345156 0.307828,0.625 0.6875,0.625 h 1.339724 0.379026 12.031247 c 0.379677,0 0.6875,0.279844 0.6875,0.625 0,0.345156 -0.307823,0.625 -0.6875,0.625 h -14.093748 c -0.831186,0 -1.524229,-0.536797 -1.683685,-1.25 h -0.03506 V 3.4411225 c 0,-1.380625 1.231314,-2.50000004 2.75,-2.50000004 h 16.499997 C -11.231315,0.94112246 -10,2.0604975 -10,3.4411225 V 14.691122 c 0,1.380625 -1.231315,2.5 -2.749999,2.5 z m -9.624999,-3.125 c 0,-0.345156 0.307824,-0.625 0.6875,-0.625 0.379677,0 0.6875,0.279844 0.6875,0.625 0,0.345156 -0.307823,0.625 -0.6875,0.625 -0.379676,0 -0.6875,-0.279844 -0.6875,-0.625 z m -8.937498,-0.625 c 0.379672,0 0.6875,0.279844 0.6875,0.625 v 0.625 c 0,0.690312 0.615655,1.25 1.375,1.25 h 9.624998 c 0.759352,0 1.375,0.559688 1.375,1.25 0,1.380625 1.360222,2.5 2.062499,2.5 0.379677,0 0.6875,0.279844 0.6875,0.625 0,0.345156 -0.307823,0.625 -0.6875,0.625 h -9.624998 c -0.379676,0 -0.6875,-0.279844 -0.6875,-0.625 0,-0.345156 0.307824,-0.625 0.6875,-0.625 0.395277,0 1.026562,-0.379961 1.4868,-0.965898 0.12337,-0.171172 0.334346,-0.284102 0.5757,-0.284102 0.379677,0 0.6875,0.279844 0.6875,0.625 0,0.02199 -0.0041,0.04273 -0.0064,0.06383 0.0056,0.06129 -0.01789,0.135781 -0.07423,0.225194 -0.01406,0.0241 -0.02823,0.0482 -0.04543,0.07055 -7.6e-4,5.86e-4 -7.6e-4,0.0021 -0.0014,0.0027 -0.07108,0.09156 -0.148544,0.177618 -0.225759,0.262774 h 4.809149 c -0.01011,-0.01129 -0.02153,-0.02137 -0.0319,-0.03328 -0.0015,-0.0015 -0.0022,-0.0031 -0.0034,-0.0042 -0.06177,-0.06961 -0.118851,-0.141328 -0.175913,-0.215195 -0.0022,-0.0037 -0.0058,-0.0073 -0.0089,-0.01066 -0.230957,-0.30336 -0.424317,-0.641484 -0.563276,-1.00586 -0.101365,-0.267656 -0.172564,-0.549609 -0.208487,-0.840741 6.88e-4,0.0034 0,0.0076 6.88e-4,0.01133 -0.03699,-0.22745 -0.25182,-0.401395 -0.510966,-0.401395 H -21.000002 -29.25 c -1.518686,0 -2.75,-1.119375 -2.75,-2.5 v -0.625 c 0,-0.345156 0.307828,-0.625 0.6875,-0.625 z"
       id="path2-7-5"
       style="fill:url(#linearGradient2269);fill-opacity:1;stroke-width:0.040969"
       sodipodi:nodetypes="ssssscsssssssssccssccssssccsssssscssssscssssssssssscsscccccccccccccscssscc" />
  </g>
  <g
     id="computer-laptop"
     transform="translate(32.000008)">
    <rect
       style="opacity:0.00100002;fill:#000000;fill-opacity:1;stroke:none;stroke-width:4;stroke-linecap:round;stroke-linejoin:round;stroke-miterlimit:4;stroke-dasharray:none;stroke-opacity:1"
       id="rect4228"
       width="32"
       height="32"
       x="3.125e-14"
       y="5.5053711e-08" />
    <path
       d="m 8.000006,9.500002 c 0,0.828833 -0.671174,1.500007 -1.499998,1.500007 -0.828126,10e-7 -1.499997,-0.671174 -1.499997,-1.500007 0,-0.828126 0.671871,-1.499993 1.499997,-1.499993 0.828824,0 1.499998,0.671867 1.499998,1.499993 z"
       id="path72-3"
       style="color:#eceff4;fill:url(#linearGradient5488);fill-opacity:1;stroke-width:0.0178575"
       class="ColorScheme-Text" />
    <path
       d="M 8.000006,15.499993 C 8.000006,16.328825 7.32883,17 6.500008,17 5.671881,17 5.00001,16.328825 5.00001,15.499993 5.00001,14.671865 5.671881,14 6.500008,14 c 0.828822,0 1.499998,0.671865 1.499998,1.499993 z"
       id="path72-3-6"
       style="color:#eceff4;fill:url(#linearGradient5486);fill-opacity:1;stroke-width:0.0178575"
       class="ColorScheme-Text" />
    <path
       d="m 26.500004,19.692264 c 0,0.509767 -0.391776,0.923074 -0.875,0.923074 -0.483223,0 -0.875,-0.413307 -0.875,-0.923074 0,-0.509768 0.391777,-0.923074 0.875,-0.923074 0.483224,0 0.875,0.413306 0.875,0.923074 z m 0,8.307672 h -4.374999 c -0.483224,0 -0.875001,-0.41331 -0.875001,-0.923077 0,-0.509769 0.391777,-0.923072 0.875001,-0.923072 h 4.374999 c 0.966448,0 1.75,-0.826614 1.75,-1.846151 V 7.692298 c 0,-1.019536 -0.783552,-1.846149 -1.75,-1.846149 H 5.500005 c -0.966438,0 -1.750001,0.826613 -1.750001,1.846149 v 7.846131 0.508845 1.798841 c 0,0.509767 0.391782,0.923075 0.875,0.923075 h 1.705104 0.482397 15.3125 c 0.483223,0 0.874999,0.413306 0.874999,0.923074 0,0.509767 -0.391776,0.923074 -0.874999,0.923074 H 4.187504 c -1.057874,0 -1.939928,-0.792806 -2.142874,-1.846148 H 2 V 7.692298 C 2,5.653227 3.567126,4 5.500001,4 H 26.499999 C 28.432871,4 30,5.653227 30,7.692298 v 16.615338 c 0,2.03907 -1.567129,3.6923 -3.5,3.6923 z m -12.25,-4.615375 c 0,-0.509767 0.391776,-0.923074 0.875,-0.923074 0.483225,0 0.875,0.413307 0.875,0.923074 0,0.509768 -0.391775,0.923075 -0.875,0.923075 -0.483224,0 -0.875,-0.413307 -0.875,-0.923075 z m -11.375,-0.923074 c 0.483219,0 0.875,0.413307 0.875,0.923074 v 0.923075 c 0,1.019537 0.783563,1.846151 1.750001,1.846151 h 12.25 c 1.102798,0 1.102798,1.817742 1.78e-4,1.817742 h -4.59393 v 0 0 0 0 0 0 0 0 0 0 0 0 0 0 0 0 0 0 0 0 0 c 0,0 4.308345,0.02845 3.978522,0.02845 h -1.134771 l -2.843751,-0.02845 -7.656248,0.02845 C 3.56714,28.006679 2.000004,26.346748 2.000004,24.30768 v -0.923115 c 0,-0.509768 0.39178,-0.923075 0.875,-0.923075 z"
       id="path2-3"
       style="color:#eceff4;fill:url(#linearGradient5484);fill-opacity:1;stroke-width:0.0561697"
       class="ColorScheme-Text "
       sodipodi:nodetypes="sssssssssssssssccssccssssccsssssssssssssssssccscccccccccccccccccccsccssss" />
  </g>
  <g
     id="22-22-computer-laptop"
     transform="translate(32,-22.941122)">
    <rect
       style="opacity:0.00100002"
       width="22"
       height="22"
       x="0"
       y="-4.6325684e-07"
       id="rect2" />
    <path
       d="m 5.2857065,6.124999 c 0,0.621635 -0.4794008,1.125007 -1.0714243,1.125007 -0.5915156,1e-6 -1.0714234,-0.503372 -1.0714234,-1.125007 0,-0.621085 0.4799078,-1.124994 1.0714234,-1.124994 0.5920235,0 1.0714243,0.503909 1.0714243,1.124994 z"
       id="path72-3-7"
       style="color:#eceff4;fill:url(#linearGradient5716);fill-opacity:1;stroke-width:0.0130707"
       class="ColorScheme-Text" />
    <path
       d="m 5.2857065,10.624996 c 0,0.621629 -0.4794028,1.125007 -1.0714243,1.125007 -0.5915156,0 -1.0714244,-0.503378 -1.0714244,-1.125007 0,-0.62109 0.4799088,-1.124994 1.0714244,-1.124994 0.5920215,0 1.0714243,0.503904 1.0714243,1.124994 z"
       id="path72-3-6-5"
       style="color:#eceff4;fill:url(#linearGradient5718);fill-opacity:1;stroke-width:0.0130707"
       class="ColorScheme-Text" />
    <path
       d="m 18.499962,13.769201 c 0,0.382325 -0.279833,0.692305 -0.625002,0.692305 -0.345154,0 -0.624995,-0.30998 -0.624995,-0.692305 0,-0.382326 0.279841,-0.692307 0.624995,-0.692307 0.345169,0 0.625002,0.309981 0.625002,0.692307 z m 0,6.230755 H 15.37497 c -0.345156,0 -0.625,-0.309982 -0.625,-0.692309 0,-0.382326 0.279844,-0.692304 0.625,-0.692304 h 3.124992 c 0.690325,0 1.249997,-0.61996 1.249997,-1.384613 V 4.76922 c 0,-0.764649 -0.559672,-1.384606 -1.249997,-1.384606 H 3.4999999 c -0.6903173,0 -1.250007,0.619957 -1.250007,1.384606 v 5.884596 0.38164 1.349134 c 0,0.382325 0.2798533,0.692304 0.6250035,0.692304 H 4.0929304 4.4374979 15.37497 c 0.345161,0 0.624996,0.309981 0.624996,0.692307 0,0.382325 -0.279835,0.692305 -0.624996,0.692305 H 2.5624901 c -0.7556221,0 -1.3856619,-0.594605 -1.5306178,-1.384612 H 1.0000438 V 4.76922 C 1.0000438,3.239929 2.1194133,2 3.5000419,2 H 18.500006 C 19.880622,2 21,3.239929 21,4.76922 v 12.46151 c 0,1.529302 -1.119378,2.769226 -2.499993,2.769226 z M 9.7499827,16.538424 c 0,-0.382326 0.2798423,-0.692306 0.6249963,-0.692306 0.345155,0 0.625,0.30998 0.625,0.692306 0,0.382326 -0.279845,0.692306 -0.625,0.692306 -0.345154,0 -0.6249963,-0.30998 -0.6249963,-0.692306 z M 1.6249935,15.846118 c 0.3451632,0 0.6249994,0.30998 0.6249994,0.692306 v 0.692306 c 0,0.764653 0.5596897,1.384613 1.250007,1.384613 h 8.7499761 c 0.787715,0 0.787715,1.363307 1.34e-4,1.363307 H 8.9687356 v 0 0 0 0 0 0 0 0 0 0 0 0 0 0 0 0 0 0 0 0 0 c 0,0 3.0773824,0.02134 2.8417894,0.02134 H 10.999979 L 8.9687356,19.97865 3.4999999,19.99999 C 2.1193793,20.00499 1,18.760065 1,17.230765 v -0.692336 c 0,-0.382327 0.2798517,-0.692307 0.6249935,-0.692307 z"
       id="path2-3-3"
       style="color:#eceff4;fill:url(#linearGradient5720);fill-opacity:1;stroke-width:0.0411128"
       class="ColorScheme-Text "
       sodipodi:nodetypes="sssssssssssssssccssccssssccsssssssssssssssssccscccccccccccccccccccsccssss" />
  </g>
</svg>
