<?xml version="1.0" encoding="UTF-8" standalone="no"?>
<svg
   inkscape:version="1.3 (0e150ed6c4, 2023-07-21)"
   sodipodi:docname="image.svg"
   id="svg44"
   version="1.1"
   height="32"
   width="32"
   style="enable-background:new"
   xmlns:inkscape="http://www.inkscape.org/namespaces/inkscape"
   xmlns:sodipodi="http://sodipodi.sourceforge.net/DTD/sodipodi-0.dtd"
   xmlns:xlink="http://www.w3.org/1999/xlink"
   xmlns="http://www.w3.org/2000/svg"
   xmlns:svg="http://www.w3.org/2000/svg"
   xmlns:rdf="http://www.w3.org/1999/02/22-rdf-syntax-ns#"
   xmlns:cc="http://creativecommons.org/ns#"
   xmlns:dc="http://purl.org/dc/elements/1.1/">
  <metadata
     id="metadata48">
    <rdf:RDF>
      <cc:Work
         rdf:about="">
        <dc:format>image/svg+xml</dc:format>
        <dc:type
           rdf:resource="http://purl.org/dc/dcmitype/StillImage" />
      </cc:Work>
    </rdf:RDF>
  </metadata>
  <sodipodi:namedview
     showguides="true"
     inkscape:current-layer="svg44"
     inkscape:window-maximized="1"
     inkscape:window-y="0"
     inkscape:window-x="0"
     inkscape:cy="27.494881"
     inkscape:cx="23.586077"
     inkscape:zoom="11.256641"
     showgrid="false"
     id="namedview46"
     inkscape:window-height="994"
     inkscape:window-width="1920"
     inkscape:pageshadow="2"
     inkscape:pageopacity="0"
     guidetolerance="10"
     gridtolerance="10"
     objecttolerance="10"
     borderopacity="1"
     bordercolor="#000000"
     pagecolor="#ffffff"
     inkscape:document-rotation="0"
     inkscape:lockguides="false"
     inkscape:showpageshadow="false"
     inkscape:pagecheckerboard="false"
     inkscape:deskcolor="#cccccc">
    <inkscape:grid
       type="xygrid"
       id="grid905"
       originx="0"
       originy="0"
       spacingy="1"
       spacingx="1"
       units="px"
       visible="false" />
  </sodipodi:namedview>
  <defs
     id="defs4">
    <linearGradient
       id="linearGradient5606"
       inkscape:swatch="solid">
      <stop
         style="stop-color:#000000"
         offset="0"
         id="stop5608" />
    </linearGradient>
    <linearGradient
       xlink:href="#1"
       id="9"
       gradientUnits="userSpaceOnUse"
       x1="252.72501"
       y1="388.505"
       x2="255.41499"
       y2="-76.616997"
       gradientTransform="matrix(0.02890894,0,0,0.02711282,8.3449777,8.8451403)" />
    <linearGradient
       id="1">
      <stop
         stop-color="#f9f9f9"
         id="stop2" />
      <stop
         offset="1"
         stop-color="#afafaf"
         id="stop4" />
    </linearGradient>
    <linearGradient
       id="oomox"
       x1="1.4797103"
       x2="1.4797103"
       y1="0.4730846"
       y2="14.665033"
       gradientTransform="matrix(0.94613118,0,0,1.0569359,7.8239662,8.0979799)"
       gradientUnits="userSpaceOnUse">
      <stop
         offset="0%"
         style="stop-color:#303b3d; stop-opacity:1"
         id="stop18" />
      <stop
         offset="100%"
         style="stop-color:#bc985d; stop-opacity:1"
         id="stop20" />
    </linearGradient>
  </defs>
  <g
     id="g34"
     transform="matrix(0,0.23269337,-0.3257329,0,32.286645,4.6684124)">
    <g
       id="g32">
      <g
         id="g30">
        <g
           id="g28">
          <g
             id="g26">
            <g
               id="g24">
              <g
                 id="g22" />
            </g>
          </g>
        </g>
      </g>
    </g>
  </g>
  <g
     id="g52"
     transform="matrix(0,0.23269337,-0.3257329,0,32.286645,4.6684124)">
    <g
       id="g50">
      <g
         id="g48">
        <g
           id="g46">
          <g
             id="g44">
            <g
               id="g42">
              <g
                 id="g40" />
            </g>
          </g>
        </g>
      </g>
    </g>
  </g>
  <g
     id="g70"
     transform="matrix(0,0.23269337,-0.3257329,0,32.286645,4.6684124)">
    <g
       id="g68">
      <g
         id="g66">
        <g
           id="g64">
          <g
             id="g62">
            <g
               id="g60">
              <g
                 id="g58" />
            </g>
          </g>
        </g>
      </g>
    </g>
  </g>
  <g
     id="g88"
     transform="matrix(0,0.23269337,-0.3257329,0,32.286645,4.6684124)">
    <g
       id="g86">
      <g
         id="g84">
        <g
           id="g82">
          <g
             id="g80">
            <g
               id="g78">
              <g
                 id="g76" />
            </g>
          </g>
        </g>
      </g>
    </g>
  </g>
  <g
     id="g106"
     transform="matrix(0,0.23269337,-0.3257329,0,32.286645,4.6684124)">
    <g
       id="g104">
      <g
         id="g102">
        <g
           id="g100">
          <g
             id="g98">
            <g
               id="g96">
              <g
                 id="g94" />
            </g>
          </g>
        </g>
      </g>
    </g>
  </g>
  <g
     id="g128"
     transform="matrix(0,0.23269337,-0.3257329,0,32.286645,4.6684123)">
    <g
       id="g126">
      <g
         id="g124">
        <g
           id="g122">
          <g
             id="g120">
            <g
               id="g118">
              <g
                 id="g116">
                <g
                   id="g114" />
              </g>
            </g>
          </g>
        </g>
      </g>
    </g>
  </g>
  <g
     id="g146"
     transform="matrix(0,0.23269337,-0.3257329,0,32.286645,4.6684123)">
    <g
       id="g144">
      <g
         id="g142">
        <g
           id="g140">
          <g
             id="g138">
            <g
               id="g136">
              <g
                 id="g134">
                <g
                   id="g132" />
              </g>
            </g>
          </g>
        </g>
      </g>
    </g>
  </g>
  <g
     id="image-x-generic"
     transform="translate(32,10)">
    <rect
       id="rect11"
       style="opacity:0.00100002;fill:#d1d5e9;fill-opacity:1"
       y="-10"
       x="-32"
       height="32"
       width="32" />
    <path
       style="fill:#eff0f1;fill-opacity:1;stroke:none;stroke-width:1.42983;stroke-linecap:round;stroke-miterlimit:4;stroke-dasharray:none;stroke-opacity:1"
       d="m -18.269967,4.604581 c -0.420904,-0.03217 -0.8458,0.10423 -1.148095,0.436859 L -28,14.485086 c 0,1.008685 0,1.008685 0,1.008685 l 19.411972,-2.1e-5 -8.557901,-10.309833 c -0.287245,-0.346096 -0.70315,-0.547055 -1.124038,-0.579336 z"
       id="rect2428"
       inkscape:connector-curvature="0"
       sodipodi:nodetypes="ccccccc" />
    <path
       style="fill:#eff0f1;fill-opacity:0.551122;stroke:none;stroke-width:1.42983;stroke-linecap:round;stroke-miterlimit:4;stroke-dasharray:none;stroke-opacity:1"
       d="m -11.638468,6.333211 c -0.420914,-0.03223 -0.845805,0.104132 -1.148092,0.436844 L -20.714033,15.49375 -4,15.493772 V 14.825524 L -10.514439,6.91255 c -0.287246,-0.346126 -0.70314,-0.547064 -1.124029,-0.579339 z"
       id="path2433"
       inkscape:connector-curvature="0"
       sodipodi:nodetypes="ccccccc" />
    <circle
       style="fill:#eff0f1;fill-opacity:1;stroke:none;stroke-width:2.01871;stroke-linecap:round;stroke-miterlimit:4;stroke-dasharray:none;stroke-opacity:1"
       id="path2451"
       cx="-23.200001"
       cy="1.5"
       r="1.5" />
    <path
       d="m -25.286633,-5 h 13.92949 c 0.512105,0 0.927643,0.352594 0.927643,0.785712 0,0.434308 -0.415538,0.786113 -0.927643,0.786113 h -13.92949 c -1.025617,0 -2.135724,0.703601 -2.135724,1.571415 v 15.714296 c 0,0.867821 1.110107,1.571035 2.135724,1.571035 h 18.571877 c 1.025377,0 2.136176,-0.703214 2.136176,-1.571035 V -1.071037 c 0,-0.434305 0.136502,-0.785703 0.649771,-0.785703 0.512339,0 0.928808,0.351398 0.928808,0.785703 V 13.857536 C -3.000002,15.593179 -4.663773,17 -6.714756,17 H -25.286633 C -27.337393,17 -29,15.593179 -29,13.857536 V -1.85674 C -29,-3.59239 -27.337393,-5 -25.286633,-5 Z m 17.643079,1.571825 c -0.512116,0 -0.835948,-0.351825 -0.835948,-0.786113 C -8.479502,-4.647406 -8.15567,-5 -7.643554,-5 c 0.513261,0 0.836404,0.352594 0.836404,0.785712 0,0.434308 -0.323143,0.786113 -0.836404,0.786113 z"
       id="path2-3"
       style="fill:#eff0f1;fill-opacity:1;stroke-width:0.053385;enable-background:new"
       sodipodi:nodetypes="ssssssssssssssssssssssss" />
  </g>
  <g
     id="22-22-image-x-generic"
     transform="translate(32,10)">
    <path
       id="path6"
       d="m 0,0 h 22 c 0,0 0,0 0,0 v 22 c 0,0 0,0 0,0 H 0 c 0,0 0,0 0,0 z"
       style="opacity:0;fill:#d1d5e9;fill-opacity:1" />
    <path
       style="fill:#eff0f1;fill-opacity:1;stroke:none;stroke-width:0.976725;stroke-linecap:round;stroke-miterlimit:4;stroke-dasharray:none;stroke-opacity:1;enable-background:new"
       d="m 9.4110284,10.603061 c -0.2946394,-0.02148 -0.5920608,0.0695 -0.8036646,0.291233 L 2.6,17.190057 c 0,0.672456 0,0.672456 0,0.672456 l 13.588384,-2e-5 -5.990538,-6.873215 C 9.9967742,10.758553 9.705644,10.624576 9.4110284,10.603061 Z"
       id="rect2428-3"
       inkscape:connector-curvature="0"
       sodipodi:nodetypes="ccccccc" />
    <path
       style="fill:#eff0f1;fill-opacity:0.55;stroke:none;stroke-width:0.976725;stroke-linecap:round;stroke-miterlimit:4;stroke-dasharray:none;stroke-opacity:1;enable-background:new"
       d="m 14.053076,11.755475 c -0.294639,-0.02151 -0.592059,0.06948 -0.803664,0.291229 L 7.7001766,17.862493 19.4,17.862514 V 17.417015 L 14.839903,12.141699 C 14.638825,11.910955 14.3477,11.776992 14.053076,11.755475 Z"
       id="path2433-6"
       inkscape:connector-curvature="0"
       sodipodi:nodetypes="ccccccc" />
    <circle
       style="fill:#eff0f1;fill-opacity:1;stroke:none;stroke-width:1.34566;stroke-linecap:round;stroke-miterlimit:4;stroke-dasharray:none;stroke-opacity:1;enable-background:new"
       id="path2451-7"
       cx="5.6999998"
       cy="8.000001"
       r="1" />
    <path
       d="M 4.2136155,3 H 14.392857 c 0.374228,0 0.677907,0.256429 0.677907,0.571437 0,0.315842 -0.303679,0.571703 -0.677907,0.571703 H 4.2136155 c -0.7494891,0 -1.5607217,0.511709 -1.5607217,1.142861 v 11.428575 c 0,0.631136 0.8112327,1.142575 1.5607217,1.142575 H 17.785366 c 0.749333,0 1.56107,-0.511439 1.56107,-1.142575 V 5.857423 c 0,-0.315861 0.09973,-0.571422 0.474824,-0.571422 0.374399,0 0.67874,0.255561 0.67874,0.571422 V 16.714576 C 20.499999,17.976864 19.284179,19 17.785366,19 H 4.2136155 C 2.7149828,19 1.5,17.976864 1.5,16.714576 V 5.285999 C 1.5,4.023721 2.7149828,3 4.2136155,3 Z M 17.106638,4.14314 c -0.374239,0 -0.610884,-0.255859 -0.610884,-0.571703 C 16.495754,3.256429 16.732399,3 17.106638,3 c 0.375075,0 0.611211,0.256429 0.611211,0.571437 0,0.315842 -0.236136,0.571703 -0.611211,0.571703 z"
       id="path2-3-6"
       style="fill:#eff0f1;fill-opacity:1;stroke-width:0.0389177;enable-background:new"
       sodipodi:nodetypes="ssssssssssssssssssssssss" />
  </g>
</svg>
