<?xml version="1.0" encoding="UTF-8" standalone="no"?>
<svg
   width="32"
   height="32"
   version="1"
   id="svg18"
   sodipodi:docname="krusader_root.svg"
   inkscape:version="1.3 (0e150ed6c4, 2023-07-21)"
   xmlns:inkscape="http://www.inkscape.org/namespaces/inkscape"
   xmlns:sodipodi="http://sodipodi.sourceforge.net/DTD/sodipodi-0.dtd"
   xmlns="http://www.w3.org/2000/svg"
   xmlns:svg="http://www.w3.org/2000/svg">
  <defs
     id="defs22" />
  <sodipodi:namedview
     id="namedview20"
     pagecolor="#ffffff"
     bordercolor="#000000"
     borderopacity="1"
     inkscape:showpageshadow="true"
     inkscape:pageopacity="0"
     inkscape:pagecheckerboard="false"
     inkscape:deskcolor="#cccccc"
     showgrid="false"
     inkscape:lockguides="false"
     inkscape:zoom="7.375"
     inkscape:cx="6.2372881"
     inkscape:cy="8.4745763"
     inkscape:window-width="1920"
     inkscape:window-height="994"
     inkscape:window-x="0"
     inkscape:window-y="0"
     inkscape:window-maximized="1"
     inkscape:current-layer="svg18">
    <inkscape:grid
       type="xygrid"
       id="grid1958"
       originx="0"
       originy="0"
       spacingy="1"
       spacingx="1"
       units="px"
       visible="false" />
  </sodipodi:namedview>
  <g
     id="krusader_root">
    <rect
       style="opacity:0.00100002;fill:#da4453;fill-opacity:1"
       width="32"
       height="32"
       x="0"
       y="0"
       id="rect352" />
    <path
       d="m 6.2372881,14.783967 v 0 1 0 h 5.9999999 v 0 -1 0 z"
       id="path3004-6-2"
       style="fill:#bf616a;fill-opacity:1;stroke-width:0.12"
       sodipodi:nodetypes="ccccccccc" />
    <path
       d="m 6.2372881,11.783967 v 0 1 0 h 5.9999999 v 0 -1 0 z"
       id="path3004-6-9"
       style="fill:#bf616a;fill-opacity:1;stroke-width:0.12"
       sodipodi:nodetypes="ccccccccc" />
    <path
       style="fill:#bf616a;fill-opacity:1;stroke-width:0.492539"
       d="m 17,5.733967 v 0 h -2 v 13.1 h 2 v 0 z"
       id="path349-3-7"
       sodipodi:nodetypes="ccccccc" />
    <path
       d="m 6.2372881,8.783967 v 0 1 0 h 5.9999999 v 0 -1 0 z"
       id="path3004-6-9-1"
       style="fill:#bf616a;fill-opacity:1;stroke-width:0.12"
       sodipodi:nodetypes="ccccccccc" />
    <path
       d="M 23.386115,13.141116 26.529001,11.712575 18.529,8.283967 l 3.428608,8 z"
       fill-rule="evenodd"
       id="path3094"
       style="fill:#bf616a;fill-opacity:1;stroke-width:0.0144304" />
    <path
       d="m 26.5,19.692264 c 0,0.509767 -0.391776,0.923074 -0.875,0.923074 -0.483223,0 -0.875,-0.413307 -0.875,-0.923074 0,-0.509768 0.391777,-0.923074 0.875,-0.923074 0.483224,0 0.875,0.413306 0.875,0.923074 z m 0,8.307672 h -4.374999 c -0.483224,0 -0.875001,-0.41331 -0.875001,-0.923077 0,-0.509769 0.391777,-0.923072 0.875001,-0.923072 H 26.5 c 0.966448,0 1.75,-0.826614 1.75,-1.846151 V 7.692298 C 28.25,6.672762 27.466448,5.846149 26.5,5.846149 H 5.500001 c -0.966438,0 -1.7500011,0.826613 -1.7500011,1.846149 v 7.846131 0.508845 1.798841 c 0,0.509767 0.3917821,0.923075 0.8750001,0.923075 h 1.705104 0.482397 15.3125 c 0.483223,0 0.874999,0.413306 0.874999,0.923074 0,0.509767 -0.391776,0.923074 -0.874999,0.923074 H 4.1875 c -1.0578738,0 -1.9399277,-0.792806 -2.1428739,-1.846148 H 2 V 7.692298 C 2,5.653227 3.5671257,4 5.500001,4 H 26.499999 C 28.432871,4 30,5.653227 30,7.692298 v 16.615338 c 0,2.03907 -1.567129,3.6923 -3.5,3.6923 z M 14.25,23.384561 c 0,-0.509767 0.391776,-0.923074 0.875,-0.923074 0.483225,0 0.875,0.413307 0.875,0.923074 0,0.509768 -0.391775,0.923075 -0.875,0.923075 -0.483224,0 -0.875,-0.413307 -0.875,-0.923075 z M 2.8749999,22.461487 c 0.4832196,0 0.875,0.413307 0.875,0.923074 v 0.923075 c 0,1.019537 0.7835631,1.846151 1.7500011,1.846151 h 12.25 c 1.102798,0 1.102798,1.817742 1.78e-4,1.817742 h -4.59393 v 0 0 0 0 0 0 0 0 0 0 0 0 0 0 0 0 0 0 0 0 0 c 0,0 4.308345,0.02845 3.978522,0.02845 H 16 l -2.843751,-0.02845 -7.656248,0.02845 C 3.5671357,28.006679 2,26.346748 2,24.30768 V 23.384565 C 2,22.874797 2.3917804,22.46149 2.8749999,22.46149 Z"
       id="path2-3"
       style="color:#eceff4;fill:#bf616a;fill-opacity:1;stroke-width:0.0561697"
       class="ColorScheme-Text "
       sodipodi:nodetypes="sssssssssssssssccssccssssccsssssssssssssssssccscccccccccccccccccccsccssss" />
  </g>
  <g
     id="22-22-krusader_root"
     style="fill:#bf616a;fill-opacity:1">
    <rect
       style="opacity:0.00100002;fill:#bf616a;fill-opacity:1"
       width="22"
       height="22"
       x="32"
       y="10"
       id="rect343" />
    <path
       d="m 36.549637,20.189332 v 0 0.666663 0 h 3.964287 v 0 -0.666663 0 z"
       id="path3004-6-2-2"
       style="fill:#bf616a;fill-opacity:1;stroke-width:0.0796422"
       sodipodi:nodetypes="ccccccccc" />
    <path
       d="m 36.549637,18.189326 v 0 0.666663 0 h 3.964287 v 0 -0.666663 0 z"
       id="path3004-6-9-8"
       style="fill:#bf616a;fill-opacity:1;stroke-width:0.0796422"
       sodipodi:nodetypes="ccccccccc" />
    <path
       style="fill:#bf616a;fill-opacity:1;stroke-width:0.32689"
       d="m 43.660716,14.155975 v 0 h -1.321433 v 8.733363 h 1.321433 v 0 z"
       id="path349-3-7-9"
       sodipodi:nodetypes="ccccccc" />
    <path
       d="m 36.549637,16.189323 v 0 0.666661 0 h 3.964287 v 0 -0.666661 0 z"
       id="path3004-6-9-1-7"
       style="fill:#bf616a;fill-opacity:1;stroke-width:0.0796422"
       sodipodi:nodetypes="ccccccccc" />
    <path
       d="m 47.880104,19.094097 2.076556,-0.952369 -5.285721,-2.285746 2.265333,5.333352 z"
       fill-rule="evenodd"
       id="path3094-3"
       style="fill:#bf616a;fill-opacity:1;stroke-width:0.00957706" />
    <path
       d="m 49.937504,23.461541 c 0,0.339842 -0.258855,0.615382 -0.578133,0.615382 -0.319267,0 -0.578127,-0.27554 -0.578127,-0.615382 0,-0.339844 0.25886,-0.615384 0.578127,-0.615384 0.319278,0 0.578133,0.27554 0.578133,0.615384 z m 0,5.538454 h -2.89063 c -0.319276,0 -0.578124,-0.275537 -0.578124,-0.615382 0,-0.339848 0.258847,-0.615382 0.578124,-0.615382 h 2.89063 c 0.638542,0 1.156248,-0.551074 1.156248,-1.230769 V 15.461536 c 0,-0.679692 -0.517706,-1.230767 -1.156248,-1.230767 H 36.062503 c -0.638547,0 -1.156258,0.551075 -1.156258,1.230767 v 5.230768 0.339237 1.19923 c 0,0.339844 0.258866,0.615386 0.578127,0.615386 h 1.126591 0.318727 10.117184 c 0.319272,0 0.57813,0.27554 0.57813,0.615384 0,0.339842 -0.258859,0.615382 -0.57813,0.615382 H 35.195308 c -0.698956,0 -1.281742,-0.528541 -1.41583,-1.230766 h -0.02948 V 15.461536 C 33.749998,14.102163 34.785419,13 36.062503,13 h 13.875 c 1.277076,0 2.312494,1.102163 2.312494,2.461536 v 11.076926 c 0,1.359386 -1.035418,2.461533 -2.312493,2.461533 z m -8.093757,-3.076912 c 0,-0.339848 0.258858,-0.615394 0.57812,-0.615394 0.319281,0 0.578133,0.275546 0.578133,0.615394 0,0.339846 -0.258853,0.615379 -0.578133,0.615379 -0.319262,0 -0.57812,-0.275534 -0.57812,-0.615379 z M 34.32812,25.307689 c 0.319271,0 0.578125,0.275546 0.578125,0.615394 v 0.615379 c 0,0.679695 0.517711,1.230769 1.156258,1.230769 h 8.093751 c 0.728633,0 0.728633,1.211836 1.09e-4,1.211836 h -3.035267 v 0 0 0 0 0 0 0 0 0 0 0 0 0 0 0 0 0 0 0 0 0 c 0,0 2.846574,0.01892 2.628661,0.01892 H 43 l -1.878904,-0.01892 -5.058593,0.01892 c -1.277077,0.0045 -2.312506,-1.102114 -2.312506,-2.461494 v -0.615409 c 0,-0.339847 0.258861,-0.615394 0.578123,-0.615395 z"
       id="path2-3-6"
       style="color:#eceff4;fill:#bf616a;fill-opacity:1;stroke-width:0.0372795"
       class="ColorScheme-Text "
       sodipodi:nodetypes="sssssssssssssssccssccssssccsssssssssssssssssccscccccccccccccccccccsccssss" />
  </g>
</svg>
