<?xml version="1.0" encoding="UTF-8" standalone="no"?>
<svg
   id="svg50"
   width="32"
   height="32"
   version="1.1"
   sodipodi:docname="microphone.svg"
   inkscape:version="1.2.2 (b0a8486541, 2022-12-01)"
   xmlns:inkscape="http://www.inkscape.org/namespaces/inkscape"
   xmlns:sodipodi="http://sodipodi.sourceforge.net/DTD/sodipodi-0.dtd"
   xmlns="http://www.w3.org/2000/svg"
   xmlns:svg="http://www.w3.org/2000/svg"
   xmlns:rdf="http://www.w3.org/1999/02/22-rdf-syntax-ns#"
   xmlns:cc="http://creativecommons.org/ns#"
   xmlns:dc="http://purl.org/dc/elements/1.1/">
  <g
     id="microphone-sensitivity-muted"
     transform="translate(96.000004)">
    <path
       style="opacity:0.00100002;fill:#e5e9ef;fill-opacity:1"
       d="M 0,0 H 31.999997 V 32.000001 H 0 Z"
       id="path45" />
    <path
       fill-rule="evenodd"
       clip-rule="evenodd"
       d="m 13.63792,23.374 c -0.006,0.0044 -0.0103,0.0073 -0.0132,0.0073 -0.35742,0.03667 -0.62475,0.368075 -0.62475,0.739794 V 26.125 c 0,1.035656 -0.83934,1.875 -1.875,1.875 h -1.875 c -0.41419,0 -0.75,-0.335813 -0.75,-0.75 0,-0.414188 0.33581,-0.75 0.75,-0.75 h 1.5 c 0.41419,0 0.75,-0.335813 0.75,-0.75 v -1.945313 c 0,-0.958734 0.71963,-1.749375 1.64831,-1.861453 0.005,-7.5e-4 0.011,-0.0055 0.0172,-0.01247 3.29372,-0.447842 5.83449,-3.263998 5.83449,-6.680764 0,-0.414188 0.33581,-0.75 0.75,-0.75 0.41419,0 0.750002,0.335812 0.750002,0.75 0,4.082531 -2.967752,7.463391 -6.862082,8.124 z M 12.25,20.5 C 9.35055,20.5 7,18.149641 7,15.25 v -6 C 7,8.835813 7.33581,8.5 7.75,8.5 8.16419,8.5 8.5,8.835813 8.5,9.25 v 6 C 8.5,17.320937 10.17888,19 12.25,19 14.32131,19 16,17.320937 16,15.25 v -6 C 16,7.179062 14.32131,5.5 12.25,5.5 11.83581,5.5 11.5,5.164187 11.5,4.75 11.5,4.335813 11.83581,4 12.25,4 15.14964,4 17.5,6.350359 17.5,9.25 v 6 c 0,2.899641 -2.35036,5.25 -5.25,5.25 z M 8.5,7.375 c -0.41419,0 -0.75,-0.335813 -0.75,-0.75 0,-0.414187 0.33581,-0.75 0.75,-0.75 0.41419,0 0.75,0.335813 0.75,0.75 0,0.414187 -0.33581,0.75 -0.75,0.75 z M 9.55413,21.444437 C 9.81653,21.56125 10,21.823094 10,22.128906 c 0,0.414188 -0.33581,0.75 -0.75,0.75 -0.14958,0 -0.28819,-0.04505 -0.40537,-0.120469 C 5.98928,21.461312 4,18.590594 4,15.25 4,14.835812 4.33581,14.5 4.75,14.5 c 0.41419,0 0.75,0.335812 0.75,0.75 0,2.770031 1.67011,5.147438 4.05708,6.187875 z M 15.25,26.5 c 0.41419,0 0.75,0.335812 0.75,0.75 0,0.414187 -0.33581,0.75 -0.75,0.75 -0.41419,0 -0.75,-0.335813 -0.75,-0.75 0,-0.414188 0.33581,-0.75 0.75,-0.75 z"
       id="path229-1"
       style="fill:#eff0f1;fill-opacity:1;stroke-width:0.046875" />
    <path
       d="m 28.953302,12.153293 -3.03076,-3.03066 3.0298,-3.029889 c 0.45074,-0.450805 0.45074,-1.181327 0,-1.631927 -0.4508,-0.450459 -1.18129,-0.450459 -1.6314,0 l -3.03,3.030115 -3.03007,-3.030115 C 20.810382,4.010358 20.07994,4.010198 19.62913,4.460996 19.17855,4.911521 19.17855,5.642122 19.6293,6.09274 l 3.030002,3.029893 -3.030182,3.030618 c -0.45059,0.450568 -0.45059,1.181272 0,1.631684 0.22516,0.225092 0.52045,0.338 0.815942,0.338 0.29518,0 0.59043,-0.112887 0.81598,-0.338 l 3.03017,-3.030612 3.03046,3.030612 c 0.22524,0.225103 0.52061,0.338 0.81578,0.338 0.2951,0 0.59075,-0.112887 0.81579,-0.338 0.4507,-0.45041 0.4507,-1.181111 0,-1.631684 z"
       id="path3490-3-36-37"
       style="fill:#d35f5f;fill-opacity:1;stroke-width:0.0236984;enable-background:new" />
  </g>
  <g
     id="22-22-microphone-sensitivity-high"
     transform="translate(10e-7,-22)">
    <path
       style="opacity:0.00100002;fill:#e5e9ef;fill-opacity:1"
       d="M 0,0 H 22 V 22 H 0 Z"
       id="path7-5" />
    <path
       fill-rule="evenodd"
       clip-rule="evenodd"
       d="m 8.8347508,17.759498 c -0.0057,0.0034 -0.0093,0.0059 -0.01209,0.0059 -0.3276335,0.03353 -0.5726865,0.337407 -0.5726865,0.678147 v 1.836911 c -5.2e-6,0.949566 -0.7694,1.718961 -1.7187533,1.718961 H 4.8124669 c -0.3796743,0 -0.6874999,-0.30783 -0.6874999,-0.687501 0,-0.379674 0.3078256,-0.6875 0.6874999,-0.6875 h 1.3749982 c 0.3796739,0 0.6874995,-0.307831 0.6874995,-0.687502 v -1.783168 c 0,-0.878844 0.6596607,-1.603596 1.510949,-1.706333 0.0046,-6.89e-4 0.010184,-0.0045 0.015774,-0.0093 3.0192224,-0.410522 5.3482654,-2.991998 5.3482654,-6.124036 0,-0.379674 0.307821,-0.687499 0.687501,-0.687499 0.37968,0 0.687502,0.307825 0.687502,0.687499 0,3.742319 -2.720448,6.84144 -6.2902265,7.447005 z M 7.5624923,15.124995 c -2.6578264,0 -4.8124961,-2.154493 -4.8124961,-4.812499 V 4.8125001 c 0,-0.3796744 0.3078253,-0.6875015 0.6874997,-0.6875015 0.3796738,0 0.6874994,0.3078271 0.6874994,0.6875015 v 5.4999959 c 0,1.898356 1.5389723,3.4375 3.437497,3.4375 1.8987037,0 3.4374937,-1.539144 3.4374937,-3.4375 V 4.8125001 c 0,-1.898362 -1.53879,-3.4375002 -3.4374937,-3.4375002 -0.3796735,0 -0.6874988,-0.3078346 -0.6874988,-0.6874993 C 6.8749935,0.3078231 7.1828188,0 7.5624923,0 10.220492,0 12.374982,2.1544942 12.374982,4.8125001 v 5.4999959 c 0,2.658006 -2.15449,4.812499 -4.8124897,4.812499 z M 4.1249953,3.294 C 3.5892663,3.294 3.2778587,2.9689092 3.236999,2.4062502 3.2019896,1.9241536 3.5896893,1.4853913 4.1249953,1.519 4.6602769,1.5526072 5.011999,1.8705171 5.011999,2.4062495 5.011999,2.9419776 4.6087052,3.294 4.1249953,3.294 Z m 0.9662843,12.696722 c 0.2405341,0.107115 0.4087139,0.347112 0.4087139,0.627437 0,0.379673 -0.3078252,0.6875 -0.6874996,0.6875 -0.1371134,0 -0.264174,-0.04134 -0.3715879,-0.110383 C 1.8235053,16.006209 0,13.374694 0,10.312491 0,9.932815 0.3078254,9.62499 0.6874991,9.62499 c 0.3796737,0 0.6874987,0.307825 0.6874987,0.687501 0,2.539196 1.5309329,4.718495 3.7189862,5.672226 z m 5.2212064,4.634277 c 0.379677,0 0.6875,0.30782 0.6875,0.687501 0,0.379682 -0.307823,0.6875 -0.6875,0.6875 -0.379673,0 -0.687498,-0.307818 -0.687498,-0.6875 0,-0.379681 0.307825,-0.687501 0.687498,-0.687501 z"
       id="path229-3"
       style="fill:#eff0f1;fill-opacity:1;stroke-width:0.0429687"
       sodipodi:nodetypes="ccscsssssssccsssccsssssssssssssssssssscsscsssccsssss" />
    <path
       d="M 19.056761,1.6525092e-4 C 18.909014,-0.00321475 18.761273,0.04532525 18.629409,0.13936665 c -0.35088,0.2592027 -0.442474,0.773764 -0.206834,1.15256175 1.396168,2.2436049 1.396168,5.1703262 0,7.4139346 -0.236385,0.3788 -0.144046,0.893564 0.206834,1.152567 0.350895,0.2556 0.825142,0.155601 1.064128,-0.223205 0.869835,-1.401846 1.306409,-3.0173667 1.306409,-4.6361335 0,-1.6187629 -0.436574,-3.234285 -1.306409,-4.63613795 C 19.545789,0.12655185 19.302011,1.5055092e-4 19.056761,1.6525092e-4 Z m 0,0"
       id="path1590-6"
       style="fill:#eff0f1;fill-opacity:1;stroke-width:0.771518" />
    <path
       d="m 15.988924,1.0936163 c 0.37573,-0.20380418 0.845335,-0.06379 1.048779,0.3126594 0.553188,1.0238503 0.867017,2.1962758 0.867017,3.4398464 0,1.2435725 -0.313829,2.4160467 -0.867017,3.4398954 -0.203444,0.37642 -0.673049,0.516465 -1.048779,0.312647 C 15.61309,8.3948495 15.473299,7.9243679 15.676742,7.5479516 16.110551,6.7450834 16.35722,5.8256238 16.35722,4.8461221 c 0,-0.9795026 -0.246669,-1.8989573 -0.680478,-2.701798 -0.203443,-0.3764787 -0.06368,-0.8469035 0.312182,-1.0507078 z"
       id="path2061-3-7"
       style="fill:#eff0f1;fill-opacity:1;stroke-width:1.03256" />
  </g>
  <g
     id="microphone-sensitivity-high">
    <path
       style="opacity:0.00100002;fill:#e5e9ef;fill-opacity:1"
       d="M 0,0 H 32.000001 V 32.000001 H 0 Z"
       id="path2" />
    <path
       fill-rule="evenodd"
       clip-rule="evenodd"
       d="m 13.63792,23.374 c -0.006,0.0044 -0.0103,0.0073 -0.0132,0.0073 -0.35742,0.03667 -0.62475,0.368075 -0.62475,0.739794 V 26.125 c 0,1.035656 -0.83934,1.875 -1.875,1.875 h -1.875 c -0.41419,0 -0.75,-0.335813 -0.75,-0.75 0,-0.414188 0.33581,-0.75 0.75,-0.75 h 1.5 c 0.41419,0 0.75,-0.335813 0.75,-0.75 v -1.945313 c 0,-0.958734 0.71963,-1.749375 1.64831,-1.861453 0.005,-7.5e-4 0.011,-0.0055 0.0172,-0.01247 3.29372,-0.447842 5.83449,-3.263998 5.83449,-6.680764 0,-0.414188 0.33581,-0.75 0.75,-0.75 0.41419,0 0.75,0.335812 0.75,0.75 0,4.082531 -2.96775,7.463391 -6.86208,8.124 z M 12.25,20.5 C 9.35055,20.5 7,18.149641 7,15.25 v -6 C 7,8.835813 7.33581,8.5 7.75,8.5 8.16419,8.5 8.5,8.835813 8.5,9.25 v 6 C 8.5,17.320937 10.17888,19 12.25,19 14.32131,19 16,17.320937 16,15.25 v -6 C 16,7.179062 14.32131,5.5 12.25,5.5 11.83581,5.5 11.5,5.164187 11.5,4.75 11.5,4.335813 11.83581,4 12.25,4 15.14964,4 17.5,6.350359 17.5,9.25 v 6 c 0,2.899641 -2.35036,5.25 -5.25,5.25 z M 8.5,7.575 C 7.9037459,7.575 7.5680501,7.2468667 7.55,6.625 7.532684,6.0284332 7.9297551,5.675 8.5,5.675 c 0.5702449,0 0.9760091,0.4577855 0.95,0.95 C 9.41991,7.1944475 9.0442358,7.575 8.5,7.575 Z M 9.55413,21.444437 C 9.81653,21.56125 10,21.823094 10,22.128906 c 0,0.414188 -0.33581,0.75 -0.75,0.75 -0.14958,0 -0.28819,-0.04505 -0.40537,-0.120469 C 5.98928,21.461312 4,18.590594 4,15.25 4,14.835812 4.33581,14.5 4.75,14.5 c 0.41419,0 0.75,0.335812 0.75,0.75 0,2.770031 1.67011,5.147438 4.05708,6.187875 z M 15.25,26.5 c 0.41419,0 0.75,0.335812 0.75,0.75 0,0.414187 -0.33581,0.75 -0.75,0.75 -0.41419,0 -0.75,-0.335813 -0.75,-0.75 0,-0.414188 0.33581,-0.75 0.75,-0.75 z"
       id="path229"
       style="fill:#eff0f1;fill-opacity:1;stroke-width:0.046875"
       sodipodi:nodetypes="ccsssssssssccsssccsssssssssssssssssssscsscsssccsssss" />
    <path
       d="m 25.668172,4.0001822 c -0.177293,-0.0039 -0.354583,0.05424 -0.512817,0.1670401 -0.421065,0.3110409 -0.530984,0.928513 -0.248208,1.3830739 1.675407,2.6923242 1.675407,6.2043968 0,8.8967248 -0.283665,0.454561 -0.172857,1.072275 0.248208,1.38308 0.421069,0.30672 0.99017,0.18672 1.276946,-0.267845 C 27.476105,13.880048 28,11.941417 28,9.99889 28,8.0563748 27.476105,6.1177476 26.432301,4.4355224 26.255005,4.1518423 25.962478,4.0001623 25.668172,4.0001822 Z m 0,0"
       id="path1590"
       style="fill:#eff0f1;fill-opacity:1;stroke-width:0.925823" />
    <path
       d="m 21.986752,5.4969645 c 0.450884,-0.2445656 1.014413,-0.076616 1.258543,0.3751949 0.663826,1.2286239 1.040422,2.63553 1.040422,4.1278245 0,1.4922901 -0.376596,2.8992591 -1.040422,4.1278741 -0.24413,0.451707 -0.807659,0.619762 -1.258543,0.375183 -0.450997,-0.244583 -0.618748,-0.809158 -0.37462,-1.260865 0.52058,-0.963441 0.816584,-2.066791 0.816584,-3.2421921 0,-1.1754061 -0.296004,-2.2787544 -0.816584,-3.2421598 -0.244128,-0.451778 -0.07639,-1.0162876 0.37462,-1.2608596 z"
       id="path2061-3"
       style="fill:#eff0f1;fill-opacity:1;stroke-width:1.23911" />
  </g>
  <style
     id="current-color-scheme"
     type="text/css" />
  <metadata
     id="metadata67">
    <rdf:RDF>
      <cc:Work
         rdf:about="">
        <dc:format>image/svg+xml</dc:format>
        <dc:type
           rdf:resource="http://purl.org/dc/dcmitype/StillImage" />
      </cc:Work>
    </rdf:RDF>
  </metadata>
  <defs
     id="defs65" />
  <sodipodi:namedview
     pagecolor="#ffffff"
     bordercolor="#000000"
     borderopacity="1"
     objecttolerance="10"
     gridtolerance="10"
     guidetolerance="10"
     inkscape:pageopacity="0"
     inkscape:pageshadow="2"
     inkscape:window-width="1920"
     inkscape:window-height="998"
     id="namedview63"
     showgrid="false"
     inkscape:zoom="4.8060006"
     inkscape:cx="62.838111"
     inkscape:cy="14.981272"
     inkscape:window-x="0"
     inkscape:window-y="0"
     inkscape:window-maximized="1"
     inkscape:current-layer="svg50"
     inkscape:document-rotation="0"
     inkscape:lockguides="true"
     inkscape:showpageshadow="false"
     inkscape:pagecheckerboard="false"
     inkscape:deskcolor="#cccccc">
    <inkscape:grid
       type="xygrid"
       id="grid5308"
       originx="96.000004"
       originy="0" />
  </sodipodi:namedview>
  <g
     id="microphone-sensitivity-medium"
     transform="translate(32.000002)">
    <path
       style="opacity:0.00100002;fill:#e5e9ef;fill-opacity:1"
       d="M 0,0 H 32.000001 V 32.000001 H 0 Z"
       id="path31" />
    <path
       fill-rule="evenodd"
       clip-rule="evenodd"
       d="m 13.63792,23.374002 c -0.006,0.0044 -0.0103,0.0073 -0.0132,0.0073 -0.35742,0.03667 -0.62475,0.368075 -0.62475,0.739794 v 2.003906 c 0,1.035656 -0.83934,1.875 -1.875,1.875 h -1.875 c -0.41419,0 -0.75,-0.335813 -0.75,-0.75 0,-0.414188 0.33581,-0.75 0.75,-0.75 h 1.5 c 0.41419,0 0.75,-0.335813 0.75,-0.75 v -1.945313 c 0,-0.958734 0.71963,-1.749375 1.64831,-1.861453 0.005,-7.5e-4 0.011,-0.0055 0.0172,-0.01247 3.29372,-0.447842 5.83449,-3.263998 5.83449,-6.680764 0,-0.414188 0.33581,-0.75 0.75,-0.75 0.41419,0 0.75,0.335812 0.75,0.75 0,4.082531 -2.96775,7.463391 -6.86208,8.124 z m -1.38792,-2.874 c -2.89945,0 -5.25,-2.350359 -5.25,-5.25 V 9.2500021 c 0,-0.414187 0.33581,-0.75 0.75,-0.75 0.41419,0 0.75,0.335813 0.75,0.75 v 5.9999999 c 0,2.070937 1.67888,3.75 3.75,3.75 2.07131,0 3.75,-1.679063 3.75,-3.75 V 9.2500021 c 0,-2.070938 -1.67869,-3.75 -3.75,-3.75 -0.41419,0 -0.75,-0.335813 -0.75,-0.75 0,-0.414187 0.33581,-0.75 0.75,-0.75 2.89964,0 5.25,2.350359 5.25,5.25 v 5.9999999 c 0,2.899641 -2.35036,5.25 -5.25,5.25 z M 8.5,7.3750021 c -0.41419,0 -0.75,-0.335813 -0.75,-0.75 0,-0.414187 0.33581,-0.75 0.75,-0.75 0.41419,0 0.75,0.335813 0.75,0.75 0,0.414187 -0.33581,0.75 -0.75,0.75 z M 9.55413,21.444439 C 9.81653,21.561252 10,21.823096 10,22.128908 c 0,0.414188 -0.33581,0.75 -0.75,0.75 -0.14958,0 -0.28819,-0.04505 -0.40537,-0.120469 C 5.98928,21.461314 4,18.590596 4,15.250002 c 0,-0.414188 0.33581,-0.75 0.75,-0.75 0.41419,0 0.75,0.335812 0.75,0.75 0,2.770031 1.67011,5.147438 4.05708,6.187875 z M 15.25,26.500002 c 0.41419,0 0.75,0.335812 0.75,0.75 0,0.414187 -0.33581,0.75 -0.75,0.75 -0.41419,0 -0.75,-0.335813 -0.75,-0.75 0,-0.414188 0.33581,-0.75 0.75,-0.75 z"
       id="path229-5"
       style="fill:#eff0f1;fill-opacity:1;stroke-width:0.046875" />
    <path
       d="m 25.668172,4.0001841 c -0.177293,-0.0039 -0.354583,0.05424 -0.512817,0.16704 -0.421065,0.311041 -0.530984,0.928513 -0.248208,1.383074 1.675407,2.692324 1.675407,6.2043969 0,8.8967249 -0.283665,0.454561 -0.172857,1.072275 0.248208,1.38308 0.421069,0.30672 0.99017,0.18672 1.276946,-0.267845 C 27.476105,13.88005 28,11.941419 28,9.998892 28,8.0563771 27.476105,6.1177501 26.432301,4.4355241 c -0.177296,-0.28368 -0.469823,-0.43536 -0.764129,-0.43534 z m 0,0"
       id="path1590-3"
       style="fill:#eff0f1;fill-opacity:0.5;stroke-width:0.925823" />
    <path
       d="m 21.986752,5.4969661 c 0.450884,-0.244565 1.014413,-0.07661 1.258543,0.375195 0.663826,1.228624 1.040422,2.63553 1.040422,4.1278249 0,1.49229 -0.376596,2.899259 -1.040422,4.127874 -0.24413,0.451707 -0.807659,0.619762 -1.258543,0.375183 -0.450997,-0.244583 -0.618748,-0.809158 -0.37462,-1.260865 0.52058,-0.963441 0.816584,-2.066791 0.816584,-3.242192 0,-1.1754059 -0.296004,-2.2787549 -0.816584,-3.2421599 -0.244128,-0.451778 -0.07639,-1.016287 0.37462,-1.26086 z"
       id="path2061-3-5"
       style="fill:#eff0f1;fill-opacity:1;stroke-width:1.23911" />
  </g>
  <g
     id="microphone-sensitivity-low"
     transform="translate(64.000003)">
    <path
       style="opacity:0.00100002;fill:#e5e9ef;fill-opacity:1"
       d="M 0,0 H 32.000001 V 32.000001 H 0 Z"
       id="path38" />
    <path
       fill-rule="evenodd"
       clip-rule="evenodd"
       d="m 13.63792,23.374002 c -0.006,0.0044 -0.0103,0.0073 -0.0132,0.0073 -0.35742,0.03667 -0.62475,0.368075 -0.62475,0.739794 v 2.003906 c 0,1.035656 -0.83934,1.875 -1.875,1.875 h -1.875 c -0.41419,0 -0.75,-0.335813 -0.75,-0.75 0,-0.414188 0.33581,-0.75 0.75,-0.75 h 1.5 c 0.41419,0 0.75,-0.335813 0.75,-0.75 v -1.945313 c 0,-0.958734 0.71963,-1.749375 1.64831,-1.861453 0.005,-7.5e-4 0.011,-0.0055 0.0172,-0.01247 3.29372,-0.447842 5.83449,-3.263998 5.83449,-6.680764 0,-0.414188 0.33581,-0.75 0.75,-0.75 0.41419,0 0.75,0.335812 0.75,0.75 0,4.082531 -2.96775,7.463391 -6.86208,8.124 z m -1.38792,-2.874 c -2.89945,0 -5.25,-2.350359 -5.25,-5.25 V 9.2500021 c 0,-0.414187 0.33581,-0.75 0.75,-0.75 0.41419,0 0.75,0.335813 0.75,0.75 v 5.9999999 c 0,2.070937 1.67888,3.75 3.75,3.75 2.07131,0 3.75,-1.679063 3.75,-3.75 V 9.2500021 c 0,-2.070938 -1.67869,-3.75 -3.75,-3.75 -0.41419,0 -0.75,-0.335813 -0.75,-0.75 0,-0.414187 0.33581,-0.75 0.75,-0.75 2.89964,0 5.25,2.350359 5.25,5.25 v 5.9999999 c 0,2.899641 -2.35036,5.25 -5.25,5.25 z M 8.5,7.3750021 c -0.41419,0 -0.75,-0.335813 -0.75,-0.75 0,-0.414187 0.33581,-0.75 0.75,-0.75 0.41419,0 0.75,0.335813 0.75,0.75 0,0.414187 -0.33581,0.75 -0.75,0.75 z M 9.5541297,21.444439 C 9.81653,21.561252 10,21.823096 10,22.128908 c 0,0.414188 -0.33581,0.75 -0.75,0.75 -0.14958,0 -0.28819,-0.04505 -0.40537,-0.120469 C 5.98928,21.461314 4,18.590596 4,15.250002 c 0,-0.414188 0.33581,-0.75 0.75,-0.75 0.41419,0 0.75,0.335812 0.75,0.75 0,2.770031 1.67011,5.147438 4.0570797,6.187875 z M 15.25,26.500002 c 0.41419,0 0.75,0.335812 0.75,0.75 0,0.414187 -0.33581,0.75 -0.75,0.75 -0.41419,0 -0.75,-0.335813 -0.75,-0.75 0,-0.414188 0.33581,-0.75 0.75,-0.75 z"
       id="path229-6"
       style="fill:#eff0f1;fill-opacity:1;stroke-width:0.046875" />
    <path
       d="m 25.668172,4.0001841 c -0.177293,-0.0039 -0.354583,0.05424 -0.512817,0.16704 -0.421065,0.311041 -0.530984,0.928513 -0.248208,1.383074 1.675407,2.692324 1.675407,6.2043969 0,8.8967249 -0.283665,0.454561 -0.172857,1.072275 0.248208,1.38308 0.421069,0.30672 0.99017,0.18672 1.276946,-0.267845 C 27.476105,13.88005 28,11.941419 28,9.998892 28,8.0563771 27.476105,6.1177501 26.432301,4.4355241 c -0.177296,-0.28368 -0.469823,-0.43536 -0.764129,-0.43534 z m 0,0"
       id="path1590-2"
       style="fill:#eff0f1;fill-opacity:0.5;stroke-width:0.925823" />
    <path
       d="m 21.986752,5.4969661 c 0.450884,-0.244565 1.014413,-0.07662 1.258543,0.375195 0.663826,1.228624 1.040422,2.63553 1.040422,4.1278249 0,1.49229 -0.376596,2.899259 -1.040422,4.127874 -0.24413,0.451707 -0.807659,0.619762 -1.258543,0.375183 -0.450997,-0.244583 -0.618748,-0.809158 -0.37462,-1.260865 0.52058,-0.963441 0.816584,-2.066791 0.816584,-3.242192 0,-1.1754059 -0.296004,-2.2787539 -0.816584,-3.2421599 -0.244128,-0.451778 -0.07639,-1.016287 0.37462,-1.26086 z"
       id="path2061-3-9"
       style="fill:#eff0f1;fill-opacity:0.5;stroke-width:1.23911" />
  </g>
  <g
     id="22-22-microphone-sensitivity-medium"
     transform="translate(32.000002,-22)">
    <path
       style="opacity:0.00100002;fill:#e5e9ef;fill-opacity:1"
       d="M 0,0 H 22 V 22 H 0 Z"
       id="path12" />
    <path
       fill-rule="evenodd"
       clip-rule="evenodd"
       d="m 8.834751,17.759498 c -0.0057,0.0034 -0.0093,0.0059 -0.01209,0.0059 -0.327634,0.03353 -0.572687,0.337407 -0.572687,0.678147 v 1.836911 c -5e-6,0.949566 -0.7694,1.718961 -1.718753,1.718961 H 4.812467 c -0.379674,0 -0.6875,-0.30783 -0.6875,-0.687501 0,-0.379674 0.307826,-0.6875 0.6875,-0.6875 h 1.374998 c 0.379674,0 0.6875,-0.307831 0.6875,-0.687502 v -1.783168 c 0,-0.878844 0.65966,-1.603596 1.510949,-1.706333 0.0046,-6.89e-4 0.01018,-0.0045 0.01577,-0.0093 3.019222,-0.410522 5.348265,-2.991998 5.348265,-6.124036 0,-0.3796739 0.307821,-0.6874989 0.687501,-0.6874989 0.37968,0 0.687502,0.307825 0.687502,0.6874989 0,3.742319 -2.720448,6.84144 -6.290226,7.447005 z M 7.562492,15.124995 c -2.657826,0 -4.812496,-2.154493 -4.812496,-4.812499 V 4.8125001 c 0,-0.379674 0.307826,-0.687501 0.6875,-0.687501 0.379674,0 0.687499,0.307827 0.687499,0.687501 v 5.4999959 c 0,1.898356 1.538973,3.4375 3.437497,3.4375 1.8987036,0 3.437494,-1.539144 3.437494,-3.4375 V 4.8125001 c 0,-1.898362 -1.5387904,-3.4375 -3.437494,-3.4375 -0.379673,0 -0.687498,-0.307835 -0.687498,-0.68749901 0,-0.379678 0.307825,-0.687501003309023 0.687498,-0.687501003309023 2.658,0 4.81249,2.154494013309023 4.81249,4.812500013309024 v 5.4999959 c 0,2.658006 -2.15449,4.812499 -4.81249,4.812499 z M 4.124995,3.0937491 c -0.379674,0 -0.687499,-0.307826 -0.687499,-0.687499 0,-0.379678 0.307825,-0.687501 0.687499,-0.687501 0.379674,0 0.687499,0.307823 0.687499,0.687501 0,0.379673 -0.307825,0.687499 -0.687499,0.687499 z M 5.09128,15.990722 c 0.240534,0.107115 0.408714,0.347112 0.408714,0.627437 0,0.379673 -0.307826,0.6875 -0.6875,0.6875 -0.137113,0 -0.264174,-0.04134 -0.371588,-0.110383 C 1.823505,16.006209 0,13.374694 0,10.312491 0,9.9328151 0.307825,9.6249901 0.687499,9.6249901 c 0.379674,0 0.687499,0.307825 0.687499,0.6875009 0,2.539196 1.530933,4.718495 3.718986,5.672226 z m 5.221206,4.634277 c 0.379677,0 0.6875,0.30782 0.6875,0.687501 0,0.379682 -0.307823,0.6875 -0.6875,0.6875 -0.379673,0 -0.687498,-0.307818 -0.687498,-0.6875 0,-0.379681 0.307825,-0.687501 0.687498,-0.687501 z"
       id="path229-3-9"
       style="fill:#eff0f1;fill-opacity:1;stroke-width:0.0429687" />
    <path
       d="M 18.968795,1.6708669e-4 C 18.821048,-0.00323291 18.673307,0.04532709 18.541443,0.13936909 c -0.35088,0.259202 -0.442474,0.773764 -0.206834,1.15256101 1.396168,2.243605 1.396168,5.170327 0,7.413935 -0.236385,0.3788 -0.144046,0.893564 0.206834,1.152567 0.350895,0.2555999 0.825142,0.1556009 1.064128,-0.223205 0.869835,-1.401846 1.306409,-3.017367 1.306409,-4.636134 0,-1.618762 -0.436574,-3.234284 -1.306409,-4.63613701 C 19.457823,0.12655409 19.214045,1.5308669e-4 18.968795,1.6708669e-4 Z m 0,0"
       id="path1590-6-0"
       style="fill:#eff0f1;fill-opacity:0.5;stroke-width:0.771518" />
    <path
       d="m 15.900958,1.0936161 c 0.37573,-0.20380401 0.845335,-0.06379 1.048779,0.31266 0.553188,1.02385 0.867017,2.196276 0.867017,3.439846 0,1.243573 -0.313829,2.416047 -0.867017,3.439895 -0.203444,0.37642 -0.673049,0.516465 -1.048779,0.312647 -0.375834,-0.203815 -0.515625,-0.674296 -0.312182,-1.050712 0.433809,-0.802869 0.680478,-1.722328 0.680478,-2.70183 0,-0.979502 -0.246669,-1.898957 -0.680478,-2.701798 -0.203443,-0.376479 -0.06368,-0.846903 0.312182,-1.050708 z"
       id="path2061-3-7-6"
       style="fill:#eff0f1;fill-opacity:1;stroke-width:1.03256" />
  </g>
  <g
     id="22-22-microphone-sensitivity-low"
     transform="translate(64.000003,-22)">
    <path
       style="opacity:0.00100002;fill:#e5e9ef;fill-opacity:1"
       d="M 0,0 H 22 V 22 H 0 Z"
       id="path19" />
    <path
       fill-rule="evenodd"
       clip-rule="evenodd"
       d="m 8.834751,17.759498 c -0.0057,0.0034 -0.0093,0.0059 -0.01209,0.0059 -0.327634,0.03353 -0.572687,0.337407 -0.572687,0.678147 v 1.836911 c -5e-6,0.949566 -0.7694,1.718961 -1.718753,1.718961 H 4.812467 c -0.379674,0 -0.6875,-0.30783 -0.6875,-0.687501 0,-0.379674 0.307826,-0.6875 0.6875,-0.6875 h 1.374998 c 0.379674,0 0.6875,-0.307831 0.6875,-0.687502 v -1.783168 c 0,-0.878844 0.65966,-1.603596 1.510949,-1.706333 0.0046,-6.89e-4 0.01018,-0.0045 0.01577,-0.0093 3.019222,-0.410522 5.348265,-2.991998 5.348265,-6.124036 0,-0.379674 0.307821,-0.687499 0.687501,-0.687499 0.37968,0 0.687502,0.307825 0.687502,0.687499 0,3.742319 -2.720448,6.84144 -6.290226,7.447005 z M 7.562492,15.124995 c -2.657826,0 -4.812496,-2.154493 -4.812496,-4.812499 V 4.8125001 c 0,-0.379674 0.307826,-0.687501 0.6875,-0.687501 0.379674,0 0.687499,0.307827 0.687499,0.687501 v 5.4999959 c 0,1.898356 1.538973,3.4375 3.437497,3.4375 1.898704,0 3.437494,-1.539144 3.437494,-3.4375 V 4.8125001 c 0,-1.898362 -1.53879,-3.4375 -3.437494,-3.4375 -0.379673,0 -0.687498,-0.307835 -0.687498,-0.687499 C 6.874994,0.30782309 7.182819,8.6690977e-8 7.562492,8.6690977e-8 c 2.658,0 4.81249,2.154494013309023 4.81249,4.812500013309024 v 5.4999959 c 0,2.658006 -2.15449,4.812499 -4.81249,4.812499 z M 4.124995,3.0937491 c -0.379674,0 -0.687499,-0.307826 -0.687499,-0.687499 0,-0.379678 0.307825,-0.687501 0.687499,-0.687501 0.379674,0 0.687499,0.307823 0.687499,0.687501 0,0.379673 -0.307825,0.687499 -0.687499,0.687499 z M 5.09128,15.990722 c 0.240534,0.107115 0.408714,0.347112 0.408714,0.627437 0,0.379673 -0.307826,0.6875 -0.6875,0.6875 -0.137113,0 -0.264174,-0.04134 -0.371588,-0.110383 C 1.823505,16.006209 0,13.374694 0,10.312491 0,9.932815 0.30782499,9.62499 0.687499,9.62499 c 0.379674,0 0.687499,0.307825 0.687499,0.687501 0,2.539196 1.530933,4.718495 3.718986,5.672226 z m 5.221206,4.634277 c 0.379677,0 0.6875,0.30782 0.6875,0.687501 0,0.379682 -0.307823,0.6875 -0.6875,0.6875 -0.379673,0 -0.687498,-0.307818 -0.687498,-0.6875 0,-0.379681 0.307825,-0.687501 0.687498,-0.687501 z"
       id="path229-3-9-2"
       style="fill:#eff0f1;fill-opacity:1;stroke-width:0.0429687" />
    <path
       d="M 18.968795,1.6708669e-4 C 18.821048,-0.00323291 18.673307,0.04532709 18.541443,0.13936909 c -0.35088,0.259202 -0.442474,0.77376401 -0.206834,1.15256101 1.396168,2.243605 1.396168,5.170327 0,7.413935 -0.236385,0.3788 -0.144046,0.8935639 0.206834,1.1525669 0.350895,0.2556 0.825142,0.155601 1.064128,-0.223205 0.869835,-1.4018459 1.306409,-3.0173669 1.306409,-4.6361339 0,-1.618762 -0.436574,-3.234284 -1.306409,-4.63613701 C 19.457823,0.12655409 19.214045,1.5308669e-4 18.968795,1.6708669e-4 Z m 0,0"
       id="path1590-6-0-6"
       style="fill:#eff0f1;fill-opacity:0.504425;stroke-width:0.771518" />
    <path
       d="m 15.900958,1.0936161 c 0.37573,-0.203804 0.845335,-0.06379 1.048779,0.31266 0.553188,1.02385 0.867017,2.196276 0.867017,3.439846 0,1.243573 -0.313829,2.416047 -0.867017,3.439895 -0.203444,0.37642 -0.673049,0.516465 -1.048779,0.312647 -0.375834,-0.203815 -0.515625,-0.674296 -0.312182,-1.050712 0.433809,-0.802869 0.680478,-1.722328 0.680478,-2.70183 0,-0.979502 -0.246669,-1.898957 -0.680478,-2.701798 -0.203443,-0.376479 -0.06368,-0.846903 0.312182,-1.050708 z"
       id="path2061-3-7-6-1"
       style="fill:#eff0f1;fill-opacity:0.5;stroke-width:1.03256" />
  </g>
  <g
     id="22-22-microphone-sensitivity-muted"
     transform="translate(96.000004,-22)">
    <path
       style="opacity:0.00100002;fill:#e5e9ef;fill-opacity:1"
       d="M 0,0 H 21.999997 V 22 H 0 Z"
       id="path26" />
    <path
       fill-rule="evenodd"
       clip-rule="evenodd"
       d="m 8.834752,17.759498 c -0.006,0.0034 -0.009,0.0059 -0.0121,0.0059 -0.327635,0.03353 -0.572688,0.337407 -0.572688,0.678147 v 1.836911 c -5e-6,0.949566 -0.7694,1.718961 -1.718753,1.718961 H 4.812457 c -0.379674,0 -0.6875,-0.30783 -0.6875,-0.687501 0,-0.379674 0.307826,-0.6875 0.6875,-0.6875 h 1.374998 c 0.379674,0 0.6875,-0.307831 0.6875,-0.687502 v -1.783168 c 0,-0.878844 0.65966,-1.603596 1.510949,-1.706333 0.0046,-6.89e-4 0.01018,-0.0045 0.01577,-0.0093 3.019218,-0.410522 5.348268,-2.991998 5.348268,-6.124036 0,-0.3796739 0.30782,-0.6874989 0.6875,-0.6874989 0.37968,0 0.6875,0.307825 0.6875,0.6874989 0,3.742319 -2.72045,6.84144 -6.29023,7.447005 z m -1.27226,-2.634503 c -2.657826,0 -4.812496,-2.154493 -4.812496,-4.812499 V 4.8125001 c 0,-0.379674 0.307826,-0.687501 0.6875,-0.687501 0.379674,0 0.687499,0.307827 0.687499,0.687501 v 5.4999959 c 0,1.898356 1.538973,3.4375 3.437497,3.4375 1.8987,0 3.43749,-1.539144 3.43749,-3.4375 V 4.8125001 c 0,-1.898362 -1.53879,-3.4375 -3.43749,-3.4375 -0.379673,0 -0.687498,-0.307835 -0.687498,-0.68749901 0,-0.379678 0.307825,-0.687501003309023 0.687498,-0.687501003309023 2.658,0 4.81249,2.154494013309023 4.81249,4.812500013309024 v 5.4999959 c 0,2.658006 -2.15449,4.812499 -4.81249,4.812499 z M 4.124995,3.0937491 c -0.379674,0 -0.687499,-0.307826 -0.687499,-0.687499 0,-0.379678 0.307825,-0.687501 0.687499,-0.687501 0.379674,0 0.687499,0.307823 0.687499,0.687501 0,0.379673 -0.307825,0.687499 -0.687499,0.687499 z M 5.09128,15.990722 c 0.240534,0.107115 0.408714,0.347112 0.408714,0.627437 0,0.379673 -0.307826,0.6875 -0.6875,0.6875 -0.137113,0 -0.264174,-0.04134 -0.371588,-0.110383 C 1.823505,16.006209 0,13.374694 0,10.312491 0,9.9328151 0.307825,9.6249901 0.687499,9.6249901 c 0.379674,0 0.687499,0.307825 0.687499,0.6875009 0,2.539196 1.530933,4.718495 3.718986,5.672226 z m 5.221202,4.634277 c 0.37968,0 0.6875,0.30782 0.6875,0.687501 0,0.379682 -0.30782,0.6875 -0.6875,0.6875 -0.37967,0 -0.68749,-0.307818 -0.68749,-0.6875 0,-0.379681 0.30782,-0.687501 0.68749,-0.687501 z"
       id="path229-3-9-8"
       style="fill:#eff0f1;fill-opacity:1;stroke-width:0.0429687" />
    <path
       d="m 21.729701,6.4242861 -2.42461,-2.424527 2.423839,-2.423908 c 0.360595,-0.360645 0.360595,-0.945067 0,-1.30554697 -0.36064,-0.360361 -0.945031,-0.360361 -1.30512,0 l -2.424,2.42409497 -2.424053,-2.42409497 c -0.36039,-0.360361 -0.94475,-0.360497 -1.305397,1.41e-4 -0.360463,0.36042297 -0.360463,0.94490397 1.43e-4,1.30540197 l 2.424001,2.423912 -2.424144,2.424497 c -0.36048,0.360449 -0.36048,0.945013 0,1.305345 0.180125,0.180072 0.416355,0.270399 0.652747,0.270399 0.236142,0 0.47235,-0.0903 0.652782,-0.270399 l 2.424142,-2.424492 2.424365,2.424492 c 0.180195,0.180082 0.41649,0.270399 0.652623,0.270399 0.23608,0 0.472602,-0.0903 0.652631,-0.270399 0.36056,-0.36033 0.36056,-0.944891 0,-1.305345 z"
       id="path3490-3-36-37-5"
       style="fill:#d35f5f;fill-opacity:1;stroke-width:0.0189584;enable-background:new" />
  </g>
</svg>
