<?xml version="1.0" encoding="UTF-8" standalone="no"?>
<svg
   id="svg12"
   width="32"
   height="32"
   version="1.1"
   sodipodi:docname="start.svg"
   inkscape:version="1.2.2 (b0a8486541, 2022-12-01)"
   xmlns:inkscape="http://www.inkscape.org/namespaces/inkscape"
   xmlns:sodipodi="http://sodipodi.sourceforge.net/DTD/sodipodi-0.dtd"
   xmlns:xlink="http://www.w3.org/1999/xlink"
   xmlns="http://www.w3.org/2000/svg"
   xmlns:svg="http://www.w3.org/2000/svg">
  <defs
     id="defs17">
    <linearGradient
       inkscape:collect="always"
       id="linearGradient1729">
      <stop
         style="stop-color:#a36ff6;stop-opacity:1;"
         offset="0"
         id="stop1725" />
      <stop
         style="stop-color:#20c997;stop-opacity:1;"
         offset="1"
         id="stop1727" />
    </linearGradient>
    <linearGradient
       inkscape:collect="always"
       xlink:href="#linearGradient1729"
       id="linearGradient1731"
       x1="2.1885619"
       y1="29.57645"
       x2="30.188938"
       y2="2.2349885"
       gradientUnits="userSpaceOnUse" />
    <linearGradient
       inkscape:collect="always"
       xlink:href="#linearGradient1729"
       id="linearGradient1803"
       x1="10"
       y1="16.04867"
       x2="22"
       y2="16.04867"
       gradientUnits="userSpaceOnUse" />
    <linearGradient
       inkscape:collect="always"
       xlink:href="#linearGradient1729"
       id="linearGradient1731-3"
       x1="2.1885619"
       y1="29.57645"
       x2="30.188938"
       y2="2.2349885"
       gradientUnits="userSpaceOnUse"
       gradientTransform="matrix(0.71431126,0,0,0.71431126,-0.4287132,-0.4283309)" />
    <linearGradient
       inkscape:collect="always"
       xlink:href="#linearGradient1729"
       id="linearGradient1803-5"
       x1="10"
       y1="16.04867"
       x2="22"
       y2="16.04867"
       gradientUnits="userSpaceOnUse"
       gradientTransform="matrix(0.71431126,0,0,0.71431126,-0.4287132,-0.4283309)" />
  </defs>
  <sodipodi:namedview
     id="namedview15"
     pagecolor="#ffffff"
     bordercolor="#000000"
     borderopacity="1"
     inkscape:pageshadow="2"
     inkscape:pageopacity="0.0"
     inkscape:pagecheckerboard="0"
     showgrid="false"
     inkscape:zoom="10.606602"
     inkscape:cx="-5.23259"
     inkscape:cy="22.580276"
     inkscape:window-width="1920"
     inkscape:window-height="998"
     inkscape:window-x="0"
     inkscape:window-y="0"
     inkscape:window-maximized="1"
     inkscape:current-layer="svg12"
     inkscape:lockguides="true"
     inkscape:showpageshadow="false"
     inkscape:deskcolor="#d1d1d1">
    <inkscape:grid
       type="xygrid"
       id="grid907"
       originx="-22"
       originy="10" />
  </sodipodi:namedview>
  <g
     id="start-here-kde">
    <rect
       id="rect7"
       style="opacity:0.00100002"
       width="32"
       height="32"
       x="0"
       y="0" />
    <path
       fill-rule="evenodd"
       clip-rule="evenodd"
       d="m 26.813556,12.529085 c 0.01282,0 0.02398,-0.0064 0.03716,-0.0087 1.766649,0.174729 3.149659,1.665418 3.149659,3.479489 0,1.817726 -1.384705,3.311425 -3.158243,3.483146 -0.0022,0.0087 -0.0083,0.01539 -0.01088,0.02398 -0.01282,-8.73e-4 -0.02305,-0.008 -0.03722,-0.008 -0.445923,0 -0.942819,0.07945 -1.127398,0.525446 -0.18457,0.446909 0.077,0.836564 0.418695,1.177491 0.01199,0.01196 0.02781,0.01702 0.04059,0.02738 1.117613,1.374044 1.054341,3.388977 -0.226467,4.669883 -1.279592,1.279981 -3.296222,1.34495 -4.670704,0.228157 -0.02052,0.01088 -0.04269,0.01535 -0.06326,0.02484 -0.0091,-0.01088 -0.01283,-0.02399 -0.02301,-0.03511 -0.316597,-0.315336 -0.722053,-0.610978 -1.168527,-0.424708 -0.44724,0.184576 -0.536106,0.644281 -0.536106,1.127894 0,0.04359 0.01196,0.08292 0.0261,0.122168 C 19.243925,28.665275 17.783146,30 16.000203,30 c -1.814938,0 -3.306452,-1.381756 -3.482935,-3.150534 -0.0193,-0.0061 -0.03594,-0.01792 -0.05562,-0.02484 8.75e-4,-0.0087 0.004,-0.01631 0.004,-0.02483 0,-0.445979 -0.07895,-0.941623 -0.525116,-1.126197 -0.446477,-0.185444 -0.836569,0.07696 -1.177875,0.4187 -0.02052,0.02052 -0.03074,0.04612 -0.04522,0.07005 -1.372619,1.07518 -3.3541898,1.000864 -4.6171061,-0.26287 C 4.8177706,24.616835 4.754934,22.597631 5.8777932,21.22271 5.8658082,21.19871 5.8594152,21.17315 5.8491912,21.14749 6.164575,20.832196 6.4589083,20.426299 6.2739525,19.980261 6.0884753,19.53435 5.6279453,19.443733 5.1447198,19.443733 c -0.03161,0 -0.05939,0.01199 -0.08931,0.01963 C 3.3342845,19.244871 2,17.78108 2,16.000106 c 0,-1.821779 1.3911603,-3.315863 3.1692945,-3.482931 0.0052,-0.01581 0.01455,-0.0299 0.021384,-0.04521 0.439688,-0.0033 0.9203426,-0.08626 1.1015256,-0.524594 C 6.4767246,11.502019 6.2169602,11.11411 5.8760287,10.773187 4.7561599,9.39995 4.8189967,7.3824426 6.1007259,6.1007152 7.3871034,4.8134086 9.418719,4.7540161 10.793199,5.8909314 c 0.01443,-0.00726 0.0294,-0.010282 0.04446,-0.016687 0.312764,0.308058 0.710946,0.5874606 1.148017,0.4067707 0.446475,-0.185011 0.536217,-0.6459782 0.536217,-1.1288202 0,-0.00166 -8.74e-4,-0.0026 -8.74e-4,-0.00466 C 12.698235,3.3800034 14.185917,2 15.999984,2 c 1.824784,0 3.320619,1.3954256 3.483805,3.1770049 0.0033,0.00124 0.0053,0.00436 0.0095,0.0052 0,0.104678 0.005,0.2123545 0.01885,0.3178491 h -0.01241 c 0,0.4827879 -0.391347,0.8754497 -0.875011,0.8754497 -0.48235,0 -0.874135,-0.3926618 -0.874135,-0.8754497 0,-0.9668895 -0.784011,-1.7500247 -1.750463,-1.7500247 -0.966887,0 -1.750023,0.7831352 -1.750023,1.7500247 v 0.8754405 l -0.005,0.00723 c 0.01581,0.5784911 -0.352027,1.1185384 -0.932654,1.2911341 -0.01409,0.00433 -0.02903,0.00433 -0.04267,0.0085 l -0.01006,0.01368 C 12.84999,7.833612 12.452627,7.9976763 12.071501,8.190782 l -0.02521,-0.00387 c -0.01494,0.0081 -0.02692,0.020063 -0.04191,0.0286 -0.566222,0.3063743 -1.256606,0.1529737 -1.645383,-0.332385 L 9.813005,7.3379635 c -0.684039,-0.6836039 -1.7922995,-0.6836039 -2.475083,0 -0.6831113,0.6836038 -0.6831113,1.7919135 0,2.4746415 l 0.6186338,0.619072 0.00384,0.0261 c 0.4092871,0.399879 0.5272509,1.032242 0.2413941,1.560309 -0.00466,0.0083 -0.011088,0.01372 -0.015807,0.02223 l 0.00466,0.02952 c -0.1905242,0.381534 -0.3571593,0.778837 -0.49388,1.189004 l -0.026477,0.02052 c -0.00436,0.01536 -0.0052,0.03042 -0.00944,0.04615 -0.1858273,0.62464 -0.7954913,1.002322 -1.4201414,0.924549 H 5.5003477 c -0.9668891,0 -1.7504078,0.784012 -1.7504078,1.750023 0,0.965794 0.7835187,1.750245 1.7504078,1.750245 h 0.8741364 l 0.02608,0.01963 c 0.5661331,-8.76e-4 1.0903191,0.362308 1.2603459,0.932268 0.00166,0.0045 0.00166,0.01006 0.0026,0.01537 l 0.03248,0.02398 c 0.1375957,0.409288 0.3024816,0.806651 0.4947651,1.187718 l -0.00778,0.05302 c 0.0059,0.01007 0.013225,0.01792 0.018812,0.02819 0.3063642,0.565696 0.1529631,1.256135 -0.3323948,1.644918 l -0.5315024,0.532338 c -0.6831112,0.682728 -0.6831112,1.791039 0,2.474642 0.6827285,0.682729 1.7910371,0.682729 2.4750831,0 l 0.619072,-0.618631 0.02558,-0.0037 c 0.399005,-0.398186 1.024475,-0.51013 1.546147,-0.228159 0.0033,0.0015 0.005,0.0045 0.0095,0.0061 l 0.05633,-0.0087 c 0.381558,0.190538 0.778869,0.357172 1.189031,0.493892 l 0.03506,0.04619 c 0.005,0.0015 0.01239,0.0015 0.01792,0.0037 0.571653,0.169203 0.934348,0.695579 0.932653,1.26379 l 0.005,0.0061 v 0.875777 c 0,0.966452 0.783139,1.750024 1.750029,1.750024 0.96645,0 1.750461,-0.783572 1.750461,-1.750024 v -0.875674 l 0.005,-0.0061 c -0.0015,-0.568269 0.36105,-1.093765 0.932709,-1.263796 0.0057,-0.0022 0.01197,-0.0022 0.01837,-0.0037 l 0.03461,-0.04523 c 0.409285,-0.137597 0.806215,-0.301661 1.187668,-0.494767 l 0.05771,0.0087 c 0.0029,-0.0015 0.005,-0.0045 0.0091,-0.0061 0.521672,-0.281974 1.147197,-0.170028 1.546203,0.228158 l 0.0261,0.0037 0.619071,0.618632 c 0.682731,0.68273 1.79104,0.68273 2.475082,0 0.683167,-0.683602 0.683167,-1.791914 0,-2.474646 L 24.1297,21.655604 c -0.485361,-0.388775 -0.638318,-1.079215 -0.331955,-1.644905 0.005,-0.01006 0.01282,-0.01884 0.01838,-0.02819 l -0.0087,-0.05805 c 0.190532,-0.381066 0.35848,-0.773293 0.49389,-1.181706 l 0.03411,-0.02558 c 0.0011,-0.0045 0.0018,-0.0095 0.0026,-0.01449 0.169637,-0.569969 0.693444,-0.932275 1.259522,-0.932275 l 0.02558,-0.01963 h 0.875341 c 0.966889,0 1.750022,-0.784441 1.750022,-1.750242 0,-0.966014 -0.783133,-1.750027 -1.750022,-1.750027 h -0.740776 c -0.625525,0.07783 -1.234315,-0.299909 -1.41976,-0.924559 -0.004,-0.01581 -0.005,-0.03161 -0.0095,-0.04744 l -0.0261,-0.0193 c -0.136529,-0.409397 -0.301853,-0.806767 -0.493704,-1.187014 l 0.004,-0.03074 c -0.004,-0.0087 -0.01088,-0.01494 -0.01581,-0.02305 -0.285855,-0.528068 -0.167897,-1.16043 0.240953,-1.560307 l 0.0033,-0.0261 0.619071,-0.619073 c 0.683167,-0.682729 0.683167,-1.7910419 0,-2.4746446 -0.324646,-0.3238154 -0.799722,-0.508826 -1.224814,-0.5255068 -0.483665,0 -0.875449,-0.3913492 -0.875449,-0.8750114 0,-0.4836632 0.391784,-0.8750123 0.875449,-0.8750123 0.06275,0 0.123486,0.0059 0.182879,0.019255 0.822895,0.053801 1.652626,0.3917874 2.278967,1.0190064 1.285506,1.2851736 1.346588,3.3120307 0.215363,4.6865077 0.004,0.0083 0.005,0.01834 0.01006,0.02692 -0.004,0.0033 -0.0095,0.004 -0.01372,0.0095 -0.315717,0.316154 -0.610981,0.722045 -0.425967,1.169403 0.184412,0.446413 0.645377,0.536162 1.128109,0.536162 z M 20.812888,8.1249844 c -0.483664,0 -0.875012,-0.3922251 -0.875012,-0.8754504 0,-0.4823498 0.391348,-0.8741368 0.875012,-0.8741368 0.482349,0 0.874136,0.391787 0.874136,0.8741368 0,0.4832253 -0.391787,0.8754504 -0.874136,0.8754504 z M 12.00397,23.81127 l 0.06578,-0.0015 v 0 z m 1.254826,0.492194 v 0 l 0.05302,0.05042 -0.05302,-0.05042 v 0 0 0 0 0 l 0.05302,0.05042 z"
       id="path2-3"
       sodipodi:nodetypes="scsccsccccccccscsccscccccccscsccccccccscsccccsssscccccccccccccccccccccsssccccccccccccccccccccccsssccccccccccccccccccccccsssccccccccccccssccccccsssssscccccccccccccccc"
       style="fill:url(#linearGradient1731);fill-opacity:1;stroke-width:0.0546878" />
    <path
       id="path11"
       style="color:#31363b;fill:url(#linearGradient1803);fill-opacity:1"
       d="m 13,10.097338 c -0.552285,0 -1,0.447715 -1,1 0,0.552285 0.447715,1 1,1 0.552285,0 1,-0.447715 1,-1 0,-0.552285 -0.447715,-1 -1,-1 z m 5,0 c -0.879917,-0.3995736 -1.927198,0.496205 -1.5,1.5 l 2.5,2.5 -2.5,2.5 c -0.52579,0.940692 0.502312,1.98861 1.5,1.5 l 4,-4 z m -7,4.5 c -0.552285,0 -1,0.447715 -1,1 0,0.552285 0.447715,1 1,1 0.552285,0 1,-0.447715 1,-1 0,-0.552285 -0.447715,-1 -1,-1 z m 3.5,4.5 c -0.828427,0 -1.5,0.671573 -1.5,1.5 0,0.828427 0.671573,1.5 1.5,1.5 0.828427,0 1.5,-0.671573 1.5,-1.5 0,-0.828427 -0.671573,-1.5 -1.5,-1.5 z"
       class="ColorScheme-Text"
       sodipodi:nodetypes="ssssscccccccssssssssss" />
  </g>
  <g
     id="22-22-start-here-kde"
     transform="translate(-22,10)">
    <rect
       id="rect2"
       style="opacity:0.00100002"
       width="22"
       height="22"
       x="0"
       y="0" />
    <path
       fill-rule="evenodd"
       clip-rule="evenodd"
       d="m 18.724508,8.5213327 c 0.0099,0 0.01706,-0.00499 0.02661,-0.0065 1.261938,0.1248115 2.249833,1.1896255 2.249833,2.4854443 0,1.298424 -0.989108,2.365387 -2.255967,2.488048 -0.0022,0.007 -0.0066,0.01102 -0.0086,0.0171 -0.0099,-6.26e-4 -0.01653,-0.0063 -0.02665,-0.0063 -0.318529,0 -0.673464,0.05685 -0.805313,0.375331 -0.131841,0.319232 0.05497,0.597564 0.299078,0.841099 0.0096,0.0095 0.01981,0.01222 0.02898,0.01949 0.798324,0.981499 0.753126,2.420784 -0.161766,3.335755 -0.914028,0.9143 -2.354528,0.960706 -3.336342,0.162973 -0.01475,0.0086 -0.03054,0.01098 -0.0451,0.01769 -0.0074,-0.0086 -0.0099,-0.01705 -0.01649,-0.02503 -0.226147,-0.225246 -0.515767,-0.436424 -0.83469,-0.303378 -0.319465,0.131845 -0.382947,0.460219 -0.382947,0.805669 0,0.03108 0.0095,0.05913 0.01873,0.08719 -0.157163,1.230643 -1.200614,2.18405 -2.474191,2.18405 -1.2964294,0 -2.3618362,-0.987004 -2.4879002,-2.25046 -0.01374,-0.0051 -0.025659,-0.0129 -0.039697,-0.0177 6.272e-4,-0.007 0.00321,-0.01157 0.00321,-0.01767 0,-0.318566 -0.056411,-0.672611 -0.3750973,-0.80446 -0.3189229,-0.132453 -0.5975719,0.05497 -0.8413696,0.299091 -0.014696,0.01475 -0.021942,0.03296 -0.032332,0.05005 C 6.2463374,19.027113 4.8308788,18.974026 3.9287625,18.071332 3.0126178,17.15512 2.9677336,15.712781 3.7698039,14.730658 c -0.00887,-0.01709 -0.013123,-0.03535 -0.020458,-0.05367 0.2254055,-0.225157 0.4356502,-0.515093 0.3035324,-0.833705 -0.1324851,-0.318517 -0.4614456,-0.383248 -0.8066205,-0.383248 -0.02259,0 -0.04243,0.0095 -0.063743,0.01403 C 1.9530941,13.317989 1,12.272383 1,11.000215 1,9.6988982 1.9937227,8.6316567 3.2638605,8.5123146 c 0.0038,-0.01125 0.01041,-0.021323 0.01523,-0.032309 C 3.5932631,8.477428 3.9365973,8.4184825 4.0660208,8.1053579 4.1979965,7.7873647 4.0124706,7.5102738 3.7689102,7.2667507 2.9689782,6.2858302 3.0138604,4.844705 3.9294161,3.9291494 4.8482874,3.0096147 6.2994939,2.9671885 7.2812998,3.7793 7.2916228,3.77419 7.3022898,3.7717 7.3130158,3.7674 7.5364279,3.9874493 7.8208533,4.187028 8.1330597,4.0579603 8.4519815,3.9258035 8.5160845,3.5965297 8.5160845,3.251633 c 0,-0.0015 -6.245e-4,-0.0024 -6.245e-4,-0.00331 C 8.6420467,1.9857498 9.7047154,1 11.000526,1 c 1.303466,0 2.371959,0.9967676 2.488525,2.2693716 0.0029,0.00101 0.0043,0.00321 0.0078,0.0038 0,0.074781 0.004,0.1516878 0.01341,0.2270438 h -0.0099 c 0,0.3448574 -0.279541,0.6253436 -0.625027,0.6253436 -0.344551,0 -0.624404,-0.2804862 -0.624404,-0.6253436 0,-0.6906594 -0.56003,-1.2500611 -1.250379,-1.2500611 -0.690659,0 -1.2500638,0.5594017 -1.2500638,1.2500611 v 0.6253299 l -0.0036,0.00501 C 9.7581562,4.543779 9.4954416,4.9295406 9.0806929,5.052828 c -0.010088,0.00321 -0.02077,0.00321 -0.030509,0.0063 l -0.0076,0.00974 C 8.7500589,5.1671692 8.4662178,5.2843618 8.1939775,5.4222987 l -0.01801,-0.00311 c -0.010707,0.0059 -0.0192,0.014346 -0.029917,0.020445 C 7.7415999,5.6584109 7.2484515,5.5488339 6.9707424,5.202141 L 6.5807346,4.812724 c -0.4886165,-0.4883064 -1.2802601,-0.4883064 -1.767982,0 -0.4879529,0.488301 -0.4879529,1.2799838 0,1.7676629 l 0.4418997,0.4422088 0.00301,0.018679 c 0.2923592,0.2856393 0.3766202,0.7373412 0.172431,1.1145459 -0.00331,0.0061 -0.008,0.00975 -0.01125,0.01585 l 0.00331,0.021059 C 5.2861996,8.4652526 5.1671711,8.7490489 5.069507,9.0420365 l -0.018943,0.014693 c -0.00321,0.01097 -0.0038,0.021704 -0.00701,0.032971 C 4.9107523,9.5358896 4.4752639,9.8056737 4.0290688,9.750119 H 3.5002056 c -0.6906618,0 -1.2503381,0.560025 -1.2503381,1.250058 0,0.68988 0.5596763,1.250219 1.2503381,1.250219 h 0.624402 l 0.018659,0.01403 c 0.4043932,-6.26e-4 0.778828,0.258798 0.9002782,0.665928 0.0015,0.0036 0.0015,0.0083 0.0024,0.01101 l 0.02318,0.01702 c 0.098287,0.292363 0.216067,0.5762 0.3534141,0.848406 l -0.0056,0.03782 c 0.0045,0.0083 0.00941,0.01289 0.01343,0.02019 0.2188378,0.404084 0.1092653,0.897274 -0.2374341,1.174985 L 4.8132672,15.42006 c -0.4879537,0.487677 -0.4879537,1.279355 0,1.767663 0.4876794,0.487679 1.2793564,0.487679 1.7679776,0 l 0.4422114,-0.441895 0.018302,-0.0033 c 0.2850094,-0.284416 0.7317899,-0.364374 1.1044254,-0.162961 0.00269,0.0015 0.0036,0.0036 0.00711,0.0051 l 0.040279,-0.007 c 0.2725542,0.136101 0.5563575,0.255128 0.8493397,0.352792 l 0.02501,0.03303 c 0.0036,0.0015 0.00902,0.0015 0.01284,0.0033 0.4083403,0.120862 0.6674168,0.496857 0.6662058,0.902734 l 0.0036,0.0051 V 18.5002 c 0,0.690346 0.5594069,1.250059 1.2500629,1.250059 0.690349,0 1.250377,-0.559713 1.250377,-1.250059 v -0.625502 l 0.004,-0.0051 c -0.0015,-0.405923 0.257902,-0.781291 0.666247,-0.902746 0.0047,-0.0022 0.0095,-0.0022 0.01307,-0.0033 l 0.02482,-0.03236 c 0.292362,-0.09829 0.575889,-0.215477 0.848369,-0.353419 l 0.04115,0.007 c 0.0028,-0.0015 0.004,-0.0036 0.0074,-0.0051 0.372638,-0.201418 0.819455,-0.121458 1.104471,0.162974 l 0.01873,0.0033 0.442213,0.441891 c 0.487682,0.487684 1.279356,0.487684 1.767975,0 0.487994,-0.488301 0.487994,-1.279985 0,-1.767668 l -0.380084,-0.380263 c -0.346698,-0.277705 -0.45596,-0.770893 -0.237119,-1.174973 0.004,-0.0083 0.0099,-0.01339 0.01307,-0.02019 l -0.007,-0.04141 c 0.136101,-0.272202 0.256063,-0.552369 0.352788,-0.844107 l 0.02442,-0.01832 c 0.0011,-0.0036 0.0018,-0.0078 0.0026,-0.0104 0.121173,-0.407134 0.495337,-0.665936 0.899694,-0.665936 l 0.01832,-0.01403 h 0.625267 c 0.690661,0 1.250062,-0.560333 1.250062,-1.250218 0,-0.690033 -0.559401,-1.2500596 -1.250062,-1.2500596 h -0.529224 c -0.44682,0.055586 -0.881686,-0.2142173 -1.014151,-0.6604087 -0.0036,-0.011259 -0.004,-0.02259 -0.0078,-0.03386 l -0.01855,-0.013715 C 16.834353,8.7498659 16.716259,8.4660213 16.579217,8.1944062 l 0.0036,-0.021942 c -0.0036,-0.0065 -0.0086,-0.010708 -0.01119,-0.016479 C 16.367283,7.77878 16.451541,7.3270747 16.743594,7.0414383 l 0.0029,-0.018679 0.442208,-0.4422103 c 0.487993,-0.4876828 0.487993,-1.2793648 0,-1.7676694 -0.231887,-0.2313013 -0.571237,-0.3634562 -0.874888,-0.3753723 -0.345488,0 -0.625341,-0.2795441 -0.625341,-0.6250291 0,-0.3454874 0.279853,-0.625032 0.625341,-0.625032 0.04491,0 0.08823,0.0045 0.130632,0.013724 0.587805,0.03845 1.18049,0.279858 1.627892,0.7278906 0.91825,0.9180112 0.961885,2.3658181 0.153837,3.3476245 0.0036,0.0061 0.004,0.013088 0.0083,0.0192 -0.0036,0.00269 -0.0078,0.00321 -0.0099,0.00711 -0.225515,0.2258317 -0.436428,0.5157672 -0.304271,0.8353177 0.131729,0.318881 0.461,0.3829885 0.80582,0.3829885 z m -4.286342,-3.145898 c -0.34549,0 -0.625031,-0.2801715 -0.625031,-0.6253444 0,-0.3445483 0.279541,-0.6244046 0.625031,-0.6244046 0.344548,0 0.624406,0.2798563 0.624406,0.6244046 0,0.3451729 -0.279858,0.6253444 -0.624406,0.6253444 z m -6.2923097,11.2048913 0.046991,-0.0015 v 0 z m 0.8963353,0.351577 v 0 l 0.03784,0.03602 -0.03784,-0.03602 v 0 0 0 0 0 l 0.03784,0.03602 z"
       id="path2-3-3"
       sodipodi:nodetypes="scsccsccccccccscsccscccccccscsccccccccscsccccsssscccccccccccccccccccccsssccccccccccccccccccccccsssccccccccccccccccccccccsssccccccccccccssccccccsssssscccccccccccccccc"
       style="fill:url(#linearGradient1731-3);fill-opacity:1;stroke-width:0.0390647" />
    <path
       id="path11-5"
       style="color:#31363b;fill:url(#linearGradient1803-5);fill-opacity:1;stroke-width:0.714312"
       d="m 8.857332,6.7843071 c -0.3945066,0 -0.714315,0.3198102 -0.714315,0.7143127 0,0.3945056 0.3198084,0.714313 0.714315,0.714313 0.3945034,0 0.7143129,-0.3198074 0.7143129,-0.714313 0,-0.3945025 -0.3198095,-0.7143127 -0.7143129,-0.7143127 z m 3.571558,0 C 11.800354,6.4988904 11.052268,7.1387538 11.35742,7.8557768 l 1.785781,1.785778 -1.785781,1.7857762 c -0.375574,0.671949 0.358807,1.420488 1.07147,1.071466 L 15.286134,9.6415548 Z M 7.4287083,9.99871 c -0.3945021,0 -0.7143095,0.319807 -0.7143095,0.714312 0,0.3945 0.3198074,0.714309 0.7143095,0.714309 0.3945022,0 0.7143087,-0.319809 0.7143087,-0.714309 0,-0.394505 -0.3198065,-0.714312 -0.7143087,-0.714312 z M 9.9288,13.213112 c -0.5917556,0 -1.071468,0.479709 -1.071468,1.071465 0,0.591758 0.4797124,1.071468 1.071468,1.071468 0.591754,0 1.071466,-0.47971 1.071466,-1.071468 0,-0.591756 -0.479712,-1.071465 -1.071466,-1.071465 z"
       class="ColorScheme-Text"
       sodipodi:nodetypes="ssssscccccccssssssssss" />
  </g>
</svg>
