<?xml version="1.0" encoding="UTF-8" standalone="no"?>
<svg
   inkscape:version="1.2.2 (b0a8486541, 2022-12-01)"
   sodipodi:docname="view.svg"
   id="svg873"
   version="1.1"
   height="32"
   width="32"
   xmlns:inkscape="http://www.inkscape.org/namespaces/inkscape"
   xmlns:sodipodi="http://sodipodi.sourceforge.net/DTD/sodipodi-0.dtd"
   xmlns:xlink="http://www.w3.org/1999/xlink"
   xmlns="http://www.w3.org/2000/svg"
   xmlns:svg="http://www.w3.org/2000/svg"
   xmlns:rdf="http://www.w3.org/1999/02/22-rdf-syntax-ns#"
   xmlns:cc="http://creativecommons.org/ns#"
   xmlns:dc="http://purl.org/dc/elements/1.1/">
  <g
     id="view-history">
    <rect
       ry="0.91472864"
       y="0"
       x="0"
       height="32"
       width="32"
       id="rect817-5"
       style="clip-rule:evenodd;fill:#ffff96;fill-opacity:0;fill-rule:evenodd;stroke-width:1.04154;stroke-linejoin:round;stroke-miterlimit:1.41421;stroke-dasharray:none" />
    <path
       d="M 29.128354,24.254571 18.695572,28.492707 C 17.863962,28.818434 16.962325,29 16.016906,29 15.063577,29 14.153846,28.816533 13.317943,28.485042 L 2.910609,24.257944 C 1.95679,23.770702 1.3,22.784812 1.3,21.640842 V 10.359219 8.396516 c 0,-0.542307 0.440272,-0.981107 0.981107,-0.981107 0.542306,0 0.981536,0.4388 0.981536,0.981107 v 0.797639 1.165064 11.144145 c 0,0.353996 0.193523,0.65679 0.475223,0.829219 l 10.017467,4.238688 c 0.02201,0.0086 0.04072,0.01294 0.06273,0.02201 0.675431,0.285993 1.418925,0.444012 2.198844,0.444012 0.77489,0 1.513602,-0.156118 2.186151,-0.438738 0.02201,-0.0096 0.04121,-0.01435 0.06322,-0.023 l 10.028442,-4.24298 c 0.281701,-0.172429 0.476205,-0.475223 0.476205,-0.829219 v -7.22027 -1.165064 -0.79764 c 0,-0.541325 0.439781,-0.980125 0.981107,-0.980125 0.542306,0 0.981106,0.4388 0.981106,0.980125 v 1.962643 7.357748 c 6.2e-5,1.14213 -0.654336,2.124218 -1.604783,2.61379 z M 29.752092,9.378113 c -0.541326,0 -0.981107,-0.440272 -0.981107,-0.981597 0,-0.542307 0.439781,-0.981107 0.981107,-0.981107 0.542307,0 0.981107,0.4388 0.981107,0.981107 0,0.541325 -0.4388,0.981597 -0.981107,0.981597 z m -4.74641,12.034192 -4.627696,1.928181 v -0.0014 c -0.12552,0.05654 -0.264408,0.08818 -0.410102,0.08818 -0.555675,0 -1.007903,-0.450818 -1.007903,-1.007474 0,-0.431135 0.271153,-0.795248 0.651516,-0.94039 l 4.713849,-2.062777 c 0.305615,-0.164826 0.521213,-0.482889 0.521213,-0.857058 V 5.713802 c 0,-0.270663 -0.2194,-0.490553 -0.490553,-0.490553 -0.07089,0 -0.13895,0.01533 -0.201189,0.04262 V 5.264888 L 17.519961,8.168902 C 17.211465,8.333728 16.998748,8.65179 16.998748,9.024488 v 11.635189 1.962213 c 0,1.083632 -0.879316,1.962704 -1.962949,1.962704 -0.271644,0 -0.528877,-0.05506 -0.764588,-0.155199 L 7.022243,21.408994 C 5.964978,20.961058 5.224856,19.91624 5.224856,18.698564 V 4.962642 C 5.224856,3.87901 6.103927,3 7.187069,3 7.454359,3 7.707301,3.05414 7.94062,3.151826 l 4.502605,1.875508 c 0.369816,0.155199 0.630422,0.521213 0.630422,0.947075 0,0.567693 -0.459893,1.027525 -1.026605,1.027525 -0.17151,0 -0.331001,-0.04648 -0.472832,-0.120247 L 7.879301,5.264885 c -0.0014,0 0,9.81e-4 -0.0014,9.81e-4 -0.06132,-0.02729 -0.128402,-0.04262 -0.199778,-0.04262 -0.272134,0 -0.491044,0.21989 -0.491044,0.490553 v 12.845813 c 0,0.37417 0.214617,0.692232 0.521704,0.857058 l 6.635346,2.903033 c 9.81e-4,0 0,-9.81e-4 9.81e-4,-9.81e-4 0.06034,0.02729 0.128893,0.04262 0.200269,0.04262 0.270662,0 0.490553,-0.218909 0.490553,-0.490553 V 9.378113 8.887069 c 0,-1.2197 0.741594,-2.266847 1.800024,-2.712392 L 24.09265,3.151826 C 24.326398,3.054146 24.579401,3 24.846692,3 c 1.083632,0 1.963194,0.87901 1.963194,1.962642 v 13.735861 c -6.1e-5,1.219638 -0.745518,2.266847 -1.804194,2.713802 z"
       id="path2"
       style="fill:url(#linearGradient891);fill-opacity:1;stroke-width:0.0613192" />
  </g>
  <metadata
     id="metadata879">
    <rdf:RDF>
      <cc:Work
         rdf:about="">
        <dc:format>image/svg+xml</dc:format>
        <dc:type
           rdf:resource="http://purl.org/dc/dcmitype/StillImage" />
      </cc:Work>
    </rdf:RDF>
  </metadata>
  <defs
     id="defs877">
    <linearGradient
       inkscape:collect="always"
       id="linearGradient889">
      <stop
         style="stop-color:#00b9b9;stop-opacity:1"
         offset="0"
         id="stop885" />
      <stop
         style="stop-color:#5fffdf;stop-opacity:0.7215687"
         offset="1"
         id="stop887" />
    </linearGradient>
    <linearGradient
       id="_lgradient_0"
       x1="0"
       y1="0.5"
       x2="1"
       y2="0.5"
       gradientTransform="matrix(27.999994,0,0,27.999998,1.9766191,1.9139856)"
       gradientUnits="userSpaceOnUse">
      <stop
         offset="0%"
         stop-opacity="1"
         style="stop-color:rgb(105,227,255)"
         id="stop33" />
      <stop
         offset="100%"
         stop-opacity="1"
         style="stop-color:rgb(0,255,194)"
         id="stop35" />
    </linearGradient>
    <linearGradient
       inkscape:collect="always"
       xlink:href="#linearGradient889"
       id="linearGradient891"
       x1="1.8315344"
       y1="28.852245"
       x2="19.61972"
       y2="12.146039"
       gradientUnits="userSpaceOnUse" />
  </defs>
  <sodipodi:namedview
     inkscape:current-layer="svg873"
     inkscape:window-maximized="1"
     inkscape:window-y="0"
     inkscape:window-x="0"
     inkscape:cy="11.374412"
     inkscape:cx="20.618955"
     inkscape:zoom="11.033537"
     showgrid="false"
     id="namedview875"
     inkscape:window-height="998"
     inkscape:window-width="1920"
     inkscape:pageshadow="2"
     inkscape:pageopacity="0"
     guidetolerance="10"
     gridtolerance="10"
     objecttolerance="10"
     borderopacity="1"
     inkscape:document-rotation="0"
     bordercolor="#666666"
     pagecolor="#ffffff"
     inkscape:pagecheckerboard="0"
     inkscape:lockguides="false"
     inkscape:showpageshadow="2"
     inkscape:deskcolor="#d1d1d1">
    <inkscape:grid
       type="xygrid"
       id="grid1359"
       originx="32"
       originy="16" />
  </sodipodi:namedview>
  <g
     id="view-refresh"
     transform="translate(32,16)">
    <path
       id="path836"
       style="opacity:0.00100002"
       d="M 0,0 H 16 V 16 H 0 Z" />
    <path
       fill-rule="evenodd"
       clip-rule="evenodd"
       d="m 12.634476,6.511798 c 0.0057,0 0.01026,-0.0028 0.01592,-0.0036 0.757146,0.0749 1.349879,0.713765 1.349879,1.491237 0,0.77904 -0.59346,1.419209 -1.353561,1.492807 -0.0014,0.0036 -0.0033,0.0058 -0.005,0.01026 -0.0058,-3.74e-4 -0.0099,-0.0029 -0.01593,-0.0029 -0.191114,0 -0.404075,0.03408 -0.483179,0.225189 -0.07908,0.191539 0.03298,0.35854 0.179442,0.504654 0.0056,0.0056 0.01187,0.007 0.0174,0.01173 0.478987,0.588891 0.451868,1.452452 -0.09705,2.001419 -0.548409,0.548573 -1.412693,0.576415 -2.001768,0.09778 -0.0091,0.005 -0.0183,0.0057 -0.0271,0.01063 -0.0038,-0.005 -0.0057,-0.01025 -0.0099,-0.01505 -0.135688,-0.135153 -0.3094625,-0.261859 -0.500809,-0.182023 -0.191677,0.07908 -0.229763,0.276122 -0.229763,0.483391 0,0.01865 0.0056,0.03553 0.01117,0.05235 -0.09429,0.738296 -0.720358,1.310326 -1.484491,1.310326 -0.777843,0 -1.417077,-0.592187 -1.492712,-1.350253 -0.0084,-0.0027 -0.01535,-0.0078 -0.02376,-0.01054 3.76e-4,-0.0036 0.0023,-0.0066 0.0023,-0.01063 0,-0.191141 -0.03391,-0.403558 -0.225059,-0.482662 -0.191347,-0.07948 -0.358535,0.03291 -0.504814,0.179438 -0.0091,0.0091 -0.01316,0.0198 -0.01944,0.03003 -0.588346,0.460677 -1.437604,0.428831 -1.97886,-0.112788 -0.549701,-0.549697 -0.576633,-1.415084 -0.09537,-2.004344 -0.0056,-0.01026 -0.0081,-0.02124 -0.01229,-0.03218 C 3.78488,10.070924 3.911026,9.896964 3.831757,9.705802 3.752247,9.514666 3.554895,9.475832 3.347803,9.475832 c -0.01353,0 -0.02548,0.0056 -0.03823,0.0086 C 2.571846,9.390742 2,8.763395 2,8.000106 2,7.219332 2.596226,6.578998 3.358295,6.507394 c 0.0027,-0.0064 0.0063,-0.01283 0.0092,-0.01943 C 3.555917,6.485764 3.76191,6.451004 3.83956,6.263097 3.91864,6.072278 3.80738,5.906032 3.661219,5.759917 3.181281,5.171404 3.208203,4.306745 3.757499,3.757423 c 0.551317,-0.551711 1.42202,-0.577166 2.011097,-0.0899 0.0064,-0.0028 0.01261,-0.0045 0.019,-0.0068 0.134043,0.132028 0.304694,0.251776 0.492014,0.174333 0.191345,-0.07931 0.229812,-0.276853 0.229812,-0.48379 0,-7.2e-4 -3.74e-4,-0.0014 -3.74e-4,-0.0023 C 6.584998,2.591439 7.222604,2 8.000072,2 c 0.782062,0 1.423149,0.598051 1.493086,1.361598 0.0022,5.48e-4 0.0028,0.0022 0.0041,0.0027 0,0.04488 0.0028,0.09099 0.0082,0.136221 h -0.0057 c 0,0.206914 -0.167727,0.375201 -0.375013,0.375201 -0.206729,0 -0.374639,-0.168287 -0.374639,-0.375201 0,-0.414389 -0.336009,-0.750023 -0.750214,-0.750023 -0.414387,0 -0.750023,0.335634 -0.750023,0.750023 V 3.87572 l -0.0027,0.0028 c 0.0063,0.247928 -0.150873,0.479383 -0.399718,0.55335 -0.0057,0.0022 -0.01245,0.0022 -0.01829,0.0036 l -0.0045,0.0058 C 6.649237,4.50029 6.478931,4.570555 6.31559,4.653315 l -0.01081,-0.0022 c -0.0057,0.0033 -0.01152,0.0087 -0.01794,0.01227 C 6.044204,4.794682 5.748322,4.728935 5.581701,4.520922 L 5.347855,4.287268 c -0.293165,-0.292977 -0.768139,-0.292977 -1.060766,0 -0.29277,0.292979 -0.29277,0.767985 0,1.060578 l 0.265132,0.265322 0.0022,0.01117 c 0.175407,0.171383 0.225965,0.442401 0.103461,0.668723 -0.0023,0.0033 -0.005,0.0058 -0.0062,0.0094 l 0.0023,0.01263 c -0.08167,0.163522 -0.153077,0.333804 -0.21167,0.50959 l -0.0114,0.0091 c -0.0022,0.0063 -0.0027,0.01297 -0.0041,0.01977 -0.07963,0.26771 -0.340934,0.429575 -0.608646,0.396245 H 3.501007 c -0.414389,0 -0.750186,0.336014 -0.750186,0.750026 0,0.413919 0.335797,0.750116 0.750186,0.750116 h 0.374637 l 0.01117,0.0086 c 0.242632,-3.79e-4 0.467288,0.155277 0.54016,0.399549 7.2e-4,0.0027 7.2e-4,0.0045 0.0014,0.0063 l 0.01388,0.01027 c 0.059,0.17541 0.129637,0.345715 0.212045,0.509031 l -0.0029,0.02268 c 0.0027,0.0045 0.0057,0.0078 0.0082,0.01213 0.131293,0.242445 0.06555,0.538353 -0.142458,0.704972 l -0.227758,0.228164 c -0.292771,0.292601 -0.292771,0.7676 0,1.060582 0.292598,0.292602 0.767603,0.292602 1.060767,0 l 0.265321,-0.265137 0.01106,-0.0022 c 0.171007,-0.17065 0.43907,-0.218631 0.662647,-0.09774 0.0022,7.49e-4 0.0028,0.0027 0.0041,0.0028 l 0.0242,-0.0036 c 0.163529,0.08167 0.333809,0.153073 0.509595,0.211669 l 0.01505,0.01977 c 0.0027,7.47e-4 0.0063,7.47e-4 0.0077,0.0022 0.244998,0.07253 0.400443,0.298106 0.399717,0.541634 l 0.0028,0.0028 v 0.375334 c 0,0.414204 0.335635,0.750033 0.750019,0.750033 0.414203,0 0.750212,-0.335829 0.750212,-0.750033 v -0.375362 l 0.0027,-0.0028 c -7.2e-4,-0.243545 0.154739,-0.46877 0.399739,-0.541636 0.0027,-0.0014 0.0056,-0.0014 0.0081,-0.0022 l 0.01485,-0.01944 c 0.175413,-0.05902 0.345523,-0.129282 0.509007,-0.212047 l 0.02472,0.0036 c 0.0019,-7.2e-4 0.0028,-0.0027 0.0038,-0.0028 0.223576,-0.12085 0.49166,-0.07291 0.662666,0.09778 l 0.01117,0.0022 0.265321,0.265134 c 0.292601,0.292605 0.767602,0.292605 1.060766,0 0.292791,-0.29298 0.292791,-0.767974 0,-1.060582 L 11.487144,10.423346 C 11.279178,10.25672 11.21362,9.960812 11.344923,9.718362 c 0.0028,-0.0045 0.0057,-0.0082 0.0081,-0.01213 l -0.0036,-0.02492 c 0.08167,-0.163318 0.153637,-0.331415 0.211673,-0.506453 l 0.01466,-0.01104 c 5.5e-4,-0.0027 0.0012,-0.0041 0.0018,-0.0063 0.07264,-0.244269 0.297191,-0.399549 0.539802,-0.399549 l 0.01104,-0.0086 h 0.375152 c 0.414389,0 0.750026,-0.336196 0.750026,-0.750118 0,-0.414014 -0.335637,-0.750023 -0.750026,-0.750023 h -0.318147 c -0.268089,0.03326 -0.529006,-0.128539 -0.608482,-0.396253 -0.0023,-0.0063 -0.0028,-0.01352 -0.0041,-0.0203 l -0.01117,-0.0084 C 11.502851,6.648866 11.431999,6.478565 11.34978,6.315597 l 0.0023,-0.01316 c -0.0023,-0.0036 -0.005,-0.0057 -0.0063,-0.0099 -0.122512,-0.22632 -0.07194,-0.497338 0.103272,-0.668718 l 0.0022,-0.01116 0.265321,-0.265322 c 0.292791,-0.292604 0.292791,-0.767605 0,-1.060581 -0.139174,-0.138781 -0.342788,-0.218071 -0.524966,-0.225218 -0.207291,0 -0.375201,-0.167726 -0.375201,-0.375009 0,-0.207292 0.16791,-0.375017 0.375201,-0.375017 0.02693,0 0.05296,0.0028 0.07835,0.0084 0.352677,0.02306 0.708282,0.167906 0.97672,0.436723 0.550938,0.550799 0.577117,1.419467 0.09229,2.00854 0.0023,0.0033 0.0028,0.008 0.0045,0.01152 -0.0023,0.0022 -0.0041,0.0023 -0.0063,0.0041 -0.135308,0.135501 -0.261851,0.309454 -0.18256,0.501177 0.079,0.191328 0.276592,0.22979 0.483484,0.22979 z M 10.062718,4.624292 c -0.2072915,0 -0.375011,-0.1681 -0.375011,-0.375201 0,-0.206725 0.1677195,-0.374637 0.375011,-0.374637 0.206723,0 0.37464,0.167912 0.37464,0.374637 0,0.207101 -0.167917,0.375201 -0.37464,0.375201 z M 6.687492,8.936999 c 0.207289,0 0.375196,0.167727 0.375196,0.375012 0,0.207287 -0.167907,0.374989 -0.375196,0.374989 -0.207098,0 -0.375011,-0.167702 -0.375011,-0.374989 0,-0.207285 0.167913,-0.375012 0.375011,-0.375012 z M 5.750177,7.999373 c 0,-1.242574 1.007443,-2.250048 2.249832,-2.250048 1.242602,0 2.250028,1.007474 2.250028,2.250048 0,1.242698 -1.007426,2.250146 -2.250028,2.250146 -0.207098,0 -0.375011,-0.168102 -0.375011,-0.375016 0,-0.20691 0.167913,-0.375362 0.375011,-0.375362 0.828591,0 1.499859,-0.671293 1.499859,-1.499768 0,-0.828378 -0.671292,-1.499856 -1.499859,-1.499856 -0.828377,0 -1.500209,0.671457 -1.500209,1.499856 0,0.207386 -0.167914,0.375108 -0.374637,0.375108 -0.207291,0 -0.374986,-0.167722 -0.374986,-0.375108 z"
       id="path2-3-6"
       style="fill:#eceff4;fill-opacity:1;stroke-width:0.0234386" />
    <path
       d="M 10.499995,7.9999933 C 10.499995,9.3813802 9.3813673,10.5 7.9999975,10.5 6.6197898,10.500002 5.5,9.3813802 5.5,7.9999933 5.5,6.6197815 6.6197898,5.5 7.9999975,5.5 c 1.3813698,0 2.4999975,1.1197815 2.4999975,2.4999933 z"
       id="path72-3"
       style="color:#eceff4;fill:currentColor;fill-opacity:1;stroke-width:0.0297623"
       class="ColorScheme-Text" />
  </g>
</svg>
