<?xml version="1.0" encoding="UTF-8" standalone="no"?>
<svg
   inkscape:version="1.2.2 (b0a8486541, 2022-12-01)"
   sodipodi:docname="virt.svg"
   version="1.1"
   height="32"
   width="31.958838"
   id="svg6"
   xmlns:inkscape="http://www.inkscape.org/namespaces/inkscape"
   xmlns:sodipodi="http://sodipodi.sourceforge.net/DTD/sodipodi-0.dtd"
   xmlns="http://www.w3.org/2000/svg"
   xmlns:svg="http://www.w3.org/2000/svg"
   xmlns:rdf="http://www.w3.org/1999/02/22-rdf-syntax-ns#"
   xmlns:cc="http://creativecommons.org/ns#"
   xmlns:dc="http://purl.org/dc/elements/1.1/">
  <metadata
     id="metadata11">
    <rdf:RDF>
      <cc:Work
         rdf:about="">
        <dc:format>image/svg+xml</dc:format>
        <dc:type
           rdf:resource="http://purl.org/dc/dcmitype/StillImage" />
      </cc:Work>
    </rdf:RDF>
  </metadata>
  <defs
     id="defs9" />
  <sodipodi:namedview
     inkscape:document-rotation="0"
     inkscape:lockguides="true"
     inkscape:current-layer="svg6"
     inkscape:window-maximized="1"
     inkscape:window-y="0"
     inkscape:window-x="0"
     inkscape:cy="22.378731"
     inkscape:cx="20.664895"
     inkscape:zoom="15.170655"
     showgrid="false"
     id="namedview7"
     inkscape:window-height="998"
     inkscape:window-width="1920"
     inkscape:pageshadow="2"
     inkscape:pageopacity="0"
     guidetolerance="10"
     gridtolerance="10"
     objecttolerance="10"
     borderopacity="1"
     bordercolor="#000000"
     pagecolor="#ffffff"
     inkscape:showpageshadow="false"
     inkscape:pagecheckerboard="0"
     inkscape:deskcolor="#d1d1d1">
    <inkscape:grid
       type="xygrid"
       id="grid866"
       originx="0"
       originy="-6.65" />
  </sodipodi:namedview>
  <g
     id="virt-manager">
    <rect
       y="0"
       x="0"
       height="32"
       width="31.958838"
       style="opacity:0.00100002;stroke-width:1.45364"
       id="rect822" />
    <path
       style="fill:#89a2c2;fill-opacity:1;stroke-width:0.94232"
       d="m 5,8 3.1023585,7.384618 H 10.314893 L 13.369154,8 H 11.276865 L 9.1845773,12.86923 7.1163373,8 Z"
       id="path10-3" />
    <path
       fill-opacity="0.941"
       style="fill:#eff0f1;fill-opacity:1;stroke-width:0.94232"
       d="m 15.41334,8 c -1.041908,2.474311 -2.100846,4.933111 -3.198549,7.384618 h 2.212536 l 2.068239,-4.846156 2.04419,4.846156 h 2.212539 l 2.044184,-4.984622 2.116337,4.984622 h 2.212536 C 26.027646,12.933111 24.94466,10.474311 23.902746,8 H 21.690213 L 19.646022,12.86923 17.553729,8 Z"
       id="path14-6" />
    <path
       style="fill:#eff0f1;fill-opacity:1;stroke-width:0.94232"
       d="M 5,9.6153847 8.1023585,17 H 10.314893 L 13.369154,9.6153847 H 11.276865 L 9.1845773,14.484618 7.1163373,9.6153847 Z"
       id="path10-3-3" />
    <path
       fill-opacity="0.941"
       style="fill:#89a2c2;fill-opacity:1;stroke-width:0.94232"
       d="M 15.441845,9.6153847 C 14.39993,12.089693 13.340991,14.548493 12.243286,17 h 2.212538 L 16.524068,12.153845 18.568259,17 H 20.78079 L 22.824981,12.015389 24.941315,17 H 27.15385 C 26.056147,14.548493 24.973155,12.089693 23.931247,9.6153847 H 21.718714 L 19.674523,14.484618 17.582227,9.6153847 Z"
       id="path14-6-6" />
    <path
       fill-rule="evenodd"
       clip-rule="evenodd"
       d="m 25.749999,23.714286 c 0,0.473357 -0.363793,0.857142 -0.8125,0.857142 -0.448708,0 -0.8125,-0.383785 -0.8125,-0.857142 0,-0.473358 0.363792,-0.857144 0.8125,-0.857144 0.448707,0 0.8125,0.383786 0.8125,0.857144 z m -3.250001,0 c 0,0.473357 -0.363792,0.857142 -0.812499,0.857142 -0.448708,0 -0.8125,-0.383785 -0.8125,-0.857142 0,-0.473358 0.363792,-0.857144 0.8125,-0.857144 0.448707,0 0.812499,0.383786 0.812499,0.857144 z m -3.249999,0 c 0,0.473357 -0.363793,0.857142 -0.812501,0.857142 -0.448707,0 -0.812499,-0.383785 -0.812499,-0.857142 0,-0.473358 0.363792,-0.857144 0.812499,-0.857144 0.448708,0 0.812501,0.383786 0.812501,0.857144 z M 3,19 V 7.428571 C 3,5.535143 4.455188,4 6.2499996,4 H 25.749999 c 1.794809,0 3.25,1.535143 3.25,3.428571 v 9.428572 c 0,0.473357 -0.363793,0.857142 -0.812501,0.857142 -0.448707,0 -0.812498,-0.383785 -0.812498,-0.857142 V 7.428571 c 0,-0.946714 -0.727604,-1.91235 -1.625002,-1.907748 l -19.4999984,0.1 C 5.3526084,5.625423 4.6249999,6.481858 4.6249999,7.428572 v 11.142857 c 0,0.473357 0.3637967,0.857144 0.8124995,0.857144 H 26.968743 C 28.090711,19.428573 29,20.387822 29,21.57143 v 2.999999 c 0,1.893429 -1.455192,3.428572 -3.250001,3.428572 H 6.2499996 C 4.455188,28.000001 3,26.464858 3,24.571429 v -0.857143 c 0,-0.473358 0.3637957,-0.857144 0.8124995,-0.857144 0.4487037,0 0.8125004,0.383786 0.8125004,0.857144 v 0.857142 c 0,0.946715 0.727593,1.714286 1.6249997,1.714286 H 25.749999 c 0.89741,0 1.625001,-0.767571 1.625001,-1.714286 v -2.571429 c 0,-0.473356 -0.363793,-0.857142 -0.812501,-0.857142 H 5.0312496 C 3.9092885,21.142857 3,20.183607 3,19 Z"
       id="path2"
       style="fill:#eff0f1;fill-opacity:1;stroke-width:0.0521578"
       sodipodi:nodetypes="ssssssssssssssssssssssssssssssssssssssssssssss" />
  </g>
  <g
     id="22-22-virt-manager">
    <rect
       style="opacity:0.00100002"
       width="22"
       height="22"
       x="32"
       y="10"
       id="rect2" />
    <path
       fill-rule="evenodd"
       clip-rule="evenodd"
       d="m 49.749999,26.142857 c 0,0.315571 -0.251853,0.571428 -0.562499,0.571428 -0.310645,0 -0.5625,-0.255857 -0.5625,-0.571428 0,-0.315572 0.251855,-0.571429 0.5625,-0.571429 0.310646,0 0.562499,0.255857 0.562499,0.571429 z m -2.249999,0 c 0,0.315571 -0.251855,0.571428 -0.5625,0.571428 -0.310645,0 -0.5625,-0.255857 -0.5625,-0.571428 0,-0.315572 0.251855,-0.571429 0.5625,-0.571429 0.310645,0 0.5625,0.255857 0.5625,0.571429 z m -2.25,0 c 0,0.315571 -0.251855,0.571428 -0.562501,0.571428 -0.310643,0 -0.562499,-0.255857 -0.562499,-0.571428 0,-0.315572 0.251856,-0.571429 0.562499,-0.571429 0.310646,0 0.562501,0.255857 0.562501,0.571429 z M 34,23 V 15.285714 C 34,14.023429 35.007438,13 36.25,13 H 49.749999 C 50.99256,13 52,14.023429 52,15.285714 v 6.285714 c 0,0.315572 -0.251855,0.571428 -0.5625,0.571428 -0.310646,0 -0.562499,-0.255856 -0.562499,-0.571428 v -6.285714 c 0,-0.631143 -0.503724,-1.2749 -1.125002,-1.271832 L 36.25,14.080552 c -0.621271,0.0031 -1.125,0.574023 -1.125,1.205166 v 7.428571 c 0,0.315571 0.251859,0.571429 0.5625,0.571429 H 50.593744 C 51.370498,23.285718 52,23.925217 52,24.714289 v 1.999999 C 52,27.976571 50.99256,29 49.749999,29 H 36.25 C 35.007438,29 34,27.976571 34,26.714285 v -0.571428 c 0,-0.315572 0.251859,-0.571429 0.5625,-0.571429 0.31064,0 0.5625,0.255857 0.5625,0.571429 v 0.571428 c 0,0.631143 0.503718,1.142857 1.125,1.142857 h 13.499999 c 0.621287,0 1.125002,-0.511714 1.125002,-1.142857 v -1.714286 c 0,-0.315571 -0.251856,-0.571428 -0.562501,-0.571428 H 35.40625 C 34.629508,24.428571 34,23.789071 34,23 Z"
       id="path2-3-5"
       style="fill:#eff0f1;fill-opacity:1;stroke-width:0.0354342"
       sodipodi:nodetypes="ssssssssssssssssssssssssssssssssssssssssssssss" />
    <path
       style="fill:#89a2c2;fill-opacity:1;stroke-width:0.628217"
       d="m 35.6,15.7 2.068239,4.923079 h 1.475023 L 41.179436,15.7 H 39.784577 L 38.389718,18.946153 37.010891,15.7 Z"
       id="path10-3-36" />
    <path
       fill-opacity="0.941"
       style="fill:#eff0f1;fill-opacity:1;stroke-width:0.628217"
       d="m 42.542225,15.7 c -0.694603,1.649541 -1.400562,3.288741 -2.132364,4.923079 h 1.475023 l 1.378826,-3.230771 1.362792,3.230771 h 1.475028 l 1.362786,-3.323081 1.410894,3.323081 h 1.475027 C 49.61843,18.988741 48.896444,17.349541 48.20183,15.7 H 46.726804 L 45.36401,18.946153 43.96915,15.7 Z"
       id="path14-6-7" />
    <path
       style="fill:#eff0f1;fill-opacity:1;stroke-width:0.628217"
       d="M 35.6,16.776923 37.668239,21.7 h 1.475023 l 2.036174,-4.923077 h -1.394859 l -1.394859,3.246156 -1.378827,-3.246156 z"
       id="path10-3-3-5" />
    <path
       fill-opacity="0.941"
       style="fill:#89a2c2;fill-opacity:1;stroke-width:0.628217"
       d="M 42.56123,16.776923 C 41.866619,18.426462 41.16066,20.065663 40.428857,21.7 h 1.475024 L 43.282715,18.46923 44.64551,21.7 h 1.47502 L 47.483325,18.376926 48.894215,21.7 h 1.475016 C 49.637437,20.065663 48.915435,18.426462 48.220837,16.776923 H 46.74581 l -1.362793,3.246156 -1.394867,-3.246156 z"
       id="path14-6-6-3" />
  </g>
</svg>
