<?xml version="1.0" encoding="UTF-8" standalone="no"?>
<svg
   width="124.00004"
   height="51.999859"
   viewBox="0 0 32.808341 13.758296"
   id="svg2"
   version="1.1"
   inkscape:version="1.3.2 (091e20ef0f, 2023-11-25)"
   sodipodi:docname="configuration-icons.svg"
   xmlns:inkscape="http://www.inkscape.org/namespaces/inkscape"
   xmlns:sodipodi="http://sodipodi.sourceforge.net/DTD/sodipodi-0.dtd"
   xmlns="http://www.w3.org/2000/svg"
   xmlns:svg="http://www.w3.org/2000/svg"
   xmlns:rdf="http://www.w3.org/1999/02/22-rdf-syntax-ns#"
   xmlns:cc="http://creativecommons.org/ns#"
   xmlns:dc="http://purl.org/dc/elements/1.1/">
  <style
     type="text/css"
     id="current-color-scheme">.ColorScheme-Text { color:#d1d5e9; }
</style>
  <defs
     id="defs4">
    <style
       type="text/css"
       id="style3" />
    <inkscape:perspective
       id="perspective4146"
       inkscape:persp3d-origin="11.999999 : 13.291592 : 1"
       inkscape:vp_z="23.999998 : 17.291591 : 1"
       inkscape:vp_y="0 : 999.99997 : 0"
       inkscape:vp_x="0 : 17.291591 : 1"
       sodipodi:type="inkscape:persp3d" />
    <inkscape:perspective
       id="perspective4090"
       inkscape:persp3d-origin="11.999999 : 13.291592 : 1"
       inkscape:vp_z="23.999998 : 17.291591 : 1"
       inkscape:vp_y="0 : 999.99997 : 0"
       inkscape:vp_x="0 : 17.291591 : 1"
       sodipodi:type="inkscape:persp3d" />
  </defs>
  <sodipodi:namedview
     id="base"
     pagecolor="#282d38"
     bordercolor="#4e6f97"
     borderopacity="1"
     inkscape:pageopacity="1"
     inkscape:pageshadow="2"
     inkscape:zoom="3.9949158"
     inkscape:cx="61.327951"
     inkscape:cy="43.930838"
     inkscape:document-units="px"
     inkscape:current-layer="layer1"
     showgrid="false"
     units="px"
     inkscape:showpageshadow="false"
     borderlayer="true"
     inkscape:window-width="1920"
     inkscape:window-height="990"
     inkscape:window-x="0"
     inkscape:window-y="0"
     inkscape:window-maximized="1"
     fit-margin-top="0"
     fit-margin-left="0"
     fit-margin-right="0"
     fit-margin-bottom="0"
     showguides="false"
     inkscape:lockguides="false"
     inkscape:document-rotation="0"
     inkscape:pagecheckerboard="true"
     inkscape:deskcolor="#282d38">
    <sodipodi:guide
       position="1.0134696e-06,19.049923"
       orientation="16.000015,0"
       id="guide4136"
       inkscape:locked="false" />
    <sodipodi:guide
       position="1.0134696e-06,14.816585"
       orientation="0,16"
       id="guide4138"
       inkscape:locked="false" />
    <sodipodi:guide
       position="4.2333342,14.816585"
       orientation="-16.000015,0"
       id="guide4140"
       inkscape:locked="false" />
    <sodipodi:guide
       position="4.2333342,19.049923"
       orientation="0,-16"
       id="guide4142"
       inkscape:locked="false" />
    <inkscape:grid
       type="xygrid"
       id="grid990"
       originx="1.6134693e-06"
       originy="-3.6376965e-05"
       spacingy="1"
       spacingx="1"
       units="px"
       visible="false" />
  </sodipodi:namedview>
  <metadata
     id="metadata7">
    <rdf:RDF>
      <cc:Work
         rdf:about="">
        <dc:format>image/svg+xml</dc:format>
        <dc:type
           rdf:resource="http://purl.org/dc/dcmitype/StillImage" />
      </cc:Work>
    </rdf:RDF>
  </metadata>
  <g
     inkscape:label="Capa 1"
     inkscape:groupmode="layer"
     id="layer1"
     transform="translate(0.52916771,-249.37497)">
    <g
       id="rotate">
      <rect
         y="249.37497"
         x="8.9958344"
         height="4.2333322"
         width="4.2333336"
         id="rect4176"
         style="opacity:1;fill:none;fill-opacity:1;stroke:none" />
      <rect
         style="opacity:1;fill:none;fill-opacity:1;stroke:none"
         id="rect4178"
         width="3.1750002"
         height="3.1749992"
         x="9.5250006"
         y="249.90414" />
      <path
         style="text-decoration:none;text-decoration-line:none;display:inline;overflow:visible;visibility:visible;fill:#e1e1e1;fill-opacity:1;fill-rule:nonzero;stroke:none;enable-background:accumulate"
         d="M 44.171875,1.671875 43.464844,2.3789062 44.414062,3.328125 45.085938,4 H 41 v 1 h 4.085938 L 44.414062,5.671875 43.464844,6.6210938 44.171875,7.328125 45.121094,6.3789062 47,4.5 45.121094,2.6210938 Z M 39.5,5 C 39.22386,5 39,5.2237543 39,5.5 39,5.7762835 39.223861,6 39.5,6 39.77614,6 40,5.7762457 40,5.5 40,5.2237165 39.776139,5 39.5,5 Z M 46.46875,6.5625 42.5625,10.46875 46.09375,14 50,10.09375 Z M 38.5,8 C 38.22386,8 38,8.2237543 38,8.5 38,8.7762835 38.223862,9 38.5,9 38.77614,9 39,8.7762457 39,8.5 39,8.2237165 38.776139,8 38.5,8 Z m 1,3 C 39.22386,11 39,11.223754 39,11.5 39,11.776283 39.223861,12 39.5,12 39.77614,12 40,11.776246 40,11.5 40,11.223717 39.776139,11 39.5,11 Z m 3,1 C 42.223868,12 42,12.223754 42,12.5 42,12.776283 42.22386,13 42.5,13 42.776132,13 43,12.776246 43,12.5 43,12.223717 42.77614,12 42.5,12 Z"
         transform="matrix(0.26458333,0,0,0.26458333,-0.52916771,249.37493)"
         id="rect4144-9"
         class="ColorScheme-Text"
         inkscape:connector-curvature="0" />
    </g>
    <g
       id="move">
      <rect
         style="opacity:1;fill:none;fill-opacity:1;stroke:none"
         id="rect4213"
         width="4.2333336"
         height="4.2333322"
         x="13.758335"
         y="249.37497" />
      <rect
         y="249.90414"
         x="14.287501"
         height="3.1749992"
         width="3.1750002"
         id="rect4215"
         style="opacity:1;fill:none;fill-opacity:1;stroke:none" />
      <path
         id="path4404"
         d="m 15.875001,249.90414 -0.529166,0.79375 h 1.058333 z m -0.79375,1.05833 -0.79375,0.52917 0.79375,0.52916 z m 1.5875,0 v 1.05833 l 0.79375,-0.52916 z m -0.79375,0.26458 c -0.146125,0 -0.264583,0.11846 -0.264583,0.26459 0,0.14612 0.118458,0.26458 0.264583,0.26458 0.146126,0 0.264584,-0.11846 0.264584,-0.26458 0,-0.14613 -0.118458,-0.26459 -0.264584,-0.26459 z m -0.529166,1.05834 0.529166,0.79375 0.529167,-0.79375 z"
         style="fill:#e1e1e1;fill-opacity:1;stroke:none"
         inkscape:connector-curvature="0"
         class="ColorScheme-Text" />
    </g>
    <g
       id="size-vertical">
      <rect
         y="249.37497"
         x="18.520834"
         height="4.2333322"
         width="4.2333336"
         id="rect4257"
         style="opacity:1;fill:none;fill-opacity:1;stroke:none" />
      <rect
         style="opacity:1;fill:none;fill-opacity:1;stroke:none"
         id="rect4259"
         width="3.1750002"
         height="3.1749992"
         x="19.050001"
         y="249.90414" />
      <path
         sodipodi:nodetypes="ccccssssscccc"
         inkscape:connector-curvature="0"
         style="fill:#e1e1e1;fill-opacity:1;stroke:none"
         d="m 20.637501,249.90414 -0.529166,0.79375 h 1.058333 z m 0,1.32291 c -0.146125,0 -0.264583,0.11846 -0.264583,0.26459 0,0.14612 0.118458,0.26458 0.264583,0.26458 0.146126,0 0.264584,-0.11846 0.264584,-0.26458 0,-0.14613 -0.118458,-0.26459 -0.264584,-0.26459 z m -0.529166,1.05834 0.529166,0.79375 0.529167,-0.79375 z"
         id="path4263"
         class="ColorScheme-Text" />
    </g>
    <g
       id="size-horizontal">
      <rect
         style="opacity:1;fill:none;fill-opacity:1;stroke:none"
         id="rect4265"
         width="4.2333336"
         height="4.2333322"
         x="23.283333"
         y="249.37497" />
      <rect
         y="249.90414"
         x="23.8125"
         height="3.1749992"
         width="3.1750002"
         id="rect4267"
         style="opacity:1;fill:none;fill-opacity:1;stroke:none" />
      <path
         id="path4269"
         d="m 26.987502,251.49164 -0.79375,-0.52917 v 1.05834 z m -1.32291,0 c 0,-0.14613 -0.11846,-0.26458 -0.26459,-0.26458 -0.14612,0 -0.26458,0.11845 -0.26458,0.26458 0,0.14613 0.11846,0.26458 0.26458,0.26458 0.14613,0 0.26459,-0.11845 0.26459,-0.26458 z m -1.05834,-0.52917 -0.79375,0.52917 0.79375,0.52917 z"
         style="fill:#e1e1e1;fill-opacity:1;stroke:none"
         inkscape:connector-curvature="0"
         sodipodi:nodetypes="ccccssssscccc"
         class="ColorScheme-Text" />
    </g>
    <g
       id="size-diagonal-tr2bl">
      <rect
         y="249.37497"
         x="28.045832"
         height="4.2333322"
         width="4.2333336"
         id="rect4271"
         style="opacity:1;fill:none;fill-opacity:1;stroke:none" />
      <rect
         style="opacity:1;fill:none;fill-opacity:1;stroke:none"
         id="rect4273"
         width="3.1750002"
         height="3.1749992"
         x="28.574999"
         y="249.90414" />
      <path
         inkscape:connector-curvature="0"
         id="rect3354"
         d="m 29.368751,253.07915 v -0.26458 h -0.606682 l 0.871265,-0.87127 -0.187068,-0.18706 -0.871265,0.87126 v -0.60668 h -0.264584 v 1.05833 h 0.264584 z"
         style="fill:#e1e1e1;fill-opacity:1;stroke:none"
         class="ColorScheme-Text" />
      <path
         inkscape:connector-curvature="0"
         id="rect3378"
         transform="matrix(0.26458334,0,0,0.26458334,-0.52916664,249.37498)"
         d="m 109,2 v 1 1 3 1 h 1 V 7 4 3 h 1 4 2 V 2 h -2 -4 -1 z m 13,6 v 1 3 1 h -2 -3 -2 v 1 h 2 3 2 1 V 12 9 8 Z"
         style="fill:#e1e1e1;fill-opacity:1;stroke:none"
         class="ColorScheme-Text" />
      <path
         style="fill:#e1e1e1;fill-opacity:1;stroke:none"
         d="m 30.95625,249.90415 v 0.26458 h 0.606682 L 30.691667,251.04 30.878735,251.22706 31.75,250.3558 v 0.60668 h 0.264584 v -1.05833 H 31.75 Z"
         id="path4303"
         inkscape:connector-curvature="0"
         class="ColorScheme-Text" />
    </g>
    <g
       id="size-diagonal-tl2br">
      <rect
         style="opacity:1;fill:none;fill-opacity:1;stroke:none"
         id="rect4308"
         width="4.2333336"
         height="4.2333322"
         x="-0.52916676"
         y="254.13741" />
      <rect
         y="254.66658"
         x="8.4756147e-07"
         height="3.1749992"
         width="3.1750002"
         id="rect4310"
         style="opacity:1;fill:none;fill-opacity:1;stroke:none" />
      <path
         style="fill:#e1e1e1;fill-opacity:1;stroke:none"
         d="m 2.3812496,257.84168 v -0.26458 h 0.6066819 l -0.8712649,-0.87127 0.187068,-0.18706 0.8712649,0.87126 v -0.60668 h 0.264584 v 1.05833 h -0.264584 z"
         id="path4312"
         inkscape:connector-curvature="0"
         class="ColorScheme-Text" />
      <path
         style="fill:#e1e1e1;fill-opacity:1;stroke:none"
         d="m 3.4395835,254.66667 v 0.26459 0.26458 0.79375 0.26458 h -0.264584 v -0.26458 -0.79375 -0.26458 H 2.9104166 1.8520836 1.3229166 v -0.26459 h 0.529167 1.058333 0.2645829 z M -4e-7,256.25417 v 0.26459 0.79375 0.26458 h 0.529167 0.79375 0.529167 v 0.26458 H 1.3229166 0.5291666 -4e-7 -0.2645834 v -0.52916 -0.79375 -0.26459 z"
         id="path4314"
         inkscape:connector-curvature="0"
         class="ColorScheme-Text" />
      <path
         inkscape:connector-curvature="0"
         id="path4316"
         d="m 0.7937506,254.66668 v 0.26458 h -0.606682 l 0.871265,0.87127 -0.187068,0.18706 L 6e-7,255.11833 v 0.60668 h -0.264584 v -1.05833 H 6e-7 Z"
         style="fill:#e1e1e1;fill-opacity:1;stroke:none"
         class="ColorScheme-Text" />
    </g>
    <g
       id="maximize">
      <rect
         y="254.13741"
         x="4.2333331"
         height="4.2333322"
         width="4.2333336"
         id="rect4318"
         style="opacity:1;fill:none;fill-opacity:1;stroke:none" />
      <rect
         style="opacity:1;fill:none;fill-opacity:1;stroke:none"
         id="rect4320"
         width="3.1750002"
         height="3.1749992"
         x="4.7625008"
         y="254.66658" />
      <path
         inkscape:connector-curvature="0"
         id="path4322"
         d="m 7.1437499,254.66667 v 0.26458 h 0.6066819 l -0.8712649,0.87127 0.187068,0.18706 0.8712649,-0.87126 v 0.60668 h 0.264584 v -1.05833 h -0.264584 z"
         style="fill:#e1e1e1;fill-opacity:1;stroke:none"
         class="ColorScheme-Text" />
      <path
         id="path4324"
         transform="matrix(0.26458333,0,0,0.26458334,-0.52916771,249.37497)"
         d="m 19,20 v 2 3 1 5 1 h 1 5 2 4 1 1 v -1 -1 -3 -1 h -1 v 1 3 1 h -1 -4 -2 -5 v -5 -1 -3 -1 h 2 3 2 v -1 h -2 -3 -2 z"
         style="fill:#e1e1e1;fill-opacity:1;stroke:none"
         inkscape:connector-curvature="0"
         class="ColorScheme-Text" />
    </g>
    <g
       id="unmaximize">
      <rect
         style="opacity:1;fill:none;fill-opacity:1;stroke:none"
         id="rect4333"
         width="4.2333336"
         height="4.2333322"
         x="8.9958324"
         y="254.13741" />
      <rect
         y="254.66658"
         x="9.5249996"
         height="3.1749992"
         width="3.1750002"
         id="rect4335"
         style="opacity:1;fill:none;fill-opacity:1;stroke:none" />
      <path
         style="fill:#e1e1e1;fill-opacity:1;stroke:none"
         d="M 12.700003,255.98958 V 255.725 h -0.606682 l 0.871265,-0.87127 -0.187068,-0.18706 -0.871266,0.87126 v -0.60668 h -0.264584 v 1.05833 h 0.264584 z"
         id="path4337"
         inkscape:connector-curvature="0"
         class="ColorScheme-Text" />
      <path
         inkscape:connector-curvature="0"
         style="fill:#e1e1e1;fill-opacity:1;stroke:none"
         d="m 9.2604158,254.66664 v 0.52916 0.79375 0.26459 1.32291 0.26459 h 0.2645833 1.3229169 0.529167 1.058334 0.264584 0.264583 v -0.26459 -0.26458 -0.79375 -0.26458 h -0.264583 v 0.26458 0.79375 0.26458 H 12.435417 11.377083 10.847916 9.5249991 v -1.32291 -0.26459 -0.79375 -0.26458 h 0.5291669 0.79375 0.529167 v -0.26458 h -0.529167 -0.79375 -0.5291669 z"
         id="path4339"
         class="ColorScheme-Text" />
    </g>
    <g
       id="status">
      <rect
         y="254.13741"
         x="13.758333"
         height="4.2333322"
         width="4.2333336"
         id="rect4341"
         style="opacity:1;fill:none;fill-opacity:1;stroke:none" />
      <rect
         style="opacity:1;fill:none;fill-opacity:1;stroke:none"
         id="rect4343"
         width="3.1750002"
         height="3.1749992"
         x="14.2875"
         y="254.66658" />
      <g
         inkscape:label="Capa 1"
         id="layer1-70"
         transform="matrix(0.26458333,0,0,0.26458334,-97.820237,113.43444)">
        <path
           sodipodi:nodetypes="cccccccccccccccccccccccccccccccc"
           inkscape:connector-curvature="0"
           id="rect4083"
           transform="translate(367.71428,513.79097)"
           d="m 56,20 v 3 3 1 5 H 57 60.970703 68 V 31 21 20 H 63.148438 57 Z m 1,3 h 7.345703 L 62.628906,29.408203 60.662109,26 H 60.369141 57.505859 57 Z m 8.382812,0 H 67 v 8 H 63.238281 Z M 57,27 h 3.083984 l 2.308594,4 H 57 Z"
           style="fill:#e1e1e1;fill-opacity:1;stroke:none"
           class="ColorScheme-Text" />
      </g>
    </g>
    <g
       id="collapse">
      <rect
         y="254.13741"
         x="23.283337"
         height="4.2333322"
         width="4.2333336"
         id="rect4397"
         style="opacity:1;fill:none;fill-opacity:1;stroke:none" />
      <rect
         style="opacity:1;fill:none;fill-opacity:1;stroke:none"
         id="rect4399"
         width="3.1750002"
         height="3.1749992"
         x="23.812504"
         y="254.66658" />
      <path
         inkscape:connector-curvature="0"
         style="opacity:1;fill:#e1e1e1;fill-opacity:1;stroke:none"
         d="m 24.870835,254.66664 0.529166,0.52916 0.529167,-0.52916 z m -1.058334,1.32291 v 0.52917 h 3.175 v -0.52917 z m 1.5875,1.32292 -0.529166,0.52917 h 1.058333 z"
         id="path4401"
         class="ColorScheme-Text" />
    </g>
    <g
       id="return-to-source">
      <rect
         style="opacity:1;fill:none;fill-opacity:1;stroke:none"
         id="rect4380"
         width="4.2333336"
         height="4.2333322"
         x="18.520832"
         y="254.13741" />
      <rect
         y="254.66658"
         x="19.049999"
         height="3.1749992"
         width="3.1750002"
         id="rect4382"
         style="opacity:1;fill:none;fill-opacity:1;stroke:none" />
      <path
         id="rect4403"
         transform="matrix(0.26458333,0,0,0.26458334,-0.52916771,249.37497)"
         d="M 74,20 V 32 H 86 V 20 Z m 4,1 h 4 l -2,2 z m -3,4 h 10 v 2 H 75 Z m 5,4 2,2 h -4 z"
         style="opacity:1;fill:#e1e1e1;fill-opacity:1;stroke:none"
         inkscape:connector-curvature="0"
         class="ColorScheme-Text" />
    </g>
    <g
       id="restore">
      <rect
         style="opacity:1;fill:none;fill-opacity:1;stroke:none"
         id="rect4414"
         width="4.2333336"
         height="4.2333322"
         x="28.045841"
         y="254.13741" />
      <rect
         y="254.66658"
         x="28.575008"
         height="3.1749992"
         width="3.1750002"
         id="rect4416"
         style="opacity:1;fill:none;fill-opacity:1;stroke:none" />
      <path
         sodipodi:nodetypes="ccccccccccccc"
         id="path4418"
         d="m 29.633338,255.1958 0.529166,-0.52916 0.529167,0.52916 z m -1.058334,0.79375 v 0.52917 h 3.175 v -0.52917 z m 1.5875,1.85209 -0.529166,-0.52917 h 1.058333 z"
         style="opacity:1;fill:#e1e1e1;fill-opacity:1;stroke:none"
         inkscape:connector-curvature="0"
         class="ColorScheme-Text" />
    </g>
    <g
       id="help">
      <rect
         y="258.89993"
         x="-0.52916676"
         height="4.2333322"
         width="4.2333336"
         id="rect4420"
         style="opacity:1;fill:none;fill-opacity:1;stroke:none" />
      <rect
         style="opacity:1;fill:none;fill-opacity:1;stroke:none"
         id="rect4422"
         width="3.1750002"
         height="3.1749992"
         x="8.4756147e-07"
         y="259.42911" />
      <path
         inkscape:connector-curvature="0"
         style="opacity:1;fill:#e1e1e1;fill-opacity:1;stroke:none;stroke-opacity:1"
         d="M 1.5875009,259.42911 A 1.5875,1.5875001 0 0 0 9.929289e-7,261.01661 1.5875,1.5875001 0 0 0 1.5875009,262.60411 a 1.5875,1.5875001 0 0 0 1.5875,-1.5875 1.5875,1.5875001 0 0 0 -1.5875,-1.5875 z M 9.929289e-7,259.69369 v 0.52917 L 0.52916759,259.69369 Z m 1.5874999070711,0 a 1.3229166,1.3229167 0 0 1 0.6325195,0.16123 l -0.4025594,0.40256 a 0.79374998,0.79375003 0 0 0 -0.2299601,-0.0346 0.79374998,0.79375003 0 0 0 -0.2299601,0.0346 l -0.40152591,-0.40153 a 1.3229166,1.3229167 0 0 1 0.63148601,-0.16226 z m 1.0583333,0 0.5291667,0.52917 v -0.52917 z m -2.22001941,0.6904 0.4025594,0.40256 a 0.79374998,0.79375003 0 0 0 -0.034623,0.22996 0.79374998,0.79375003 0 0 0 0.034623,0.22996 l -0.4015259,0.40152 a 1.3229166,1.3229167 0 0 1 -0.162264,-0.63148 1.3229166,1.3229167 0 0 1 0.1612305,-0.63252 z m 2.32233881,10e-4 a 1.3229166,1.3229167 0 0 1 0.1622639,0.63149 1.3229166,1.3229167 0 0 1 -0.1612304,0.63252 l -0.4025593,-0.40253 a 0.79374998,0.79375003 0 0 0 0.034623,-0.22996 0.79374998,0.79375003 0 0 0 -0.034623,-0.22996 l 0.4015258,-0.40153 z m -1.1606527,0.10232 a 0.52916665,0.52916669 0 0 1 0.5291667,0.52917 0.52916665,0.52916669 0 0 1 -0.5291667,0.52916 0.52916665,0.52916669 0 0 1 -0.5291667,-0.52916 0.52916665,0.52916669 0 0 1 0.5291667,-0.52917 z m -0.2299601,1.28829 a 0.79374998,0.79375003 0 0 0 0.2299601,0.0346 0.79374998,0.79375003 0 0 0 0.2299601,-0.0346 l 0.4015259,0.40153 a 1.3229166,1.3229167 0 0 1 -0.631486,0.16226 1.3229166,1.3229167 0 0 1 -0.63251951,-0.16123 z M 9.929289e-7,261.8103 v 0.52916 H 0.52916759 Z m 3.1749999070711,0 -0.5291667,0.52916 h 0.5291667 z"
         id="path59"
         class="ColorScheme-Text" />
    </g>
    <g
       id="delete">
      <rect
         style="opacity:1;fill:none;fill-opacity:1;stroke:none"
         id="rect4456"
         width="4.2333336"
         height="4.2333322"
         x="4.2333331"
         y="258.89993" />
      <rect
         y="259.42911"
         x="4.7625008"
         height="3.1749992"
         width="3.1750002"
         id="rect4458"
         style="opacity:1;fill:none;fill-opacity:1;stroke:none" />
      <path
         id="rect4455"
         d="m 5.5562478,259.42911 v 0.52916 h 0.2645834 v -0.26458 h 1.0583333 v 0.26458 h 0.2645833 v -0.52916 H 6.8791645 5.8208312 Z m -0.7937499,0.79375 v 0.26458 h 0.5291666 v 1.85208 0.26459 h 2.1166667 v -0.26459 -1.85208 h 0.5291666 v -0.26458 z m 0.7937499,0.26458 h 1.5875 v 1.85208 h -1.5875 z"
         style="opacity:1;fill:#e1e1e1;fill-opacity:1;stroke:none;stroke-width:1;stroke-linecap:round;stroke-miterlimit:4;stroke-dasharray:none;stroke-opacity:1"
         inkscape:connector-curvature="0"
         class="ColorScheme-Text" />
    </g>
    <g
       id="add">
      <rect
         y="258.89993"
         x="8.9958324"
         height="4.2333322"
         width="4.2333336"
         id="rect4488"
         style="opacity:1;fill:none;fill-opacity:1;stroke:none" />
      <rect
         style="opacity:1;fill:none;fill-opacity:1;stroke:none"
         id="rect4490"
         width="3.1750002"
         height="3.1749992"
         x="9.5249996"
         y="259.42911" />
      <path
         style="opacity:1;fill:#e1e1e1;fill-opacity:1;stroke:none"
         d="m 43,38 v 5 h -5 v 2 h 5 v 5 h 2 v -5 h 5 v -2 h -5 v -5 z"
         transform="matrix(0.26458333,0,0,0.26458333,-0.52916771,249.37493)"
         id="rect4498"
         class="ColorScheme-Text" />
    </g>
    <g
       id="remove">
      <rect
         style="opacity:1;fill:none;fill-opacity:1;stroke:none"
         id="rect4502"
         width="4.2333336"
         height="4.2333322"
         x="13.758328"
         y="258.89993" />
      <rect
         y="259.42911"
         x="14.287497"
         height="3.1749992"
         width="3.1750002"
         id="rect4504"
         style="opacity:1;fill:none;fill-opacity:1;stroke:none" />
      <rect
         y="-17.462498"
         x="260.75204"
         height="3.175"
         width="0.5291667"
         id="rect4508"
         style="opacity:1;fill:#e1e1e1;fill-opacity:1;stroke:none"
         transform="rotate(90)"
         class="ColorScheme-Text" />
    </g>
    <g
       id="filter">
      <rect
         y="258.89993"
         x="18.520828"
         height="4.2333322"
         width="4.2333336"
         id="rect4527"
         style="opacity:1;fill:none;fill-opacity:1;stroke:none" />
      <rect
         style="opacity:1;fill:none;fill-opacity:1;stroke:none"
         id="rect4529"
         width="3.1750002"
         height="3.1749992"
         x="19.049997"
         y="259.42911" />
      <path
         id="path4545"
         transform="matrix(0.26458333,0,0,0.26458334,-0.52916771,249.37497)"
         d="m 76,38 -1,1 v 1 l 3,5.259766 V 48 48.002 l 3,1.996094 v 0.002 h 1 V 49.461032 45.25986 L 85,40 v -1 l -1,-1 z m 0,1 h 8 v 0.734375 l -3,5.263672 v 0.002 1 2.794922 L 79,47.464844 V 45 44.998 l -3,-5.263672 z m 1,1 2,2 v -1 l 1,-1 z"
         style="fill:#e1e1e1;fill-opacity:1;fill-rule:evenodd;stroke:none;stroke-width:0.264583px;stroke-linecap:butt;stroke-linejoin:miter;stroke-opacity:1"
         inkscape:connector-curvature="0"
         class="ColorScheme-Text" />
    </g>
    <g
       id="showbackground">
      <g
         id="g942">
        <rect
           class="ColorScheme-Background  ColorScheme-Text"
           ry="0.12427091"
           y="259.69373"
           x="28.574997"
           height="2.6458437"
           width="2.6458342"
           id="rect929"
           style="opacity:0.35;fill:#e5e9ef;fill-opacity:1" />
        <rect
           y="258.89993"
           x="27.858765"
           height="4.2333322"
           width="4.2333336"
           id="rect908"
           style="opacity:1;fill:none;fill-opacity:1;stroke:none" />
        <path
           inkscape:connector-curvature="0"
           class="ColorScheme-Text"
           style="opacity:1;fill:#e1e1e1;fill-opacity:1"
           d="m 110,38 c -0.55407,0 -1,0.445928 -1,1 v 10 c 0,0.554072 0.44593,1 1,1 h 10 c 0.55407,0 1,-0.445928 1,-1 V 39 c 0,-0.554072 -0.44593,-1 -1,-1 z m 0.46875,1 h 9.0625 C 119.79146,39 120,39.210497 120,39.470703 V 48.53125 C 120,48.791456 119.79146,49 119.53125,49 h -9.0625 C 110.20854,49 110,48.791456 110,48.53125 V 39.470703 C 110,39.210497 110.20854,39 110.46875,39 Z"
           transform="matrix(0.26458332,0,0,0.26458332,-0.5291667,249.37493)"
           id="rect910" />
        <g
           aria-label="a"
           transform="scale(0.92487808,1.0812236)"
           id="text927">
          <path
             class="ColorScheme-Text"
             d="m 32.390856,240.67151 c 0.173043,0 0.30106,0.038 0.38405,0.11389 0.08299,0.0759 0.124486,0.19688 0.124486,0.36286 v 0.99379 H 32.72988 l -0.04503,-0.22834 h -0.01059 c -0.0618,0.0777 -0.127133,0.13508 -0.195998,0.17216 -0.06886,0.0371 -0.162449,0.0556 -0.280754,0.0556 -0.1289,0 -0.235727,-0.0335 -0.320483,-0.10065 -0.08476,-0.0689 -0.122393,-0.17569 -0.122393,-0.32048 0,-0.14126 0.05088,-0.28618 0.162122,-0.3621 0.111242,-0.0777 0.282519,-0.11816 0.513833,-0.12522 l 0.241024,-0.008 v -0.0504 c 0,-0.11831 -0.0256,-0.20042 -0.07681,-0.24633 -0.05121,-0.0459 -0.123603,-0.0689 -0.217187,-0.0689 -0.07416,0 -0.144791,0.0115 -0.211889,0.0344 -0.0671,0.0212 -0.129783,0.0459 -0.188052,0.0742 l -0.07151,-0.17481 c 0.0618,-0.0335 0.135078,-0.0618 0.219835,-0.0848 0.08476,-0.0247 0.173043,-0.0371 0.264862,-0.0371 z m 0.278106,0.73618 -0.209242,0.008 c -0.176575,0.007 -0.299294,0.0334 -0.368158,0.0829 -0.0671,0.0495 -0.100647,0.1345 -0.100647,0.22453 0,0.0795 0.02384,0.13773 0.07151,0.17481 0.04944,0.0371 0.112124,0.0556 0.188052,0.0556 0.118305,0 0.217187,-0.0327 0.296646,-0.098 0.08122,-0.0671 0.121837,-0.16951 0.121837,-0.30724 z"
             style="fill:#e1e1e1;fill-opacity:1"
             id="path934"
             inkscape:connector-curvature="0"
             sodipodi:nodetypes="ccscccccscscccscscccccccccscsccc" />
        </g>
      </g>
    </g>
    <g
       id="close">
      <g
         id="g968">
        <rect
           y="258.89993"
           x="23.283339"
           height="4.2333322"
           width="4.2333336"
           id="rect4253"
           style="opacity:1;fill:none;fill-opacity:1;stroke:none" />
        <rect
           style="opacity:1;fill:none;fill-opacity:1;stroke:none"
           id="rect4255"
           width="3.1750002"
           height="3.1749992"
           x="23.812508"
           y="259.42911" />
      </g>
      <path
         d="m 23.81316,259.42919 h 0.396716 c 0.0041,-5e-5 0.0082,-1.8e-4 0.0124,0 0.101142,0.004 0.202273,0.051 0.272742,0.12402 l 0.904986,0.90535 0.917404,-0.90535 c 0.105376,-0.0915 0.177201,-0.12124 0.272742,-0.12402 h 0.396715 v 0.39687 c 0,0.1137 -0.01362,0.21854 -0.09918,0.29766 l -0.904987,0.90535 0.892609,0.89296 c 0.07466,0.0747 0.111572,0.17997 0.111576,0.28526 v 0.39687 h -0.396715 c -0.105249,0 -0.210493,-0.0369 -0.285139,-0.11162 l -0.904987,-0.90535 -0.904987,0.90535 c -0.07465,0.0747 -0.179894,0.11162 -0.285139,0.11162 H 23.8132 v -0.39687 c -10e-7,-0.10529 0.03692,-0.21058 0.111576,-0.28526 l 0.904987,-0.89296 -0.904987,-0.90535 c -0.0836,-0.0772 -0.120268,-0.18623 -0.111576,-0.29766 z"
         id="path124"
         style="fill:#e1e1e1;fill-opacity:1;stroke-width:0.396795"
         class="ColorScheme-Text" />
    </g>
    <g
       id="configure">
      <rect
         style="fill:none;fill-opacity:1;stroke:none"
         id="rect4156"
         width="4.2333336"
         height="4.2333322"
         x="4.2333336"
         y="249.37497" />
      <path
         fill-rule="evenodd"
         clip-rule="evenodd"
         d="m 7.9849716,250.96628 c 0.0019,0 0.0036,-0.001 0.0056,-0.001 0.267099,0.0264 0.476195,0.25172 0.476195,0.52592 0,0.27475 -0.209352,0.50052 -0.477493,0.52648 -3.7e-4,10e-4 -0.0012,0.002 -0.0017,0.004 -0.0019,-1.3e-4 -0.0035,-0.001 -0.0056,-0.001 -0.06742,0 -0.142545,0.012 -0.17045,0.0794 -0.02791,0.0676 0.01162,0.12644 0.0633,0.17796 0.0018,0.002 0.0042,0.003 0.0061,0.004 0.16897,0.20769 0.159404,0.51224 -0.03424,0.70585 -0.193462,0.19347 -0.498354,0.2033 -0.706161,0.0345 -0.0031,0.002 -0.0065,0.002 -0.0096,0.004 -0.0013,-0.002 -0.0019,-0.004 -0.0035,-0.005 -0.04786,-0.0477 -0.109166,-0.0924 -0.176668,-0.0642 -0.06762,0.0279 -0.08105,0.0974 -0.08105,0.17049 0,0.007 0.0018,0.0125 0.0039,0.0185 -0.03327,0.26037 -0.25412,0.46212 -0.523683,0.46212 -0.274399,0 -0.4999,-0.20885 -0.526582,-0.4762 -0.0029,-0.001 -0.0054,-0.003 -0.0084,-0.004 1.32e-4,-10e-4 6.88e-4,-0.002 6.88e-4,-0.004 0,-0.0674 -0.01195,-0.14234 -0.07939,-0.17023 -0.0675,-0.028 -0.12648,0.0116 -0.178083,0.0633 -0.0031,0.003 -0.0046,0.007 -0.0068,0.0106 -0.20755,0.16247 -0.507143,0.15124 -0.698082,-0.0398 -0.193916,-0.19386 -0.203416,-0.49906 -0.03365,-0.70689 -0.0018,-0.004 -0.0028,-0.007 -0.0043,-0.0114 0.04768,-0.0477 0.09218,-0.109 0.06421,-0.17641 -0.02804,-0.0674 -0.09766,-0.0811 -0.170723,-0.0811 -0.0048,0 -0.009,0.002 -0.0135,0.003 -0.260247,-0.0331 -0.461976,-0.2543 -0.461976,-0.52349 0,-0.27537 0.210328,-0.50119 0.479164,-0.52644 7.93e-4,-0.002 0.0022,-0.005 0.0032,-0.007 0.06647,-5.9e-4 0.139138,-0.013 0.166531,-0.0793 0.02791,-0.0673 -0.01137,-0.12593 -0.06291,-0.17746 -0.16931,-0.20755 -0.15981,-0.51251 0.03397,-0.70624 0.194487,-0.19457 0.501645,-0.20355 0.709451,-0.0317 0.0022,-0.001 0.0045,-0.002 0.0067,-0.003 0.04729,0.0466 0.107488,0.0888 0.173568,0.0615 0.0675,-0.028 0.08107,-0.0977 0.08107,-0.17062 0,-2.5e-4 -1.32e-4,-3.8e-4 -1.32e-4,-7e-4 0.0268,-0.26716 0.25172,-0.47575 0.525987,-0.47575 0.275888,0 0.502042,0.21092 0.526714,0.48021 5.82e-4,1.9e-4 9e-4,6.6e-4 0.0014,7.8e-4 0,0.0158 8.47e-4,0.0321 0.0028,0.0481 h -0.0019 c 0,0.073 -0.05917,0.13231 -0.132293,0.13231 -0.07293,0 -0.13216,-0.0594 -0.13216,-0.13231 0,-0.14616 -0.118534,-0.26453 -0.264651,-0.26453 -0.146183,0 -0.264585,0.11837 -0.264585,0.26453 v 0.13231 l -8.46e-4,0.001 c 0.0024,0.0875 -0.05322,0.16907 -0.141008,0.19516 -0.0021,6.5e-4 -0.0044,6.5e-4 -0.0065,0.001 l -0.0015,0.002 c -0.06188,0.0208 -0.121962,0.0456 -0.179583,0.0748 l -0.0038,-5.8e-4 c -0.0022,0.001 -0.0041,0.003 -0.0063,0.004 -0.08559,0.0463 -0.189972,0.0231 -0.248751,-0.0503 l -0.08249,-0.0824 c -0.103419,-0.10333 -0.270976,-0.10333 -0.374206,0 -0.103279,0.10333 -0.103279,0.27086 0,0.37405 l 0.09353,0.0936 5.82e-4,0.004 c 0.06188,0.0605 0.07972,0.15603 0.0365,0.23584 -6.88e-4,0.001 -0.0017,0.002 -0.0024,0.003 l 6.88e-4,0.004 c -0.02881,0.0577 -0.054,0.11773 -0.07467,0.17973 l -0.004,0.003 c -6.61e-4,0.002 -7.93e-4,0.005 -0.0014,0.007 -0.0281,0.0944 -0.120271,0.1515 -0.214711,0.13975 h -0.11192 c -0.146183,0 -0.264643,0.1185 -0.264643,0.26451 0,0.14598 0.11846,0.26455 0.264643,0.26455 h 0.13216 l 0.0039,0.003 c 0.08559,-1.3e-4 0.164844,0.0548 0.19055,0.14092 2.54e-4,7.8e-4 2.54e-4,0.002 3.71e-4,0.002 l 0.0049,0.004 c 0.0208,0.0619 0.04573,0.12193 0.0748,0.17952 l -0.0012,0.008 c 9e-4,0.002 0.002,0.003 0.0028,0.004 0.04632,0.0855 0.02313,0.18986 -0.05025,0.24861 l -0.08035,0.0805 c -0.103279,0.1032 -0.103279,0.27073 0,0.37405 0.103222,0.10319 0.270787,0.10319 0.374206,0 l 0.0936,-0.0935 0.0039,-6.6e-4 c 0.06033,-0.0602 0.154889,-0.0771 0.233761,-0.0345 5.82e-4,2.7e-4 8.46e-4,8e-4 0.0014,0.001 l 0.0085,-0.001 c 0.05769,0.0288 0.117757,0.054 0.179769,0.0747 l 0.0053,0.007 c 8.46e-4,2.7e-4 0.0019,2.7e-4 0.0027,6.6e-4 0.08643,0.0256 0.141263,0.10514 0.141007,0.19102 l 8.47e-4,0.001 v 0.13237 c 0,0.14608 0.118401,0.26452 0.264585,0.26452 0.146117,0 0.264651,-0.11844 0.264651,-0.26452 v -0.13238 l 8.46e-4,-0.001 c -2.54e-4,-0.0859 0.05459,-0.16533 0.141016,-0.19103 9.79e-4,-3.7e-4 0.0018,-3.7e-4 0.0028,-6.6e-4 l 0.0052,-0.007 c 0.06188,-0.0208 0.12189,-0.0456 0.179562,-0.0748 l 0.0087,10e-4 c 5.03e-4,-2.5e-4 8.47e-4,-7.9e-4 0.0013,-10e-4 0.07887,-0.0426 0.173444,-0.0257 0.23377,0.0345 l 0.0039,6.7e-4 0.0936,0.0935 c 0.103222,0.10319 0.270787,0.10319 0.374206,0 0.103288,-0.10333 0.103288,-0.27085 0,-0.37405 l -0.08043,-0.0805 c -0.07336,-0.0588 -0.09649,-0.1631 -0.05017,-0.24861 8.47e-4,-0.002 0.0019,-0.003 0.0028,-0.004 l -0.0013,-0.009 c 0.02881,-0.0576 0.0542,-0.11688 0.07467,-0.17861 l 0.0052,-0.004 c 1.94e-4,-7.8e-4 3.17e-4,-0.001 4.76e-4,-0.002 0.02565,-0.0862 0.104842,-0.14091 0.190427,-0.14091 l 0.0039,-0.003 h 0.132342 c 0.146183,0 0.264585,-0.11856 0.264585,-0.26455 0,-0.14601 -0.118402,-0.26452 -0.264585,-0.26452 h -0.111994 c -0.09457,0.0118 -0.186615,-0.0453 -0.214653,-0.13973 -6.88e-4,-0.002 -8.47e-4,-0.005 -0.0014,-0.007 l -0.0039,-0.003 c -0.02074,-0.0619 -0.04574,-0.12193 -0.07474,-0.17941 l 6.88e-4,-0.005 c -6.88e-4,-0.001 -0.0017,-0.002 -0.0024,-0.003 -0.04322,-0.0798 -0.02538,-0.17541 0.03643,-0.23585 l 5.82e-4,-0.004 0.0936,-0.0936 c 0.103287,-0.10319 0.103287,-0.27071 0,-0.37404 -0.0491,-0.0489 -0.120924,-0.0769 -0.185193,-0.0795 -0.07312,0 -0.132359,-0.0592 -0.132359,-0.13226 0,-0.0731 0.05923,-0.13225 0.132359,-0.13225 0.0095,0 0.01867,8.9e-4 0.02765,0.003 0.124413,0.008 0.249859,0.0592 0.344556,0.15401 0.194354,0.19426 0.203589,0.50063 0.03256,0.70837 6.88e-4,0.001 8.47e-4,0.003 0.0015,0.004 -6.88e-4,5.7e-4 -0.0014,7e-4 -0.0021,0.001 -0.04773,0.0478 -0.09237,0.10914 -0.0644,0.17676 0.02788,0.0675 0.09757,0.0811 0.170557,0.0811 z m -0.907237,-0.6657 c -0.07312,0 -0.132292,-0.0593 -0.132292,-0.13232 0,-0.0729 0.05917,-0.13213 0.132292,-0.13213 0.07293,0 0.132161,0.0592 0.132161,0.13213 0,0.0731 -0.05923,0.13232 -0.132161,0.13232 z m -1.190673,1.521 c 0.07312,0 0.132358,0.0592 0.132358,0.13225 0,0.0731 -0.05923,0.13226 -0.132358,0.13226 -0.07306,0 -0.132293,-0.0592 -0.132293,-0.13226 0,-0.0731 0.05923,-0.13225 0.132293,-0.13225 z m -0.330657,-0.33068 c 0,-0.43823 0.355396,-0.79354 0.793672,-0.79354 0.438351,0 0.793738,0.35531 0.793738,0.79354 0,0.43827 -0.355387,0.79357 -0.793738,0.79357 -0.07306,0 -0.132292,-0.0593 -0.132292,-0.13226 0,-0.073 0.05923,-0.13237 0.132292,-0.13237 0.2923,0 0.529104,-0.23675 0.529104,-0.52894 0,-0.29215 -0.236812,-0.52896 -0.529104,-0.52896 -0.292226,0 -0.529227,0.2368 -0.529227,0.52896 0,0.0732 -0.05924,0.13229 -0.132161,0.13229 -0.07312,0 -0.132284,-0.0592 -0.132284,-0.13229 z"
         id="path2-3-6"
         style="fill:#eceff4;fill-opacity:1;stroke-width:0.00826719" />
    </g>
    <g
       id="menu">
      <rect
         y="249.37497"
         x="-0.52916771"
         height="4.2333322"
         width="4.2333336"
         id="rect4152"
         style="fill:none;fill-opacity:1;stroke:none" />
      <path
         d="m -0.13229272,252.54998 c 0,-0.1462 0.1183884,-0.26458 0.2645838,-0.26458 0.1460739,0 0.2645839,0.11838 0.2645839,0.26458 0,0.14606 -0.11851,0.26456 -0.2645839,0.26456 -0.1461954,0 -0.2645838,-0.1185 -0.2645838,-0.26456 z"
         id="path72-3"
         style="color:#e5e9ef;fill:#eceff4;fill-opacity:1;stroke-width:0.00314981"
         class="ColorScheme-Text" />
      <path
         d="M 3.0427084,252.28537 H 0.9260418 c -0.14964121,0 -0.26458333,0.11854 -0.26458333,0.26459 0,0.14605 0.11494227,0.26458 0.26458333,0.26458 h 2.1166666 c 0.1385929,0 0.2645833,-0.11853 0.2645833,-0.26458 0,-0.14605 -0.1149414,-0.26459 -0.2645833,-0.26459 z"
         id="path2655-5-5"
         style="fill:#eceff4;fill-opacity:1;stroke-width:0.103208"
         sodipodi:nodetypes="sssssss" />
      <path
         d="m -0.13229242,250.43332 c 0,-0.1462 0.118388,-0.26458 0.2645837,-0.26458 0.1460739,0 0.2645839,0.11838 0.2645839,0.26458 0,0.14606 -0.11851,0.26456 -0.2645839,0.26456 -0.1461957,0 -0.2645837,-0.1185 -0.2645837,-0.26456 z"
         id="path72-3-6"
         style="color:#e5e9ef;fill:#eceff4;fill-opacity:1;stroke-width:0.00314981"
         class="ColorScheme-Text" />
      <path
         d="m -0.13229272,251.49165 c 0,-0.1462 0.1183884,-0.26458 0.2645838,-0.26458 0.1460739,0 0.2645839,0.11838 0.2645839,0.26458 0,0.14606 -0.11851,0.26456 -0.2645839,0.26456 -0.1461954,0 -0.2645838,-0.1185 -0.2645838,-0.26456 z"
         id="path72-3-2"
         style="color:#e5e9ef;fill:#eceff4;fill-opacity:1;stroke-width:0.00314981"
         class="ColorScheme-Text" />
      <path
         d="M 3.0427084,251.22704 H 0.92604184 c -0.1496412,0 -0.2645833,0.11854 -0.2645833,0.26459 0,0.14605 0.1149423,0.26458 0.2645833,0.26458 H 3.0427084 c 0.1385929,0 0.2645833,-0.11853 0.2645833,-0.26458 0,-0.14605 -0.1149414,-0.26459 -0.2645833,-0.26459 z"
         id="path2655-5-5-9"
         style="fill:#eceff4;fill-opacity:1;stroke-width:0.103208"
         sodipodi:nodetypes="sssssss" />
      <path
         d="M 3.0427084,250.16871 H 0.92604189 c -0.1496412,0 -0.2645833,0.11854 -0.2645833,0.26459 0,0.14605 0.1149423,0.26458 0.2645833,0.26458 H 3.0427084 c 0.1385929,0 0.2645833,-0.11853 0.2645833,-0.26458 0,-0.14605 -0.1149414,-0.26459 -0.2645833,-0.26459 z"
         id="path2655-5-5-9-1"
         style="fill:#eceff4;fill-opacity:1;stroke-width:0.103208"
         sodipodi:nodetypes="sssssss" />
    </g>
  </g>
</svg>
