<?xml version="1.0" encoding="UTF-8" standalone="no"?>
<svg
   id="svg2"
   height="64"
   width="64"
   sodipodi:version="0.32"
   inkscape:version="1.2.2 (b0a8486541, 2022-12-01)"
   sodipodi:docname="lineedit.svg"
   inkscape:output_extension="org.inkscape.output.svgz.inkscape"
   inkscape:export-filename="/home/pinheiro/Documents/pics/estilo/plasma/wether.png"
   inkscape:export-xdpi="90"
   inkscape:export-ydpi="90"
   version="1.1"
   xmlns:inkscape="http://www.inkscape.org/namespaces/inkscape"
   xmlns:sodipodi="http://sodipodi.sourceforge.net/DTD/sodipodi-0.dtd"
   xmlns="http://www.w3.org/2000/svg"
   xmlns:svg="http://www.w3.org/2000/svg">
  <defs
     id="defs87">hover-hint-top-margin&quot;
       width=&quot;2&quot;
       height=&quot;0.001&quot;
       x=&quot;-58&quot;
       y=&quot;39.999001&quot; /&gt;hover-hint-bottom-margin&quot;
       width=&quot;2&quot;
       height=&quot;0.001&quot;
       x=&quot;-58&quot;
       y=&quot;70&quot; /&gt;hover-hint-left-margin&quot;
       width=&quot;2&quot;
       height=&quot;0.001&quot;
       x=&quot;-56&quot;
       y=&quot;-98.000999&quot;
       transform=&quot;rotate(-90)&quot; /&gt;hover-hint-right-margin&quot;
       width=&quot;2&quot;
       height=&quot;0.001&quot;
       x=&quot;-56&quot;
       y=&quot;-18&quot;
       transform=&quot;rotate(-90)&quot; /&gt;focus-hint-top-margin&quot;
       width=&quot;2&quot;
       height=&quot;0.001&quot;
       x=&quot;-58&quot;
       y=&quot;79.999001&quot; /&gt;focus-hint-bottom-margin&quot;
       width=&quot;2&quot;
       height=&quot;0.001&quot;
       x=&quot;-58&quot;
       y=&quot;110&quot; /&gt;focus-hint-left-margin&quot;
       width=&quot;2&quot;
       height=&quot;0.001&quot;
       x=&quot;-96&quot;
       y=&quot;-98.000999&quot;
       transform=&quot;rotate(-90)&quot; /&gt;focus-hint-right-margin&quot;
       width=&quot;2&quot;
       height=&quot;0.001&quot;
       x=&quot;-96&quot;
       y=&quot;-18&quot;
       transform=&quot;rotate(-90)&quot; /&gt;hover-hint-top-margin&quot;
       width=&quot;2&quot;
       height=&quot;0.001&quot;
       x=&quot;-58&quot;
       y=&quot;39.999001&quot; /&gt;hover-hint-bottom-margin&quot;
       width=&quot;2&quot;
       height=&quot;0.001&quot;
       x=&quot;-58&quot;
       y=&quot;70&quot; /&gt;hover-hint-left-margin&quot;
       width=&quot;2&quot;
       height=&quot;0.001&quot;
       x=&quot;-56&quot;
       y=&quot;-98.000999&quot;
       transform=&quot;rotate(-90)&quot; /&gt;hover-hint-right-margin&quot;
       width=&quot;2&quot;
       height=&quot;0.001&quot;
       x=&quot;-56&quot;
       y=&quot;-18&quot;
       transform=&quot;rotate(-90)&quot; /&gt;focus-hint-top-margin&quot;
       width=&quot;2&quot;
       height=&quot;0.001&quot;
       x=&quot;-58&quot;
       y=&quot;79.999001&quot; /&gt;focus-hint-bottom-margin&quot;
       width=&quot;2&quot;
       height=&quot;0.001&quot;
       x=&quot;-58&quot;
       y=&quot;110&quot; /&gt;focus-hint-left-margin&quot;
       width=&quot;2&quot;
       height=&quot;0.001&quot;
       x=&quot;-96&quot;
       y=&quot;-98.000999&quot;
       transform=&quot;rotate(-90)&quot; /&gt;focus-hint-right-margin&quot;
       width=&quot;2&quot;
       height=&quot;0.001&quot;
       x=&quot;-96&quot;
       y=&quot;-18&quot;
       transform=&quot;rotate(-90)&quot; /&gt;</defs>
  <sodipodi:namedview
     id="namedview85"
     pagecolor="#282d38"
     bordercolor="#5e81ac"
     borderopacity="1"
     objecttolerance="10.0"
     gridtolerance="10.0"
     guidetolerance="10.0"
     inkscape:pageshadow="2"
     inkscape:pageopacity="1"
     inkscape:pagecheckerboard="true"
     showgrid="false"
     inkscape:current-layer="svg2"
     inkscape:blackoutopacity="0.0"
     inkscape:showpageshadow="false"
     inkscape:deskcolor="#282d38"
     inkscape:zoom="2.3811466"
     inkscape:cx="-8.3993149"
     inkscape:cy="87.562857"
     inkscape:window-width="1920"
     inkscape:window-height="998"
     inkscape:window-x="0"
     inkscape:window-y="0"
     inkscape:window-maximized="1"
     showguides="false">
    <inkscape:grid
       type="xygrid"
       id="grid926"
       originx="-47"
       originy="-1.999968" />
  </sodipodi:namedview>
  <style
     id="current-color-scheme"
     type="text/css">.ColorScheme-Text { color:#31363b;        stop-color:#31363b; }
.ColorScheme-Background { color:#eff0f1;        stop-color:#eff0f1; }
.ColorScheme-Highlight { color:#3daee9;        stop-color:#3daee9; }
.ColorScheme-ViewText { color:#31363b;        stop-color:#31363b; }
.ColorScheme-ViewBackground { color:#fcfcfc;        stop-color:#fcfcfc; }
.ColorScheme-ViewHover { color:#93cee9;        stop-color:#93cee9; }
.ColorScheme-ViewFocus { color:#3daee9;        stop-color:#3daee9; }
.ColorScheme-ButtonText { color:#31363b;        stop-color:#31363b; }
.ColorScheme-ButtonBackground { color:#eff0f1;        stop-color:#eff0f1; }
.ColorScheme-ButtonHover { color:#93cee9;        stop-color:#93cee9; }
.ColorScheme-ButtonFocus { color:#3daee9;        stop-color:#3daee9; }
</style>
  <rect
     id="hint-focus-over-base"
     height="2.077126"
     rx="2.077126"
     style="opacity:0.01;fill:#7e36f4;fill-opacity:1;fill-rule:nonzero"
     width="2.0329318"
     x="-30.032932"
     y="-6.9999681" />
  <rect
     id="base-hint-left-margin"
     height="1.9999999"
     style="opacity:0.01;fill:#7e36f4;fill-opacity:1;fill-rule:nonzero"
     width="9"
     x="-145"
     y="12.000032" />
  <rect
     id="base-hint-right-margin"
     height="2"
     style="opacity:0.01;fill:#7e36f4;fill-opacity:1;fill-rule:nonzero"
     width="9"
     x="-71"
     y="12.000032" />
  <rect
     id="base-hint-bottom-margin"
     height="6"
     style="opacity:0.01;fill:#7e36f4;fill-opacity:1;fill-rule:nonzero;stroke-width:0.999997"
     x="-105"
     y="22.000008"
     width="2" />
  <rect
     id="base-hint-top-margin"
     height="6"
     style="opacity:0.01;fill:#7e36f4;fill-opacity:1;fill-rule:nonzero;stroke-width:0.999997"
     width="2"
     x="-105"
     y="-1.9999681" />
  <rect
     id="hover-hint-left-margin"
     height="1.9999999"
     style="opacity:0.01;fill:#7e36f4;fill-opacity:1;fill-rule:nonzero"
     width="0.1"
     x="-145.00101"
     y="67.000031" />
  <rect
     id="hover-hint-right-margin"
     height="2"
     style="opacity:0.01;fill:#7e36f4;fill-opacity:1;fill-rule:nonzero"
     width="0.1"
     x="-71.000999"
     y="67.000031" />
  <rect
     id="hover-hint-bottom-margin"
     height="0.1"
     style="opacity:0.01;fill:#7e36f4;fill-opacity:1;fill-rule:nonzero"
     x="-105.001"
     y="77.000031"
     width="2" />
  <rect
     id="hover-hint-top-margin"
     height="0.1"
     style="opacity:0.01;fill:#7e36f4;fill-opacity:1;fill-rule:nonzero"
     width="2"
     x="-105.001"
     y="53.000031" />
  <rect
     id="focus-hint-left-margin"
     height="1.9999999"
     style="opacity:0.01;fill:#7e36f4;fill-opacity:1;fill-rule:nonzero"
     width="0.1"
     x="-142"
     y="125.00003" />
  <rect
     id="focus-hint-right-margin"
     height="2"
     style="opacity:0.01;fill:#7e36f4;fill-opacity:1;fill-rule:nonzero"
     width="0.1"
     x="67.900002"
     y="125.00003"
     transform="scale(-1,1)" />
  <rect
     id="focus-hint-bottom-margin"
     height="0.1"
     style="opacity:0.01;fill:#7e36f4;fill-opacity:1;fill-rule:nonzero"
     x="-102"
     y="135.00003"
     width="2" />
  <rect
     id="focus-hint-top-margin"
     height="0.1"
     style="opacity:0.01;fill:#7e36f4;fill-opacity:1;fill-rule:nonzero"
     width="2"
     x="-102"
     y="111.00003" />
  <rect
     id="hint-stretch-borders"
     height="2.077126"
     rx="2.077126"
     style="opacity:0.01;fill:#7e36f4;fill-opacity:1;fill-rule:nonzero"
     width="2.0329318"
     x="-34.032932"
     y="-6.9999681" />
  <g
     id="base-right"
     transform="translate(-52,107.1)">
    <rect
       y="65.100014"
       x="106"
       height="20"
       width="0.99999994"
       id="rect986-2-3"
       style="color:#1e2431;fill:#22262f;fill-opacity:0.80000001;stroke-width:0.912892;stop-color:#1e2431"
       transform="scale(1,-1)" />
    <rect
       y="65.09996"
       x="94"
       height="20"
       width="12"
       id="rect4152-2-6"
       transform="scale(1,-1)"
       style="stop-color:#1e2431;stroke-width:1.11807;fill-opacity:0.05;fill:#5c89ba"
       class=" " />
    <rect
       y="65.09996"
       x="105"
       height="20"
       width="1"
       id="rect972-9-75"
       transform="scale(1,-1)"
       style="fill:#bfc4d9;fill-opacity:0.0509804;stroke-width:0.32275" />
  </g>
  <g
     id="base-topleft"
     transform="translate(-52,107.1)">
    <path
       id="path962"
       style="color:#1e2431;fill:#22262f;fill-opacity:0.80000001;stroke-width:1.02463;stop-color:#1e2431"
       d="M 72.97999,-98.099903 C 66.31939,-98.099552 61,-92.784981 61,-86.124558 v 1.024651 h 0.99999 v -1.024651 c 0,-5.975403 4.50431,-10.945612 10.98,-10.971346 l 1.02023,-0.0041 v -0.999998 z"
       sodipodi:nodetypes="ssccssccs" />
    <path
       d="m 73.03,-97.099958 c -6.48,0 -11.03,4.900003 -11.03,11.000006 v 0.999992 H 73.99994 L 74,-97.099958 Z"
       id="rect4159"
       style="stop-color:#1e2431;stroke-width:1;fill-opacity:0.05;fill:#5c89ba"
       sodipodi:nodetypes="sscccs" />
    <path
       id="path948-36"
       style="fill:#bfc4d9;fill-opacity:0.0509804;stroke-width:0.999981"
       d="m 73.1,-97.099958 c -6.7,0 -11.1,5.000002 -11.1,11.099995 v 0.900003 h 0.99996 v -0.900003 c 0,-5.586156 3.99719,-10.099992 10.10004,-10.099992 h 0.8996 v -1.000003 z"
       sodipodi:nodetypes="ssccssccs" />
  </g>
  <g
     id="base-center"
     transform="translate(-52,107.1)">
    <rect
       y="-85.099968"
       x="74"
       height="20"
       width="20.000002"
       id="center"
       style="stop-color:#1e2431;stroke-width:0.6875;fill-opacity:0.05;fill:#5c89ba" />
  </g>
  <g
     id="base-top"
     transform="translate(-52,107.1)">
    <rect
       y="-93.999969"
       x="85.09996"
       height="20"
       width="12"
       id="rect4152"
       transform="matrix(0,-1,-1,0,0,0)"
       style="stop-color:#1e2431;stroke-width:1.11803;fill-opacity:0.05;fill:#5c89ba" />
    <rect
       y="-94"
       x="96.09996"
       height="20"
       width="0.99999994"
       id="rect972"
       transform="matrix(0,-1,-1,0,0,0)"
       style="fill:#bfc4d9;fill-opacity:0.06;stroke-width:0.322747" />
    <rect
       y="-94"
       x="97.09996"
       height="20"
       width="1"
       id="rect986"
       style="color:#1e2431;fill:#22262f;fill-opacity:0.80000001;stroke-width:0.912895;stop-color:#1e2431"
       transform="matrix(0,-1,-1,0,0,0)" />
  </g>
  <g
     id="base-topright"
     transform="translate(-52,107.1)">
    <path
       id="path659"
       style="color:#1e2431;fill:#22262f;fill-opacity:0.80000001;stroke-width:1.02464;stop-color:#1e2431"
       d="m 107.00045,-86.1246 c 0,-6.660473 -5.32669,-11.975359 -11.98045,-11.975359 H 94 v 0.999999 h 1.02 c 6.38,0 10.98,5.000002 10.98,11.045487 v 0.954514 h 1.00045 z"
       sodipodi:nodetypes="ssccssccs" />
    <path
       d="m 106.00019,-86.099964 c 0,-5.999998 -4.5702,-10.999995 -11.0002,-10.999995 H 94 v 12.000003 h 12.00019 z"
       id="rect4159-3"
       style="stop-color:#1e2431;stroke-width:0.687505;fill-opacity:0.04;fill:#5c89ba"
       sodipodi:nodetypes="sscccs" />
    <path
       id="path948-5"
       style="fill:#bfc4d9;fill-opacity:0.0509804;stroke-width:1.00003"
       d="m 106.00018,-86.099957 c 0,-6.300003 -4.80018,-11.000002 -11.00019,-11.000002 H 94 l 2.2e-4,1.000001 h 0.99977 c 6.02826,0 10,4.5 10,10.100001 v 0.900001 h 1.00019 z"
       sodipodi:nodetypes="ssccssccs" />
  </g>
  <g
     id="base-left"
     transform="translate(-52,107.1)">
    <rect
       y="-85.09996"
       x="-62"
       height="19.999992"
       width="1"
       id="rect986-2-2"
       style="color:#1e2431;fill:#22262f;fill-opacity:0.80000001;stroke-width:0.912894;stop-color:#1e2431"
       transform="scale(-1,1)" />
    <rect
       y="-85.09996"
       x="-73.999939"
       height="19.999994"
       width="11.999944"
       id="rect4152-6"
       transform="scale(-1,1)"
       style="stop-color:#1e2431;stroke-width:1.11803;fill-opacity:0.05;fill:#5c89ba"
       class=" " />
    <rect
       y="-85.09996"
       x="-63"
       height="19.999994"
       width="1"
       id="rect972-7"
       transform="scale(-1,1)"
       style="fill:#bfc4d9;fill-opacity:0.0509804;stroke-width:0.322749" />
  </g>
  <g
     id="base-bottom"
     transform="translate(-52,107.1)">
    <rect
       y="74"
       x="-53.099968"
       height="20"
       width="1"
       id="rect986-5"
       style="color:#1e2431;fill:#22262f;fill-opacity:0.80000001;stroke-width:0.912919;stop-color:#1e2431"
       transform="matrix(0,1,1,0,0,0)" />
    <rect
       y="74"
       x="-65.09996"
       height="20"
       width="12"
       id="rect4152-2-2"
       transform="matrix(0,1,1,0,0,0)"
       style="stop-color:#1e2431;stroke-width:1.11806;fill-opacity:0.05;fill:#5c89ba"
       class=" " />
    <rect
       y="74"
       x="-54.099937"
       height="20"
       width="0.99999994"
       id="rect972-9-7"
       transform="matrix(0,1,1,0,0,0)"
       style="fill:#bfc4d9;fill-opacity:0.0509804;stroke-width:0.32275" />
  </g>
  <g
     id="base-bottomleft"
     transform="translate(-52,107.1)">
    <path
       id="path963"
       style="color:#1e2431;fill:#22262f;fill-opacity:0.80000001;stroke-width:1.02466;stop-color:#1e2431"
       d="M 72.97565,-52.09997 C 66.16367,-52.09997 61,-57.26357 61,-64.075322 v -1.024644 h 1 v 1.024644 c 0,6.244082 4.73137,10.975352 10.97565,10.975352 h 1.02466 v 1 z"
       sodipodi:nodetypes="ssccssccs" />
    <path
       d="m 62,-64.099969 c 0,6.200009 4.6,11.000009 11.0001,11.000009 h 1.00001 V -65.099961 H 62 Z"
       id="rect4159-9"
       style="stop-color:#1e2431;stroke-width:1;fill-opacity:0.05;fill:#5c89ba"
       class=" "
       sodipodi:nodetypes="sscccs" />
    <path
       id="path948-3"
       style="fill:#bfc4d9;fill-opacity:0.0509804;stroke-width:1"
       d="m 62,-64.399959 c 0,6.699999 4.80001,11.299999 11.00009,11.299999 h 1.00001 l -9e-5,-1 H 73 c -5.8281,0 -10,-4.30123 -10,-10.198207 v -0.801794 h -1 z"
       sodipodi:nodetypes="ssccssccs" />
  </g>
  <g
     id="base-bottomright"
     transform="translate(-52,107.1)">
    <path
       id="path987"
       style="color:#1e2431;fill:#22262f;fill-opacity:0.80000001;stroke-width:1.02464;stop-color:#1e2431"
       d="m 95.02464,-52.09997 c 6.81179,0 11.97541,-5.16364 11.97541,-11.975362 v -1.024637 H 106 v 1.024637 c 0,5.975362 -4.73126,10.975362 -10.97536,10.975362 H 94 v 1 z"
       sodipodi:nodetypes="ssccssccs" />
    <path
       d="m 95.00001,-53.09996 c 6.19999,0 11.00014,-4.8 11.00014,-10.999994 v -1.000004 H 94 v 11.999998 z"
       id="rect4159-6"
       style="stop-color:#1e2431;stroke-width:1.00001;fill-opacity:0.05;fill:#5c89ba"
       class=" "
       sodipodi:nodetypes="sscccs" />
    <path
       id="path948-1"
       style="fill:#bfc4d9;fill-opacity:0.0509804;stroke-width:1"
       d="m 95,-53.09996 c 6.1,0.002 11.00013,-4.85003 11.00013,-10.999994 v -1.000004 H 105 v 0.999997 c 0,5.200001 -4,10.000001 -10,10.000001 h -1 v 0.99966 z"
       sodipodi:nodetypes="ssccssccs" />
  </g>
  <g
     id="hover-right"
     transform="translate(-51,112.10003)">
    <rect
       y="4.1000609"
       x="106"
       height="20"
       width="0.99999994"
       id="rect986-2-3-6"
       style="color:#1e2431;fill:#22262f;fill-opacity:0.80000001;stroke-width:0.912892;stop-color:#1e2431"
       transform="scale(1,-1)" />
    <rect
       y="4.0999999"
       x="94"
       height="20"
       width="12"
       id="rect4152-2-6-7"
       transform="scale(1,-1)"
       style="stop-color:#1e2431;stroke-width:1.11807;fill-opacity:0.07;fill:#5c89ba"
       class=" " />
    <rect
       y="4.0999999"
       x="105"
       height="20"
       width="1"
       id="rect972-9-75-5"
       transform="scale(1,-1)"
       style="fill:#bfc4d9;fill-opacity:0.0509804;stroke-width:0.32275" />
  </g>
  <g
     id="hover-topleft"
     transform="translate(-51,112.10003)">
    <path
       id="path962-5"
       style="color:#1e2431;fill:#22262f;fill-opacity:0.80000001;stroke-width:1.02463;stop-color:#1e2431"
       d="M 72.97999,-37.09994 C 66.31939,-37.09959 61,-31.78502 61,-25.1246 v 1.02465 h 0.99999 v -1.02465 c 0,-5.9754 4.50431,-10.94561 10.98,-10.97134 l 1.02023,-0.004 v -1 z"
       sodipodi:nodetypes="ssccssccs" />
    <path
       d="M 73.03,-36.1 C 66.55,-36.1 62,-31.2 62,-25.09999 V -24.1 h 11.99994 l 6e-5,-12 z"
       id="rect4159-62"
       style="stop-color:#1e2431;stroke-width:1;fill-opacity:0.07;fill:#5c89ba"
       sodipodi:nodetypes="sscccs" />
    <path
       id="path948-36-9"
       style="fill:#bfc4d9;fill-opacity:0.0509804;stroke-width:0.999981"
       d="m 73.1,-36.1 c -6.7,0 -11.1,5 -11.1,11.1 v 0.9 h 0.99996 V -25 c 0,-5.58616 3.99719,-10.1 10.10004,-10.1 h 0.8996 v -1 z"
       sodipodi:nodetypes="ssccssccs" />
  </g>
  <g
     id="hover-center"
     transform="translate(-51,112.10003)">
    <rect
       y="-24.1"
       x="74"
       height="20"
       width="20.000002"
       id="center-2"
       style="stop-color:#1e2431;stroke-width:0.6875;fill-opacity:0.07058824;fill:#5c89ba" />
  </g>
  <g
     id="hover-top"
     transform="translate(-51,112.10003)">
    <rect
       y="-93.999969"
       x="24.1"
       height="20"
       width="12"
       id="rect4152-0"
       transform="matrix(0,-1,-1,0,0,0)"
       style="stop-color:#1e2431;stroke-width:1.11803;fill-opacity:0.07058824;fill:#5c89ba" />
    <rect
       y="-94"
       x="35.099998"
       height="20"
       width="0.99999994"
       id="rect972-9"
       transform="matrix(0,-1,-1,0,0,0)"
       style="fill:#bfc4d9;fill-opacity:0.06;stroke-width:0.322747" />
    <rect
       y="-94"
       x="36.099998"
       height="20"
       width="1"
       id="rect986-3"
       style="color:#1e2431;fill:#22262f;fill-opacity:0.80000001;stroke-width:0.912895;stop-color:#1e2431"
       transform="matrix(0,-1,-1,0,0,0)" />
  </g>
  <g
     id="hover-topright"
     transform="translate(-51,112.10003)">
    <path
       id="path659-0"
       style="color:#1e2431;fill:#22262f;fill-opacity:0.80000001;stroke-width:1.02464;stop-color:#1e2431"
       d="M 107.00045,-25.12464 C 107.00045,-31.78511 101.67376,-37.1 95.02,-37.1 H 94 v 1 h 1.02 c 6.38,0 10.98,5 10.98,11.04549 V -24.1 h 1.00045 z"
       sodipodi:nodetypes="ssccssccs" />
    <path
       d="m 106.00019,-25.1 c 0,-6 -4.5702,-11 -11.0002,-11 H 94 v 12 h 12.00019 z"
       id="rect4159-3-6"
       style="stop-color:#1e2431;stroke-width:0.687505;fill-opacity:0.07058824;fill:#5c89ba"
       sodipodi:nodetypes="sscccs" />
    <path
       id="path948-5-2"
       style="fill:#bfc4d9;fill-opacity:0.0509804;stroke-width:1.00003"
       d="m 106.00018,-25.1 c 0,-6.3 -4.80018,-11 -11.00019,-11 H 94 l 2.2e-4,1 h 0.99977 c 6.02826,0 10,4.5 10,10.1 v 0.9 h 1.00019 z"
       sodipodi:nodetypes="ssccssccs" />
  </g>
  <g
     id="hover-left"
     transform="translate(-51,112.10003)">
    <rect
       y="-24.1"
       x="-62"
       height="19.999992"
       width="1"
       id="rect986-2-2-1"
       style="color:#1e2431;fill:#22262f;fill-opacity:0.80000001;stroke-width:0.912894;stop-color:#1e2431"
       transform="scale(-1,1)" />
    <rect
       y="-24.1"
       x="-73.999939"
       height="19.999994"
       width="11.999944"
       id="rect4152-6-8"
       transform="scale(-1,1)"
       style="stop-color:#1e2431;stroke-width:1.11803;fill-opacity:0.07058824;fill:#5c89ba"
       class=" " />
    <rect
       y="-24.1"
       x="-63"
       height="19.999994"
       width="1"
       id="rect972-7-7"
       transform="scale(-1,1)"
       style="fill:#bfc4d9;fill-opacity:0.0509804;stroke-width:0.322749" />
  </g>
  <g
     id="hover-bottom"
     transform="translate(-51,112.10003)">
    <rect
       y="74"
       x="7.9000001"
       height="20"
       width="1"
       id="rect986-5-2"
       style="color:#1e2431;fill:#22262f;fill-opacity:0.80000001;stroke-width:0.912919;stop-color:#1e2431"
       transform="matrix(0,1,1,0,0,0)" />
    <rect
       y="74"
       x="-4.0999999"
       height="20"
       width="12"
       id="rect4152-2-2-0"
       transform="matrix(0,1,1,0,0,0)"
       style="stop-color:#1e2431;stroke-width:1.11806;fill-opacity:0.07;fill:#5c89ba"
       class=" " />
    <rect
       y="74"
       x="6.9000306"
       height="20"
       width="0.99999994"
       id="rect972-9-7-2"
       transform="matrix(0,1,1,0,0,0)"
       style="fill:#bfc4d9;fill-opacity:0.0509804;stroke-width:0.32275" />
  </g>
  <g
     id="hover-bottomleft"
     transform="translate(-51,112.10003)">
    <path
       id="path963-7"
       style="color:#1e2431;fill:#22262f;fill-opacity:0.80000001;stroke-width:1.02466;stop-color:#1e2431"
       d="M 72.97565,8.89999 C 66.16367,8.89999 61,3.73639 61,-3.07536 v -1.02465 h 1 v 1.02465 c 0,6.24408 4.73137,10.97535 10.97565,10.97535 h 1.02466 v 1 z"
       sodipodi:nodetypes="ssccssccs" />
    <path
       d="M 62,-3.10001 C 62,3.1 66.6,7.9 73.0001,7.9 h 1.00001 v -12 H 62 Z"
       id="rect4159-9-5"
       style="stop-color:#1e2431;stroke-width:1;fill-opacity:0.07;fill:#5c89ba"
       class=" "
       sodipodi:nodetypes="sscccs" />
    <path
       id="path948-3-9"
       style="fill:#bfc4d9;fill-opacity:0.0509804;stroke-width:1"
       d="m 62,-3.4 c 0,6.7 4.80001,11.3 11.00009,11.3 h 1.00001 l -9e-5,-1 H 73 C 67.1719,6.9 63,2.59877 63,-3.29821 V -4.1 h -1 z"
       sodipodi:nodetypes="ssccssccs" />
  </g>
  <g
     id="hover-bottomright"
     transform="translate(-51,112.10003)">
    <path
       id="path987-2"
       style="color:#1e2431;fill:#22262f;fill-opacity:0.80000001;stroke-width:1.02464;stop-color:#1e2431"
       d="m 95.02464,8.89999 c 6.81179,0 11.97541,-5.16364 11.97541,-11.97536 V -4.10001 H 106 v 1.02464 C 106,2.89999 101.26874,7.89999 95.02464,7.89999 H 94 v 1 z"
       sodipodi:nodetypes="ssccssccs" />
    <path
       d="M 95.00001,7.9 C 101.2,7.9 106.00015,3.1 106.00015,-3.09999 V -4.1 H 94 v 12 z"
       id="rect4159-6-8"
       style="stop-color:#1e2431;stroke-width:1.00001;fill-opacity:0.07;fill:#5c89ba"
       class=" "
       sodipodi:nodetypes="sscccs" />
    <path
       id="path948-1-9"
       style="fill:#bfc4d9;fill-opacity:0.0509804;stroke-width:1"
       d="m 95,7.9 c 6.1,0.002 11.00013,-4.85003 11.00013,-10.99999 V -4.1 H 105 v 1 c 0,5.2 -4,10 -10,10 h -1 v 0.99966 z"
       sodipodi:nodetypes="ssccssccs" />
  </g>
  <g
     id="focus-right"
     transform="translate(-51,112.10003)">
    <rect
       y="-55.89994"
       x="106"
       height="20"
       width="0.99999994"
       id="rect986-2-3-6-3"
       style="color:#1e2431;fill:#25282d;fill-opacity:0.8;stroke-width:0.912892;stop-color:#1e2431"
       transform="scale(1,-1)" />
    <rect
       y="-55.900002"
       x="94"
       height="20"
       width="12"
       id="rect4152-2-6-7-6"
       transform="scale(1,-1)"
       style="stop-color:#1e2431;stroke-width:1.11807;fill-opacity:0.09;fill:#5c89ba"
       class=" " />
    <rect
       y="-55.900002"
       x="105"
       height="20"
       width="1"
       id="rect972-9-75-5-1"
       transform="scale(1,-1)"
       style="fill:#bfc4d9;fill-opacity:0.0509804;stroke-width:0.32275" />
  </g>
  <g
     id="focus-topleft"
     transform="translate(-51,112.10003)">
    <path
       id="path962-5-9"
       style="color:#1e2431;fill:#25282d;fill-opacity:0.8;stroke-width:1.02463;stop-color:#1e2431"
       d="M 72.97999,22.90006 C 66.31939,22.90041 61,28.21498 61,34.8754 v 1.02465 h 0.99999 V 34.8754 c 0,-5.9754 4.50431,-10.94561 10.98,-10.97134 l 1.02023,-0.004 v -1 z"
       sodipodi:nodetypes="ssccssccs" />
    <path
       d="M 73.03,23.9 C 66.55,23.9 62,28.8 62,34.90001 V 35.9 H 73.99994 L 74,23.9 Z"
       id="rect4159-62-3"
       style="stop-color:#1e2431;stroke-width:1;fill-opacity:0.09;fill:#5c89ba"
       sodipodi:nodetypes="sscccs" />
    <path
       id="path948-36-9-1"
       style="fill:#bfc4d9;fill-opacity:0.0509804;stroke-width:0.999981"
       d="M 73.1,23.9 C 66.4,23.9 62,28.9 62,35 v 0.9 h 0.99996 V 35 c 0,-5.58616 3.99719,-10.1 10.10004,-10.1 h 0.8996 v -1 z"
       sodipodi:nodetypes="ssccssccs" />
  </g>
  <g
     id="focus-center"
     transform="translate(-51,112.10003)">
    <rect
       y="35.900002"
       x="74"
       height="20"
       width="20.000002"
       id="center-2-4"
       style="stop-color:#1e2431;stroke-width:0.6875;fill-opacity:0.09;fill:#5c89ba" />
  </g>
  <g
     id="focus-top"
     transform="translate(-51,112.10003)">
    <rect
       y="-93.999969"
       x="-35.900002"
       height="20"
       width="12"
       id="rect4152-0-8"
       transform="matrix(0,-1,-1,0,0,0)"
       style="stop-color:#1e2431;stroke-width:1.11803;fill-opacity:0.09;fill:#5c89ba" />
    <rect
       y="-94"
       x="-24.9"
       height="20"
       width="0.99999994"
       id="rect972-9-4"
       transform="matrix(0,-1,-1,0,0,0)"
       style="fill:#bfc4d9;fill-opacity:0.06;stroke-width:0.322747" />
    <rect
       y="-94"
       x="-23.9"
       height="20"
       width="1"
       id="rect986-3-5"
       style="color:#1e2431;fill:#25282d;fill-opacity:0.80000001;stroke-width:0.912895;stop-color:#1e2431"
       transform="matrix(0,-1,-1,0,0,0)" />
  </g>
  <g
     id="focus-topright"
     transform="translate(-51,112.10003)">
    <path
       id="path659-0-3"
       style="color:#1e2431;fill:#25282d;fill-opacity:0.8;stroke-width:1.02464;stop-color:#1e2431"
       d="M 107.00045,34.87536 C 107.00045,28.21489 101.67376,22.9 95.02,22.9 H 94 v 1 h 1.02 c 6.38,0 10.98,5 10.98,11.04549 V 35.9 h 1.00045 z"
       sodipodi:nodetypes="ssccssccs" />
    <path
       d="m 106.00019,34.9 c 0,-6 -4.5702,-11 -11.0002,-11 H 94 v 12 h 12.00019 z"
       id="rect4159-3-6-6"
       style="stop-color:#1e2431;stroke-width:0.687505;fill-opacity:0.09;fill:#5c89ba"
       sodipodi:nodetypes="sscccs" />
    <path
       id="path948-5-2-1"
       style="fill:#bfc4d9;fill-opacity:0.0509804;stroke-width:1.00003"
       d="m 106.00018,34.9 c 0,-6.3 -4.80018,-11 -11.00019,-11 H 94 l 2.2e-4,1 h 0.99977 c 6.02826,0 10,4.5 10,10.1 v 0.9 h 1.00019 z"
       sodipodi:nodetypes="ssccssccs" />
  </g>
  <g
     id="focus-left"
     transform="translate(-51,112.10003)">
    <rect
       y="35.900002"
       x="-62"
       height="19.999992"
       width="1"
       id="rect986-2-2-1-6"
       style="color:#1e2431;fill:#25282d;fill-opacity:0.8;stroke-width:0.912894;stop-color:#1e2431"
       transform="scale(-1,1)" />
    <rect
       y="35.900002"
       x="-73.999939"
       height="19.999994"
       width="11.999944"
       id="rect4152-6-8-3"
       transform="scale(-1,1)"
       style="stop-color:#1e2431;stroke-width:1.11803;fill-opacity:0.09;fill:#5c89ba"
       class=" " />
    <rect
       y="35.900002"
       x="-63"
       height="19.999994"
       width="1"
       id="rect972-7-7-2"
       transform="scale(-1,1)"
       style="fill:#bfc4d9;fill-opacity:0.0509804;stroke-width:0.322749" />
  </g>
  <g
     id="focus-bottom"
     transform="translate(-51,112.10003)">
    <rect
       y="74"
       x="67.900002"
       height="20"
       width="1"
       id="rect986-5-2-6"
       style="color:#1e2431;fill:#25282d;fill-opacity:0.8;stroke-width:0.912919;stop-color:#1e2431"
       transform="matrix(0,1,1,0,0,0)" />
    <rect
       y="74"
       x="55.900002"
       height="20"
       width="12"
       id="rect4152-2-2-0-1"
       transform="matrix(0,1,1,0,0,0)"
       style="stop-color:#1e2431;stroke-width:1.11806;fill-opacity:0.09;fill:#5c89ba"
       class=" " />
    <rect
       y="74"
       x="66.900032"
       height="20"
       width="0.99999994"
       id="rect972-9-7-2-5"
       transform="matrix(0,1,1,0,0,0)"
       style="fill:#bfc4d9;fill-opacity:0.0509804;stroke-width:0.32275" />
  </g>
  <g
     id="focus-bottomleft"
     transform="translate(-51,112.10003)">
    <path
       id="path963-7-4"
       style="color:#1e2431;fill:#25282d;fill-opacity:0.8;stroke-width:1.02466;stop-color:#1e2431"
       d="M 72.97565,68.89999 C 66.16367,68.89999 61,63.73639 61,56.92464 v -1.02465 h 1 v 1.02465 c 0,6.24408 4.73137,10.97535 10.97565,10.97535 h 1.02466 v 1 z"
       sodipodi:nodetypes="ssccssccs" />
    <path
       d="M 62,56.89999 C 62,63.1 66.6,67.9 73.0001,67.9 h 1.00001 v -12 H 62 Z"
       id="rect4159-9-5-7"
       style="stop-color:#1e2431;stroke-width:1;fill-opacity:0.09;fill:#5c89ba"
       class=" "
       sodipodi:nodetypes="sscccs" />
    <path
       id="path948-3-9-6"
       style="fill:#bfc4d9;fill-opacity:0.0509804;stroke-width:1"
       d="m 62,56.6 c 0,6.7 4.80001,11.3 11.00009,11.3 h 1.00001 l -9e-5,-1 H 73 C 67.1719,66.9 63,62.59877 63,56.70179 V 55.9 h -1 z"
       sodipodi:nodetypes="ssccssccs" />
  </g>
  <g
     id="focus-bottomright"
     transform="translate(-51,112.10003)">
    <path
       id="path987-2-6"
       style="color:#1e2431;fill:#25282d;fill-opacity:0.8;stroke-width:1.02464;stop-color:#1e2431"
       d="m 95.02464,68.89999 c 6.81179,0 11.97541,-5.16364 11.97541,-11.97536 V 55.89999 H 106 v 1.02464 c 0,5.97536 -4.73126,10.97536 -10.97536,10.97536 H 94 v 1 z"
       sodipodi:nodetypes="ssccssccs" />
    <path
       d="m 95.00001,67.9 c 6.19999,0 11.00014,-4.8 11.00014,-10.99999 V 55.9 H 94 v 12 z"
       id="rect4159-6-8-9"
       style="stop-color:#1e2431;stroke-width:1.00001;fill-opacity:0.09;fill:#5c89ba"
       class=" "
       sodipodi:nodetypes="sscccs" />
    <path
       id="path948-1-9-3"
       style="fill:#bfc4d9;fill-opacity:0.0509804;stroke-width:1"
       d="m 95,67.9 c 6.1,0.002 11.00013,-4.85003 11.00013,-10.99999 V 55.9 H 105 v 1 c 0,5.2 -4,10 -10,10 h -1 v 0.99966 z"
       sodipodi:nodetypes="ssccssccs" />
  </g>
</svg>
