<?xml version="1.0" encoding="UTF-8" standalone="no"?>
<!-- Created with Inkscape (http://www.inkscape.org/) -->

<svg
   width="60"
   height="100"
   id="svg2"
   version="1.1"
   inkscape:version="1.2.2 (b0a8486541, 2022-12-01)"
   sodipodi:docname="pager.svg"
   inkscape:export-filename="/home/anton/Teman/mockups/gree-hey.png"
   inkscape:export-xdpi="90"
   inkscape:export-ydpi="90"
   xmlns:inkscape="http://www.inkscape.org/namespaces/inkscape"
   xmlns:sodipodi="http://sodipodi.sourceforge.net/DTD/sodipodi-0.dtd"
   xmlns:xlink="http://www.w3.org/1999/xlink"
   xmlns="http://www.w3.org/2000/svg"
   xmlns:svg="http://www.w3.org/2000/svg"
   xmlns:rdf="http://www.w3.org/1999/02/22-rdf-syntax-ns#"
   xmlns:cc="http://creativecommons.org/ns#"
   xmlns:dc="http://purl.org/dc/elements/1.1/">
  <sodipodi:namedview
     id="base"
     pagecolor="#282d38"
     bordercolor="#5e81ac"
     borderopacity="1"
     inkscape:pageopacity="1"
     inkscape:pageshadow="2"
     inkscape:zoom="5.6568543"
     inkscape:cx="23.599689"
     inkscape:cy="57.010484"
     inkscape:document-units="px"
     inkscape:current-layer="layer1"
     showgrid="false"
     inkscape:window-width="1920"
     inkscape:window-height="998"
     inkscape:window-x="0"
     inkscape:window-y="0"
     inkscape:window-maximized="1"
     inkscape:showpageshadow="false"
     inkscape:pagecheckerboard="true"
     inkscape:deskcolor="#282d38"
     showguides="false">
    <inkscape:grid
       type="xygrid"
       id="grid2816"
       empspacing="5"
       visible="true"
       enabled="true"
       snapvisiblegridlinesonly="true" />
  </sodipodi:namedview>
  <defs
     id="defs4">
    <linearGradient
       id="linearGradient7517">
      <stop
         id="stop7513"
         offset="0"
         style="stop-color:#5e81ac;stop-opacity:1;" />
      <stop
         id="stop7515"
         offset="1"
         style="stop-color:#576278;stop-opacity:0.34999999;" />
    </linearGradient>
    <linearGradient
       id="linearGradient7511">
      <stop
         style="stop-color:#5e81ac;stop-opacity:0.2;"
         offset="0"
         id="stop7507" />
      <stop
         style="stop-color:#5e81ac;stop-opacity:0.20727272;"
         offset="1"
         id="stop7509" />
    </linearGradient>
    <linearGradient
       id="linearGradient7217">
      <stop
         style="stop-color:#20242c;stop-opacity:1;"
         offset="0"
         id="stop7213" />
      <stop
         style="stop-color:#0c0c0e;stop-opacity:1;"
         offset="1"
         id="stop7215" />
    </linearGradient>
    <linearGradient
       id="linearGradient7211">
      <stop
         style="stop-color:#1d2125;stop-opacity:1;"
         offset="0"
         id="stop7207" />
      <stop
         style="stop-color:#1a1d23;stop-opacity:1;"
         offset="1"
         id="stop7209" />
    </linearGradient>
    <linearGradient
       id="linearGradient7205">
      <stop
         style="stop-color:#1d2125;stop-opacity:1;"
         offset="0"
         id="stop7201" />
      <stop
         style="stop-color:#1a1d23;stop-opacity:1;"
         offset="1"
         id="stop7203" />
    </linearGradient>
    <linearGradient
       id="linearGradient7199">
      <stop
         style="stop-color:#1d2125;stop-opacity:1;"
         offset="0"
         id="stop7195" />
      <stop
         style="stop-color:#1a1d23;stop-opacity:1;"
         offset="1"
         id="stop7197" />
    </linearGradient>
    <linearGradient
       id="linearGradient7193">
      <stop
         style="stop-color:#1d2125;stop-opacity:1;"
         offset="0"
         id="stop7189" />
      <stop
         style="stop-color:#1a1d23;stop-opacity:1;"
         offset="1"
         id="stop7191" />
    </linearGradient>
    <linearGradient
       id="linearGradient7187">
      <stop
         style="stop-color:#1d2125;stop-opacity:1;"
         offset="0"
         id="stop7183" />
      <stop
         style="stop-color:#1a1d23;stop-opacity:1;"
         offset="1"
         id="stop7185" />
    </linearGradient>
    <linearGradient
       id="linearGradient7181">
      <stop
         style="stop-color:#1d2125;stop-opacity:1;"
         offset="0"
         id="stop7177" />
      <stop
         style="stop-color:#1a1d23;stop-opacity:1;"
         offset="1"
         id="stop7179" />
    </linearGradient>
    <linearGradient
       id="linearGradient7175">
      <stop
         style="stop-color:#1d2125;stop-opacity:1;"
         offset="0"
         id="stop7171" />
      <stop
         style="stop-color:#1a1d23;stop-opacity:1;"
         offset="1"
         id="stop7173" />
    </linearGradient>
    <linearGradient
       id="linearGradient7169">
      <stop
         style="stop-color:#1d2125;stop-opacity:1;"
         offset="0"
         id="stop7165" />
      <stop
         style="stop-color:#181818;stop-opacity:1;"
         offset="1"
         id="stop7167" />
    </linearGradient>
    <linearGradient
       id="linearGradient5432">
      <stop
         style="stop-color:#4c4c4c;stop-opacity:1;"
         offset="0"
         id="stop5434" />
      <stop
         style="stop-color:#222222;stop-opacity:1;"
         offset="1"
         id="stop5436" />
    </linearGradient>
    <linearGradient
       id="linearGradient4833">
      <stop
         style="stop-color:#1d1d1d;stop-opacity:1;"
         offset="0"
         id="stop4835" />
      <stop
         id="stop4841"
         offset="0.5"
         style="stop-color:#1a1a1a;stop-opacity:0.49803922;" />
      <stop
         style="stop-color:#1a1a1a;stop-opacity:0.24705882;"
         offset="0.75"
         id="stop4843" />
      <stop
         style="stop-color:#292929;stop-opacity:0.47058824;"
         offset="1"
         id="stop4837" />
    </linearGradient>
    <linearGradient
       id="linearGradient4783">
      <stop
         id="stop4785"
         offset="0"
         style="stop-color:#ffffff;stop-opacity:0;" />
      <stop
         style="stop-color:#ffffff;stop-opacity:0.39072847;"
         offset="0.5"
         id="stop4787" />
      <stop
         id="stop4789"
         offset="1"
         style="stop-color:#ffffff;stop-opacity:0;" />
    </linearGradient>
    <linearGradient
       id="linearGradient4769">
      <stop
         style="stop-color:#000000;stop-opacity:0;"
         offset="0"
         id="stop4771" />
      <stop
         id="stop4777"
         offset="0.5"
         style="stop-color:#000000;stop-opacity:0.29139072;" />
      <stop
         style="stop-color:#000000;stop-opacity:0;"
         offset="1"
         id="stop4773" />
    </linearGradient>
    <linearGradient
       id="linearGradient4459">
      <stop
         style="stop-color:#1e1e1e;stop-opacity:1;"
         offset="0"
         id="stop4461" />
      <stop
         style="stop-color:#1e1e1e;stop-opacity:1;"
         offset="1"
         id="stop4463" />
    </linearGradient>
    <linearGradient
       id="linearGradient4018">
      <stop
         style="stop-color:#000000;stop-opacity:1;"
         offset="0"
         id="stop4020" />
      <stop
         id="stop4377"
         offset="0.5"
         style="stop-color:#000000;stop-opacity:0.31125829;" />
      <stop
         style="stop-color:#000000;stop-opacity:0.08609272;"
         offset="0.75"
         id="stop4379" />
      <stop
         style="stop-color:#000000;stop-opacity:0;"
         offset="1"
         id="stop4022" />
    </linearGradient>
    <linearGradient
       id="linearGradient3955">
      <stop
         id="stop3957"
         offset="0"
         style="stop-color:#292929;stop-opacity:1;" />
      <stop
         id="stop3959"
         offset="1"
         style="stop-color:#070707;stop-opacity:0.32941177;" />
    </linearGradient>
    <linearGradient
       id="linearGradient3928">
      <stop
         style="stop-color:#1d1d1d;stop-opacity:1;"
         offset="0"
         id="stop3930" />
      <stop
         style="stop-color:#181818;stop-opacity:1;"
         offset="1"
         id="stop3932" />
    </linearGradient>
    <linearGradient
       id="linearGradient3913">
      <stop
         style="stop-color:#161616;stop-opacity:1;"
         offset="0"
         id="stop3915" />
      <stop
         style="stop-color:#0c0c0c;stop-opacity:1;"
         offset="1"
         id="stop3917" />
    </linearGradient>
    <linearGradient
       id="linearGradient3836">
      <stop
         style="stop-color:#292929;stop-opacity:1;"
         offset="0"
         id="stop3838" />
      <stop
         style="stop-color:#292929;stop-opacity:1;"
         offset="1"
         id="stop3840" />
    </linearGradient>
    <linearGradient
       id="linearGradient3799">
      <stop
         id="stop3801"
         offset="0"
         style="stop-color:#2a2a2a;stop-opacity:1;" />
      <stop
         id="stop3803"
         offset="1"
         style="stop-color:#202020;stop-opacity:1;" />
    </linearGradient>
    <linearGradient
       id="linearGradient3738">
      <stop
         style="stop-color:#000000;stop-opacity:0.25827813;"
         offset="0"
         id="stop3740" />
      <stop
         id="stop3746"
         offset="0.5"
         style="stop-color:#000000;stop-opacity:0.08609272;" />
      <stop
         style="stop-color:#000000;stop-opacity:0;"
         offset="1"
         id="stop3742" />
    </linearGradient>
    <linearGradient
       id="linearGradient3730">
      <stop
         style="stop-color:#565656;stop-opacity:0.36423841;"
         offset="0"
         id="stop3732" />
      <stop
         style="stop-color:#3d3d3d;stop-opacity:0;"
         offset="1"
         id="stop3734" />
    </linearGradient>
    <linearGradient
       id="linearGradient3720">
      <stop
         id="stop3722"
         offset="0"
         style="stop-color:#3d3d3d;stop-opacity:0.20529801;" />
      <stop
         id="stop3724"
         offset="1"
         style="stop-color:#3d3d3d;stop-opacity:0;" />
    </linearGradient>
    <linearGradient
       id="linearGradient3704">
      <stop
         style="stop-color:#3d3d3d;stop-opacity:0.23178808;"
         offset="0"
         id="stop3706" />
      <stop
         style="stop-color:#3d3d3d;stop-opacity:0;"
         offset="1"
         id="stop3708" />
    </linearGradient>
    <linearGradient
       id="linearGradient3684">
      <stop
         style="stop-color:#3f3f3f;stop-opacity:0.10596026;"
         offset="0"
         id="stop3686" />
      <stop
         style="stop-color:#3f3f3f;stop-opacity:0;"
         offset="1"
         id="stop3688" />
    </linearGradient>
    <linearGradient
       id="linearGradient3666">
      <stop
         style="stop-color:#1e1e1e;stop-opacity:1;"
         offset="0"
         id="stop3668" />
      <stop
         style="stop-color:#161616;stop-opacity:1;"
         offset="1"
         id="stop3670" />
    </linearGradient>
    <linearGradient
       id="linearGradient3631">
      <stop
         style="stop-color:#2a2a2a;stop-opacity:1;"
         offset="0"
         id="stop3633" />
      <stop
         style="stop-color:#202020;stop-opacity:1;"
         offset="1"
         id="stop3635" />
    </linearGradient>
    <linearGradient
       id="linearGradient3616">
      <stop
         id="stop3618"
         offset="0"
         style="stop-color:#111111;stop-opacity:1;" />
      <stop
         id="stop3620"
         offset="1"
         style="stop-color:#111111;stop-opacity:1;" />
    </linearGradient>
    <linearGradient
       id="linearGradient3594">
      <stop
         style="stop-color:#0f0f0f;stop-opacity:1;"
         offset="0"
         id="stop3596" />
      <stop
         style="stop-color:#161616;stop-opacity:1;"
         offset="1"
         id="stop3598" />
    </linearGradient>
    <inkscape:perspective
       sodipodi:type="inkscape:persp3d"
       inkscape:vp_x="0 : 526.18109 : 1"
       inkscape:vp_y="0 : 1000 : 0"
       inkscape:vp_z="744.09448 : 526.18109 : 1"
       inkscape:persp3d-origin="372.04724 : 350.78739 : 1"
       id="perspective10" />
    <linearGradient
       inkscape:collect="always"
       xlink:href="#linearGradient3684"
       id="linearGradient3991"
       gradientUnits="userSpaceOnUse"
       gradientTransform="matrix(1,0,0,-1,-43,1171)"
       x1="256.5"
       y1="575"
       x2="256.5"
       y2="594" />
    <linearGradient
       y2="596"
       x2="63"
       y1="574"
       x1="63"
       gradientTransform="translate(32,-4e-5)"
       gradientUnits="userSpaceOnUse"
       id="linearGradient5721"
       xlink:href="#linearGradient3928"
       inkscape:collect="always" />
    <linearGradient
       y2="1047.3622"
       x2="35"
       y1="1027.3622"
       x1="35"
       gradientTransform="matrix(0.92592592,0,0,1,35.592592,-4e-5)"
       gradientUnits="userSpaceOnUse"
       id="linearGradient5725"
       xlink:href="#linearGradient3955"
       inkscape:collect="always" />
    <linearGradient
       y2="596"
       x2="63"
       y1="574"
       x1="63"
       gradientTransform="translate(32,-4e-5)"
       gradientUnits="userSpaceOnUse"
       id="linearGradient5727"
       xlink:href="#linearGradient3928"
       inkscape:collect="always" />
    <linearGradient
       y2="596"
       x2="63"
       y1="574"
       x1="63"
       gradientTransform="translate(32,-4e-5)"
       gradientUnits="userSpaceOnUse"
       id="linearGradient5729"
       xlink:href="#linearGradient3928"
       inkscape:collect="always" />
    <linearGradient
       y2="596"
       x2="63"
       y1="574"
       x1="63"
       gradientTransform="translate(32,-4e-5)"
       gradientUnits="userSpaceOnUse"
       id="linearGradient5731"
       xlink:href="#linearGradient3928"
       inkscape:collect="always" />
    <linearGradient
       y2="596"
       x2="63"
       y1="574"
       x1="63"
       gradientTransform="translate(32,-4e-5)"
       gradientUnits="userSpaceOnUse"
       id="linearGradient5733"
       xlink:href="#linearGradient3928"
       inkscape:collect="always" />
    <linearGradient
       y2="596"
       x2="63"
       y1="574"
       x1="63"
       gradientTransform="translate(2,388.36214)"
       gradientUnits="userSpaceOnUse"
       id="linearGradient5737"
       xlink:href="#linearGradient3928"
       inkscape:collect="always" />
    <linearGradient
       y2="596"
       x2="63"
       y1="574"
       x1="63"
       gradientTransform="translate(32,-4e-5)"
       gradientUnits="userSpaceOnUse"
       id="linearGradient5739"
       xlink:href="#linearGradient3928"
       inkscape:collect="always" />
    <linearGradient
       y2="596"
       x2="63"
       y1="574"
       x1="63"
       gradientTransform="translate(32,-4e-5)"
       gradientUnits="userSpaceOnUse"
       id="linearGradient5741"
       xlink:href="#linearGradient3928"
       inkscape:collect="always" />
  </defs>
  <metadata
     id="metadata7">
    <rdf:RDF>
      <cc:Work
         rdf:about="">
        <dc:format>image/svg+xml</dc:format>
        <dc:type
           rdf:resource="http://purl.org/dc/dcmitype/StillImage" />
      </cc:Work>
    </rdf:RDF>
  </metadata>
  <g
     inkscape:label="Layer 1"
     inkscape:groupmode="layer"
     id="layer1"
     transform="translate(0,-952.36218)">
    <g
       id="normal-center"
       transform="translate(-51,-64)"
       style="fill:#404759;fill-opacity:1">
      <path
         id="path5382"
         d="m 93,1028.3622 -25,0 0,18 25,0 0,-18 z"
         style="fill:#4a5268;fill-opacity:0.2035398;stroke:none" />
    </g>
    <g
       transform="translate(-51,-39.00004)"
       id="active-center"
       style="fill:#3a506b;fill-opacity:1">
      <path
         style="fill:#4a668c;fill-opacity:0.40000001;stroke:none;opacity:1"
         d="m 93,1028.3622 -25,0 0,18 25,0 0,-18 z"
         id="path4688" />
    </g>
    <g
       id="normal-top"
       style="fill:#404759;fill-opacity:1">
      <g
         id="g3861"
         transform="translate(-21,0)"
         style="fill:#404759;fill-opacity:1">
        <path
           style="fill:#4a5268;fill-opacity:0.20392157;stroke:none"
           d="m 38,963.36222 0,1 25,0 0,-1 -25,0 z"
           id="rect3947" />
        <path
           style="fill:#333748;fill-opacity:1;stroke:none"
           d="m 38,962.36218 0,1 25,0 0,-1 -25,0 z"
           id="path3945" />
      </g>
      <rect
         style="fill:#282d38;fill-opacity:1;stroke:none"
         id="rect3005"
         width="25"
         height="1"
         x="17"
         y="961.36218" />
    </g>
    <g
       id="normal-topleft"
       style="fill:#404759;fill-opacity:1">
      <g
         id="g3801"
         transform="translate(-21,0)"
         style="fill:#404759;fill-opacity:1">
        <g
           id="g5394"
           transform="translate(-30,-64)"
           style="fill:#404759;fill-opacity:1">
          <path
             transform="translate(0,452.36218)"
             id="path5331"
             d="m 66,574 0,2 1,0 0,-1 1,0 0,-1 -2,0 z"
             style="fill:#333748;fill-opacity:1;stroke:none" />
          <path
             transform="translate(0,452.36218)"
             id="path5326"
             d="m 67,575 0,1 1,0 0,-1 -1,0 z"
             style="fill:#4a5268;fill-opacity:0.20392157;stroke:none" />
        </g>
      </g>
      <path
         style="fill:#282d38;fill-opacity:1;stroke:none"
         d="m 14,9 v 3 h 1 v -2 h 2 V 9 h -1.090097 z"
         transform="translate(0,952.36218)"
         id="rect3779"
         sodipodi:nodetypes="cccccccc" />
    </g>
    <g
       id="normal-topright"
       style="fill:#404759;fill-opacity:1">
      <g
         id="g3852"
         transform="translate(-21,0)"
         style="fill:#404759;fill-opacity:1">
        <g
           id="g5402"
           transform="translate(-30,-64)"
           style="fill:#404759;fill-opacity:1">
          <path
             transform="translate(0,452.36218)"
             id="path5335"
             d="m 93,574 0,1 1,0 0,1 1,0 0,-2 -2,0 z"
             style="fill:#333748;fill-opacity:1;stroke:none" />
          <path
             transform="translate(0,452.36218)"
             id="path5328"
             d="m 93,575 0,1 1,0 0,-1 -1,0 z"
             style="fill:#4a5268;fill-opacity:0.20392157;stroke:none" />
        </g>
      </g>
      <path
         style="fill:#282d38;fill-opacity:1;stroke:none"
         d="m 42,9 0,1 2,0 0,2 1,0 0,-3 -3,0 z"
         transform="translate(0,952.36218)"
         id="rect3781"
         sodipodi:nodetypes="ccccccc" />
    </g>
    <g
       id="normal-bottomright"
       style="fill:#404759;fill-opacity:1">
      <g
         transform="translate(-51,-64)"
         id="g3834"
         style="fill:#404759;fill-opacity:1">
        <g
           id="g5386"
           style="fill:#404759;fill-opacity:1">
          <path
             transform="translate(0,452.36218)"
             id="path5363"
             d="m 95,594 -1,0 0,1 -1,0 0,0.875 c 0,0.0508 -0.05923,0.0751 -0.0625,0.125 l 2.0625,0 0,-2 z"
             style="fill:#333748;fill-opacity:1;stroke:none" />
          <path
             transform="translate(0,452.36218)"
             id="path5379"
             d="m 94,594 -1,0 0,1 1,0 0,-1 z"
             style="fill:#4a5268;fill-opacity:0.20392157;stroke:none" />
        </g>
      </g>
      <path
         style="fill:#282d38;fill-opacity:1;stroke:none"
         d="m 42,32 0,1 3,0 0,-3 -1,0 -0.0268,2 L 42,32 z"
         transform="translate(0,952.36218)"
         id="rect3783"
         sodipodi:nodetypes="ccccccc" />
    </g>
    <g
       id="normal-right"
       style="fill:#404759;fill-opacity:1">
      <g
         transform="translate(-51,-64)"
         id="g3842"
         style="fill:#404759;fill-opacity:1">
        <path
           style="fill:#333748;fill-opacity:1;stroke:none"
           d="m 95,576 -1,0 0,18 1,0 0,-18 z"
           id="path5361"
           transform="translate(0,452.36218)" />
        <path
           style="fill:#4a5268;fill-opacity:0.20392157;stroke:none"
           d="m 94,576 -1,0 0,18 1,0 0,-18 z"
           id="path5377"
           transform="translate(0,452.36218)" />
      </g>
      <rect
         style="fill:#282d38;fill-opacity:1;stroke:none"
         id="rect3785"
         width="1"
         height="18.000011"
         x="44"
         y="964.36218" />
    </g>
    <g
       id="normal-bottom"
       style="fill:#404759;fill-opacity:1">
      <g
         transform="translate(-51,-64)"
         id="g3825"
         style="fill:#404759;fill-opacity:1">
        <path
           style="fill:#333748;fill-opacity:1;stroke:none"
           d="m 68,595 0,0.875 c 0,0.0508 0.05923,0.0751 0.0625,0.125 l 24.875,0 C 92.940768,595.95011 93,595.9258 93,595.875 L 93,595 68,595 z"
           id="path5333"
           transform="translate(0,452.36218)" />
        <path
           style="fill:#4a5268;fill-opacity:0.20392157;stroke:none"
           d="m 93,1046.3622 -25,0 0,1 25,0 0,-1 z"
           id="path5384" />
      </g>
      <rect
         y="17"
         x="-985.36218"
         height="25.000002"
         width="1"
         id="rect3787"
         style="fill:#282d38;fill-opacity:1;stroke:none"
         transform="matrix(0,-1,1,0,0,0)" />
    </g>
    <g
       id="normal-bottomleft"
       style="fill:#404759;fill-opacity:1">
      <g
         transform="translate(-51,-64)"
         id="g3809"
         style="fill:#404759;fill-opacity:1">
        <path
           style="fill:#333748;fill-opacity:1;stroke:none"
           d="m 67,594 -1,0 0,2 2.0625,0 C 68.059232,595.95011 68,595.9258 68,595.875 l 0,-0.875 -1,0 0,-1 z"
           id="path5356"
           transform="translate(0,452.36218)" />
        <path
           style="fill:#4a5268;fill-opacity:0.20392157;stroke:none"
           d="m 68,594 -1,0 0,1 1,0 0,-1 z"
           id="path5349"
           transform="translate(0,452.36218)" />
      </g>
      <path
         style="fill:#282d38;fill-opacity:1;stroke:none"
         d="m 14,30 0,3 3,0 0,-1 -2,0 0,-2 -1,0 z"
         transform="translate(0,952.36218)"
         id="rect3789"
         sodipodi:nodetypes="ccccccc" />
    </g>
    <g
       id="normal-left"
       style="fill:#404759;fill-opacity:1">
      <g
         transform="translate(-51,-64)"
         id="g3817"
         style="fill:#404759;fill-opacity:1">
        <path
           style="fill:#333748;fill-opacity:1;stroke:none"
           d="m 67,576 -1,0 0,18 1,0 0,-18 z"
           id="path5354"
           transform="translate(0,452.36218)" />
        <path
           style="fill:#4a5268;fill-opacity:0.20392157;stroke:none"
           d="m 68,576 -1,0 0,18 1,0 0,-18 z"
           id="path5347"
           transform="translate(0,452.36218)" />
      </g>
      <rect
         y="964.36218"
         x="14"
         height="18.000017"
         width="1"
         id="rect3791"
         style="fill:#282d38;fill-opacity:1;stroke:none" />
    </g>
    <g
       id="active-top"
       style="fill:#3a506b;fill-opacity:1">
      <g
         id="g3921"
         transform="translate(-21,0)"
         style="fill:#3a506b;fill-opacity:1">
        <g
           transform="translate(0,24.99996)"
           id="g4716"
           style="fill:#3a506b;fill-opacity:1">
          <path
             style="fill:#4a668c;fill-opacity:0.40000001;stroke:none"
             d="m 38,963.36222 0,1 25,0 0,-1 -25,0 z"
             id="path4718" />
          <path
             sodipodi:nodetypes="ccccc"
             style="fill:#3a506b;fill-opacity:1;stroke:none"
             d="m 38,962.36218 0,1 25,0 0,-1 -25,0 z"
             id="path4720" />
        </g>
      </g>
      <rect
         style="fill:#282d38;fill-opacity:1;stroke:none"
         id="rect3863"
         width="25"
         height="1"
         x="17"
         y="986.36218" />
    </g>
    <g
       id="active-right"
       style="fill:#3a506b;fill-opacity:1">
      <g
         id="g3939"
         transform="translate(-51,-39.00004)"
         style="fill:#3a506b;fill-opacity:1">
        <path
           transform="translate(0,452.36218)"
           id="path4700"
           d="m 95,576 -1,0 0,18 1,0 0,-18 z"
           style="fill:#3a506b;fill-opacity:1;stroke:none" />
        <path
           transform="translate(0,452.36218)"
           id="path4702"
           d="m 94,576 -1,0 0,18 1,0 0,-18 z"
           style="fill:#4a668c;fill-opacity:0.40000001;stroke:none" />
      </g>
      <rect
         y="989.36218"
         x="44"
         height="17.999994"
         width="1"
         id="rect3865"
         style="fill:#282d38;fill-opacity:1;stroke:none" />
    </g>
    <g
       id="active-left"
       style="fill:#3a506b;fill-opacity:1">
      <g
         id="g3885"
         transform="translate(-51,-39.00004)"
         style="fill:#3a506b;fill-opacity:1">
        <path
           transform="translate(0,452.36218)"
           id="path4712"
           d="m 67,576 -1,0 0,18 1,0 0,-18 z"
           style="fill:#3a506b;fill-opacity:1;stroke:none" />
        <path
           transform="translate(0,452.36218)"
           id="path4714"
           d="m 68,576 -1,0 0,18 1,0 0,-18 z"
           style="fill:#4a668c;fill-opacity:0.40000001;stroke:none" />
      </g>
      <rect
         style="fill:#282d38;fill-opacity:1;stroke:none"
         id="rect3867"
         width="1"
         height="17.999992"
         x="14"
         y="989.36218" />
    </g>
    <g
       id="active-bottom"
       style="fill:#3a506b;fill-opacity:1">
      <g
         id="g3911"
         transform="translate(-51,-39.00004)"
         style="fill:#3a506b;fill-opacity:1">
        <path
           transform="translate(0,452.36218)"
           id="path4682"
           d="m 68,595 v 0.875 c 0,0.001 0,0.125 0,0.125 h 25 c 0.0033,-0.0499 0,-0.0742 0,-0.125 V 595 Z"
           style="fill:#3a506b;fill-opacity:1;stroke:none"
           sodipodi:nodetypes="ccccscc" />
        <path
           id="path4684"
           d="m 93,1046.3622 -25,0 0,1 25,0 0,-1 z"
           style="fill:#4a668c;fill-opacity:0.40000001;stroke:none" />
      </g>
      <rect
         y="17"
         x="-1010.3622"
         height="24.999998"
         width="1"
         id="rect3869"
         style="fill:#282d38;fill-opacity:1;stroke:none"
         transform="matrix(0,-1,1,0,0,0)" />
    </g>
    <g
       id="active-bottomleft"
       style="fill:#3a506b;fill-opacity:1">
      <g
         id="g3903"
         transform="translate(-51,-39.00004)"
         style="fill:#3a506b;fill-opacity:1">
        <path
           transform="translate(0,452.36218)"
           id="path4706"
           d="m 67,594 h -1 v 2 h 2 c -0.0033,-0.0499 0,-0.0742 0,-0.125 V 595 h -1 z"
           style="fill:#3a506b;fill-opacity:1;stroke:none"
           sodipodi:nodetypes="ccccsccc" />
        <path
           transform="translate(0,452.36218)"
           id="path4708"
           d="m 68,594 -1,0 0,1 1,0 0,-1 z"
           style="fill:#4a668c;fill-opacity:0.40000001;stroke:none" />
      </g>
      <path
         style="fill:#282d38;fill-opacity:1;stroke:none"
         d="m 14,55 0,3 3,0 0,-1 -2,0 0,-2 -1,0 z"
         transform="translate(0,952.36218)"
         id="rect3871"
         sodipodi:nodetypes="ccccccc" />
    </g>
    <g
       id="active-topleft"
       style="fill:#3a506b;fill-opacity:1">
      <g
         id="g3895"
         transform="translate(-21,24.99996)"
         style="fill:#3a506b;fill-opacity:1">
        <g
           transform="translate(-30,-64)"
           id="g4736"
           style="fill:#3a506b;fill-opacity:1">
          <path
             style="fill:#3a506b;fill-opacity:1;stroke:none"
             d="m 66,574 0,2 1,0 0,-1 1,0 0,-1 -2,0 z"
             id="path4738"
             transform="translate(0,452.36218)" />
          <path
             style="fill:#4a668c;fill-opacity:0.40000001;stroke:none"
             d="m 67,575 0,1 1,0 0,-1 -1,0 z"
             id="path4740"
             transform="translate(0,452.36218)" />
        </g>
      </g>
      <path
         style="fill:#282d38;fill-opacity:1;stroke:none"
         d="m 14,34 0,3 1,0 0,-2 2,0 0,-1 -3,0 z"
         transform="translate(0,952.36218)"
         id="rect3873"
         sodipodi:nodetypes="ccccccc" />
    </g>
    <g
       id="active-topright"
       style="fill:#3a506b;fill-opacity:1">
      <g
         id="g3931"
         transform="translate(-21,24.99996)"
         style="fill:#3a506b;fill-opacity:1">
        <g
           transform="translate(-30,-64)"
           id="g4726"
           style="fill:#3a506b;fill-opacity:1">
          <path
             style="fill:#3a506b;fill-opacity:1;stroke:none"
             d="m 93,574 0,1 1,0 0,1 1,0 0,-2 -2,0 z"
             id="path4728"
             transform="translate(0,452.36218)" />
          <path
             style="fill:#4a668c;fill-opacity:0.40000001;stroke:none"
             d="m 93,575 0,1 1,0 0,-1 -1,0 z"
             id="path4730"
             transform="translate(0,452.36218)" />
        </g>
      </g>
      <path
         style="fill:#282d38;fill-opacity:1;stroke:none"
         d="m 42,34 0,1 2,0 0,2 1,0 0,-3 -3,0 z"
         transform="translate(0,952.36218)"
         id="rect3875"
         sodipodi:nodetypes="ccccccc" />
    </g>
    <g
       id="active-bottomright"
       style="fill:#3a506b;fill-opacity:1">
      <g
         id="g3948"
         transform="translate(-51,-39.00004)"
         style="fill:#3a506b;fill-opacity:1">
        <g
           id="g4692"
           style="fill:#3a506b;fill-opacity:1">
          <path
             style="fill:#3a506b;fill-opacity:1;stroke:none"
             d="m 95,594 h -1 v 1 h -1 v 0.875 c 0,0.0121 0,0.125 0,0.125 h 2 z"
             id="path4694"
             transform="translate(0,452.36218)"
             sodipodi:nodetypes="cccccccc" />
          <path
             style="fill:#4a668c;fill-opacity:0.40000001;stroke:none"
             d="m 94,594 -1,0 0,1 1,0 0,-1 z"
             id="path4696"
             transform="translate(0,452.36218)" />
        </g>
      </g>
      <path
         style="fill:#282d38;fill-opacity:1;stroke:none"
         d="m 42,57 0,1 3,0 0,-3 -1,0 0,2 -2,0 z"
         transform="translate(0,952.36218)"
         id="rect3877"
         sodipodi:nodetypes="ccccccc" />
    </g>
    <g
       id="hover-center"
       transform="translate(-51,-14)"
       style="fill:#4e6f97;fill-opacity:1">
      <path
         id="path3952"
         d="m 93,1028.3622 -25,0 0,18 25,0 0,-18 z"
         style="opacity:1;fill:#4e6f97;fill-opacity:0.69999999;stroke:none" />
    </g>
    <g
       transform="translate(0,25.00004)"
       id="hover-top"
       style="fill:#4e6f97;fill-opacity:1">
      <g
         transform="translate(-21,0)"
         id="g3956"
         style="fill:#4e6f97;fill-opacity:1">
        <g
           id="g3958"
           transform="translate(0,24.99996)"
           style="fill:#4e6f97;fill-opacity:1">
          <path
             id="path3960"
             d="m 38,963.36222 0,1 25,0 0,-1 -25,0 z"
             style="fill:#4e6f97;fill-opacity:0.69803923;stroke:none" />
          <path
             id="path3962"
             d="m 38,962.36218 0,1 25,0 0,-1 -25,0 z"
             style="fill:#4e6f97;fill-opacity:1;stroke:none"
             sodipodi:nodetypes="ccccc" />
        </g>
      </g>
      <rect
         y="986.36218"
         x="17"
         height="1"
         width="25"
         id="rect3966"
         style="fill:#282d38;fill-opacity:1;stroke:none" />
    </g>
    <g
       transform="translate(0,25.00004)"
       id="hover-right"
       style="fill:#4e6f97;fill-opacity:1">
      <g
         transform="translate(-51,-39.00004)"
         id="g3970"
         style="fill:#4e6f97;fill-opacity:1">
        <path
           style="fill:#4e6f97;fill-opacity:1;stroke:none"
           d="m 95,576 -1,0 0,18 1,0 0,-18 z"
           id="path3972"
           transform="translate(0,452.36218)" />
        <path
           style="fill:#4e6f97;fill-opacity:0.69803923;stroke:none"
           d="m 94,576 -1,0 0,18 1,0 0,-18 z"
           id="path3974"
           transform="translate(0,452.36218)" />
      </g>
      <rect
         style="fill:#282d38;fill-opacity:1;stroke:none"
         id="rect3976"
         width="1"
         height="17.999981"
         x="44"
         y="989.36212" />
    </g>
    <g
       transform="translate(0,25.00004)"
       id="hover-left"
       style="fill:#4e6f97;fill-opacity:1">
      <g
         transform="translate(-51,-39.00004)"
         id="g3980"
         style="fill:#4e6f97;fill-opacity:1">
        <path
           style="fill:#4e6f97;fill-opacity:1;stroke:none"
           d="m 67,576 -1,0 0,18 1,0 0,-18 z"
           id="path3982"
           transform="translate(0,452.36218)" />
        <path
           style="fill:#4e6f97;fill-opacity:0.69803923;stroke:none"
           d="m 68,576 -1,0 0,18 1,0 0,-18 z"
           id="path3984"
           transform="translate(0,452.36218)" />
      </g>
      <rect
         y="989.36212"
         x="14"
         height="17.999981"
         width="1"
         id="rect3986"
         style="fill:#282d38;fill-opacity:1;stroke:none" />
    </g>
    <g
       transform="translate(0,25.00004)"
       id="hover-bottom"
       style="fill:#4e6f97;fill-opacity:1">
      <g
         transform="translate(-51,-39.00004)"
         id="g3990"
         style="fill:#4e6f97;fill-opacity:1">
        <path
           style="fill:#4e6f97;fill-opacity:1;stroke:none"
           d="m 68,595 0,0.875 c 0,0.0508 0.05923,0.0751 0.0625,0.125 l 24.875,0 C 92.940768,595.95011 93,595.9258 93,595.875 L 93,595 68,595 z"
           id="path3992"
           transform="translate(0,452.36218)" />
        <path
           style="fill:#4e6f97;fill-opacity:0.69803923;stroke:none"
           d="m 93,1046.3622 -25,0 0,1 25,0 0,-1 z"
           id="path3994" />
      </g>
      <rect
         transform="matrix(0,-1,1,0,0,0)"
         style="fill:#282d38;fill-opacity:1;stroke:none"
         id="rect3996"
         width="1"
         height="24.999998"
         x="-1010.3622"
         y="17" />
    </g>
    <g
       transform="translate(0,25.00004)"
       id="hover-bottomleft"
       style="fill:#4e6f97;fill-opacity:1">
      <g
         transform="translate(-51,-39.00004)"
         id="g4000"
         style="fill:#4e6f97;fill-opacity:1">
        <path
           style="fill:#4e6f97;fill-opacity:1;stroke:none"
           d="m 67,594 -1,0 0,2 2.0625,0 C 68.059232,595.95011 68,595.9258 68,595.875 l 0,-0.875 -1,0 0,-1 z"
           id="path4002"
           transform="translate(0,452.36218)" />
        <path
           style="fill:#4e6f97;fill-opacity:0.69803923;stroke:none"
           d="m 68,594 -1,0 0,1 1,0 0,-1 z"
           id="path4004"
           transform="translate(0,452.36218)" />
      </g>
      <path
         style="fill:#282d38;fill-opacity:1;stroke:none"
         d="m 14,80 0,3 3,0 0,-1 -2,0 0,-2 -1,0 z"
         transform="translate(0,927.36214)"
         id="rect4006"
         sodipodi:nodetypes="ccccccc" />
    </g>
    <g
       transform="translate(0,25.00004)"
       id="hover-topleft"
       style="fill:#4e6f97;fill-opacity:1">
      <g
         transform="translate(-21,24.99996)"
         id="g4010"
         style="fill:#4e6f97;fill-opacity:1">
        <g
           id="g4012"
           transform="translate(-30,-64)"
           style="fill:#4e6f97;fill-opacity:1">
          <path
             transform="translate(0,452.36218)"
             id="path4014"
             d="m 66,574 0,2 1,0 0,-1 1,0 0,-1 -2,0 z"
             style="fill:#4e6f97;fill-opacity:1;stroke:none" />
          <path
             transform="translate(0,452.36218)"
             id="path4016"
             d="m 67,575 0,1 1,0 0,-1 -1,0 z"
             style="fill:#4e6f97;fill-opacity:0.69803923;stroke:none" />
        </g>
      </g>
      <path
         style="fill:#282d38;fill-opacity:1;stroke:none"
         d="m 14,59 0,3 1,0 0,-2 2,0 0,-1 -3,0 z"
         transform="translate(0,927.36214)"
         id="rect4020"
         sodipodi:nodetypes="ccccccc" />
    </g>
    <g
       transform="translate(0,25.00004)"
       id="hover-topright"
       style="fill:#4e6f97;fill-opacity:1">
      <g
         transform="translate(-21,24.99996)"
         id="g4024"
         style="fill:#4e6f97;fill-opacity:1">
        <g
           id="g4026"
           transform="translate(-30,-64)"
           style="fill:#4e6f97;fill-opacity:1">
          <path
             transform="translate(0,452.36218)"
             id="path4028"
             d="m 93,574 0,1 1,0 0,1 1,0 0,-2 -2,0 z"
             style="fill:#4e6f97;fill-opacity:1;stroke:none" />
          <path
             transform="translate(0,452.36218)"
             id="path4030"
             d="m 93,575 0,1 1,0 0,-1 -1,0 z"
             style="fill:#4e6f97;fill-opacity:0.69803923;stroke:none" />
        </g>
      </g>
      <path
         style="fill:#282d38;fill-opacity:1;stroke:none"
         d="m 42,59 0,1 2,0 0,2 1,0 0,-3 -3,0 z"
         transform="translate(0,927.36214)"
         id="rect4034"
         sodipodi:nodetypes="ccccccc" />
    </g>
    <g
       transform="translate(0,25.00004)"
       id="hover-bottomright"
       style="fill:#4e6f97;fill-opacity:1">
      <g
         transform="translate(-51,-39.00004)"
         id="g4038"
         style="fill:#4e6f97;fill-opacity:1">
        <g
           id="g4040"
           style="fill:#4e6f97;fill-opacity:1">
          <path
             transform="translate(0,452.36218)"
             id="path4042"
             d="m 95,594 -1,0 0,1 -1,0 0,0.875 c 0,0.0508 -0.05923,0.0751 -0.0625,0.125 l 2.0625,0 0,-2 z"
             style="fill:#4e6f97;fill-opacity:1;stroke:none" />
          <path
             transform="translate(0,452.36218)"
             id="path4044"
             d="m 94,594 -1,0 0,1 1,0 0,-1 z"
             style="fill:#4e6f97;fill-opacity:0.69803923;stroke:none" />
        </g>
      </g>
      <path
         style="fill:#282d38;fill-opacity:1;stroke:none"
         d="m 42,82 0,1 3,0 0,-3 -1,0 0,2 -2,0 z"
         transform="translate(0,927.36214)"
         id="rect4046"
         sodipodi:nodetypes="ccccccc" />
    </g>
  </g>
</svg>
