<?xml version="1.0" encoding="UTF-8" standalone="no"?>
<svg
   version="1.1"
   id="svg2"
   viewBox="0 0 22 22"
   inkscape:version="1.3.2 (091e20ef0f, 2023-11-25)"
   sodipodi:docname="cantata-symbolic.svg"
   width="22"
   height="22"
   xmlns:inkscape="http://www.inkscape.org/namespaces/inkscape"
   xmlns:sodipodi="http://sodipodi.sourceforge.net/DTD/sodipodi-0.dtd"
   xmlns="http://www.w3.org/2000/svg"
   xmlns:svg="http://www.w3.org/2000/svg"
   xmlns:rdf="http://www.w3.org/1999/02/22-rdf-syntax-ns#"
   xmlns:cc="http://creativecommons.org/ns#"
   xmlns:dc="http://purl.org/dc/elements/1.1/">
  <sodipodi:namedview
     pagecolor="#02334b"
     bordercolor="#000000"
     borderopacity="1"
     objecttolerance="10"
     gridtolerance="10"
     guidetolerance="10"
     inkscape:pageopacity="0"
     inkscape:pageshadow="2"
     inkscape:window-width="1920"
     inkscape:window-height="994"
     id="namedview14"
     showgrid="true"
     inkscape:zoom="7.375"
     inkscape:cx="11.254237"
     inkscape:cy="22.237288"
     inkscape:window-x="0"
     inkscape:window-y="0"
     inkscape:window-maximized="1"
     inkscape:current-layer="svg2"
     inkscape:lockguides="true"
     inkscape:document-rotation="0"
     inkscape:showpageshadow="true"
     inkscape:pagecheckerboard="true"
     inkscape:deskcolor="#02334b">
    <inkscape:grid
       type="xygrid"
       id="grid838"
       originx="-25"
       originy="-35"
       spacingy="1"
       spacingx="1"
       units="px"
       visible="true" />
  </sodipodi:namedview>
  <metadata
     id="metadata20">
    <rdf:RDF>
      <cc:Work
         rdf:about="">
        <dc:format>image/svg+xml</dc:format>
        <dc:type
           rdf:resource="http://purl.org/dc/dcmitype/StillImage" />
      </cc:Work>
    </rdf:RDF>
  </metadata>
  <defs
     id="defs3051">
    <style
       id="current-color-scheme"
       type="text/css">
      .ColorScheme-Text {
        color:#31363b;
      }
      </style>
  </defs>
  <g
     id="22-22-cantata-3">
    <path
       id="path11"
       d="M 0,0 V 22 H 22 V 0 Z"
       style="fill:none" />
    <path
       d="m 17.624375,12.358031 -2.966312,-1.328968 c -0.04981,-0.01685 -0.102532,-0.02856 -0.158188,-0.02856 -0.275875,0 -0.5005,0.22375 -0.5005,0.500125 v 4.5 C 13.999375,17.656875 12.656594,19 10.999751,19 9.342532,19 8.0000007,17.656875 8.0000007,16.000625 c 0,-0.828625 0.335218,-1.578125 0.8784053,-2.121594 l 0.0022,0.0025 c 0.090813,-0.09081 0.215344,-0.146969 0.3532813,-0.146969 0.2763757,0 0.5000007,0.223625 0.5000007,0.5 0,0.1465 -0.06372,0.276375 -0.163563,0.367688 -0.353749,0.361783 -0.5708117,0.85347 -0.5708117,1.398408 0,1.1045 0.8959997,1.9995 2.0002497,1.9995 1.104626,0 1.999626,-0.895031 1.999626,-1.9995 V 13.76822 13.000158 11.425939 c 0,-0.787 0.638687,-1.425656 1.42628,-1.425656 0.191407,0 0.371594,0.03931 0.538094,0.107656 l 2.536125,1.228157 c 0.275875,0.127937 0.4995,0.0078 0.4995,-0.268438 v -1.7495 c 0,-0.276375 -0.223625,-0.60375 -0.4995,-0.732188 l -3,-1.453125 c -0.275875,-0.127937 -0.5005,-0.0078 -0.5005,0.268563 v 1.098875 c 0,0.276375 -0.223625,0.5 -0.499999,0.5 -0.275876,0 -0.5,-0.223625 -0.5,-0.5 V 6.824002 c 0,-0.729969 0.616218,-1.046625 1.375499,-0.708 l 3.2495,1.456312 c 0.759751,0.338625 1.375625,1.204844 1.375625,1.934812 v 2.142938 c 0,0.729969 -0.615844,1.046875 -1.375625,0.708 z M 16.499875,4.00025 H 5.49975 c -0.2758747,0 -0.5,-0.223875 -0.5,-0.50025 0,-0.275625 0.2241253,-0.5 0.5,-0.5 h 11.000125 c 0.275876,0 0.5,0.224375 0.5,0.5 0,0.276375 -0.224124,0.50025 -0.5,0.50025 z M 3.5,4.00025 C 3.2236247,4.00025 3,3.776375 3,3.5 3,3.224375 3.2236247,3 3.5,3 3.7758747,3 3.9995,3.224375 3.9995,3.5 3.9995,3.776375 3.7758747,4.00025 3.5,4.00025 Z m 0,2.00025 h 6.999751 c 0.276374,0 0.5,0.223625 0.5,0.5 0,0.275875 -0.223626,0.5 -0.5,0.5 H 3.5 c -0.2763753,0 -0.5,-0.224125 -0.5,-0.5 0,-0.276375 0.2236247,-0.5 0.5,-0.5 z m 7.999875,7.499625 c 0,0.276375 -0.224124,0.5 -0.500124,0.5 -0.276376,0 -0.5,-0.223625 -0.5,-0.5 0,-0.275875 0.223624,-0.5 0.5,-0.5 0.276,0 0.500124,0.224125 0.500124,0.5 z M 3.5,9.00025 h 6.999751 c 0.276374,0 0.5,0.223625 0.5,0.5 0,0.276375 -0.223626,0.5 -0.5,0.5 H 3.5 c -0.2763753,0 -0.5,-0.223625 -0.5,-0.5 0,-0.276375 0.2236247,-0.5 0.5,-0.5 z m 0,2.999875 h 2.99975 c 0.2758747,0 0.5,0.224125 0.5,0.5 0,0.276375 -0.2241253,0.5 -0.5,0.5 H 3.5 c -0.2763753,0 -0.5,-0.223625 -0.5,-0.5 0,-0.275875 0.2236247,-0.5 0.5,-0.5 z"
       id="path2-3"
       style="fill:#eff0f1;fill-opacity:1;stroke-width:0.03125" />
  </g>
</svg>
